<svg width="562" height="315" viewBox="0 0 562 315" fill="none" xmlns="http://www.w3.org/2000/svg">
<g clip-path="url(#clip0_1144_203)">
<rect y="26" width="480" height="80" rx="10" fill="#37A3E2"/>
<path d="M44.9176 58.8588H47.0008V73.4097H44.9176V58.8588ZM42.3489 64.4348H45.3875V66.1264H42.3489V64.4348ZM38.1825 62.6492H39.7958V63.4011C39.7958 64.1633 39.7123 64.9151 39.5452 65.6565C39.3886 66.3979 39.1432 67.0975 38.8091 67.7554C38.4854 68.4132 38.0729 68.9979 37.5717 69.5096C37.0809 70.0213 36.5066 70.4233 35.8488 70.7156L34.7367 69.1024C35.3215 68.8413 35.8279 68.502 36.256 68.0843C36.6946 67.6562 37.0548 67.1863 37.3368 66.6746C37.6187 66.1525 37.8275 65.6148 37.9633 65.0613C38.1095 64.4975 38.1825 63.944 38.1825 63.4011V62.6492ZM38.6211 62.6492H40.2501V63.4011C40.2501 63.9127 40.3179 64.44 40.4537 64.983C40.5999 65.5156 40.8139 66.0324 41.0958 66.5336C41.3778 67.0244 41.7328 67.4734 42.1609 67.8807C42.5995 68.2879 43.1111 68.622 43.6959 68.8831L42.6152 70.465C41.9469 70.1831 41.3621 69.7968 40.8609 69.306C40.3701 68.8152 39.9577 68.2513 39.6235 67.6144C39.2894 66.9774 39.0388 66.3039 38.8717 65.5939C38.7046 64.8734 38.6211 64.1424 38.6211 63.4011V62.6492ZM35.2223 61.2396H43.132V62.8842H35.2223V61.2396ZM38.1669 59.2191H40.2501V62.101H38.1669V59.2191ZM55.6298 59.1564C56.7053 59.1564 57.6347 59.2713 58.4178 59.501C59.2009 59.7203 59.8066 60.044 60.2347 60.4721C60.6733 60.8898 60.8925 61.391 60.8925 61.9757C60.8925 62.5605 60.6733 63.0669 60.2347 63.495C59.8066 63.9127 59.2009 64.2364 58.4178 64.4661C57.6347 64.6959 56.7053 64.8107 55.6298 64.8107C54.5752 64.8107 53.6511 64.6959 52.8575 64.4661C52.0639 64.2364 51.453 63.9127 51.0249 63.495C50.5968 63.0669 50.3827 62.5605 50.3827 61.9757C50.3827 61.391 50.5968 60.8898 51.0249 60.4721C51.453 60.044 52.0639 59.7203 52.8575 59.501C53.6511 59.2713 54.5752 59.1564 55.6298 59.1564ZM55.6298 60.754C54.9824 60.754 54.4238 60.801 53.9539 60.895C53.484 60.9785 53.129 61.1091 52.8888 61.2866C52.6591 61.4641 52.5442 61.6938 52.5442 61.9757C52.5442 62.2472 52.6591 62.477 52.8888 62.6649C53.129 62.8424 53.484 62.9782 53.9539 63.0721C54.4238 63.1557 54.9824 63.1974 55.6298 63.1974C56.2981 63.1974 56.862 63.1557 57.3214 63.0721C57.7808 62.9782 58.1306 62.8424 58.3708 62.6649C58.611 62.477 58.7311 62.2472 58.7311 61.9757C58.7311 61.6938 58.611 61.4641 58.3708 61.2866C58.1306 61.1091 57.7808 60.9785 57.3214 60.895C56.862 60.801 56.2981 60.754 55.6298 60.754ZM50.602 68.2879H60.6263V73.2374H50.602V68.2879ZM58.5901 69.9325H52.6382V71.5928H58.5901V69.9325ZM49.067 65.6409H62.1926V67.2698H49.067V65.6409ZM69.1457 62.8059H71.3698V64.4818H69.1457V62.8059ZM66.6866 59.9239C67.334 59.9239 67.9031 60.0805 68.3938 60.3938C68.8951 60.707 69.2866 61.1404 69.5686 61.6938C69.8609 62.2368 70.0071 62.8685 70.0071 63.589C70.0071 64.2991 69.8609 64.9308 69.5686 65.4842C69.2866 66.0377 68.8951 66.471 68.3938 66.7843C67.9031 67.0975 67.334 67.2541 66.6866 67.2541C66.0496 67.2541 65.4805 67.0975 64.9793 66.7843C64.4781 66.471 64.0865 66.0377 63.8046 65.4842C63.5227 64.9308 63.3817 64.2991 63.3817 63.589C63.3817 62.8685 63.5227 62.2368 63.8046 61.6938C64.0865 61.1404 64.4781 60.707 64.9793 60.3938C65.4805 60.0805 66.0496 59.9239 66.6866 59.9239ZM66.6866 61.7251C66.4047 61.7251 66.1541 61.7982 65.9348 61.9444C65.7155 62.0906 65.5432 62.3047 65.4179 62.5866C65.303 62.8581 65.2456 63.1922 65.2456 63.589C65.2456 63.9858 65.303 64.3252 65.4179 64.6071C65.5432 64.889 65.7155 65.1031 65.9348 65.2493C66.1541 65.3955 66.4047 65.4686 66.6866 65.4686C66.9685 65.4686 67.2191 65.3955 67.4384 65.2493C67.6577 65.1031 67.83 64.889 67.9553 64.6071C68.0806 64.3252 68.1432 63.9858 68.1432 63.589C68.1432 63.1922 68.0806 62.8581 67.9553 62.5866C67.83 62.3047 67.6577 62.0906 67.4384 61.9444C67.2191 61.7982 66.9685 61.7251 66.6866 61.7251ZM73.7036 58.8901H75.6928V69.6662H73.7036V58.8901ZM70.8373 59.1251H72.7951V69.2433H70.8373V59.1251ZM65.9191 71.4675H76.053V73.1434H65.9191V71.4675ZM65.9191 68.3036H68.0179V72.3446H65.9191V68.3036ZM85.4615 59.8769C86.182 59.8769 86.8242 60.091 87.3881 60.5191C87.9624 60.9368 88.4061 61.5372 88.7194 62.3203C89.0431 63.093 89.205 64.0067 89.205 65.0613C89.205 66.1264 89.0431 67.0505 88.7194 67.8337C88.4061 68.6064 87.9624 69.2068 87.3881 69.6349C86.8242 70.0526 86.182 70.2614 85.4615 70.2614C84.741 70.2614 84.0988 70.0526 83.535 69.6349C82.9711 69.2068 82.5273 68.6064 82.2036 67.8337C81.8799 67.0505 81.7181 66.1264 81.7181 65.0613C81.7181 64.0067 81.8799 63.093 82.2036 62.3203C82.5273 61.5372 82.9711 60.9368 83.535 60.5191C84.0988 60.091 84.741 59.8769 85.4615 59.8769ZM85.4615 61.7721C85.1169 61.7721 84.8089 61.8974 84.5374 62.148C84.2764 62.3986 84.0727 62.7693 83.9266 63.2601C83.7804 63.7404 83.7073 64.3408 83.7073 65.0613C83.7073 65.7714 83.7804 66.377 83.9266 66.8782C84.0727 67.369 84.2764 67.7397 84.5374 67.9903C84.8089 68.2409 85.1169 68.3662 85.4615 68.3662C85.827 68.3662 86.1402 68.2409 86.4013 67.9903C86.6623 67.7397 86.866 67.369 87.0121 66.8782C87.1583 66.377 87.2314 65.7714 87.2314 65.0613C87.2314 64.3408 87.1583 63.7404 87.0121 63.2601C86.866 62.7693 86.6623 62.3986 86.4013 62.148C86.1402 61.8974 85.827 61.7721 85.4615 61.7721ZM91.5857 58.8588H93.6689V73.4097H91.5857V58.8588ZM88.5941 64.1059H92.4628V65.7662H88.5941V64.1059ZM98.3509 59.7046H99.9798V61.3805C99.9798 62.2055 99.8649 63.0095 99.6352 63.7926C99.4055 64.5758 99.0453 65.2754 98.5545 65.8915C98.0742 66.5075 97.4372 66.9879 96.6436 67.3325L95.5472 65.7192C96.2155 65.4164 96.7532 65.03 97.1605 64.5601C97.5782 64.0902 97.881 63.5786 98.0689 63.0252C98.2569 62.4717 98.3509 61.9235 98.3509 61.3805V59.7046ZM98.7424 59.7046H100.371V61.3805C100.371 61.9131 100.46 62.4352 100.638 62.9468C100.815 63.4481 101.102 63.9075 101.499 64.3252C101.896 64.7429 102.413 65.0874 103.05 65.3589L101.953 66.9409C101.202 66.6276 100.585 66.1891 100.105 65.6252C99.6352 65.0509 99.2906 64.4035 99.0714 63.683C98.8521 62.9521 98.7424 62.1846 98.7424 61.3805V59.7046ZM106.12 58.8901H108.109V67.6927H106.12V58.8901ZM104.397 62.4143H106.699V64.0902H104.397V62.4143ZM103.065 59.1094H105.008V67.6144H103.065V59.1094ZM98.1316 68.3192H108.109V73.394H106.026V69.9795H98.1316V68.3192ZM120.372 58.8901H122.361V67.818H120.372V58.8901ZM118.617 62.6023H120.92V64.2782H118.617V62.6023ZM117.38 59.0781H119.322V67.6614H117.38V59.0781ZM109.925 60.2841H116.973V61.8818H109.925V60.2841ZM113.464 62.336C114.08 62.336 114.623 62.4456 115.093 62.6649C115.563 62.8737 115.929 63.1713 116.19 63.5577C116.461 63.9336 116.597 64.3722 116.597 64.8734C116.597 65.3641 116.461 65.8027 116.19 66.1891C115.929 66.565 115.563 66.8626 115.093 67.0818C114.623 67.2907 114.08 67.3951 113.464 67.3951C112.869 67.3951 112.331 67.2907 111.851 67.0818C111.381 66.8626 111.01 66.565 110.739 66.1891C110.468 65.8027 110.332 65.3641 110.332 64.8734C110.332 64.3722 110.468 63.9336 110.739 63.5577C111.01 63.1713 111.381 62.8737 111.851 62.6649C112.331 62.4456 112.869 62.336 113.464 62.336ZM113.464 63.824C113.088 63.824 112.78 63.9127 112.54 64.0902C112.311 64.2677 112.196 64.5288 112.196 64.8734C112.196 65.2075 112.311 65.4686 112.54 65.6565C112.78 65.834 113.088 65.9228 113.464 65.9228C113.84 65.9228 114.148 65.834 114.388 65.6565C114.629 65.4686 114.749 65.2075 114.749 64.8734C114.749 64.5288 114.629 64.2677 114.388 64.0902C114.148 63.9127 113.84 63.824 113.464 63.824ZM112.431 58.9841H114.482V61.4119H112.431V58.9841ZM113.496 68.2722H115.062V68.5542C115.062 69.2329 114.942 69.8855 114.702 70.512C114.472 71.1281 114.117 71.6711 113.637 72.141C113.156 72.6109 112.535 72.9659 111.773 73.206L110.802 71.6867C111.439 71.4988 111.95 71.243 112.337 70.9193C112.733 70.5851 113.026 70.2144 113.214 69.8072C113.402 69.4 113.496 68.9823 113.496 68.5542V68.2722ZM114.028 68.2722H115.516V68.5542C115.516 68.9823 115.6 69.4104 115.767 69.8385C115.934 70.2562 116.195 70.6373 116.55 70.9819C116.905 71.3265 117.37 71.6084 117.944 71.8277L117.129 73.347C116.378 73.086 115.772 72.7048 115.313 72.2036C114.864 71.7024 114.535 71.1385 114.326 70.512C114.127 69.8751 114.028 69.2224 114.028 68.5542V68.2722ZM118.727 68.2722H120.215V68.5542C120.215 69.1702 120.111 69.802 119.902 70.4494C119.693 71.0863 119.364 71.6606 118.915 72.1723C118.466 72.6839 117.871 73.0755 117.129 73.347L116.299 71.8277C116.874 71.5875 117.338 71.2899 117.693 70.9349C118.048 70.5695 118.309 70.1779 118.476 69.7602C118.644 69.3425 118.727 68.9405 118.727 68.5542V68.2722ZM119.228 68.2722H120.779V68.5542C120.779 69.0032 120.873 69.4365 121.061 69.8542C121.249 70.2719 121.541 70.6425 121.938 70.9662C122.345 71.2795 122.862 71.5197 123.489 71.6867L122.502 73.206C121.74 72.9659 121.118 72.6161 120.638 72.1566C120.158 71.7076 119.803 71.1751 119.573 70.559C119.343 69.9429 119.228 69.2747 119.228 68.5542V68.2722ZM125.868 62.7902H135.924V64.4505H125.868V62.7902ZM124.255 65.9541H137.38V67.6144H124.255V65.9541ZM125.868 59.3914H127.951V63.6203H125.868V59.3914ZM125.743 71.4048H136.002V73.0807H125.743V71.4048ZM125.743 68.7578H127.826V71.859H125.743V68.7578ZM148.985 58.8745H150.959V73.3783H148.985V58.8745ZM143.472 64.1685H146.84V65.8445H143.472V64.1685ZM145.978 59.1408H147.92V72.7518H145.978V59.1408ZM138.914 68.4602H139.932C140.611 68.4602 141.227 68.4497 141.78 68.4289C142.344 68.408 142.877 68.3714 143.378 68.3192C143.89 68.267 144.407 68.1887 144.929 68.0843L145.101 69.7759C144.558 69.8907 144.025 69.9743 143.503 70.0265C142.981 70.0787 142.428 70.1152 141.843 70.1361C141.269 70.157 140.632 70.1674 139.932 70.1674H138.914V68.4602ZM138.914 60.5191H144.459V62.1637H140.966V69.1807H138.914V60.5191ZM155.625 70.3554C155.489 70.9088 155.296 71.5144 155.046 72.1723C154.795 72.8301 154.539 73.4462 154.278 74.0205H152.602C152.748 73.4044 152.895 72.7466 153.041 72.047C153.187 71.3474 153.297 70.7261 153.37 70.1831H155.516L155.625 70.3554ZM168.342 63.3227C168.342 64.0955 168.107 64.7115 167.637 65.171C167.178 65.6304 166.609 65.9437 165.93 66.1107V66.1577C166.828 66.2622 167.507 66.5336 167.966 66.9722C168.436 67.4108 168.671 68.0007 168.671 68.7421C168.671 69.3895 168.509 69.9743 168.186 70.4964C167.872 71.008 167.382 71.4153 166.713 71.7181C166.055 72.0104 165.204 72.1566 164.16 72.1566C162.949 72.1566 161.873 71.953 160.934 71.5458V69.5409C161.414 69.7811 161.915 69.9638 162.437 70.0891C162.97 70.2144 163.461 70.2771 163.91 70.2771C164.755 70.2771 165.345 70.1309 165.68 69.8385C166.024 69.5461 166.196 69.1337 166.196 68.6011C166.196 68.2879 166.118 68.0268 165.962 67.818C165.805 67.5987 165.528 67.4369 165.131 67.3325C164.745 67.2176 164.202 67.1602 163.502 67.1602H162.657V65.3433H163.518C164.207 65.3433 164.729 65.2806 165.084 65.1553C165.45 65.0196 165.695 64.8421 165.821 64.6228C165.956 64.393 166.024 64.132 166.024 63.8396C166.024 63.4428 165.899 63.1348 165.648 62.9155C165.408 62.6858 165.001 62.5709 164.427 62.5709C163.894 62.5709 163.429 62.6649 163.033 62.8529C162.646 63.0304 162.317 63.2079 162.046 63.3854L160.949 61.7565C161.388 61.4432 161.9 61.1822 162.484 60.9733C163.08 60.7645 163.784 60.6601 164.599 60.6601C165.747 60.6601 166.656 60.895 167.324 61.3649C168.003 61.8243 168.342 62.477 168.342 63.3227ZM176.632 62.7276H180.36V64.4035H176.632V62.7276ZM179.827 58.8901H181.926V69.5879H179.827V58.8901ZM172.325 71.4675H182.239V73.1434H172.325V71.4675ZM172.325 68.5385H174.408V72.4229H172.325V68.5385ZM170.383 59.8456H172.45V62.0384H175.207V59.8456H177.259V67.3325H170.383V59.8456ZM172.45 63.636V65.6722H175.207V63.636H172.45ZM190.473 62.8842H192.055V63.2601C192.055 64.0119 191.993 64.7585 191.867 65.4999C191.752 66.2308 191.564 66.9252 191.303 67.5831C191.053 68.2305 190.724 68.8204 190.317 69.353C189.92 69.8751 189.429 70.298 188.844 70.6217L187.67 69.0554C188.181 68.7526 188.615 68.3871 188.97 67.959C189.335 67.5309 189.627 67.061 189.847 66.5493C190.066 66.0272 190.223 65.4895 190.317 64.936C190.421 64.3722 190.473 63.8135 190.473 63.2601V62.8842ZM190.88 62.8842H192.462V63.2601C192.462 63.8031 192.509 64.3461 192.603 64.889C192.708 65.4216 192.87 65.928 193.089 66.4083C193.308 66.8887 193.595 67.3325 193.95 67.7397C194.305 68.1365 194.739 68.4706 195.25 68.7421L194.123 70.2927C193.35 69.8855 192.723 69.3216 192.243 68.6011C191.763 67.8702 191.413 67.0453 191.194 66.1264C190.985 65.2075 190.88 64.2521 190.88 63.2601V62.8842ZM188.155 61.3336H194.765V63.0095H188.155V61.3336ZM190.473 59.36H192.462V62.6649H190.473V59.36ZM198.524 58.8745H200.513V73.3783H198.524V58.8745ZM196.801 64.4348H199.197V66.1264H196.801V64.4348ZM195.407 59.1094H197.349V72.7362H195.407V59.1094ZM202.204 66.9879H215.329V68.6638H202.204V66.9879ZM207.67 68.0843H209.753V73.394H207.67V68.0843ZM208.735 59.3757C209.769 59.3757 210.677 59.5114 211.46 59.7829C212.254 60.044 212.87 60.4199 213.309 60.9107C213.747 61.4014 213.966 61.9757 213.966 62.6336C213.966 63.3019 213.747 63.8814 213.309 64.3722C212.87 64.8525 212.254 65.2284 211.46 65.4999C210.677 65.7609 209.769 65.8915 208.735 65.8915C207.701 65.8915 206.788 65.7609 205.994 65.4999C205.211 65.2284 204.595 64.8525 204.146 64.3722C203.707 63.8814 203.488 63.3019 203.488 62.6336C203.488 61.9757 203.707 61.4014 204.146 60.9107C204.595 60.4199 205.211 60.044 205.994 59.7829C206.788 59.5114 207.701 59.3757 208.735 59.3757ZM208.719 61.0203C208.093 61.0203 207.545 61.083 207.075 61.2083C206.615 61.3336 206.26 61.5163 206.01 61.7565C205.759 61.9862 205.634 62.2786 205.634 62.6336C205.634 62.9782 205.759 63.2705 206.01 63.5107C206.26 63.7509 206.615 63.9336 207.075 64.0589C207.545 64.1738 208.093 64.2312 208.719 64.2312C209.367 64.2312 209.92 64.1738 210.38 64.0589C210.839 63.9336 211.194 63.7509 211.445 63.5107C211.706 63.2705 211.836 62.9782 211.836 62.6336C211.836 62.2786 211.706 61.9862 211.445 61.7565C211.194 61.5163 210.839 61.3336 210.38 61.2083C209.92 61.083 209.367 61.0203 208.719 61.0203ZM226.511 58.8588H228.579V73.4097H226.511V58.8588ZM224.115 61.9601H226.856V63.6203H224.115V61.9601ZM216.941 68.4758H218.1C218.821 68.4758 219.505 68.4706 220.152 68.4602C220.799 68.4393 221.447 68.4028 222.094 68.3505C222.742 68.2983 223.415 68.22 224.115 68.1156L224.271 69.8072C223.561 69.9221 222.872 70.0056 222.204 70.0578C221.546 70.11 220.883 70.1466 220.215 70.1674C219.546 70.1883 218.842 70.1988 218.1 70.1988H216.941V68.4758ZM216.925 60.0962H223.394V65.7035H219.009V68.8674H216.941V64.0746H221.342V61.7408H216.925V60.0962ZM224.083 65.9071H226.824V67.5674H224.083V65.9071ZM232.055 60.1119H241.233V61.7721H232.055V60.1119ZM230.708 69.9482H243.833V71.6398H230.708V69.9482ZM235.344 64.9674H237.443V70.794H235.344V64.9674ZM240.481 60.1119H242.58V61.4902C242.58 62.0958 242.57 62.738 242.549 63.4167C242.538 64.0955 242.491 64.8473 242.408 65.6722C242.335 66.4971 242.199 67.4212 242.001 68.4445L239.917 68.2252C240.21 66.7738 240.377 65.5103 240.419 64.4348C240.46 63.3489 240.481 62.3673 240.481 61.4902V60.1119ZM259.695 64.3565H262.248V66.0794H259.695V64.3565ZM258.128 58.8588H260.227V73.3627H258.128V58.8588ZM249.31 60.2528H251.378V69.2747H249.31V60.2528ZM249.31 68.0999H250.548C251.581 68.0999 252.657 68.0582 253.774 67.9746C254.891 67.8911 256.035 67.7345 257.204 67.5047L257.424 69.1963C256.212 69.4469 255.032 69.6192 253.884 69.7132C252.735 69.7968 251.623 69.8385 250.548 69.8385H249.31V68.0999ZM272.38 58.8588H274.479V73.3627H272.38V58.8588ZM273.947 64.4192H276.5V66.1264H273.947V64.4192ZM268.574 60.3625H270.626C270.626 61.8139 270.417 63.187 270 64.4818C269.592 65.7766 268.914 66.967 267.963 68.0529C267.024 69.1285 265.75 70.0682 264.142 70.8723L262.967 69.2903C264.241 68.6325 265.29 67.8911 266.115 67.0662C266.951 66.2413 267.567 65.3067 267.963 64.2625C268.371 63.2079 268.574 62.0332 268.574 60.7384V60.3625ZM263.766 60.3625H269.655V62.0384H263.766V60.3625ZM286.632 58.8588H288.731V73.4097H286.632V58.8588ZM288.277 64.2312H290.83V65.9541H288.277V64.2312ZM277.924 68.2096H279.146C279.97 68.2096 280.743 68.1991 281.464 68.1783C282.184 68.1469 282.884 68.0999 283.563 68.0373C284.241 67.9642 284.936 67.865 285.646 67.7397L285.849 69.4626C285.118 69.5879 284.398 69.6871 283.688 69.7602C282.988 69.8333 282.268 69.8803 281.526 69.9012C280.785 69.9221 279.991 69.9325 279.146 69.9325H277.924V68.2096ZM277.924 60.2058H284.69V61.8818H280.007V69.024H277.924V60.2058ZM291.628 70.0108H304.769V71.7024H291.628V70.0108ZM297.141 66.9096H299.209V70.418H297.141V66.9096ZM293.006 59.7986H295.089V62.0384H301.26V59.7986H303.328V67.3481H293.006V59.7986ZM295.089 63.6673V65.6878H301.26V63.6673H295.089ZM315.92 58.8745H317.987V73.3783H315.92V58.8745ZM306.632 60.2528H308.715V69.2747H306.632V60.2528ZM306.632 68.0373H307.916C308.981 68.0373 310.093 67.9955 311.252 67.912C312.411 67.818 313.591 67.6509 314.792 67.4108L315.011 69.1494C313.779 69.4104 312.563 69.5879 311.362 69.6819C310.171 69.7654 309.023 69.8072 307.916 69.8072H306.632V68.0373ZM328.007 59.8769C328.727 59.8769 329.369 60.091 329.933 60.5191C330.507 60.9368 330.951 61.5372 331.264 62.3203C331.588 63.093 331.75 64.0067 331.75 65.0613C331.75 66.1264 331.588 67.0505 331.264 67.8337C330.951 68.6064 330.507 69.2068 329.933 69.6349C329.369 70.0526 328.727 70.2614 328.007 70.2614C327.286 70.2614 326.644 70.0526 326.08 69.6349C325.516 69.2068 325.072 68.6064 324.749 67.8337C324.425 67.0505 324.263 66.1264 324.263 65.0613C324.263 64.0067 324.425 63.093 324.749 62.3203C325.072 61.5372 325.516 60.9368 326.08 60.5191C326.644 60.091 327.286 59.8769 328.007 59.8769ZM328.007 61.7721C327.662 61.7721 327.354 61.8974 327.082 62.148C326.821 62.3986 326.618 62.7693 326.472 63.2601C326.325 63.7404 326.252 64.3408 326.252 65.0613C326.252 65.7714 326.325 66.377 326.472 66.8782C326.618 67.369 326.821 67.7397 327.082 67.9903C327.354 68.2409 327.662 68.3662 328.007 68.3662C328.372 68.3662 328.685 68.2409 328.946 67.9903C329.207 67.7397 329.411 67.369 329.557 66.8782C329.703 66.377 329.776 65.7714 329.776 65.0613C329.776 64.3408 329.703 63.7404 329.557 63.2601C329.411 62.7693 329.207 62.3986 328.946 62.148C328.685 61.8974 328.372 61.7721 328.007 61.7721ZM334.131 58.8588H336.214V73.4097H334.131V58.8588ZM331.139 64.1059H335.008V65.7662H331.139V64.1059ZM339.752 65.2963H350.027V66.9879H339.752V65.2963ZM338.296 69.9795H351.437V71.6711H338.296V69.9795ZM339.752 60.1432H341.851V65.9698H339.752V60.1432ZM355.211 60.1432H356.808V62.5709C356.808 63.4063 356.745 64.2208 356.62 65.0143C356.505 65.7975 356.317 66.5389 356.056 67.2385C355.795 67.9276 355.456 68.5542 355.038 69.118C354.631 69.6714 354.14 70.1257 353.566 70.4807L352.266 68.9301C352.809 68.6064 353.268 68.2096 353.644 67.7397C354.02 67.2698 354.323 66.7529 354.553 66.1891C354.782 65.6252 354.949 65.0404 355.054 64.4348C355.158 63.8187 355.211 63.1974 355.211 62.5709V60.1432ZM355.618 60.1432H357.231V62.43C357.231 63.0565 357.278 63.6673 357.372 64.2625C357.466 64.8577 357.612 65.4164 357.811 65.9385C358.019 66.4606 358.296 66.9357 358.641 67.3638C358.985 67.7815 359.413 68.126 359.925 68.3975L358.719 70.0578C358.134 69.7237 357.638 69.2955 357.231 68.7734C356.834 68.2513 356.516 67.6562 356.276 66.9879C356.046 66.3196 355.879 65.5991 355.774 64.8264C355.67 64.0537 355.618 63.2549 355.618 62.43V60.1432ZM363.011 58.8745H365V73.3783H363.011V58.8745ZM361.272 64.5131H363.684V66.1891H361.272V64.5131ZM359.894 59.1094H361.836V72.7362H359.894V59.1094ZM374.064 60.3311H375.755V61.2396C375.755 62.148 375.609 63.0199 375.317 63.8553C375.024 64.6802 374.575 65.4007 373.97 66.0168C373.375 66.6328 372.607 67.0923 371.667 67.3951L370.634 65.7505C371.229 65.5521 371.74 65.2963 372.169 64.983C372.607 64.6593 372.962 64.2939 373.234 63.8866C373.516 63.4794 373.724 63.0513 373.86 62.6023C373.996 62.1533 374.064 61.699 374.064 61.2396V60.3311ZM374.502 60.3311H376.163V61.2396C376.163 61.8034 376.277 62.3673 376.507 62.9312C376.737 63.4846 377.092 63.9858 377.572 64.4348C378.063 64.8734 378.69 65.2232 379.452 65.4842L378.434 67.1288C377.536 66.826 376.794 66.377 376.21 65.7818C375.635 65.1866 375.207 64.4975 374.925 63.7143C374.643 62.9207 374.502 62.0958 374.502 61.2396V60.3311ZM378.606 62.336H381.347V64.0276H378.606V62.336ZM371.197 59.6733H378.998V61.3336H371.197V59.6733ZM372.952 68.1626H382.851V73.394H380.752V69.8229H372.952V68.1626ZM380.752 58.8901H382.851V67.5047H380.752V58.8901ZM384.948 65.6409H398.074V67.2855H384.948V65.6409ZM391.48 68.0843C393.046 68.0843 394.278 68.314 395.176 68.7734C396.074 69.2329 396.523 69.8907 396.523 70.747C396.523 71.5928 396.074 72.2454 395.176 72.7048C394.278 73.1643 393.046 73.394 391.48 73.394C389.913 73.394 388.681 73.1643 387.783 72.7048C386.896 72.2454 386.452 71.5928 386.452 70.747C386.452 69.8907 386.896 69.2329 387.783 68.7734C388.681 68.314 389.913 68.0843 391.48 68.0843ZM391.48 69.6506C390.832 69.6506 390.289 69.6923 389.851 69.7759C389.423 69.8594 389.099 69.9795 388.88 70.1361C388.66 70.2927 388.551 70.4964 388.551 70.747C388.551 70.9871 388.66 71.1907 388.88 71.3578C389.099 71.5144 389.423 71.6345 389.851 71.7181C390.289 71.7912 390.832 71.8277 391.48 71.8277C392.127 71.8277 392.665 71.7912 393.093 71.7181C393.532 71.6345 393.86 71.5144 394.08 71.3578C394.299 71.1907 394.409 70.9871 394.409 70.747C394.409 70.4964 394.299 70.2927 394.08 70.1361C393.86 69.9795 393.532 69.8594 393.093 69.7759C392.665 69.6923 392.127 69.6506 391.48 69.6506ZM391.511 59.1877C392.576 59.1877 393.5 59.3026 394.283 59.5323C395.077 59.762 395.688 60.091 396.116 60.5191C396.554 60.9368 396.774 61.4432 396.774 62.0384C396.774 62.6231 396.554 63.1296 396.116 63.5577C395.688 63.9754 395.077 64.3043 394.283 64.5445C393.5 64.7742 392.576 64.889 391.511 64.889C390.456 64.889 389.532 64.7742 388.739 64.5445C387.956 64.3043 387.345 63.9754 386.906 63.5577C386.478 63.1296 386.264 62.6231 386.264 62.0384C386.264 61.4432 386.478 60.9368 386.906 60.5191C387.345 60.091 387.956 59.762 388.739 59.5323C389.532 59.3026 390.456 59.1877 391.511 59.1877ZM391.511 60.7854C390.864 60.7854 390.305 60.8323 389.835 60.9263C389.365 61.0203 389.01 61.1613 388.77 61.3492C388.54 61.5267 388.425 61.7565 388.425 62.0384C388.425 62.3099 388.54 62.5396 388.77 62.7276C389.01 62.9051 389.365 63.0408 389.835 63.1348C390.305 63.2288 390.864 63.2758 391.511 63.2758C392.179 63.2758 392.743 63.2288 393.203 63.1348C393.662 63.0408 394.012 62.9051 394.252 62.7276C394.492 62.5396 394.612 62.3099 394.612 62.0384C394.612 61.7565 394.492 61.5267 394.252 61.3492C394.012 61.1613 393.662 61.0203 393.203 60.9263C392.743 60.8323 392.179 60.7854 391.511 60.7854ZM409.585 58.8901H411.574V67.818H409.585V58.8901ZM407.831 62.6023H410.133V64.2782H407.831V62.6023ZM406.593 59.0781H408.535V67.6614H406.593V59.0781ZM399.138 60.2841H406.186V61.8818H399.138V60.2841ZM402.677 62.336C403.294 62.336 403.836 62.4456 404.306 62.6649C404.776 62.8737 405.142 63.1713 405.403 63.5577C405.674 63.9336 405.81 64.3722 405.81 64.8734C405.81 65.3641 405.674 65.8027 405.403 66.1891C405.142 66.565 404.776 66.8626 404.306 67.0818C403.836 67.2907 403.294 67.3951 402.677 67.3951C402.082 67.3951 401.544 67.2907 401.064 67.0818C400.594 66.8626 400.224 66.565 399.952 66.1891C399.681 65.8027 399.545 65.3641 399.545 64.8734C399.545 64.3722 399.681 63.9336 399.952 63.5577C400.224 63.1713 400.594 62.8737 401.064 62.6649C401.544 62.4456 402.082 62.336 402.677 62.336ZM402.677 63.824C402.302 63.824 401.993 63.9127 401.753 64.0902C401.524 64.2677 401.409 64.5288 401.409 64.8734C401.409 65.2075 401.524 65.4686 401.753 65.6565C401.993 65.834 402.302 65.9228 402.677 65.9228C403.053 65.9228 403.361 65.834 403.602 65.6565C403.842 65.4686 403.962 65.2075 403.962 64.8734C403.962 64.5288 403.842 64.2677 403.602 64.0902C403.361 63.9127 403.053 63.824 402.677 63.824ZM401.644 58.9841H403.696V61.4119H401.644V58.9841ZM402.709 68.2722H404.275V68.5542C404.275 69.2329 404.155 69.8855 403.915 70.512C403.685 71.1281 403.33 71.6711 402.85 72.141C402.369 72.6109 401.748 72.9659 400.986 73.206L400.015 71.6867C400.652 71.4988 401.163 71.243 401.55 70.9193C401.947 70.5851 402.239 70.2144 402.427 69.8072C402.615 69.4 402.709 68.9823 402.709 68.5542V68.2722ZM403.241 68.2722H404.729V68.5542C404.729 68.9823 404.813 69.4104 404.98 69.8385C405.147 70.2562 405.408 70.6373 405.763 70.9819C406.118 71.3265 406.583 71.6084 407.157 71.8277L406.343 73.347C405.591 73.086 404.985 72.7048 404.526 72.2036C404.077 71.7024 403.748 71.1385 403.539 70.512C403.341 69.8751 403.241 69.2224 403.241 68.5542V68.2722ZM407.94 68.2722H409.428V68.5542C409.428 69.1702 409.324 69.802 409.115 70.4494C408.906 71.0863 408.577 71.6606 408.128 72.1723C407.679 72.6839 407.084 73.0755 406.343 73.347L405.512 71.8277C406.087 71.5875 406.551 71.2899 406.906 70.9349C407.261 70.5695 407.523 70.1779 407.69 69.7602C407.857 69.3425 407.94 68.9405 407.94 68.5542V68.2722ZM408.441 68.2722H409.992V68.5542C409.992 69.0032 410.086 69.4365 410.274 69.8542C410.462 70.2719 410.754 70.6425 411.151 70.9662C411.558 71.2795 412.075 71.5197 412.702 71.6867L411.715 73.206C410.953 72.9659 410.331 72.6161 409.851 72.1566C409.371 71.7076 409.016 71.1751 408.786 70.559C408.556 69.9429 408.441 69.2747 408.441 68.5542V68.2722ZM417.431 59.8769C418.151 59.8769 418.793 60.091 419.357 60.5191C419.932 60.9368 420.375 61.5372 420.689 62.3203C421.012 63.093 421.174 64.0067 421.174 65.0613C421.174 66.1264 421.012 67.0505 420.689 67.8337C420.375 68.6064 419.932 69.2068 419.357 69.6349C418.793 70.0526 418.151 70.2614 417.431 70.2614C416.71 70.2614 416.068 70.0526 415.504 69.6349C414.94 69.2068 414.496 68.6064 414.173 67.8337C413.849 67.0505 413.687 66.1264 413.687 65.0613C413.687 64.0067 413.849 63.093 414.173 62.3203C414.496 61.5372 414.94 60.9368 415.504 60.5191C416.068 60.091 416.71 59.8769 417.431 59.8769ZM417.431 61.7721C417.086 61.7721 416.778 61.8974 416.507 62.148C416.246 62.3986 416.042 62.7693 415.896 63.2601C415.75 63.7404 415.676 64.3408 415.676 65.0613C415.676 65.7714 415.75 66.377 415.896 66.8782C416.042 67.369 416.246 67.7397 416.507 67.9903C416.778 68.2409 417.086 68.3662 417.431 68.3662C417.796 68.3662 418.109 68.2409 418.37 67.9903C418.631 67.7397 418.835 67.369 418.981 66.8782C419.127 66.377 419.201 65.7714 419.201 65.0613C419.201 64.3408 419.127 63.7404 418.981 63.2601C418.835 62.7693 418.631 62.3986 418.37 62.148C418.109 61.8974 417.796 61.7721 417.431 61.7721ZM423.555 58.8588H425.638V73.4097H423.555V58.8588ZM420.563 64.1059H424.432V65.7662H420.563V64.1059ZM430.602 66.2517H432.685V70.3084H430.602V66.2517ZM435.865 66.2517H437.948V70.3084H435.865V66.2517ZM427.72 70.0108H440.861V71.7024H427.72V70.0108ZM434.267 59.595C435.311 59.595 436.241 59.7568 437.055 60.0805C437.88 60.4042 438.522 60.8585 438.982 61.4432C439.452 62.0175 439.686 62.7015 439.686 63.495C439.686 64.2782 439.452 64.9621 438.982 65.5469C438.522 66.1212 437.88 66.5702 437.055 66.8939C436.241 67.2176 435.311 67.3794 434.267 67.3794C433.233 67.3794 432.304 67.2176 431.479 66.8939C430.665 66.5702 430.022 66.1212 429.553 65.5469C429.083 64.9621 428.848 64.2782 428.848 63.495C428.848 62.7015 429.083 62.0175 429.553 61.4432C430.022 60.8585 430.665 60.4042 431.479 60.0805C432.304 59.7568 433.233 59.595 434.267 59.595ZM434.267 61.2083C433.599 61.2083 433.009 61.3022 432.497 61.4902C431.996 61.6677 431.604 61.9235 431.322 62.2577C431.041 62.5918 430.9 63.0043 430.9 63.495C430.9 63.9649 431.041 64.3722 431.322 64.7167C431.604 65.0509 431.996 65.3119 432.497 65.4999C433.009 65.6774 433.599 65.7662 434.267 65.7662C434.946 65.7662 435.536 65.6774 436.037 65.4999C436.549 65.3119 436.94 65.0509 437.212 64.7167C437.494 64.3722 437.635 63.9649 437.635 63.495C437.635 63.0043 437.494 62.5918 437.212 62.2577C436.94 61.9235 436.549 61.6677 436.037 61.4902C435.536 61.3022 434.946 61.2083 434.267 61.2083ZM444.509 68.2879H442.646L442.254 60.8167H444.901L444.509 68.2879ZM442.223 70.9036C442.223 70.4233 442.353 70.0891 442.614 69.9012C442.875 69.7028 443.194 69.6036 443.57 69.6036C443.935 69.6036 444.248 69.7028 444.509 69.9012C444.77 70.0891 444.901 70.4233 444.901 70.9036C444.901 71.363 444.77 71.6972 444.509 71.906C444.248 72.1044 443.935 72.2036 443.57 72.2036C443.194 72.2036 442.875 72.1044 442.614 71.906C442.353 71.6972 442.223 71.363 442.223 70.9036Z" fill="white"/>
<rect y="118" width="480" height="80" rx="10" fill="#37A3E2"/>
<path d="M87.9208 151.438H97.0992V153.099H87.9208V151.438ZM86.3075 156.357H99.4487V158.017H86.3075V156.357ZM91.7895 156.983H93.8727V159.928H91.7895V156.983ZM95.8462 151.438H97.8824V152.409C97.8824 152.963 97.8667 153.615 97.8354 154.367C97.8041 155.119 97.684 155.986 97.4751 156.967L95.439 156.764C95.6478 155.803 95.7679 154.973 95.7992 154.273C95.8305 153.574 95.8462 152.952 95.8462 152.409V151.438ZM91.7582 160.476H93.5281V160.867C93.5281 161.421 93.408 161.948 93.1678 162.449C92.9277 162.94 92.5622 163.384 92.0714 163.781C91.5911 164.178 91.0011 164.512 90.3015 164.783C89.6019 165.055 88.7875 165.237 87.8581 165.331L87.1533 163.765C87.9469 163.682 88.6308 163.541 89.2051 163.342C89.7794 163.144 90.2545 162.914 90.6305 162.653C91.0064 162.381 91.2883 162.094 91.4763 161.792C91.6642 161.478 91.7582 161.17 91.7582 160.867V160.476ZM92.1184 160.476H93.8883V160.867C93.8883 161.181 93.9771 161.494 94.1546 161.807C94.3426 162.12 94.6245 162.413 95.0004 162.684C95.3763 162.945 95.8514 163.17 96.4257 163.358C97 163.546 97.6892 163.682 98.4932 163.765L97.8041 165.331C96.8747 165.237 96.055 165.06 95.345 164.799C94.6454 164.538 94.0554 164.214 93.5751 163.828C93.0948 163.431 92.7293 162.982 92.4787 162.481C92.2385 161.979 92.1184 161.442 92.1184 160.867V160.476ZM100.56 161.964H113.701V163.655H100.56V161.964ZM106.01 152.895H107.78V153.709C107.78 154.326 107.691 154.91 107.514 155.464C107.347 156.017 107.096 156.534 106.762 157.014C106.438 157.484 106.036 157.912 105.556 158.299C105.076 158.675 104.527 158.998 103.911 159.27C103.295 159.541 102.622 159.745 101.891 159.881L101.061 158.205C101.708 158.1 102.293 157.944 102.815 157.735C103.348 157.526 103.812 157.275 104.209 156.983C104.606 156.691 104.935 156.372 105.196 156.028C105.467 155.673 105.671 155.302 105.807 154.916C105.942 154.519 106.01 154.117 106.01 153.709V152.895ZM106.449 152.895H108.203V153.709C108.203 154.117 108.271 154.513 108.407 154.9C108.542 155.286 108.746 155.657 109.017 156.012C109.289 156.357 109.623 156.675 110.02 156.967C110.427 157.249 110.897 157.495 111.43 157.704C111.973 157.902 112.573 158.048 113.231 158.142L112.416 159.802C111.665 159.667 110.975 159.468 110.349 159.207C109.733 158.946 109.179 158.628 108.689 158.252C108.208 157.876 107.801 157.453 107.467 156.983C107.133 156.513 106.877 156.007 106.699 155.464C106.532 154.91 106.449 154.326 106.449 153.709V152.895ZM101.64 152.096H112.573V153.756H101.64V152.096ZM128.043 150.89H130.126V159.348H128.043V150.89ZM129.562 154.164H132.053V155.887H129.562V154.164ZM119.131 151.72H121.198V153.553H124.049V151.72H126.101V158.628H119.131V151.72ZM121.198 155.166V156.999H124.049V155.166H121.198ZM120.713 159.99H130.22V161.619H122.78V164.736H120.713V159.99ZM120.713 163.561H130.502V165.222H120.713V163.561ZM134.323 152.112H143.501V153.772H134.323V152.112ZM132.976 161.948H146.101V163.64H132.976V161.948ZM137.612 156.967H139.711V162.794H137.612V156.967ZM142.749 152.112H144.848V153.49C144.848 154.096 144.838 154.738 144.817 155.417C144.806 156.095 144.759 156.847 144.676 157.672C144.603 158.497 144.467 159.421 144.269 160.445L142.185 160.225C142.478 158.774 142.645 157.51 142.687 156.435C142.728 155.349 142.749 154.367 142.749 153.49V152.112ZM161.101 150.89H163.184V158.925H161.101V150.89ZM154.539 151.391H156.261V152.77C156.261 153.668 156.11 154.519 155.807 155.323C155.504 156.116 155.04 156.811 154.413 157.406C153.797 158.001 153.014 158.445 152.064 158.737L151.061 157.093C151.667 156.905 152.189 156.659 152.628 156.357C153.066 156.054 153.426 155.709 153.708 155.323C153.99 154.936 154.199 154.529 154.335 154.101C154.471 153.662 154.539 153.219 154.539 152.77V151.391ZM154.961 151.391H156.653V152.77C156.653 153.208 156.721 153.636 156.857 154.054C156.992 154.461 157.196 154.848 157.467 155.213C157.739 155.568 158.089 155.892 158.517 156.184C158.945 156.466 159.451 156.691 160.036 156.858L159.034 158.487C158.345 158.278 157.744 157.991 157.233 157.625C156.721 157.249 156.293 156.811 155.948 156.31C155.614 155.808 155.363 155.26 155.196 154.665C155.04 154.059 154.961 153.428 154.961 152.77V151.391ZM153.379 159.583H163.247V161.228H153.379V159.583ZM153.239 163.593H163.388V165.237H153.239V163.593ZM155.087 160.194H157.139V164.548H155.087V160.194ZM159.504 160.194H161.571V164.548H159.504V160.194ZM169.354 151.877C170.075 151.877 170.717 152.091 171.281 152.519C171.855 152.937 172.299 153.537 172.612 154.32C172.936 155.093 173.098 156.007 173.098 157.061C173.098 158.126 172.936 159.051 172.612 159.834C172.299 160.606 171.855 161.207 171.281 161.635C170.717 162.053 170.075 162.261 169.354 162.261C168.634 162.261 167.992 162.053 167.428 161.635C166.864 161.207 166.42 160.606 166.097 159.834C165.773 159.051 165.611 158.126 165.611 157.061C165.611 156.007 165.773 155.093 166.097 154.32C166.42 153.537 166.864 152.937 167.428 152.519C167.992 152.091 168.634 151.877 169.354 151.877ZM169.354 153.772C169.01 153.772 168.702 153.897 168.43 154.148C168.169 154.399 167.966 154.769 167.819 155.26C167.673 155.74 167.6 156.341 167.6 157.061C167.6 157.771 167.673 158.377 167.819 158.878C167.966 159.369 168.169 159.74 168.43 159.99C168.702 160.241 169.01 160.366 169.354 160.366C169.72 160.366 170.033 160.241 170.294 159.99C170.555 159.74 170.759 159.369 170.905 158.878C171.051 158.377 171.124 157.771 171.124 157.061C171.124 156.341 171.051 155.74 170.905 155.26C170.759 154.769 170.555 154.399 170.294 154.148C170.033 153.897 169.72 153.772 169.354 153.772ZM175.479 150.859H177.562V165.41H175.479V150.859ZM172.487 156.106H176.356V157.766H172.487V156.106ZM186.958 155.417H190.78V157.093H186.958V155.417ZM183.011 151.987H184.687V154.101C184.687 155.009 184.609 155.892 184.452 156.748C184.296 157.604 184.055 158.403 183.732 159.144C183.408 159.886 182.996 160.538 182.494 161.102C182.004 161.666 181.419 162.12 180.74 162.465L179.44 160.805C180.056 160.512 180.584 160.131 181.022 159.661C181.471 159.191 181.842 158.659 182.134 158.064C182.437 157.458 182.656 156.821 182.792 156.153C182.938 155.474 183.011 154.79 183.011 154.101V151.987ZM183.434 151.987H185.094V154.101C185.094 154.78 185.162 155.453 185.298 156.122C185.434 156.779 185.637 157.395 185.909 157.97C186.191 158.544 186.551 159.056 186.99 159.505C187.428 159.943 187.95 160.298 188.556 160.57L187.303 162.23C186.624 161.896 186.039 161.457 185.549 160.914C185.058 160.361 184.656 159.729 184.343 159.019C184.04 158.309 183.81 157.536 183.653 156.701C183.507 155.866 183.434 154.999 183.434 154.101V151.987ZM189.731 150.859H191.814V165.41H189.731V150.859ZM208.631 156.357H211.184V158.079H208.631V156.357ZM207.065 150.859H209.163V165.363H207.065V150.859ZM198.246 152.253H200.314V161.275H198.246V152.253ZM198.246 160.1H199.484C200.517 160.1 201.593 160.058 202.71 159.975C203.828 159.891 204.971 159.734 206.14 159.505L206.36 161.196C205.148 161.447 203.969 161.619 202.82 161.713C201.671 161.797 200.559 161.839 199.484 161.839H198.246V160.1ZM221.379 150.874H223.462V158.941H221.379V150.874ZM222.899 154.101H225.389V155.808H222.899V154.101ZM217.229 151.689H219.468C219.468 152.984 219.202 154.138 218.67 155.15C218.147 156.163 217.385 157.025 216.383 157.735C215.38 158.434 214.159 158.972 212.718 159.348L211.919 157.688C213.099 157.385 214.08 156.988 214.863 156.497C215.647 155.996 216.237 155.427 216.633 154.79C217.03 154.153 217.229 153.475 217.229 152.754V151.689ZM212.671 151.689H218.544V153.349H212.671V151.689ZM215.13 159.505H216.665V160.178C216.665 160.92 216.555 161.63 216.336 162.308C216.117 162.977 215.772 163.567 215.302 164.078C214.843 164.6 214.237 164.997 213.485 165.269L212.451 163.765C213.088 163.535 213.6 163.233 213.986 162.857C214.383 162.47 214.67 162.047 214.848 161.588C215.036 161.128 215.13 160.659 215.13 160.178V159.505ZM215.647 159.505H217.15V160.178C217.15 160.659 217.229 161.134 217.385 161.604C217.552 162.073 217.819 162.512 218.184 162.919C218.549 163.316 219.035 163.64 219.641 163.89L218.764 165.41C218.001 165.117 217.39 164.7 216.931 164.157C216.482 163.614 216.153 162.998 215.944 162.308C215.746 161.609 215.647 160.899 215.647 160.178V159.505ZM220.392 159.505H221.896V160.178C221.896 160.857 221.792 161.541 221.583 162.23C221.384 162.919 221.056 163.541 220.596 164.094C220.147 164.658 219.536 165.096 218.764 165.41L217.902 163.89C218.508 163.619 218.993 163.274 219.359 162.857C219.724 162.439 219.985 162 220.142 161.541C220.309 161.071 220.392 160.617 220.392 160.178V159.505ZM220.894 159.505H222.46V160.178C222.46 160.69 222.549 161.181 222.726 161.651C222.904 162.11 223.191 162.528 223.588 162.904C223.985 163.269 224.496 163.556 225.123 163.765L224.089 165.269C223.337 164.997 222.721 164.611 222.241 164.11C221.771 163.608 221.426 163.024 221.207 162.355C220.998 161.677 220.894 160.951 220.894 160.178V159.505ZM235.569 150.859H237.667V165.41H235.569V150.859ZM237.213 156.231H239.766V157.954H237.213V156.231ZM226.86 160.21H228.082C228.907 160.21 229.679 160.199 230.4 160.178C231.12 160.147 231.82 160.1 232.499 160.037C233.177 159.964 233.872 159.865 234.582 159.74L234.785 161.463C234.055 161.588 233.334 161.687 232.624 161.76C231.924 161.833 231.204 161.88 230.463 161.901C229.721 161.922 228.928 161.932 228.082 161.932H226.86V160.21ZM226.86 152.206H233.626V153.882H228.943V161.024H226.86V152.206ZM249.821 150.859H251.919V165.363H249.821V150.859ZM251.387 156.419H253.94V158.126H251.387V156.419ZM246.015 152.362H248.066C248.066 153.814 247.858 155.187 247.44 156.482C247.033 157.777 246.354 158.967 245.404 160.053C244.464 161.128 243.19 162.068 241.582 162.872L240.407 161.29C241.681 160.632 242.731 159.891 243.555 159.066C244.391 158.241 245.007 157.307 245.404 156.263C245.811 155.208 246.015 154.033 246.015 152.738V152.362ZM241.206 152.362H247.095V154.038H241.206V152.362ZM265.197 159.912C266.241 159.912 267.149 160.022 267.922 160.241C268.695 160.46 269.29 160.773 269.708 161.181C270.136 161.588 270.35 162.079 270.35 162.653C270.35 163.217 270.136 163.702 269.708 164.11C269.29 164.527 268.695 164.846 267.922 165.065C267.149 165.284 266.241 165.394 265.197 165.394C264.163 165.394 263.26 165.284 262.487 165.065C261.714 164.846 261.114 164.527 260.686 164.11C260.268 163.702 260.059 163.217 260.059 162.653C260.059 162.079 260.268 161.588 260.686 161.181C261.114 160.773 261.714 160.46 262.487 160.241C263.26 160.022 264.163 159.912 265.197 159.912ZM265.197 161.478C264.549 161.478 263.996 161.52 263.536 161.604C263.077 161.687 262.727 161.818 262.487 161.995C262.257 162.173 262.142 162.392 262.142 162.653C262.142 162.914 262.257 163.133 262.487 163.311C262.727 163.478 263.077 163.608 263.536 163.702C263.996 163.786 264.549 163.828 265.197 163.828C265.855 163.828 266.413 163.786 266.873 163.702C267.332 163.608 267.682 163.478 267.922 163.311C268.162 163.133 268.282 162.914 268.282 162.653C268.282 162.392 268.162 162.173 267.922 161.995C267.682 161.818 267.332 161.687 266.873 161.604C266.413 161.52 265.855 161.478 265.197 161.478ZM260.216 151.532H269.41V153.161H260.216V151.532ZM258.759 157.359H271.806V159.004H258.759V157.359ZM263.583 154.822H265.667V157.766H263.583V154.822ZM268.188 151.532H270.271V152.723C270.271 153.297 270.256 153.897 270.225 154.524C270.193 155.15 270.073 155.84 269.864 156.591L267.797 156.388C267.995 155.646 268.11 154.989 268.141 154.414C268.173 153.84 268.188 153.276 268.188 152.723V151.532ZM272.98 159.223H286.105V160.867H272.98V159.223ZM278.446 160.053H280.529V165.394H278.446V160.053ZM274.468 151.438H276.535V153.083H282.503V151.438H284.555V157.844H274.468V151.438ZM276.535 154.712V156.2H282.503V154.712H276.535ZM292.663 159.567H294.731V160.789H300.542V159.567H302.594V165.237H292.663V159.567ZM294.731 162.355V163.608H300.542V162.355H294.731ZM291.128 157.218H304.254V158.847H291.128V157.218ZM296.626 151.031H298.412V151.47C298.412 151.981 298.323 152.467 298.145 152.926C297.978 153.386 297.733 153.814 297.409 154.211C297.086 154.607 296.683 154.968 296.203 155.291C295.733 155.605 295.19 155.871 294.574 156.09C293.958 156.299 293.274 156.456 292.522 156.56L291.771 154.947C292.428 154.874 293.018 154.754 293.54 154.587C294.063 154.42 294.517 154.221 294.903 153.991C295.289 153.751 295.608 153.495 295.859 153.224C296.12 152.942 296.313 152.655 296.438 152.362C296.563 152.06 296.626 151.762 296.626 151.47V151.031ZM296.971 151.031H298.756V151.47C298.756 151.762 298.819 152.06 298.944 152.362C299.069 152.655 299.257 152.942 299.508 153.224C299.769 153.495 300.093 153.751 300.479 153.991C300.865 154.221 301.32 154.42 301.842 154.587C302.374 154.754 302.964 154.874 303.612 154.947L302.86 156.56C302.108 156.456 301.424 156.299 300.808 156.09C300.202 155.871 299.659 155.605 299.179 155.291C298.699 154.968 298.297 154.607 297.973 154.211C297.649 153.814 297.399 153.386 297.221 152.926C297.054 152.456 296.971 151.971 296.971 151.47V151.031ZM306.038 151.94H312.241V153.6H306.038V151.94ZM307.824 155.323H309.876V158.941H307.824V155.323ZM311.426 151.94H313.478V152.848C313.478 153.36 313.462 153.971 313.431 154.681C313.41 155.38 313.311 156.189 313.134 157.108L311.113 156.873C311.27 155.986 311.358 155.218 311.379 154.571C311.411 153.924 311.426 153.349 311.426 152.848V151.94ZM314.872 150.874H316.971V161.729H314.872V150.874ZM316.141 155.307H318.71V157.014H316.141V155.307ZM307.291 163.467H317.441V165.143H307.291V163.467ZM307.291 160.773H309.39V163.984H307.291V160.773ZM305.365 159.802L305.177 158.142C306.012 158.142 306.936 158.137 307.949 158.126C308.962 158.106 309.996 158.064 311.05 158.001C312.105 157.928 313.118 157.824 314.089 157.688L314.23 159.176C313.228 159.353 312.204 159.489 311.16 159.583C310.116 159.667 309.098 159.724 308.106 159.755C307.114 159.776 306.2 159.792 305.365 159.802ZM329.594 150.859H331.677V165.41H329.594V150.859ZM323.861 151.877C324.603 151.877 325.261 152.091 325.835 152.519C326.409 152.937 326.858 153.537 327.182 154.32C327.516 155.093 327.683 156.007 327.683 157.061C327.683 158.126 327.516 159.051 327.182 159.834C326.858 160.606 326.409 161.207 325.835 161.635C325.261 162.053 324.603 162.261 323.861 162.261C323.13 162.261 322.478 162.053 321.904 161.635C321.329 161.207 320.875 160.606 320.541 159.834C320.217 159.051 320.055 158.126 320.055 157.061C320.055 156.007 320.217 155.093 320.541 154.32C320.875 153.537 321.329 152.937 321.904 152.519C322.478 152.091 323.13 151.877 323.861 151.877ZM323.861 153.772C323.506 153.772 323.193 153.897 322.922 154.148C322.65 154.399 322.436 154.769 322.279 155.26C322.133 155.74 322.06 156.341 322.06 157.061C322.06 157.771 322.133 158.377 322.279 158.878C322.436 159.369 322.65 159.74 322.922 159.99C323.193 160.241 323.506 160.366 323.861 160.366C324.227 160.366 324.545 160.241 324.817 159.99C325.088 159.74 325.297 159.369 325.443 158.878C325.6 158.377 325.678 157.771 325.678 157.061C325.678 156.341 325.6 155.74 325.443 155.26C325.297 154.769 325.088 154.399 324.817 154.148C324.545 153.897 324.227 153.772 323.861 153.772ZM340.992 152.237H342.699V153.146C342.699 154.023 342.548 154.858 342.245 155.652C341.952 156.435 341.498 157.124 340.882 157.719C340.276 158.304 339.504 158.737 338.564 159.019L337.546 157.375C338.36 157.134 339.018 156.795 339.519 156.357C340.031 155.907 340.402 155.406 340.631 154.853C340.872 154.289 340.992 153.72 340.992 153.146V152.237ZM341.415 152.237H343.106V153.146C343.106 153.678 343.221 154.205 343.451 154.728C343.681 155.25 344.041 155.72 344.532 156.137C345.033 156.544 345.67 156.863 346.442 157.093L345.471 158.706C344.552 158.445 343.79 158.038 343.185 157.484C342.589 156.92 342.146 156.268 341.853 155.526C341.561 154.775 341.415 153.981 341.415 153.146V152.237ZM338.11 151.658H345.941V153.318H338.11V151.658ZM347.132 150.89H349.215V158.894H347.132V150.89ZM348.651 153.96H351.141V155.667H348.651V153.96ZM339.754 159.458H341.822V160.742H347.163V159.458H349.215V165.237H339.754V159.458ZM341.822 162.355V163.577H347.163V162.355H341.822ZM362.151 150.89H364.234V159.928H362.151V150.89ZM360.256 154.054H362.903V155.699H360.256V154.054ZM360.225 156.92H362.872V158.565H360.225V156.92ZM352.096 152.128H360.068V153.772H352.096V152.128ZM356.168 154.179C356.836 154.179 357.426 154.294 357.938 154.524C358.449 154.754 358.851 155.072 359.144 155.479C359.436 155.876 359.582 156.346 359.582 156.889C359.582 157.411 359.436 157.876 359.144 158.283C358.851 158.69 358.449 159.009 357.938 159.238C357.426 159.458 356.836 159.567 356.168 159.567C355.51 159.567 354.925 159.458 354.414 159.238C353.902 159.009 353.5 158.69 353.208 158.283C352.915 157.876 352.769 157.411 352.769 156.889C352.769 156.346 352.915 155.876 353.208 155.479C353.5 155.072 353.902 154.754 354.414 154.524C354.925 154.294 355.51 154.179 356.168 154.179ZM356.168 155.714C355.74 155.714 355.39 155.819 355.118 156.028C354.847 156.226 354.711 156.513 354.711 156.889C354.711 157.255 354.847 157.542 355.118 157.751C355.39 157.949 355.74 158.048 356.168 158.048C356.606 158.048 356.961 157.949 357.233 157.751C357.504 157.542 357.64 157.255 357.64 156.889C357.64 156.513 357.504 156.226 357.233 156.028C356.961 155.819 356.606 155.714 356.168 155.714ZM355.134 150.765H357.233V153.271H355.134V150.765ZM355.526 160.366H357.092V160.648C357.092 161.316 356.972 161.953 356.732 162.559C356.502 163.165 356.142 163.697 355.651 164.157C355.171 164.616 354.549 164.961 353.787 165.19L352.832 163.687C353.458 163.509 353.97 163.264 354.367 162.951C354.763 162.627 355.056 162.267 355.244 161.87C355.432 161.463 355.526 161.055 355.526 160.648V160.366ZM356.058 160.366H357.546V160.648C357.546 161.055 357.63 161.463 357.797 161.87C357.964 162.277 358.225 162.653 358.58 162.998C358.945 163.332 359.41 163.603 359.974 163.812L359.159 165.347C358.408 165.096 357.807 164.726 357.358 164.235C356.909 163.744 356.58 163.186 356.371 162.559C356.163 161.932 356.058 161.296 356.058 160.648V160.366ZM360.773 160.366H362.261V160.648C362.261 161.254 362.156 161.87 361.947 162.496C361.749 163.123 361.42 163.687 360.961 164.188C360.512 164.689 359.911 165.076 359.159 165.347L358.361 163.812C358.925 163.593 359.384 163.306 359.739 162.951C360.094 162.596 360.355 162.22 360.522 161.823C360.689 161.416 360.773 161.024 360.773 160.648V160.366ZM361.29 160.366H362.84V160.648C362.84 161.076 362.929 161.494 363.107 161.901C363.294 162.308 363.587 162.669 363.984 162.982C364.391 163.285 364.908 163.52 365.534 163.687L364.563 165.19C363.801 164.971 363.174 164.637 362.684 164.188C362.203 163.749 361.848 163.222 361.619 162.606C361.399 161.99 361.29 161.337 361.29 160.648V160.366ZM370.279 151.877C370.999 151.877 371.642 152.091 372.205 152.519C372.78 152.937 373.224 153.537 373.537 154.32C373.86 155.093 374.022 156.007 374.022 157.061C374.022 158.126 373.86 159.051 373.537 159.834C373.224 160.606 372.78 161.207 372.205 161.635C371.642 162.053 370.999 162.261 370.279 162.261C369.558 162.261 368.916 162.053 368.352 161.635C367.789 161.207 367.345 160.606 367.021 159.834C366.697 159.051 366.535 158.126 366.535 157.061C366.535 156.007 366.697 155.093 367.021 154.32C367.345 153.537 367.789 152.937 368.352 152.519C368.916 152.091 369.558 151.877 370.279 151.877ZM370.279 153.772C369.934 153.772 369.626 153.897 369.355 154.148C369.094 154.399 368.89 154.769 368.744 155.26C368.598 155.74 368.525 156.341 368.525 157.061C368.525 157.771 368.598 158.377 368.744 158.878C368.89 159.369 369.094 159.74 369.355 159.99C369.626 160.241 369.934 160.366 370.279 160.366C370.644 160.366 370.958 160.241 371.219 159.99C371.48 159.74 371.683 159.369 371.83 158.878C371.976 158.377 372.049 157.771 372.049 157.061C372.049 156.341 371.976 155.74 371.83 155.26C371.683 154.769 371.48 154.399 371.219 154.148C370.958 153.897 370.644 153.772 370.279 153.772ZM376.403 150.859H378.486V165.41H376.403V150.859ZM373.411 156.106H377.28V157.766H373.411V156.106ZM383.45 158.252H385.533V162.308H383.45V158.252ZM388.713 158.252H390.796V162.308H388.713V158.252ZM380.568 162.011H393.709V163.702H380.568V162.011ZM387.115 151.595C388.159 151.595 389.089 151.757 389.903 152.081C390.728 152.404 391.37 152.858 391.83 153.443C392.3 154.018 392.535 154.701 392.535 155.495C392.535 156.278 392.3 156.962 391.83 157.547C391.37 158.121 390.728 158.57 389.903 158.894C389.089 159.218 388.159 159.379 387.115 159.379C386.082 159.379 385.152 159.218 384.327 158.894C383.513 158.57 382.871 158.121 382.401 157.547C381.931 156.962 381.696 156.278 381.696 155.495C381.696 154.701 381.931 154.018 382.401 153.443C382.871 152.858 383.513 152.404 384.327 152.081C385.152 151.757 386.082 151.595 387.115 151.595ZM387.115 153.208C386.447 153.208 385.857 153.302 385.345 153.49C384.844 153.668 384.453 153.924 384.171 154.258C383.889 154.592 383.748 155.004 383.748 155.495C383.748 155.965 383.889 156.372 384.171 156.717C384.453 157.051 384.844 157.312 385.345 157.5C385.857 157.677 386.447 157.766 387.115 157.766C387.794 157.766 388.384 157.677 388.885 157.5C389.397 157.312 389.788 157.051 390.06 156.717C390.342 156.372 390.483 155.965 390.483 155.495C390.483 155.004 390.342 154.592 390.06 154.258C389.788 153.924 389.397 153.668 388.885 153.49C388.384 153.302 387.794 153.208 387.115 153.208Z" fill="white"/>
<rect y="210" width="480" height="80" rx="10" fill="#37A3E2"/>
<path d="M81.1684 242.89H83.2516V251.614H81.1684V242.89ZM82.6877 246.461H85.1781V248.169H82.6877V246.461ZM73.8225 252.257H83.2516V257.237H73.8225V252.257ZM81.2154 253.886H75.8743V255.593H81.2154V253.886ZM71.849 244.175H80.3696V245.819H71.849V244.175ZM76.1093 246.258C76.8193 246.258 77.4406 246.367 77.9732 246.587C78.5057 246.806 78.9234 247.114 79.2262 247.511C79.529 247.897 79.6804 248.351 79.6804 248.873C79.6804 249.385 79.529 249.839 79.2262 250.236C78.9234 250.622 78.5057 250.925 77.9732 251.144C77.4406 251.364 76.8193 251.473 76.1093 251.473C75.4097 251.473 74.7884 251.364 74.2454 251.144C73.7129 250.925 73.2952 250.622 72.9924 250.236C72.6896 249.839 72.5381 249.385 72.5381 248.873C72.5381 248.351 72.6896 247.897 72.9924 247.511C73.2952 247.114 73.7129 246.806 74.2454 246.587C74.7884 246.367 75.4097 246.258 76.1093 246.258ZM76.1093 247.793C75.6498 247.793 75.2739 247.887 74.9816 248.075C74.6892 248.252 74.543 248.518 74.543 248.873C74.543 249.228 74.6892 249.5 74.9816 249.688C75.2739 249.865 75.6498 249.954 76.1093 249.954C76.5792 249.954 76.9551 249.865 77.237 249.688C77.5294 249.5 77.6756 249.228 77.6756 248.873C77.6756 248.518 77.5294 248.252 77.237 248.075C76.9551 247.887 76.5792 247.793 76.1093 247.793ZM75.0755 242.781H77.143V245.067H75.0755V242.781ZM87.8709 244.519H89.6252C89.6252 245.438 89.5938 246.336 89.5312 247.213C89.479 248.08 89.3746 248.92 89.2179 249.735C89.0613 250.549 88.842 251.338 88.5601 252.1C88.2886 252.862 87.9283 253.609 87.4793 254.34L85.8661 253.463C86.2942 252.794 86.6388 252.131 86.8998 251.473C87.1609 250.805 87.3593 250.121 87.495 249.422C87.6412 248.722 87.7404 247.986 87.7926 247.213C87.8448 246.43 87.8709 245.589 87.8709 244.691V244.519ZM86.3516 244.519H88.983V246.195H86.3516V244.519ZM91.0975 244.519H92.8517C92.8517 245.469 92.8256 246.404 92.7734 247.323C92.7316 248.242 92.6377 249.145 92.4915 250.032C92.3557 250.92 92.1417 251.781 91.8493 252.617C91.5674 253.452 91.181 254.261 90.6902 255.045L89.1083 254.152C89.4737 253.577 89.7766 252.998 90.0167 252.413C90.2673 251.828 90.4657 251.233 90.6119 250.628C90.7581 250.022 90.8625 249.406 90.9252 248.779C90.9983 248.142 91.0453 247.49 91.0661 246.822C91.087 246.143 91.0975 245.443 91.0975 244.723V244.519ZM90.0481 244.519H92.2879V246.195H90.0481V244.519ZM96.7048 242.89H98.6783V257.394H96.7048V242.89ZM92.1469 248.325H94.2144V249.985H92.1469V248.325ZM93.8855 243.188H95.8433V256.736H93.8855V243.188ZM109.641 242.89H111.724V257.394H109.641V242.89ZM111.254 248.544H113.807V250.267H111.254V248.544ZM100.275 245.02H108.733V246.681H100.275V245.02ZM104.535 247.511C105.235 247.511 105.861 247.662 106.415 247.965C106.968 248.257 107.401 248.659 107.715 249.171C108.038 249.683 108.2 250.278 108.2 250.957C108.2 251.635 108.038 252.236 107.715 252.758C107.401 253.269 106.968 253.677 106.415 253.979C105.872 254.272 105.245 254.418 104.535 254.418C103.835 254.418 103.204 254.272 102.64 253.979C102.086 253.677 101.648 253.269 101.324 252.758C101.011 252.236 100.854 251.635 100.854 250.957C100.854 250.278 101.011 249.683 101.324 249.171C101.648 248.659 102.086 248.257 102.64 247.965C103.204 247.662 103.835 247.511 104.535 247.511ZM104.535 249.202C104.201 249.202 103.909 249.27 103.658 249.406C103.407 249.542 103.209 249.74 103.063 250.001C102.917 250.262 102.843 250.581 102.843 250.957C102.843 251.322 102.917 251.64 103.063 251.912C103.209 252.173 103.407 252.377 103.658 252.523C103.909 252.659 104.201 252.726 104.535 252.726C104.859 252.726 105.146 252.659 105.396 252.523C105.647 252.377 105.845 252.173 105.992 251.912C106.138 251.64 106.211 251.322 106.211 250.957C106.211 250.581 106.138 250.262 105.992 250.001C105.845 249.74 105.647 249.542 105.396 249.406C105.146 249.27 104.859 249.202 104.535 249.202ZM103.47 243.125H105.569V245.662H103.47V243.125ZM116.218 246.79H126.274V248.45H116.218V246.79ZM114.605 249.954H127.731V251.614H114.605V249.954ZM116.218 243.391H118.301V247.62H116.218V243.391ZM116.093 255.405H126.352V257.081H116.093V255.405ZM116.093 252.758H118.176V255.859H116.093V252.758ZM132.753 250.299H145.895V251.943H132.753V250.299ZM138.455 251.191H140.538V254.246H138.455V251.191ZM134.273 255.467H144.438V257.143H134.273V255.467ZM134.273 253.149H136.356V256.172H134.273V253.149ZM134.429 243.344H136.481V244.817H142.151V243.344H144.219V249.296H134.429V243.344ZM136.481 246.383V247.683H142.151V246.383H136.481ZM151.72 243.454C152.451 243.454 153.104 243.59 153.678 243.861C154.252 244.122 154.701 244.488 155.025 244.958C155.359 245.417 155.526 245.95 155.526 246.555C155.526 247.161 155.359 247.699 155.025 248.169C154.701 248.628 154.252 248.993 153.678 249.265C153.104 249.526 152.451 249.657 151.72 249.657C150.989 249.657 150.336 249.526 149.762 249.265C149.188 248.993 148.734 248.628 148.399 248.169C148.076 247.699 147.914 247.161 147.914 246.555C147.914 245.95 148.076 245.417 148.399 244.958C148.734 244.488 149.188 244.122 149.762 243.861C150.336 243.59 150.989 243.454 151.72 243.454ZM151.72 245.146C151.375 245.146 151.067 245.203 150.796 245.318C150.524 245.422 150.31 245.579 150.154 245.788C149.997 245.997 149.919 246.252 149.919 246.555C149.919 246.858 149.997 247.114 150.154 247.323C150.31 247.521 150.524 247.678 150.796 247.793C151.067 247.897 151.375 247.949 151.72 247.949C152.075 247.949 152.388 247.897 152.66 247.793C152.931 247.678 153.145 247.521 153.302 247.323C153.459 247.114 153.537 246.858 153.537 246.555C153.537 246.252 153.459 245.997 153.302 245.788C153.145 245.579 152.931 245.422 152.66 245.318C152.388 245.203 152.075 245.146 151.72 245.146ZM150.733 251.113H152.832V256.94H150.733V251.113ZM157.077 242.874H159.16V257.378H157.077V242.874ZM147.303 252.21L147.068 250.518C147.903 250.518 148.838 250.513 149.872 250.502C150.916 250.481 151.986 250.434 153.083 250.361C154.179 250.288 155.239 250.173 156.262 250.017L156.388 251.536C155.343 251.745 154.284 251.896 153.208 251.99C152.132 252.084 151.088 252.142 150.075 252.163C149.063 252.183 148.138 252.199 147.303 252.21ZM171.266 242.874H173.349V257.378H171.266V242.874ZM166.99 244.378H169.042C169.042 245.485 168.932 246.545 168.713 247.558C168.504 248.56 168.149 249.505 167.648 250.393C167.157 251.28 166.478 252.105 165.612 252.867C164.756 253.619 163.685 254.308 162.401 254.935L161.304 253.29C162.704 252.612 163.816 251.865 164.641 251.051C165.476 250.226 166.076 249.296 166.442 248.263C166.807 247.218 166.99 246.049 166.99 244.754V244.378ZM162.088 244.378H167.961V246.038H162.088V244.378ZM180.205 249.531H181.348C182.319 249.531 183.149 249.521 183.839 249.5C184.528 249.469 185.149 249.427 185.702 249.375C186.256 249.312 186.804 249.223 187.347 249.108L187.551 250.753C186.987 250.878 186.418 250.972 185.843 251.035C185.269 251.098 184.622 251.139 183.901 251.16C183.191 251.181 182.34 251.191 181.348 251.191H180.205V249.531ZM180.205 243.861H186.72V245.522H182.272V249.985H180.205V243.861ZM181.677 252.272H191.576V257.394H189.477V253.932H181.677V252.272ZM189.477 242.874H191.576V251.646H189.477V242.874ZM186.063 246.508H190.025V248.153H186.063V246.508ZM193.674 250.299H206.815V251.943H193.674V250.299ZM199.375 251.191H201.458V254.246H199.375V251.191ZM195.193 255.467H205.358V257.143H195.193V255.467ZM195.193 253.149H197.276V256.172H195.193V253.149ZM195.35 243.344H197.401V244.817H203.071V243.344H205.139V249.296H195.35V243.344ZM197.401 246.383V247.683H203.071V246.383H197.401ZM213.737 248.216H216.117V249.891H213.737V248.216ZM218.404 242.874H220.393V257.378H218.404V242.874ZM215.459 243.109H217.402V256.736H215.459V243.109ZM211.199 243.893C211.836 243.893 212.39 244.107 212.859 244.535C213.34 244.952 213.705 245.558 213.956 246.352C214.217 247.135 214.347 248.075 214.347 249.171C214.347 250.257 214.217 251.197 213.956 251.99C213.705 252.784 213.34 253.395 212.859 253.823C212.39 254.241 211.831 254.449 211.184 254.449C210.557 254.449 210.004 254.241 209.523 253.823C209.053 253.395 208.688 252.784 208.427 251.99C208.176 251.197 208.051 250.257 208.051 249.171C208.051 248.075 208.176 247.135 208.427 246.352C208.688 245.558 209.053 244.952 209.523 244.535C210.004 244.107 210.562 243.893 211.199 243.893ZM211.199 245.866C210.938 245.866 210.714 245.986 210.526 246.226C210.338 246.467 210.192 246.832 210.087 247.323C209.993 247.803 209.946 248.419 209.946 249.171C209.946 249.902 209.993 250.513 210.087 251.004C210.192 251.494 210.338 251.865 210.526 252.116C210.714 252.356 210.938 252.476 211.199 252.476C211.46 252.476 211.685 252.356 211.873 252.116C212.071 251.865 212.217 251.494 212.311 251.004C212.405 250.513 212.452 249.902 212.452 249.171C212.452 248.419 212.405 247.803 212.311 247.323C212.217 246.832 212.071 246.467 211.873 246.226C211.685 245.986 211.46 245.866 211.199 245.866ZM226.81 244.175H233.78V253.932H226.81V244.175ZM231.744 245.819H228.862V252.288H231.744V245.819ZM236.051 242.859H238.134V257.41H236.051V242.859ZM243.897 251.693H245.996V256.955H243.897V251.693ZM250.585 242.874H252.684V257.378H250.585V242.874ZM240.561 252.492L240.326 250.8C241.308 250.789 242.326 250.784 243.38 250.784C244.435 250.774 245.5 250.748 246.576 250.706C247.651 250.664 248.7 250.596 249.724 250.502L249.833 252.022C248.768 252.168 247.703 252.277 246.638 252.351C245.584 252.413 244.545 252.455 243.521 252.476C242.498 252.486 241.511 252.492 240.561 252.492ZM247.703 253.04H251.008V254.622H247.703V253.04ZM241.391 243.564H248.784V247.401H243.537V248.654H241.407V245.944H246.67V245.114H241.391V243.564ZM241.407 248.247H249.019V249.829H241.407V248.247ZM264.023 242.89H266.106V251.567H264.023V242.89ZM265.385 246.399H267.939V248.106H265.385V246.399ZM257.679 252.178H259.23V252.429C259.23 253.128 259.115 253.797 258.885 254.434C258.666 255.071 258.316 255.629 257.836 256.11C257.356 256.59 256.734 256.955 255.972 257.206L254.985 255.702C255.622 255.504 256.139 255.238 256.536 254.904C256.933 254.559 257.22 254.173 257.397 253.745C257.585 253.306 257.679 252.867 257.679 252.429V252.178ZM258.212 252.178H259.7V252.429C259.7 252.867 259.783 253.306 259.95 253.745C260.118 254.173 260.379 254.569 260.734 254.935C261.099 255.3 261.574 255.598 262.159 255.828L261.313 257.347C260.561 257.076 259.956 256.679 259.496 256.157C259.047 255.645 258.718 255.065 258.509 254.418C258.311 253.76 258.212 253.097 258.212 252.429V252.178ZM262.942 252.178H264.414V252.429C264.414 253.087 264.31 253.739 264.101 254.387C263.903 255.034 263.574 255.619 263.114 256.141C262.665 256.674 262.065 257.076 261.313 257.347L260.483 255.828C261.068 255.588 261.538 255.28 261.893 254.904C262.248 254.528 262.509 254.126 262.676 253.698C262.853 253.259 262.942 252.836 262.942 252.429V252.178ZM263.428 252.178H264.994V252.429C264.994 252.888 265.083 253.337 265.26 253.776C265.448 254.204 265.74 254.585 266.137 254.919C266.534 255.253 267.046 255.514 267.672 255.702L266.701 257.206C265.928 256.955 265.302 256.595 264.822 256.125C264.341 255.655 263.986 255.107 263.757 254.481C263.537 253.844 263.428 253.16 263.428 252.429V252.178ZM257.899 248.184H259.982V250.408H257.899V248.184ZM254.782 251.301L254.547 249.688C255.382 249.688 256.291 249.683 257.272 249.672C258.264 249.651 259.272 249.615 260.295 249.563C261.329 249.5 262.321 249.406 263.271 249.281L263.428 250.706C262.446 250.883 261.444 251.014 260.42 251.098C259.397 251.181 258.4 251.233 257.429 251.254C256.468 251.275 255.586 251.291 254.782 251.301ZM258.932 243.235C259.642 243.235 260.264 243.355 260.796 243.595C261.339 243.825 261.767 244.148 262.081 244.566C262.394 244.973 262.55 245.454 262.55 246.007C262.55 246.55 262.394 247.03 262.081 247.448C261.767 247.866 261.339 248.189 260.796 248.419C260.264 248.649 259.642 248.764 258.932 248.764C258.222 248.764 257.596 248.649 257.053 248.419C256.51 248.189 256.082 247.866 255.768 247.448C255.455 247.03 255.299 246.55 255.299 246.007C255.299 245.454 255.455 244.973 255.768 244.566C256.082 244.148 256.51 243.825 257.053 243.595C257.596 243.355 258.222 243.235 258.932 243.235ZM258.932 244.738C258.431 244.738 258.024 244.848 257.711 245.067C257.397 245.287 257.241 245.6 257.241 246.007C257.241 246.268 257.309 246.498 257.444 246.696C257.591 246.884 257.789 247.03 258.04 247.135C258.301 247.229 258.598 247.276 258.932 247.276C259.266 247.276 259.559 247.229 259.809 247.135C260.06 247.03 260.253 246.884 260.389 246.696C260.535 246.498 260.608 246.268 260.608 246.007C260.608 245.6 260.452 245.287 260.138 245.067C259.836 244.848 259.434 244.738 258.932 244.738ZM269.723 249.86H270.866C271.733 249.86 272.506 249.85 273.184 249.829C273.874 249.808 274.516 249.766 275.111 249.704C275.706 249.641 276.312 249.557 276.928 249.453L277.116 251.098C276.489 251.212 275.863 251.301 275.236 251.364C274.61 251.426 273.947 251.473 273.247 251.505C272.547 251.526 271.754 251.536 270.866 251.536H269.723V249.86ZM269.723 243.877H276.286V245.537H271.775V250.299H269.723V243.877ZM278.901 242.874H281V253.431H278.901V242.874ZM275.456 246.649H279.293V248.31H275.456V246.649ZM271.414 255.499H281.313V257.175H271.414V255.499ZM271.414 252.585H273.498V256.58H271.414V252.585ZM293.494 251.912C294.538 251.912 295.447 252.022 296.22 252.241C296.992 252.46 297.587 252.773 298.005 253.181C298.433 253.588 298.647 254.079 298.647 254.653C298.647 255.217 298.433 255.702 298.005 256.11C297.587 256.527 296.992 256.846 296.22 257.065C295.447 257.284 294.538 257.394 293.494 257.394C292.461 257.394 291.557 257.284 290.785 257.065C290.012 256.846 289.411 256.527 288.983 256.11C288.566 255.702 288.357 255.217 288.357 254.653C288.357 254.079 288.566 253.588 288.983 253.181C289.411 252.773 290.012 252.46 290.785 252.241C291.557 252.022 292.461 251.912 293.494 251.912ZM293.494 253.478C292.847 253.478 292.293 253.52 291.834 253.604C291.375 253.687 291.025 253.818 290.785 253.995C290.555 254.173 290.44 254.392 290.44 254.653C290.44 254.914 290.555 255.133 290.785 255.311C291.025 255.478 291.375 255.608 291.834 255.702C292.293 255.786 292.847 255.828 293.494 255.828C294.152 255.828 294.711 255.786 295.17 255.702C295.63 255.608 295.979 255.478 296.22 255.311C296.46 255.133 296.58 254.914 296.58 254.653C296.58 254.392 296.46 254.173 296.22 253.995C295.979 253.818 295.63 253.687 295.17 253.604C294.711 253.52 294.152 253.478 293.494 253.478ZM288.513 243.532H297.708V245.161H288.513V243.532ZM287.057 249.359H300.104V251.004H287.057V249.359ZM291.881 246.822H293.964V249.766H291.881V246.822ZM296.486 243.532H298.569V244.723C298.569 245.297 298.553 245.897 298.522 246.524C298.491 247.15 298.371 247.84 298.162 248.591L296.094 248.388C296.293 247.646 296.408 246.989 296.439 246.414C296.47 245.84 296.486 245.276 296.486 244.723V243.532ZM301.277 251.223H314.403V252.867H301.277V251.223ZM306.744 252.053H308.827V257.394H306.744V252.053ZM302.765 243.438H304.833V245.083H310.801V243.438H312.852V249.844H302.765V243.438ZM304.833 246.712V248.2H310.801V246.712H304.833ZM315.53 249.39H328.655V250.894H315.53V249.39ZM317.002 251.63H327.104V255.076H319.085V256.313H317.017V253.76H325.053V253.04H317.002V251.63ZM317.017 255.859H327.512V257.269H317.017V255.859ZM317.127 243.125H327.057V246.555H319.21V247.73H317.158V245.24H325.006V244.535H317.127V243.125ZM317.158 247.307H327.324V248.717H317.158V247.307ZM333.678 248.2H346.819V249.844H333.678V248.2ZM334.9 243.376H338.283V245.005H334.9V243.376ZM337.688 243.376H339.708V244.159C339.708 244.67 339.677 245.323 339.614 246.117C339.562 246.9 339.353 247.814 338.988 248.858L336.983 248.576C337.213 247.876 337.374 247.26 337.468 246.728C337.573 246.185 337.635 245.704 337.656 245.287C337.677 244.858 337.688 244.483 337.688 244.159V243.376ZM340.523 243.376H344.25V245.005H340.523V243.376ZM343.295 243.376H345.316V244.362C345.316 244.958 345.289 245.631 345.237 246.383C345.195 247.124 345.023 247.981 344.72 248.952L342.7 248.67C342.898 248.033 343.039 247.464 343.123 246.963C343.206 246.451 343.253 245.986 343.264 245.569C343.285 245.14 343.295 244.738 343.295 244.362V243.376ZM335.276 250.831H345.284V252.366H337.359V256.031H335.276V250.831ZM335.276 255.671H345.394V257.237H335.276V255.671ZM336.513 253.259H344.94V254.747H336.513V253.259ZM358.314 242.874H360.304V251.098H358.314V242.874ZM356.545 246.211H358.863V247.871H356.545V246.211ZM355.119 243.141H357.061V250.972H355.119V243.141ZM348.51 243.893H350.593V249.375H348.51V243.893ZM348.51 248.623H349.496C350.342 248.623 351.146 248.602 351.908 248.56C352.671 248.508 353.459 248.403 354.273 248.247L354.477 249.923C353.631 250.09 352.812 250.205 352.018 250.267C351.224 250.32 350.384 250.346 349.496 250.346H348.51V248.623ZM351.391 251.583H352.973V252.225C352.973 252.956 352.859 253.656 352.629 254.324C352.41 254.992 352.06 255.582 351.579 256.094C351.099 256.616 350.478 257.013 349.716 257.284L348.713 255.765C349.34 255.546 349.851 255.253 350.248 254.888C350.645 254.512 350.932 254.094 351.11 253.635C351.298 253.165 351.391 252.695 351.391 252.225V251.583ZM351.924 251.583H353.412V252.225C353.412 252.706 353.496 253.181 353.663 253.651C353.83 254.11 354.096 254.538 354.461 254.935C354.827 255.321 355.307 255.64 355.902 255.89L355.041 257.41C354.279 257.128 353.668 256.715 353.208 256.172C352.749 255.629 352.42 255.018 352.222 254.34C352.023 253.651 351.924 252.946 351.924 252.225V251.583ZM356.67 251.583H358.174V252.225C358.174 252.894 358.069 253.572 357.86 254.261C357.651 254.951 357.317 255.572 356.858 256.125C356.409 256.679 355.803 257.107 355.041 257.41L354.195 255.89C354.78 255.619 355.255 255.28 355.62 254.872C355.986 254.465 356.252 254.032 356.419 253.572C356.586 253.102 356.67 252.653 356.67 252.225V251.583ZM357.171 251.583H358.722V252.225C358.722 252.726 358.816 253.212 359.004 253.682C359.192 254.141 359.484 254.554 359.881 254.919C360.278 255.285 360.794 255.567 361.431 255.765L360.398 257.284C359.635 257.023 359.014 256.642 358.534 256.141C358.064 255.64 357.719 255.055 357.5 254.387C357.281 253.708 357.171 252.988 357.171 252.225V251.583ZM363.717 251.567H365.784V252.789H371.595V251.567H373.647V257.237H363.717V251.567ZM365.784 254.355V255.608H371.595V254.355H365.784ZM362.182 249.218H375.308V250.847H362.182V249.218ZM367.68 243.031H369.465V243.47C369.465 243.981 369.376 244.467 369.199 244.926C369.032 245.386 368.787 245.814 368.463 246.211C368.139 246.607 367.737 246.968 367.257 247.291C366.787 247.605 366.244 247.871 365.628 248.09C365.012 248.299 364.328 248.456 363.576 248.56L362.824 246.947C363.482 246.874 364.072 246.754 364.594 246.587C365.116 246.42 365.57 246.221 365.957 245.991C366.343 245.751 366.662 245.495 366.912 245.224C367.173 244.942 367.366 244.655 367.492 244.362C367.617 244.06 367.68 243.762 367.68 243.47V243.031ZM368.024 243.031H369.81V243.47C369.81 243.762 369.872 244.06 369.998 244.362C370.123 244.655 370.311 244.942 370.562 245.224C370.823 245.495 371.146 245.751 371.533 245.991C371.919 246.221 372.373 246.42 372.895 246.587C373.428 246.754 374.018 246.874 374.665 246.947L373.914 248.56C373.162 248.456 372.478 248.299 371.862 248.09C371.256 247.871 370.713 247.605 370.233 247.291C369.752 246.968 369.35 246.607 369.027 246.211C368.703 245.814 368.452 245.386 368.275 244.926C368.108 244.456 368.024 243.971 368.024 243.47V243.031ZM386.49 242.874H388.557V257.378H386.49V242.874ZM377.201 244.253H379.285V253.275H377.201V244.253ZM377.201 252.037H378.486C379.551 252.037 380.663 251.996 381.822 251.912C382.981 251.818 384.161 251.651 385.362 251.411L385.581 253.149C384.349 253.41 383.133 253.588 381.932 253.682C380.741 253.765 379.593 253.807 378.486 253.807H377.201V252.037ZM399.958 242.859H402.057V257.41H399.958V242.859ZM401.603 248.231H404.156V249.954H401.603V248.231ZM391.25 252.21H392.472C393.297 252.21 394.069 252.199 394.79 252.178C395.51 252.147 396.21 252.1 396.889 252.037C397.567 251.964 398.262 251.865 398.972 251.74L399.175 253.463C398.444 253.588 397.724 253.687 397.014 253.76C396.314 253.833 395.594 253.88 394.852 253.901C394.111 253.922 393.317 253.932 392.472 253.932H391.25V252.21ZM391.25 244.206H398.016V245.882H393.333V253.024H391.25V244.206ZM407.491 252.288H405.627L405.236 244.817H407.883L407.491 252.288ZM405.204 254.904C405.204 254.423 405.335 254.089 405.596 253.901C405.857 253.703 406.175 253.604 406.551 253.604C406.917 253.604 407.23 253.703 407.491 253.901C407.752 254.089 407.883 254.423 407.883 254.904C407.883 255.363 407.752 255.697 407.491 255.906C407.23 256.104 406.917 256.204 406.551 256.204C406.175 256.204 405.857 256.104 405.596 255.906C405.335 255.697 405.204 255.363 405.204 254.904Z" fill="white"/>
</g>
<defs>
<clipPath id="clip0_1144_203">
<rect width="562" height="315" fill="white"/>
</clipPath>
</defs>
</svg>
