<svg width="30" height="30" viewBox="0 0 30 30" fill="none" xmlns="http://www.w3.org/2000/svg">
<rect width="30" height="30" rx="5.76923" fill="white"/>
<path d="M16.8587 3.46143C15.3482 3.46143 14.2957 4.50873 14.1309 5.74513C12.1163 5.19366 10.5386 6.71173 10.5386 8.38066C10.5386 9.65817 11.4243 10.6908 12.6043 11.026C13.5566 11.2958 15.2711 11.0948 15.2711 11.0948C15.2619 10.6818 15.6455 10.2283 16.2373 9.81527C17.9203 8.64217 19.2357 8.08865 19.4384 6.48851C19.6509 4.81403 18.3979 3.46143 16.8587 3.46143Z" fill="#00A05B"/>
<path d="M15.0005 11.7158C11.3626 11.7158 8.4126 14.7224 8.4126 18.5183C8.4126 23.7631 15.019 26.5458 15.0005 26.5384C14.9826 26.5459 21.5882 23.7632 21.5882 18.5183C21.5882 14.7247 18.6383 11.7158 15.0005 11.7158ZM15.0005 21.2727C14.5071 21.2724 14.0249 21.1197 13.6148 20.8337C13.2048 20.5478 12.8852 20.1416 12.6966 19.6664C12.508 19.1911 12.4588 18.6683 12.5552 18.164C12.6517 17.6596 12.8894 17.1964 13.2383 16.8328C13.5873 16.4693 14.0318 16.2218 14.5157 16.1216C14.9996 16.0213 15.5012 16.0729 15.9569 16.2698C16.4127 16.4667 16.8022 16.8 17.0763 17.2277C17.3503 17.6553 17.4966 18.158 17.4966 18.6723C17.4973 19.0143 17.4333 19.3532 17.3082 19.6694C17.183 19.9856 16.9992 20.2729 16.7673 20.5149C16.5354 20.757 16.26 20.9489 15.9568 21.0797C15.6536 21.2105 15.3286 21.2776 15.0005 21.2772V21.2727Z" fill="#FF6F0F"/>
</svg>
