<svg width="562" height="315" viewBox="0 0 562 315" fill="none" xmlns="http://www.w3.org/2000/svg">
<path d="M218.9 183.951C218.9 173.514 216.013 163.281 210.559 154.388C205.105 145.495 197.297 138.289 188.003 133.57C178.708 128.851 168.289 126.803 157.903 127.654C147.517 128.504 137.569 132.22 129.163 138.389C120.757 144.558 114.223 152.939 110.284 162.601C106.345 172.264 105.156 182.83 106.85 193.128C108.543 203.426 113.052 213.053 119.876 220.94C126.7 228.828 135.573 234.668 145.51 237.812L162.5 183.951H218.9Z" fill="#131313"/>
<path d="M218.9 183.951C218.9 173.514 216.013 163.281 210.559 154.388C205.105 145.495 197.297 138.289 188.003 133.57C178.708 128.851 168.289 126.803 157.903 127.654C147.517 128.504 137.569 132.22 129.163 138.389C120.757 144.558 114.223 152.939 110.284 162.601C106.345 172.264 105.156 182.83 106.85 193.128C108.543 203.426 113.052 213.053 119.876 220.94C126.7 228.828 135.573 234.668 145.51 237.812L162.5 183.951H218.9Z" fill="#37A3E2" fill-opacity="0.5"/>
<path d="M145.51 237.811C153.96 240.485 162.92 241.126 171.664 239.684C180.408 238.242 188.689 234.757 195.837 229.512C202.985 224.266 208.798 217.407 212.805 209.491C216.812 201.575 218.9 192.825 218.9 183.95H162.5L145.51 237.811Z" fill="#D8D7E9"/>
<path d="M132.554 178L136.306 169.782H131.378V168.004H138.546V169.334L134.766 178H132.554ZM146.502 173.002C146.502 174.075 146.385 174.995 146.152 175.76C145.928 176.525 145.559 177.113 145.046 177.524C144.542 177.935 143.86 178.14 143.002 178.14C141.798 178.14 140.916 177.687 140.356 176.782C139.796 175.867 139.516 174.607 139.516 173.002C139.516 171.919 139.628 170.995 139.852 170.23C140.076 169.465 140.444 168.877 140.958 168.466C141.471 168.055 142.152 167.85 143.002 167.85C144.196 167.85 145.078 168.303 145.648 169.208C146.217 170.113 146.502 171.378 146.502 173.002ZM141.616 173.002C141.616 174.141 141.714 174.999 141.91 175.578C142.106 176.147 142.47 176.432 143.002 176.432C143.524 176.432 143.888 176.147 144.094 175.578C144.299 175.009 144.402 174.15 144.402 173.002C144.402 171.863 144.299 171.005 144.094 170.426C143.888 169.847 143.524 169.558 143.002 169.558C142.47 169.558 142.106 169.847 141.91 170.426C141.714 171.005 141.616 171.863 141.616 173.002ZM149.809 167.864C150.593 167.864 151.186 168.139 151.587 168.69C151.998 169.231 152.203 169.997 152.203 170.986C152.203 171.975 152.012 172.75 151.629 173.31C151.247 173.861 150.64 174.136 149.809 174.136C149.044 174.136 148.461 173.861 148.059 173.31C147.658 172.75 147.457 171.975 147.457 170.986C147.457 169.997 147.644 169.231 148.017 168.69C148.391 168.139 148.988 167.864 149.809 167.864ZM156.907 168.004L151.363 178H149.725L155.269 168.004H156.907ZM149.823 169.292C149.394 169.292 149.179 169.861 149.179 171C149.179 172.148 149.394 172.722 149.823 172.722C150.262 172.722 150.481 172.148 150.481 171C150.481 169.861 150.262 169.292 149.823 169.292ZM156.809 171.854C157.593 171.854 158.186 172.129 158.587 172.68C158.998 173.221 159.203 173.987 159.203 174.976C159.203 175.965 159.012 176.74 158.629 177.3C158.247 177.851 157.64 178.126 156.809 178.126C156.044 178.126 155.461 177.851 155.059 177.3C154.658 176.74 154.457 175.965 154.457 174.976C154.457 173.987 154.644 173.221 155.017 172.68C155.391 172.129 155.988 171.854 156.809 171.854ZM156.823 173.282C156.394 173.282 156.179 173.851 156.179 174.99C156.179 176.138 156.394 176.712 156.823 176.712C157.262 176.712 157.481 176.138 157.481 174.99C157.481 173.851 157.262 173.282 156.823 173.282Z" fill="white"/>
<path d="M145.128 263.363H143.924V265.435H141.866V263.363H137.596V261.893L141.978 255.439H143.924V261.725H145.128V263.363ZM141.866 260.031C141.866 259.816 141.87 259.555 141.88 259.247C141.889 258.939 141.898 258.654 141.908 258.393C141.926 258.122 141.94 257.945 141.95 257.861H141.894C141.81 258.047 141.721 258.229 141.628 258.407C141.534 258.584 141.422 258.766 141.292 258.953L139.458 261.725H141.866V260.031ZM149.065 258.967H150.927V261.221H149.065V258.967ZM154.987 253.703H156.849V261.207H154.987V253.703ZM146.139 259.555L145.943 258.267C146.774 258.267 147.656 258.262 148.589 258.253C149.523 258.243 150.47 258.22 151.431 258.183C152.393 258.145 153.326 258.085 154.231 258.001L154.329 259.149C153.396 259.279 152.453 259.373 151.501 259.429C150.549 259.485 149.621 259.522 148.715 259.541C147.81 259.55 146.951 259.555 146.139 259.555ZM147.791 261.613H156.849V264.651H149.653V265.673H147.805V263.475H155.015V262.873H147.791V261.613ZM147.805 265.309H157.157V266.597H147.805V265.309ZM152.705 259.709H155.561V260.829H152.705V259.709ZM150.059 253.899C150.703 253.899 151.268 253.978 151.753 254.137C152.239 254.295 152.617 254.519 152.887 254.809C153.158 255.098 153.293 255.443 153.293 255.845C153.293 256.237 153.158 256.577 152.887 256.867C152.617 257.156 152.239 257.38 151.753 257.539C151.268 257.697 150.703 257.777 150.059 257.777C149.415 257.777 148.846 257.697 148.351 257.539C147.866 257.38 147.488 257.156 147.217 256.867C146.947 256.577 146.811 256.237 146.811 255.845C146.811 255.443 146.947 255.098 147.217 254.809C147.488 254.519 147.866 254.295 148.351 254.137C148.846 253.978 149.415 253.899 150.059 253.899ZM150.059 255.117C149.602 255.117 149.233 255.177 148.953 255.299C148.683 255.42 148.547 255.602 148.547 255.845C148.547 256.078 148.683 256.255 148.953 256.377C149.233 256.498 149.602 256.559 150.059 256.559C150.526 256.559 150.89 256.498 151.151 256.377C151.422 256.255 151.557 256.078 151.557 255.845C151.557 255.602 151.422 255.42 151.151 255.299C150.89 255.177 150.526 255.117 150.059 255.117ZM171.349 253.689H173.211V266.695H171.349V253.689ZM166.225 254.599C166.888 254.599 167.476 254.79 167.989 255.173C168.502 255.546 168.904 256.083 169.193 256.783C169.492 257.473 169.641 258.29 169.641 259.233C169.641 260.185 169.492 261.011 169.193 261.711C168.904 262.401 168.502 262.938 167.989 263.321C167.476 263.694 166.888 263.881 166.225 263.881C165.572 263.881 164.988 263.694 164.475 263.321C163.962 262.938 163.556 262.401 163.257 261.711C162.968 261.011 162.823 260.185 162.823 259.233C162.823 258.29 162.968 257.473 163.257 256.783C163.556 256.083 163.962 255.546 164.475 255.173C164.988 254.79 165.572 254.599 166.225 254.599ZM166.225 256.293C165.908 256.293 165.628 256.405 165.385 256.629C165.142 256.853 164.951 257.184 164.811 257.623C164.68 258.052 164.615 258.589 164.615 259.233C164.615 259.867 164.68 260.409 164.811 260.857C164.951 261.295 165.142 261.627 165.385 261.851C165.628 262.075 165.908 262.187 166.225 262.187C166.552 262.187 166.836 262.075 167.079 261.851C167.322 261.627 167.508 261.295 167.639 260.857C167.779 260.409 167.849 259.867 167.849 259.233C167.849 258.589 167.779 258.052 167.639 257.623C167.508 257.184 167.322 256.853 167.079 256.629C166.836 256.405 166.552 256.293 166.225 256.293ZM182.282 257.063H185.292V258.561H182.282V257.063ZM184.312 253.717H186.188V263.167H184.312V253.717ZM177.62 264.959H186.482V266.457H177.62V264.959ZM177.62 262.369H179.482V265.841H177.62V262.369ZM178.334 255.411H179.846V256.223C179.846 257.044 179.715 257.823 179.454 258.561C179.192 259.298 178.791 259.947 178.25 260.507C177.718 261.057 177.032 261.473 176.192 261.753L175.268 260.269C175.8 260.091 176.257 259.863 176.64 259.583C177.032 259.293 177.349 258.967 177.592 258.603C177.844 258.239 178.03 257.856 178.152 257.455C178.273 257.053 178.334 256.643 178.334 256.223V255.411ZM178.726 255.411H180.21V256.223C180.21 256.727 180.312 257.231 180.518 257.735C180.723 258.229 181.04 258.682 181.47 259.093C181.908 259.494 182.468 259.811 183.15 260.045L182.24 261.487C181.437 261.216 180.774 260.819 180.252 260.297C179.738 259.765 179.356 259.149 179.104 258.449C178.852 257.739 178.726 256.997 178.726 256.223V255.411ZM175.772 254.585H182.744V256.069H175.772V254.585Z" fill="#222222"/>
<path d="M456.074 141.325C456.074 116.916 446.981 93.3796 430.564 75.294C414.147 57.2083 391.58 45.8662 367.251 43.4737C342.923 41.0812 318.573 47.8094 298.937 62.3497C279.302 76.89 265.785 98.2027 261.016 122.142L357.599 141.325H456.074Z" fill="#D8D7E9"/>
<path d="M260.802 122.303C258.106 135.836 258.278 149.782 261.305 163.245C264.333 176.708 270.15 189.388 278.382 200.471C286.614 211.554 297.079 220.793 309.103 227.594C321.127 234.395 334.444 238.607 348.196 239.959C361.949 241.312 375.833 239.775 388.954 235.446C402.076 231.118 414.145 224.095 424.384 214.829C434.623 205.563 442.806 194.259 448.407 181.645C454.007 169.03 456.9 155.385 456.9 141.587H357.9L260.802 122.303Z" fill="#37A3E2"/>
<path d="M338.816 182.882C339.943 182.882 340.948 183.099 341.832 183.532C342.716 183.966 343.409 184.598 343.912 185.43C344.432 186.262 344.692 187.294 344.692 188.524C344.692 190.535 344.068 192.121 342.82 193.282C341.572 194.426 339.726 194.998 337.282 194.998C336.311 194.998 335.393 194.912 334.526 194.738C333.677 194.565 332.931 194.314 332.29 193.984V190.604C332.931 190.934 333.703 191.22 334.604 191.462C335.505 191.688 336.355 191.8 337.152 191.8C338.313 191.8 339.197 191.566 339.804 191.098C340.428 190.613 340.74 189.868 340.74 188.862C340.74 186.99 339.501 186.054 337.022 186.054C336.537 186.054 336.034 186.106 335.514 186.21C334.994 186.297 334.561 186.384 334.214 186.47L332.654 185.638L333.356 176.174H343.418V179.502H336.788L336.45 183.142C336.745 183.09 337.057 183.038 337.386 182.986C337.733 182.917 338.209 182.882 338.816 182.882ZM358.921 180.334C358.921 181.617 358.531 182.64 357.751 183.402C356.988 184.165 356.044 184.685 354.917 184.962V185.04C356.408 185.214 357.534 185.664 358.297 186.392C359.077 187.12 359.467 188.1 359.467 189.33C359.467 190.405 359.198 191.376 358.661 192.242C358.141 193.092 357.326 193.768 356.217 194.27C355.125 194.756 353.712 194.998 351.979 194.998C349.968 194.998 348.183 194.66 346.623 193.984V190.656C347.42 191.055 348.252 191.358 349.119 191.566C350.003 191.774 350.818 191.878 351.563 191.878C352.967 191.878 353.946 191.636 354.501 191.15C355.073 190.665 355.359 189.98 355.359 189.096C355.359 188.576 355.229 188.143 354.969 187.796C354.709 187.432 354.25 187.164 353.591 186.99C352.95 186.8 352.048 186.704 350.887 186.704H349.483V183.688H350.913C352.057 183.688 352.924 183.584 353.513 183.376C354.12 183.151 354.527 182.856 354.735 182.492C354.96 182.111 355.073 181.678 355.073 181.192C355.073 180.534 354.865 180.022 354.449 179.658C354.05 179.277 353.374 179.086 352.421 179.086C351.537 179.086 350.766 179.242 350.107 179.554C349.466 179.849 348.92 180.144 348.469 180.438L346.649 177.734C347.377 177.214 348.226 176.781 349.197 176.434C350.185 176.088 351.355 175.914 352.707 175.914C354.614 175.914 356.122 176.304 357.231 177.084C358.358 177.847 358.921 178.93 358.921 180.334ZM365.428 175.914C366.884 175.914 367.985 176.426 368.73 177.448C369.493 178.454 369.874 179.875 369.874 181.712C369.874 183.55 369.519 184.988 368.808 186.028C368.097 187.051 366.971 187.562 365.428 187.562C364.007 187.562 362.923 187.051 362.178 186.028C361.433 184.988 361.06 183.55 361.06 181.712C361.06 179.875 361.407 178.454 362.1 177.448C362.793 176.426 363.903 175.914 365.428 175.914ZM378.61 176.174L368.314 194.738H365.272L375.568 176.174H378.61ZM365.454 178.566C364.657 178.566 364.258 179.624 364.258 181.738C364.258 183.87 364.657 184.936 365.454 184.936C366.269 184.936 366.676 183.87 366.676 181.738C366.676 179.624 366.269 178.566 365.454 178.566ZM378.428 183.324C379.884 183.324 380.985 183.836 381.73 184.858C382.493 185.864 382.874 187.285 382.874 189.122C382.874 190.96 382.519 192.398 381.808 193.438C381.097 194.461 379.971 194.972 378.428 194.972C377.007 194.972 375.923 194.461 375.178 193.438C374.433 192.398 374.06 190.96 374.06 189.122C374.06 187.285 374.407 185.864 375.1 184.858C375.793 183.836 376.903 183.324 378.428 183.324ZM378.454 185.976C377.657 185.976 377.258 187.034 377.258 189.148C377.258 191.28 377.657 192.346 378.454 192.346C379.269 192.346 379.676 191.28 379.676 189.148C379.676 187.034 379.269 185.976 378.454 185.976Z" fill="white"/>
<path d="M340.527 263.364H339.323V265.436H337.265V263.364H332.995V261.894L337.377 255.44H339.323V261.726H340.527V263.364ZM337.265 260.032C337.265 259.817 337.27 259.556 337.279 259.248C337.289 258.94 337.298 258.655 337.307 258.394C337.326 258.123 337.34 257.946 337.349 257.862H337.293C337.209 258.048 337.121 258.23 337.027 258.408C336.934 258.585 336.822 258.767 336.691 258.954L334.857 261.726H337.265V260.032ZM344.465 258.968H346.327V261.222H344.465V258.968ZM350.387 253.704H352.249V261.208H350.387V253.704ZM341.539 259.556L341.343 258.268C342.174 258.268 343.056 258.263 343.989 258.254C344.922 258.244 345.87 258.221 346.831 258.184C347.792 258.146 348.726 258.086 349.631 258.002L349.729 259.15C348.796 259.28 347.853 259.374 346.901 259.43C345.949 259.486 345.02 259.523 344.115 259.542C343.21 259.551 342.351 259.556 341.539 259.556ZM343.191 261.614H352.249V264.652H345.053V265.674H343.205V263.476H350.415V262.874H343.191V261.614ZM343.205 265.31H352.557V266.598H343.205V265.31ZM348.105 259.71H350.961V260.83H348.105V259.71ZM345.459 253.9C346.103 253.9 346.668 253.979 347.153 254.138C347.638 254.296 348.016 254.52 348.287 254.81C348.558 255.099 348.693 255.444 348.693 255.846C348.693 256.238 348.558 256.578 348.287 256.868C348.016 257.157 347.638 257.381 347.153 257.54C346.668 257.698 346.103 257.778 345.459 257.778C344.815 257.778 344.246 257.698 343.751 257.54C343.266 257.381 342.888 257.157 342.617 256.868C342.346 256.578 342.211 256.238 342.211 255.846C342.211 255.444 342.346 255.099 342.617 254.81C342.888 254.52 343.266 254.296 343.751 254.138C344.246 253.979 344.815 253.9 345.459 253.9ZM345.459 255.118C345.002 255.118 344.633 255.178 344.353 255.3C344.082 255.421 343.947 255.603 343.947 255.846C343.947 256.079 344.082 256.256 344.353 256.378C344.633 256.499 345.002 256.56 345.459 256.56C345.926 256.56 346.29 256.499 346.551 256.378C346.822 256.256 346.957 256.079 346.957 255.846C346.957 255.603 346.822 255.421 346.551 255.3C346.29 255.178 345.926 255.118 345.459 255.118ZM366.749 253.69H368.611V266.696H366.749V253.69ZM361.625 254.6C362.287 254.6 362.875 254.791 363.389 255.174C363.902 255.547 364.303 256.084 364.593 256.784C364.891 257.474 365.041 258.291 365.041 259.234C365.041 260.186 364.891 261.012 364.593 261.712C364.303 262.402 363.902 262.939 363.389 263.322C362.875 263.695 362.287 263.882 361.625 263.882C360.971 263.882 360.388 263.695 359.875 263.322C359.361 262.939 358.955 262.402 358.657 261.712C358.367 261.012 358.223 260.186 358.223 259.234C358.223 258.291 358.367 257.474 358.657 256.784C358.955 256.084 359.361 255.547 359.875 255.174C360.388 254.791 360.971 254.6 361.625 254.6ZM361.625 256.294C361.307 256.294 361.027 256.406 360.785 256.63C360.542 256.854 360.351 257.185 360.211 257.624C360.08 258.053 360.015 258.59 360.015 259.234C360.015 259.868 360.08 260.41 360.211 260.858C360.351 261.296 360.542 261.628 360.785 261.852C361.027 262.076 361.307 262.188 361.625 262.188C361.951 262.188 362.236 262.076 362.479 261.852C362.721 261.628 362.908 261.296 363.039 260.858C363.179 260.41 363.249 259.868 363.249 259.234C363.249 258.59 363.179 258.053 363.039 257.624C362.908 257.185 362.721 256.854 362.479 256.63C362.236 256.406 361.951 256.294 361.625 256.294ZM371.284 255.062H381.854V256.518H371.284V255.062ZM370.738 262.104H382.484V263.588H370.738V262.104ZM375.666 263.42H377.514V266.682H375.666V263.42ZM376.604 257.022C377.994 257.022 379.082 257.213 379.866 257.596C380.65 257.978 381.042 258.529 381.042 259.248C381.042 259.966 380.65 260.522 379.866 260.914C379.082 261.296 377.99 261.488 376.59 261.488C375.199 261.488 374.112 261.296 373.328 260.914C372.544 260.522 372.152 259.966 372.152 259.248C372.152 258.529 372.544 257.978 373.328 257.596C374.112 257.213 375.204 257.022 376.604 257.022ZM376.59 258.408C375.75 258.408 375.12 258.473 374.7 258.604C374.289 258.734 374.084 258.949 374.084 259.248C374.084 259.537 374.289 259.752 374.7 259.892C375.12 260.032 375.75 260.102 376.59 260.102C377.439 260.102 378.069 260.032 378.48 259.892C378.9 259.752 379.11 259.537 379.11 259.248C379.11 258.949 378.9 258.734 378.48 258.604C378.069 258.473 377.439 258.408 376.59 258.408ZM375.666 253.704H377.514V256.028H375.666V253.704Z" fill="#222222"/>
<path d="M106 31C106 27.6863 108.686 25 112 25V25C115.314 25 118 27.6863 118 31V31C118 34.3137 115.314 37 112 37V37C108.686 37 106 34.3137 106 31V31Z" fill="#346990"/>
<path d="M128.718 32.692C129.623 32.692 130.402 32.7947 131.056 33C131.709 33.196 132.213 33.4853 132.568 33.868C132.922 34.2413 133.1 34.694 133.1 35.226C133.1 35.7487 132.922 36.2013 132.568 36.584C132.213 36.9667 131.709 37.256 131.056 37.452C130.402 37.6573 129.623 37.76 128.718 37.76C127.822 37.76 127.042 37.6573 126.38 37.452C125.726 37.256 125.218 36.9667 124.854 36.584C124.499 36.2013 124.322 35.7487 124.322 35.226C124.322 34.694 124.499 34.2413 124.854 33.868C125.218 33.4853 125.726 33.196 126.38 33C127.042 32.7947 127.822 32.692 128.718 32.692ZM128.718 34.162C128.167 34.162 127.705 34.1993 127.332 34.274C126.958 34.3487 126.674 34.4653 126.478 34.624C126.282 34.7733 126.184 34.974 126.184 35.226C126.184 35.4687 126.282 35.674 126.478 35.842C126.674 36.0007 126.958 36.122 127.332 36.206C127.705 36.2807 128.167 36.318 128.718 36.318C129.268 36.318 129.73 36.2807 130.104 36.206C130.486 36.122 130.771 36.0007 130.958 35.842C131.154 35.674 131.252 35.4687 131.252 35.226C131.252 34.974 131.154 34.7733 130.958 34.624C130.771 34.4653 130.486 34.3487 130.104 34.274C129.73 34.1993 129.268 34.162 128.718 34.162ZM131.084 24.782H132.946V32.412H131.084V24.782ZM132.442 27.792H134.668V29.318H132.442V27.792ZM123.118 25.594H124.966V27.204H127.514V25.594H129.348V31.698H123.118V25.594ZM124.966 28.632V30.242H127.514V28.632H124.966ZM138.517 26.224H140.043V27.036C140.043 27.8573 139.907 28.6367 139.637 29.374C139.375 30.1113 138.974 30.76 138.433 31.32C137.891 31.8707 137.205 32.2813 136.375 32.552L135.451 31.082C136.16 30.8487 136.739 30.522 137.187 30.102C137.644 29.6727 137.98 29.192 138.195 28.66C138.409 28.1187 138.517 27.5773 138.517 27.036V26.224ZM138.895 26.224H140.393V27.036C140.393 27.54 140.495 28.03 140.701 28.506C140.906 28.9727 141.223 29.3927 141.653 29.766C142.091 30.1393 142.661 30.4333 143.361 30.648L142.465 32.104C141.643 31.8613 140.967 31.488 140.435 30.984C139.912 30.4707 139.525 29.878 139.273 29.206C139.021 28.5247 138.895 27.8013 138.895 27.036V26.224ZM135.927 25.636H142.941V27.12H135.927V25.636ZM143.963 24.782H145.825V32.468H143.963V24.782ZM145.321 27.75H147.547V29.276H145.321V27.75ZM141.597 32.692C142.502 32.692 143.281 32.7947 143.935 33C144.588 33.196 145.092 33.4807 145.447 33.854C145.801 34.2273 145.979 34.68 145.979 35.212C145.979 35.744 145.801 36.1967 145.447 36.57C145.092 36.9527 144.588 37.242 143.935 37.438C143.281 37.6433 142.502 37.746 141.597 37.746C140.701 37.746 139.921 37.6433 139.259 37.438C138.605 37.242 138.097 36.9527 137.733 36.57C137.378 36.1967 137.201 35.744 137.201 35.212C137.201 34.68 137.378 34.2273 137.733 33.854C138.097 33.4807 138.605 33.196 139.259 33C139.921 32.7947 140.701 32.692 141.597 32.692ZM141.597 34.148C141.046 34.148 140.584 34.1853 140.211 34.26C139.837 34.3347 139.553 34.4513 139.357 34.61C139.161 34.7687 139.063 34.9693 139.063 35.212C139.063 35.464 139.161 35.6693 139.357 35.828C139.553 35.9867 139.837 36.108 140.211 36.192C140.584 36.2667 141.046 36.304 141.597 36.304C142.147 36.304 142.609 36.2667 142.983 36.192C143.365 36.108 143.65 35.9867 143.837 35.828C144.033 35.6693 144.131 35.464 144.131 35.212C144.131 34.9693 144.033 34.7687 143.837 34.61C143.65 34.4513 143.365 34.3347 142.983 34.26C142.609 34.1853 142.147 34.148 141.597 34.148ZM152.134 32.664C152.134 31.5253 152.298 30.4287 152.624 29.374C152.96 28.31 153.483 27.3533 154.192 26.504H155.9C155.266 27.3813 154.78 28.3473 154.444 29.402C154.118 30.4567 153.954 31.5393 153.954 32.65C153.954 33.7327 154.118 34.8013 154.444 35.856C154.78 36.9013 155.261 37.8533 155.886 38.712H154.192C153.483 37.8907 152.96 36.962 152.624 35.926C152.298 34.8807 152.134 33.7933 152.134 32.664ZM158.376 25.244H160.21V26.504H165.278V25.244H167.126V30.522H158.376V25.244ZM160.21 27.946V29.066H165.278V27.946H160.21ZM156.878 31.628H168.61V33.098H156.878V31.628ZM161.806 29.752H163.654V32.244H161.806V29.752ZM158.306 36.024H167.294V37.522H158.306V36.024ZM158.306 33.868H160.168V36.584H158.306V33.868ZM178.675 24.782H180.537V34.092H178.675V24.782ZM171.899 36.024H180.873V37.522H171.899V36.024ZM171.899 33.168H173.761V36.64H171.899V33.168ZM173.481 25.608C174.144 25.608 174.741 25.748 175.273 26.028C175.805 26.308 176.225 26.6953 176.533 27.19C176.851 27.6847 177.009 28.254 177.009 28.898C177.009 29.5233 176.851 30.088 176.533 30.592C176.225 31.0867 175.805 31.4787 175.273 31.768C174.741 32.048 174.144 32.188 173.481 32.188C172.819 32.188 172.221 32.048 171.689 31.768C171.157 31.4787 170.733 31.0867 170.415 30.592C170.107 30.088 169.953 29.5233 169.953 28.898C169.953 28.254 170.107 27.6847 170.415 27.19C170.733 26.6953 171.157 26.308 171.689 26.028C172.221 25.748 172.819 25.608 173.481 25.608ZM173.481 27.204C173.164 27.204 172.875 27.274 172.613 27.414C172.352 27.5447 172.147 27.736 171.997 27.988C171.848 28.2307 171.773 28.534 171.773 28.898C171.773 29.2433 171.848 29.542 171.997 29.794C172.147 30.0367 172.352 30.228 172.613 30.368C172.875 30.4987 173.164 30.564 173.481 30.564C173.799 30.564 174.088 30.4987 174.349 30.368C174.611 30.228 174.816 30.0367 174.965 29.794C175.115 29.542 175.189 29.2433 175.189 28.898C175.189 28.534 175.115 28.2307 174.965 27.988C174.816 27.736 174.611 27.5447 174.349 27.414C174.088 27.274 173.799 27.204 173.481 27.204ZM186.262 32.664C186.262 33.7933 186.094 34.8807 185.758 35.926C185.432 36.962 184.914 37.8907 184.204 38.712H182.51C183.145 37.8533 183.626 36.9013 183.952 35.856C184.279 34.8013 184.442 33.7327 184.442 32.65C184.442 31.5393 184.274 30.4567 183.938 29.402C183.612 28.3473 183.131 27.3813 182.496 26.504H184.204C184.914 27.3533 185.432 28.31 185.758 29.374C186.094 30.4287 186.262 31.5253 186.262 32.664Z" fill="#222222"/>
<path d="M197 31C197 27.6863 199.686 25 203 25V25C206.314 25 209 27.6863 209 31V31C209 34.3137 206.314 37 203 37V37C199.686 37 197 34.3137 197 31V31Z" fill="#37A3E2"/>
<path d="M222.977 24.782H224.741V32.244H222.977V24.782ZM220.373 25.006H222.109V32.118H220.373V25.006ZM218.805 27.82H220.863V29.318H218.805V27.82ZM214.143 25.72H219.267V31.502H214.143V25.72ZM217.545 27.134H215.879V30.102H217.545V27.134ZM215.949 32.776H224.741V37.606H215.949V32.776ZM222.921 34.232H217.783V36.136H222.921V34.232ZM235.59 24.754H237.452V37.76H235.59V24.754ZM232.65 29.318H236.122V30.816H232.65V29.318ZM227.05 25.776H228.898V28.926H231.446V25.776H233.28V34.708H227.05V25.776ZM228.898 30.368V33.224H231.446V30.368H228.898Z" fill="#222222"/>
</svg>
