<svg width="562" height="315" viewBox="0 0 562 315" fill="none" xmlns="http://www.w3.org/2000/svg">
<g clip-path="url(#clip0_1144_196)">
<path d="M2.20408 171.292V162.329H21.4531V171.292H2.20408ZM63.7175 175.627H57.3991V186.5H46.5991V175.627H24.1909V167.912L47.1869 134.043H57.3991V167.031H63.7175V175.627ZM46.5991 158.141C46.5991 157.014 46.6236 155.643 46.6726 154.027C46.7216 152.41 46.7705 150.916 46.8195 149.545C46.9175 148.124 46.9909 147.194 47.0399 146.753H46.746C46.3052 147.733 45.8399 148.688 45.3501 149.618C44.8603 150.549 44.2726 151.504 43.5869 152.484L33.9624 167.031H46.5991V158.141ZM103.557 160.271C103.557 165.904 102.945 170.729 101.721 174.745C100.545 178.761 98.6105 181.847 95.9166 184.002C93.2717 186.157 89.6962 187.235 85.1901 187.235C78.8717 187.235 74.2431 184.859 71.3043 180.108C68.3656 175.308 66.8962 168.696 66.8962 160.271C66.8962 154.59 67.4839 149.741 68.6594 145.724C69.8349 141.708 71.7696 138.622 74.4635 136.467C77.1574 134.312 80.7329 133.235 85.1901 133.235C91.4594 133.235 96.088 135.61 99.0758 140.361C102.064 145.112 103.557 151.749 103.557 160.271ZM77.9166 160.271C77.9166 166.247 78.4309 170.753 79.4594 173.79C80.488 176.778 82.3982 178.271 85.1901 178.271C87.9329 178.271 89.8431 176.778 90.9207 173.79C91.9982 170.802 92.537 166.296 92.537 160.271C92.537 154.296 91.9982 149.79 90.9207 146.753C89.8431 143.716 87.9329 142.198 85.1901 142.198C82.3982 142.198 80.488 143.716 79.4594 146.753C78.4309 149.79 77.9166 154.296 77.9166 160.271ZM120.181 133.308C124.295 133.308 127.405 134.753 129.512 137.643C131.667 140.484 132.744 144.5 132.744 149.692C132.744 154.884 131.74 158.949 129.732 161.888C127.724 164.778 124.54 166.222 120.181 166.222C116.165 166.222 113.103 164.778 110.997 161.888C108.891 158.949 107.838 154.884 107.838 149.692C107.838 144.5 108.818 140.484 110.777 137.643C112.736 134.753 115.871 133.308 120.181 133.308ZM157.43 134.043L128.336 186.5H119.74L148.834 134.043H157.43ZM120.254 140.802C118.001 140.802 116.875 143.79 116.875 149.765C116.875 155.79 118.001 158.802 120.254 158.802C122.556 158.802 123.708 155.79 123.708 149.765C123.708 143.79 122.556 140.802 120.254 140.802ZM156.916 154.247C161.03 154.247 164.14 155.692 166.246 158.582C168.401 161.422 169.479 165.439 169.479 170.631C169.479 175.822 168.475 179.888 166.467 182.827C164.459 185.716 161.275 187.161 156.916 187.161C152.899 187.161 149.838 185.716 147.732 182.827C145.626 179.888 144.573 175.822 144.573 170.631C144.573 165.439 145.552 161.422 147.512 158.582C149.471 155.692 152.605 154.247 156.916 154.247ZM156.989 161.741C154.736 161.741 153.61 164.729 153.61 170.704C153.61 176.729 154.736 179.741 156.989 179.741C159.291 179.741 160.442 176.729 160.442 170.704C160.442 164.729 159.291 161.741 156.989 161.741Z" fill="#37A3E2"/>
</g>
<defs>
<clipPath id="clip0_1144_196">
<rect width="562" height="315" fill="white"/>
</clipPath>
</defs>
</svg>
