<svg width="30" height="30" viewBox="0 0 30 30" fill="none" xmlns="http://www.w3.org/2000/svg">
<rect width="30" height="30" rx="5.76923" fill="white"/>
<path d="M24.3738 11.7277L19.697 8.45081C19.5186 8.32597 19.2913 8.32152 19.1129 8.4196L16.2061 10.4794C16.4067 10.3768 16.6385 10.408 16.8079 10.5373L21.0122 13.4799C21.4803 13.8053 21.73 14.327 21.73 14.8575V21.1215C21.7211 21.2642 21.6587 21.398 21.5472 21.505L24.5343 19.7796C24.8687 19.5879 25.0961 19.2267 25.0961 18.8121V13.1054C25.0961 12.5347 24.8108 12.0309 24.3783 11.7277H24.3738Z" fill="#961E1E"/>
<path d="M19.1082 8.41957L15.3721 10.573C15.1982 10.68 14.9664 10.6889 14.7791 10.573L10.5882 7.63489C10.4099 7.51006 10.1825 7.5056 10.0042 7.60368L5.75977 10.0513C6.34382 9.71696 7.04379 9.77046 7.56096 10.1316L11.4487 12.8557C11.6226 12.9805 11.8455 12.985 12.0238 12.8958L16.2058 10.4838L19.1082 8.41957Z" fill="#C81414"/>
<path d="M17.9714 17.1136L13.7894 19.5256C13.5888 19.6281 13.3569 19.5969 13.1875 19.4676L8.98325 16.5251C8.51511 16.1996 8.26544 15.678 8.26544 15.1475V8.88342C8.27436 8.74075 8.33678 8.607 8.44824 8.5L5.46557 10.2209C5.13119 10.4126 4.90381 10.7738 4.90381 11.1884V16.8996C4.90381 17.4703 5.18915 17.9741 5.62161 18.2772L10.2985 21.5542C10.4768 21.679 10.7042 21.6835 10.8825 21.5854L14.6187 19.432L17.9669 17.1136H17.9714Z" fill="#FF0209"/>
<path d="M15.2116 19.4313L19.4025 22.3649C19.5809 22.4898 19.8082 22.4942 19.9866 22.3961L24.231 19.9485C23.6469 20.2829 22.9469 20.2294 22.4298 19.8682L18.542 17.1442C18.3682 17.0193 18.1452 17.0149 17.9669 17.104L14.6187 19.4224C14.7925 19.3154 15.0244 19.3065 15.2116 19.4224V19.4313Z" fill="#FF325F"/>
</svg>
