<svg width="562" height="315" viewBox="0 0 562 315" fill="none" xmlns="http://www.w3.org/2000/svg">
<g clip-path="url(#clip0_1144_173)">
<path d="M39.3796 156.451C39.3796 159.439 39.1592 162.427 38.7184 165.414C38.2775 168.353 37.4939 171.145 36.3673 173.79C35.2898 176.386 33.7469 178.712 31.7388 180.769C29.7796 182.778 27.2571 184.369 24.1714 185.545C21.1347 186.671 17.4367 187.235 13.0776 187.235C12.049 187.235 10.849 187.186 9.47755 187.088C8.10612 187.039 6.9551 186.916 6.02449 186.72V177.831C7.00408 178.027 8.03265 178.198 9.1102 178.345C10.1878 178.492 11.2653 178.565 12.3429 178.565C16.702 178.565 20.0571 177.88 22.4082 176.508C24.8082 175.088 26.498 173.153 27.4776 170.704C28.4571 168.255 29.0204 165.414 29.1673 162.182H28.7265C27.698 163.896 26.3265 165.341 24.6122 166.516C22.9469 167.692 20.449 168.28 17.1184 168.28C12.6612 168.28 9.08571 166.835 6.39184 163.945C3.69796 161.055 2.35102 156.965 2.35102 151.676C2.35102 145.994 3.94286 141.537 7.12653 138.304C10.3592 135.071 14.7184 133.455 20.2041 133.455C23.7796 133.455 27.0122 134.288 29.902 135.953C32.7918 137.569 35.0939 140.092 36.8082 143.52C38.5224 146.9 39.3796 151.21 39.3796 156.451ZM20.4245 142.345C18.2694 142.345 16.5061 143.08 15.1347 144.549C13.7633 146.018 13.0776 148.345 13.0776 151.529C13.0776 154.076 13.6653 156.084 14.8408 157.553C16.0163 159.022 17.8041 159.757 20.2041 159.757C21.8694 159.757 23.2898 159.39 24.4653 158.655C25.6898 157.92 26.6449 157.014 27.3306 155.937C28.0163 154.81 28.3592 153.659 28.3592 152.484C28.3592 150.867 28.0653 149.276 27.4776 147.708C26.8898 146.141 26.0082 144.867 24.8327 143.888C23.6571 142.859 22.1878 142.345 20.4245 142.345ZM80.6154 160.271C80.6154 165.904 80.0032 170.729 78.7787 174.745C77.6032 178.761 75.6685 181.847 72.9746 184.002C70.3297 186.157 66.7542 187.235 62.2481 187.235C55.9297 187.235 51.3011 184.859 48.3624 180.108C45.4236 175.308 43.9542 168.696 43.9542 160.271C43.9542 154.59 44.542 149.741 45.7175 145.724C46.893 141.708 48.8277 138.622 51.5216 136.467C54.2154 134.312 57.7909 133.235 62.2481 133.235C68.5175 133.235 73.146 135.61 76.1338 140.361C79.1216 145.112 80.6154 151.749 80.6154 160.271ZM54.9746 160.271C54.9746 166.247 55.4889 170.753 56.5175 173.79C57.546 176.778 59.4562 178.271 62.2481 178.271C64.9909 178.271 66.9011 176.778 67.9787 173.79C69.0562 170.802 69.595 166.296 69.595 160.271C69.595 154.296 69.0562 149.79 67.9787 146.753C66.9011 143.716 64.9909 142.198 62.2481 142.198C59.4562 142.198 57.546 143.716 56.5175 146.753C55.4889 149.79 54.9746 154.296 54.9746 160.271ZM97.239 133.308C101.353 133.308 104.464 134.753 106.57 137.643C108.725 140.484 109.802 144.5 109.802 149.692C109.802 154.884 108.798 158.949 106.79 161.888C104.782 164.778 101.598 166.222 97.239 166.222C93.2227 166.222 90.1615 164.778 88.0553 161.888C85.9492 158.949 84.8962 154.884 84.8962 149.692C84.8962 144.5 85.8758 140.484 87.8349 137.643C89.7941 134.753 92.9288 133.308 97.239 133.308ZM134.488 134.043L105.394 186.5H96.7982L125.892 134.043H134.488ZM97.3125 140.802C95.0594 140.802 93.9329 143.79 93.9329 149.765C93.9329 155.79 95.0594 158.802 97.3125 158.802C99.6145 158.802 100.766 155.79 100.766 149.765C100.766 143.79 99.6145 140.802 97.3125 140.802ZM133.974 154.247C138.088 154.247 141.198 155.692 143.304 158.582C145.459 161.422 146.537 165.439 146.537 170.631C146.537 175.822 145.533 179.888 143.525 182.827C141.517 185.716 138.333 187.161 133.974 187.161C129.957 187.161 126.896 185.716 124.79 182.827C122.684 179.888 121.631 175.822 121.631 170.631C121.631 165.439 122.61 161.422 124.57 158.582C126.529 155.692 129.664 154.247 133.974 154.247ZM134.047 161.741C131.794 161.741 130.668 164.729 130.668 170.704C130.668 176.729 131.794 179.741 134.047 179.741C136.349 179.741 137.5 176.729 137.5 170.704C137.5 164.729 136.349 161.741 134.047 161.741Z" fill="#37A3E2"/>
<path d="M158.877 164.847L157.163 163.133L166.224 154.01L171.122 158.908L177.49 152.602H174.306V150.153H181.653V157.5H179.204V154.316L171.122 162.398L166.224 157.5L158.877 164.847Z" fill="#37A3E2"/>
</g>
<defs>
<clipPath id="clip0_1144_173">
<rect width="562" height="315" fill="white"/>
</clipPath>
</defs>
</svg>
