<svg width="562" height="315" viewBox="0 0 562 315" fill="none" xmlns="http://www.w3.org/2000/svg">
<g clip-path="url(#clip0_1144_174)">
<path d="M40.7755 175.627H34.4571V186.5H23.6571V175.627H1.24898V167.912L24.2449 134.043H34.4571V167.031H40.7755V175.627ZM23.6571 158.141C23.6571 157.014 23.6816 155.643 23.7306 154.027C23.7796 152.41 23.8286 150.916 23.8776 149.545C23.9755 148.124 24.049 147.194 24.098 146.753H23.8041C23.3633 147.733 22.898 148.688 22.4082 149.618C21.9184 150.549 21.3306 151.504 20.6449 152.484L11.0204 167.031H23.6571V158.141ZM57.7664 178.786C57.1297 181.382 56.2236 184.222 55.0481 187.308C53.8726 190.394 52.6726 193.284 51.4481 195.978H43.5869C44.2726 193.088 44.9583 190.002 45.644 186.72C46.3297 183.439 46.844 180.524 47.1869 177.978H57.2522L57.7664 178.786ZM102.3 175.627H95.982V186.5H85.182V175.627H62.7738V167.912L85.7698 134.043H95.982V167.031H102.3V175.627ZM85.182 158.141C85.182 157.014 85.2065 155.643 85.2555 154.027C85.3045 152.41 85.3534 150.916 85.4024 149.545C85.5004 148.124 85.5738 147.194 85.6228 146.753H85.3289C84.8881 147.733 84.4228 148.688 83.933 149.618C83.4432 150.549 82.8555 151.504 82.1698 152.484L72.5453 167.031H85.182V158.141ZM140.377 145.798C140.377 149.422 139.275 152.312 137.071 154.467C134.916 156.622 132.246 158.092 129.063 158.876V159.096C133.275 159.586 136.459 160.859 138.614 162.916C140.818 164.973 141.92 167.741 141.92 171.218C141.92 174.255 141.161 176.998 139.642 179.447C138.173 181.847 135.871 183.757 132.736 185.178C129.651 186.549 125.659 187.235 120.761 187.235C115.079 187.235 110.034 186.28 105.626 184.369V174.965C107.879 176.092 110.23 176.949 112.679 177.537C115.177 178.124 117.479 178.418 119.585 178.418C123.553 178.418 126.32 177.733 127.887 176.361C129.504 174.99 130.312 173.055 130.312 170.557C130.312 169.088 129.944 167.863 129.21 166.884C128.475 165.855 127.177 165.096 125.316 164.606C123.504 164.067 120.957 163.798 117.675 163.798H113.708V155.276H117.748C120.981 155.276 123.43 154.982 125.095 154.394C126.81 153.757 127.961 152.924 128.548 151.896C129.185 150.818 129.504 149.594 129.504 148.222C129.504 146.361 128.916 144.916 127.74 143.888C126.614 142.81 124.704 142.271 122.01 142.271C119.512 142.271 117.332 142.712 115.471 143.594C113.659 144.427 112.116 145.259 110.842 146.092L105.699 138.451C107.757 136.982 110.157 135.757 112.899 134.778C115.691 133.798 118.997 133.308 122.818 133.308C128.206 133.308 132.467 134.41 135.602 136.614C138.785 138.769 140.377 141.831 140.377 145.798ZM166.184 152.998C169.368 152.998 172.209 153.61 174.707 154.835C177.205 156.059 179.164 157.847 180.584 160.198C182.054 162.549 182.788 165.463 182.788 168.941C182.788 174.622 181.025 179.104 177.499 182.386C173.972 185.618 168.756 187.235 161.85 187.235C159.107 187.235 156.511 186.99 154.062 186.5C151.662 186.01 149.556 185.3 147.743 184.369V174.818C149.556 175.749 151.735 176.557 154.282 177.243C156.829 177.88 159.229 178.198 161.482 178.198C164.764 178.198 167.262 177.537 168.976 176.214C170.739 174.843 171.621 172.737 171.621 169.896C171.621 164.606 168.119 161.961 161.115 161.961C159.743 161.961 158.323 162.108 156.854 162.402C155.384 162.647 154.16 162.892 153.18 163.137L148.772 160.786L150.756 134.043H179.188V143.447H160.454L159.499 153.733C160.331 153.586 161.213 153.439 162.143 153.292C163.123 153.096 164.47 152.998 166.184 152.998Z" fill="#37A3E2"/>
<g clip-path="url(#climyKeyword_project_1144_174)">
<path d="M215.102 158.958H206.356V167.704H203.44V158.958H194.694V156.042H203.44V147.296H206.356V156.042H215.102V158.958Z" fill="#37A3E2"/>
</g>
</g>
<defs>
<clipPath id="clip0_1144_174">
<rect width="562" height="315" fill="white"/>
</clipPath>
<clipPath id="climyKeyword_project_1144_174">
<rect width="20.4082" height="66.9388" fill="white" transform="translate(194.694 124.031)"/>
</clipPath>
</defs>
</svg>
