<svg width="562" height="315" viewBox="0 0 562 315" fill="none" xmlns="http://www.w3.org/2000/svg">
<g clip-path="url(#clip0_1144_175)">
<path d="M281.247 17.2528C358.703 17.2528 421.494 80.0435 421.494 157.5C421.494 234.956 358.703 297.747 281.247 297.747C203.791 297.747 141 234.956 141 157.5C141 94.3399 182.752 40.9328 240.16 23.369L252.693 69.7401L280.407 73.5858V17.2577C280.687 17.256 280.967 17.2528 281.247 17.2528Z" fill="#37A3E2"/>
<circle cx="281.247" cy="157.5" r="93.4981" fill="white"/>
<path d="M269.794 140.702L271.477 142.385L267.893 145.937C267.457 146.389 266.678 146.389 266.241 145.937C265.805 145.486 265.789 144.722 266.241 144.286L269.794 140.702ZM291.283 122.002V119.789L281.482 129.591L271.68 119.789V122.002L280.375 130.697L274.469 136.634C272.63 135.325 270.075 135.481 268.439 137.117L275.061 143.74C276.698 142.104 276.853 139.548 275.56 137.71L291.283 122.002ZM296.722 144.286L293.169 140.702L291.486 142.385L295.07 145.937C295.506 146.389 296.285 146.389 296.722 145.937C297.158 145.486 297.174 144.722 296.722 144.286ZM288.494 136.634L283.694 131.804L282.588 132.91L287.419 137.71C286.11 139.548 286.266 142.104 287.902 143.74L294.525 137.117C292.888 135.481 290.333 135.325 288.494 136.634Z" fill="#37A3E2"/>
<path d="M235.367 184.442H232.151V189.977H226.653V184.442H215.247V180.515L226.953 163.274H232.151V180.066H235.367V184.442ZM226.653 175.541C226.653 174.967 226.666 174.269 226.691 173.446C226.716 172.623 226.741 171.863 226.766 171.165C226.815 170.442 226.853 169.968 226.878 169.744H226.728C226.504 170.242 226.267 170.728 226.018 171.202C225.768 171.676 225.469 172.162 225.12 172.661L220.221 180.066H226.653V175.541ZM255.685 174.68C255.685 176.201 255.573 177.722 255.349 179.243C255.124 180.739 254.725 182.16 254.152 183.507C253.603 184.828 252.818 186.012 251.796 187.059C250.798 188.082 249.514 188.892 247.944 189.49C246.398 190.064 244.515 190.351 242.296 190.351C241.773 190.351 241.162 190.326 240.464 190.276C239.766 190.251 239.18 190.189 238.706 190.089V185.564C239.205 185.663 239.728 185.751 240.277 185.825C240.825 185.9 241.374 185.938 241.922 185.938C244.141 185.938 245.849 185.588 247.046 184.89C248.268 184.167 249.128 183.182 249.626 181.936C250.125 180.689 250.412 179.243 250.487 177.597H250.262C249.739 178.47 249.041 179.206 248.168 179.804C247.32 180.402 246.049 180.702 244.353 180.702C242.084 180.702 240.264 179.966 238.893 178.495C237.522 177.024 236.836 174.942 236.836 172.249C236.836 169.357 237.646 167.088 239.267 165.443C240.912 163.797 243.131 162.974 245.924 162.974C247.744 162.974 249.39 163.398 250.861 164.246C252.332 165.069 253.504 166.353 254.376 168.098C255.249 169.818 255.685 172.013 255.685 174.68ZM246.036 167.5C244.939 167.5 244.042 167.874 243.343 168.622C242.645 169.37 242.296 170.554 242.296 172.175C242.296 173.471 242.595 174.493 243.194 175.241C243.792 175.989 244.702 176.363 245.924 176.363C246.772 176.363 247.495 176.176 248.093 175.802C248.716 175.428 249.203 174.967 249.552 174.419C249.901 173.845 250.075 173.259 250.075 172.661C250.075 171.838 249.926 171.028 249.626 170.23C249.327 169.432 248.878 168.784 248.28 168.285C247.682 167.761 246.934 167.5 246.036 167.5ZM257.976 178.645C257.976 177.099 258.089 175.578 258.313 174.082C258.537 172.586 258.924 171.177 259.472 169.856C260.046 168.509 260.831 167.325 261.829 166.303C262.851 165.256 264.135 164.445 265.681 163.872C267.251 163.274 269.146 162.974 271.365 162.974C271.889 162.974 272.5 162.999 273.198 163.049C273.896 163.074 274.482 163.136 274.956 163.236V167.761C274.482 167.637 273.958 167.55 273.385 167.5C272.836 167.425 272.288 167.387 271.739 167.387C269.52 167.387 267.8 167.737 266.578 168.435C265.381 169.133 264.534 170.118 264.035 171.389C263.536 172.636 263.25 174.082 263.175 175.728H263.399C263.898 174.855 264.609 174.119 265.531 173.521C266.479 172.923 267.7 172.623 269.196 172.623C271.54 172.623 273.397 173.359 274.769 174.83C276.14 176.301 276.826 178.383 276.826 181.076C276.826 183.968 276.003 186.237 274.357 187.882C272.737 189.528 270.53 190.351 267.738 190.351C265.918 190.351 264.272 189.939 262.801 189.116C261.33 188.269 260.158 186.985 259.285 185.264C258.413 183.519 257.976 181.312 257.976 178.645ZM267.625 185.825C268.722 185.825 269.62 185.451 270.318 184.703C271.016 183.93 271.365 182.746 271.365 181.15C271.365 179.854 271.066 178.832 270.468 178.084C269.869 177.336 268.959 176.962 267.738 176.962C266.915 176.962 266.192 177.149 265.568 177.523C264.945 177.872 264.459 178.333 264.11 178.906C263.761 179.48 263.586 180.066 263.586 180.664C263.586 181.487 263.736 182.297 264.035 183.095C264.334 183.868 264.783 184.516 265.381 185.04C266.005 185.564 266.753 185.825 267.625 185.825Z" fill="#37A3E2"/>
<g clip-path="url(#climyKeyword_project_1144_175)">
<path d="M293.795 172.949L286.334 192.977H282.547L290.008 172.949H293.795ZM309.078 180.186C310.293 180.186 311.378 180.42 312.331 180.887C313.285 181.355 314.033 182.037 314.575 182.935C315.136 183.833 315.417 184.945 315.417 186.273C315.417 188.442 314.744 190.153 313.397 191.406C312.051 192.64 310.059 193.257 307.423 193.257C306.375 193.257 305.384 193.164 304.449 192.977C303.533 192.79 302.729 192.518 302.037 192.163V188.517C302.729 188.872 303.561 189.181 304.534 189.442C305.506 189.685 306.422 189.807 307.282 189.807C308.535 189.807 309.489 189.555 310.143 189.05C310.817 188.526 311.153 187.722 311.153 186.637C311.153 184.618 309.816 183.608 307.142 183.608C306.619 183.608 306.076 183.664 305.515 183.776C304.954 183.87 304.487 183.963 304.113 184.057L302.43 183.159L303.187 172.949H314.042V176.54H306.89L306.525 180.467C306.843 180.41 307.18 180.354 307.535 180.298C307.909 180.223 308.423 180.186 309.078 180.186ZM331.44 182.963C331.44 185.113 331.207 186.955 330.739 188.489C330.29 190.022 329.552 191.2 328.523 192.023C327.513 192.846 326.148 193.257 324.428 193.257C322.016 193.257 320.249 192.35 319.127 190.536C318.005 188.704 317.444 186.179 317.444 182.963C317.444 180.794 317.668 178.943 318.117 177.409C318.566 175.876 319.304 174.698 320.333 173.875C321.361 173.052 322.726 172.641 324.428 172.641C326.822 172.641 328.589 173.548 329.729 175.362C330.87 177.175 331.44 179.709 331.44 182.963ZM321.651 182.963C321.651 185.244 321.847 186.965 322.24 188.124C322.633 189.265 323.362 189.835 324.428 189.835C325.475 189.835 326.205 189.265 326.616 188.124C327.027 186.983 327.233 185.263 327.233 182.963C327.233 180.682 327.027 178.961 326.616 177.802C326.205 176.642 325.475 176.063 324.428 176.063C323.362 176.063 322.633 176.642 322.24 177.802C321.847 178.961 321.651 180.682 321.651 182.963ZM347.212 182.963C347.212 185.113 346.978 186.955 346.51 188.489C346.062 190.022 345.323 191.2 344.294 192.023C343.285 192.846 341.92 193.257 340.199 193.257C337.787 193.257 336.02 192.35 334.898 190.536C333.776 188.704 333.215 186.179 333.215 182.963C333.215 180.794 333.439 178.943 333.888 177.409C334.337 175.876 335.076 174.698 336.104 173.875C337.133 173.052 338.498 172.641 340.199 172.641C342.593 172.641 344.36 173.548 345.501 175.362C346.641 177.175 347.212 179.709 347.212 182.963ZM337.422 182.963C337.422 185.244 337.619 186.965 338.011 188.124C338.404 189.265 339.133 189.835 340.199 189.835C341.246 189.835 341.976 189.265 342.387 188.124C342.799 186.983 343.004 185.263 343.004 182.963C343.004 180.682 342.799 178.961 342.387 177.802C341.976 176.642 341.246 176.063 340.199 176.063C339.133 176.063 338.404 176.642 338.011 177.802C337.619 178.961 337.422 180.682 337.422 182.963Z" fill="#D8D7E9"/>
</g>
</g>
<defs>
<clipPath id="clip0_1144_175">
<rect width="280.494" height="280.494" fill="white" transform="translate(141 17.2528)"/>
</clipPath>
<clipPath id="climyKeyword_project_1144_175">
<rect width="66" height="38" fill="white" transform="translate(282.351 162.977)"/>
</clipPath>
</defs>
</svg>
