<svg width="860" height="328" viewBox="0 0 860 328" fill="none" xmlns="http://www.w3.org/2000/svg">
<path d="M37.5429 111.298C37.5429 114.922 36.4408 117.812 34.2367 119.967C32.0816 122.122 29.4122 123.592 26.2286 124.376V124.596C30.4408 125.086 33.6245 126.359 35.7796 128.416C37.9837 130.473 39.0857 133.241 39.0857 136.718C39.0857 139.755 38.3265 142.498 36.8082 144.947C35.3388 147.347 33.0367 149.257 29.902 150.678C26.8163 152.049 22.8245 152.735 17.9265 152.735C12.2449 152.735 7.2 151.78 2.79184 149.869V140.465C5.0449 141.592 7.39592 142.449 9.8449 143.037C12.3429 143.624 14.6449 143.918 16.751 143.918C20.7184 143.918 23.4857 143.233 25.0531 141.861C26.6694 140.49 27.4776 138.555 27.4776 136.057C27.4776 134.588 27.1102 133.363 26.3755 132.384C25.6408 131.355 24.3429 130.596 22.4816 130.106C20.6694 129.567 18.1224 129.298 14.8408 129.298H10.8735V120.776H14.9143C18.1469 120.776 20.5959 120.482 22.2612 119.894C23.9755 119.257 25.1265 118.424 25.7143 117.396C26.351 116.318 26.6694 115.094 26.6694 113.722C26.6694 111.861 26.0816 110.416 24.9061 109.388C23.7796 108.31 21.8694 107.771 19.1755 107.771C16.6776 107.771 14.498 108.212 12.6367 109.094C10.8245 109.927 9.28163 110.759 8.00816 111.592L2.86531 103.951C4.92245 102.482 7.32245 101.257 10.0653 100.278C12.8571 99.298 16.1633 98.8082 19.9837 98.8082C25.3714 98.8082 29.6327 99.9102 32.7673 102.114C35.951 104.269 37.5429 107.331 37.5429 111.298ZM57.7664 144.286C57.1297 146.882 56.2236 149.722 55.0481 152.808C53.8726 155.894 52.6726 158.784 51.4481 161.478H43.5869C44.2726 158.588 44.9583 155.502 45.644 152.22C46.3297 148.939 46.844 146.024 47.1869 143.478H57.2522L57.7664 144.286ZM69.68 152L89.3698 108.873H63.5085V99.5429H101.125V106.522L81.2881 152H69.68ZM142.14 125.771C142.14 131.404 141.528 136.229 140.304 140.245C139.128 144.261 137.193 147.347 134.499 149.502C131.855 151.657 128.279 152.735 123.773 152.735C117.455 152.735 112.826 150.359 109.887 145.608C106.948 140.808 105.479 134.196 105.479 125.771C105.479 120.09 106.067 115.241 107.242 111.224C108.418 107.208 110.353 104.122 113.046 101.967C115.74 99.8122 119.316 98.7347 123.773 98.7347C130.042 98.7347 134.671 101.11 137.659 105.861C140.646 110.612 142.14 117.249 142.14 125.771ZM116.499 125.771C116.499 131.747 117.014 136.253 118.042 139.29C119.071 142.278 120.981 143.771 123.773 143.771C126.516 143.771 128.426 142.278 129.504 139.29C130.581 136.302 131.12 131.796 131.12 125.771C131.12 119.796 130.581 115.29 129.504 112.253C128.426 109.216 126.516 107.698 123.773 107.698C120.981 107.698 119.071 109.216 118.042 112.253C117.014 115.29 116.499 119.796 116.499 125.771ZM183.45 125.771C183.45 131.404 182.837 136.229 181.613 140.245C180.437 144.261 178.503 147.347 175.809 149.502C173.164 151.657 169.588 152.735 165.082 152.735C158.764 152.735 154.135 150.359 151.197 145.608C148.258 140.808 146.788 134.196 146.788 125.771C146.788 120.09 147.376 115.241 148.552 111.224C149.727 107.208 151.662 104.122 154.356 101.967C157.05 99.8122 160.625 98.7347 165.082 98.7347C171.352 98.7347 175.98 101.11 178.968 105.861C181.956 110.612 183.45 117.249 183.45 125.771ZM157.809 125.771C157.809 131.747 158.323 136.253 159.352 139.29C160.38 142.278 162.29 143.771 165.082 143.771C167.825 143.771 169.735 142.278 170.813 139.29C171.89 136.302 172.429 131.796 172.429 125.771C172.429 119.796 171.89 115.29 170.813 112.253C169.735 109.216 167.825 107.698 165.082 107.698C162.29 107.698 160.38 109.216 159.352 112.253C158.323 115.29 157.809 119.796 157.809 125.771Z" fill="#37A3E2"/>
<g clip-path="url(#clip0_1144_181)">
<path d="M215.102 124.458H206.356V133.204H203.44V124.458H194.694V121.542H203.44V112.796H206.356V121.542H215.102V124.458Z" fill="#37A3E2"/>
</g>
<defs>
<clipPath id="clip0_1144_181">
<rect width="20.4082" height="66.9388" fill="white" transform="translate(194.694 89.5305)"/>
</clipPath>
</defs>
</svg>
