<svg width="860" height="328" viewBox="0 0 860 328" fill="none" xmlns="http://www.w3.org/2000/svg">
<path d="M7.90465 99.1511H10.7312C10.7312 100.793 10.3947 102.26 9.72172 103.552C9.06219 104.845 8.09982 105.948 6.8346 106.864C5.58284 107.765 4.04169 108.472 2.21116 108.983L1.18149 106.884C2.67552 106.48 3.92055 105.962 4.91658 105.329C5.9126 104.683 6.65962 103.95 7.15763 103.128C7.65565 102.294 7.90465 101.392 7.90465 100.423V99.1511ZM2.19097 99.1511H9.78229V101.291H2.19097V99.1511ZM14.0423 98.081H16.7477V108.539H14.0423V98.081ZM10.8322 102.523H14.4259V104.703H10.8322V102.523ZM4.41184 109.307H16.7477V116.595H4.41184V109.307ZM14.1029 111.406H7.05669V114.475H14.1029V111.406ZM22.8233 99.1511H24.923V101.311C24.923 102.375 24.7749 103.411 24.4788 104.421C24.1827 105.43 23.7183 106.332 23.0857 107.126C22.4666 107.92 21.6455 108.539 20.6226 108.983L19.2093 106.904C20.0707 106.514 20.7639 106.016 21.2888 105.41C21.8272 104.804 22.2176 104.145 22.4598 103.431C22.7021 102.718 22.8233 102.011 22.8233 101.311V99.1511ZM23.328 99.1511H25.4277V101.311C25.4277 101.998 25.5421 102.671 25.771 103.33C25.9998 103.976 26.3699 104.569 26.8814 105.107C27.3929 105.645 28.0591 106.09 28.8802 106.44L27.4669 108.479C26.4978 108.075 25.7037 107.51 25.0845 106.783C24.4788 106.043 24.0346 105.208 23.752 104.279C23.4693 103.337 23.328 102.348 23.328 101.311V99.1511ZM32.8373 98.1012H35.4014V109.448H32.8373V98.1012ZM30.6165 102.644H33.5844V104.804H30.6165V102.644ZM28.9004 98.3839H31.4039V109.347H28.9004V98.3839ZM22.5406 110.255H35.4014V116.797H32.7162V112.396H22.5406V110.255ZM51.7939 100.605H55.0242V102.785H51.7939V100.605ZM51.7939 104.542H55.0242V106.742H51.7939V104.542ZM49.8557 98.081H52.5409V109.367H49.8557V98.081ZM38.5091 106.419H40.0839C41.3087 106.419 42.3989 106.406 43.3546 106.379C44.3237 106.352 45.2188 106.298 46.0398 106.217C46.8743 106.123 47.7223 106.002 48.5837 105.854L48.826 107.994C47.9646 108.156 47.0964 108.284 46.2215 108.378C45.3601 108.459 44.4314 108.512 43.4354 108.539C42.4528 108.566 41.3356 108.58 40.0839 108.58H38.5091V106.419ZM38.4687 99.1915H47.0089V104.824H41.1539V107.732H38.5091V102.826H44.3641V101.332H38.4687V99.1915ZM46.4032 109.69C47.7088 109.69 48.8327 109.831 49.7749 110.114C50.7306 110.397 51.4574 110.801 51.9554 111.325C52.4669 111.85 52.7226 112.49 52.7226 113.243C52.7226 114.361 52.1573 115.229 51.0267 115.848C49.9095 116.481 48.3684 116.797 46.4032 116.797C45.1111 116.797 43.9872 116.656 43.0316 116.373C42.0894 116.104 41.3625 115.7 40.8511 115.162C40.3396 114.623 40.0839 113.984 40.0839 113.243C40.0839 112.49 40.3396 111.85 40.8511 111.325C41.3625 110.801 42.0894 110.397 43.0316 110.114C43.9872 109.831 45.1111 109.69 46.4032 109.69ZM46.4032 111.729C45.5956 111.729 44.9159 111.783 44.3641 111.891C43.8257 111.998 43.4152 112.167 43.1325 112.396C42.8633 112.624 42.7287 112.907 42.7287 113.243C42.7287 113.593 42.8633 113.883 43.1325 114.112C43.4152 114.327 43.8257 114.489 44.3641 114.596C44.9159 114.704 45.5956 114.758 46.4032 114.758C47.2243 114.758 47.904 114.704 48.4424 114.596C48.9942 114.489 49.4048 114.327 49.674 114.112C49.9566 113.883 50.0979 113.593 50.0979 113.243C50.0979 112.907 49.9566 112.624 49.674 112.396C49.4048 112.167 48.9942 111.998 48.4424 111.891C47.904 111.783 47.2243 111.729 46.4032 111.729ZM63.2802 98.5656H65.5819V99.1713C65.5819 99.8577 65.4742 100.524 65.2588 101.17C65.0435 101.803 64.7272 102.402 64.3099 102.967C63.8927 103.519 63.3745 104.017 62.7553 104.461C62.1496 104.905 61.4497 105.282 60.6556 105.592C59.8749 105.901 59.0068 106.123 58.0511 106.258L57.0416 104.158C57.8761 104.05 58.6232 103.875 59.2827 103.633C59.9557 103.377 60.5412 103.088 61.0392 102.765C61.5372 102.429 61.9477 102.065 62.2708 101.675C62.6072 101.271 62.8563 100.86 63.0178 100.443C63.1928 100.013 63.2802 99.5885 63.2802 99.1713V98.5656ZM63.7244 98.5656H66.026V99.1713C66.026 99.5751 66.1068 99.9923 66.2683 100.423C66.4433 100.84 66.699 101.244 67.0355 101.634C67.372 102.025 67.7893 102.388 68.2873 102.725C68.7853 103.048 69.3641 103.33 70.0236 103.573C70.6966 103.815 71.4436 103.997 72.2647 104.118L71.2552 106.197C70.2995 106.063 69.4246 105.841 68.6305 105.531C67.8498 105.221 67.1499 104.851 66.5308 104.421C65.9251 103.976 65.4136 103.478 64.9964 102.927C64.5791 102.361 64.2628 101.769 64.0474 101.15C63.8321 100.517 63.7244 99.8577 63.7244 99.1713V98.5656ZM56.1937 107.288H73.1328V109.407H56.1937V107.288ZM63.5427 108.62H66.2279V112.557H63.5427V108.62ZM58.1521 114.314H71.2552V116.474H58.1521V114.314ZM58.1521 110.982H60.8373V115H58.1521V110.982ZM86.7142 110.054H89.3994V116.817H86.7142V110.054ZM79.6276 109.286H96.5465V111.467H79.6276V109.286ZM86.694 101.453H89.0562V101.897C89.0562 102.516 88.9485 103.122 88.7331 103.714C88.5312 104.293 88.2217 104.838 87.8044 105.349C87.3871 105.847 86.8689 106.305 86.2498 106.722C85.6306 107.126 84.9173 107.469 84.1097 107.752C83.3021 108.021 82.407 108.216 81.4245 108.337L80.4755 106.217C81.3235 106.123 82.0773 105.968 82.7368 105.753C83.4098 105.538 83.9953 105.282 84.4933 104.986C84.9913 104.69 85.4018 104.373 85.7249 104.037C86.0614 103.687 86.3036 103.33 86.4517 102.967C86.6132 102.59 86.694 102.233 86.694 101.897V101.453ZM87.0574 101.453H89.3994V101.897C89.3994 102.22 89.4801 102.57 89.6417 102.947C89.8166 103.31 90.0656 103.667 90.3887 104.017C90.7117 104.353 91.1222 104.676 91.6203 104.986C92.1183 105.282 92.697 105.538 93.3566 105.753C94.0296 105.968 94.7833 106.123 95.6178 106.217L94.6891 108.337C93.6931 108.23 92.7913 108.035 91.9837 107.752C91.1895 107.456 90.4829 107.106 89.8637 106.702C89.2446 106.298 88.7264 105.841 88.3091 105.329C87.8919 104.804 87.5756 104.252 87.3602 103.674C87.1583 103.095 87.0574 102.503 87.0574 101.897V101.453ZM81.1418 100.221H94.9919V102.341H81.1418V100.221ZM86.7142 98.1416H89.3994V100.948H86.7142V98.1416ZM109.931 98.0608H112.636V116.757H109.931V98.0608ZM111.95 105.228H115.241V107.429H111.95V105.228ZM105.025 99.9991H107.669C107.669 101.87 107.4 103.64 106.862 105.309C106.337 106.978 105.462 108.512 104.237 109.912C103.026 111.299 101.384 112.51 99.3109 113.546L97.7967 111.507C99.4388 110.659 100.792 109.704 101.855 108.64C102.932 107.577 103.726 106.372 104.237 105.026C104.762 103.667 105.025 102.153 105.025 100.484V99.9991ZM98.8264 99.9991H106.418V102.159H98.8264V99.9991ZM134.293 98.081H136.979V116.777H134.293V98.081ZM128.782 100.019H131.426C131.426 101.446 131.285 102.812 131.002 104.118C130.733 105.41 130.276 106.628 129.63 107.772C128.997 108.916 128.122 109.979 127.005 110.962C125.901 111.931 124.522 112.82 122.866 113.627L121.453 111.507C123.256 110.632 124.69 109.67 125.753 108.62C126.83 107.557 127.604 106.359 128.075 105.026C128.546 103.68 128.782 102.173 128.782 100.504V100.019ZM122.462 100.019H130.033V102.159H122.462V100.019ZM141.903 102.745H154.825V104.865H141.903V102.745ZM141.903 98.4041H144.589V103.714H141.903V98.4041ZM139.804 106.46H156.702V108.6H139.804V106.46ZM148.182 109.811C150.201 109.811 151.79 110.114 152.947 110.72C154.105 111.312 154.683 112.167 154.683 113.284C154.683 114.374 154.105 115.222 152.947 115.828C151.79 116.447 150.201 116.757 148.182 116.757C146.163 116.757 144.575 116.447 143.418 115.828C142.273 115.222 141.701 114.374 141.701 113.284C141.701 112.167 142.273 111.312 143.418 110.72C144.575 110.114 146.163 109.811 148.182 109.811ZM148.182 111.85C147.348 111.85 146.648 111.904 146.083 112.012C145.531 112.106 145.113 112.261 144.831 112.476C144.548 112.678 144.407 112.941 144.407 113.264C144.407 113.587 144.548 113.856 144.831 114.071C145.113 114.273 145.531 114.428 146.083 114.536C146.648 114.643 147.348 114.697 148.182 114.697C149.017 114.697 149.71 114.643 150.262 114.536C150.827 114.428 151.251 114.273 151.534 114.071C151.816 113.856 151.958 113.587 151.958 113.264C151.958 112.941 151.816 112.678 151.534 112.476C151.251 112.261 150.827 112.106 150.262 112.012C149.71 111.904 149.017 111.85 148.182 111.85ZM165.176 106.419H178.319V108.58H165.176V106.419ZM163.197 112.496H180.136V114.697H163.197V112.496ZM170.304 107.409H172.969V113.203H170.304V107.409ZM165.176 99.3732H178.178V101.513H167.841V107.348H165.176V99.3732ZM194.409 98.1012H197.094V108.136H194.409V98.1012ZM184.677 108.963H187.322V110.7H194.429V108.963H197.094V116.595H184.677V108.963ZM187.322 112.759V114.455H194.429V112.759H187.322ZM186.918 98.8684C187.888 98.8684 188.756 99.0569 189.523 99.4337C190.29 99.8106 190.896 100.329 191.34 100.988C191.784 101.648 192.006 102.408 192.006 103.27C192.006 104.131 191.784 104.898 191.34 105.571C190.896 106.231 190.29 106.749 189.523 107.126C188.756 107.503 187.888 107.691 186.918 107.691C185.949 107.691 185.081 107.503 184.314 107.126C183.547 106.749 182.941 106.231 182.497 105.571C182.053 104.898 181.831 104.131 181.831 103.27C181.831 102.408 182.053 101.648 182.497 100.988C182.941 100.329 183.547 99.8106 184.314 99.4337C185.081 99.0569 185.949 98.8684 186.918 98.8684ZM186.918 101.069C186.447 101.069 186.023 101.157 185.646 101.332C185.27 101.507 184.973 101.762 184.758 102.099C184.556 102.422 184.455 102.812 184.455 103.27C184.455 103.741 184.556 104.145 184.758 104.481C184.973 104.804 185.27 105.053 185.646 105.228C186.023 105.39 186.447 105.47 186.918 105.47C187.39 105.47 187.807 105.39 188.17 105.228C188.547 105.053 188.843 104.804 189.059 104.481C189.274 104.145 189.382 103.741 189.382 103.27C189.382 102.812 189.274 102.422 189.059 102.099C188.843 101.762 188.547 101.507 188.17 101.332C187.807 101.157 187.39 101.069 186.918 101.069ZM205.769 100.039H221.013V102.139H205.769V100.039ZM204.982 110.195H221.921V112.335H204.982V110.195ZM212.089 112.093H214.754V116.797H212.089V112.093ZM213.441 102.866C215.447 102.866 217.015 103.142 218.146 103.694C219.276 104.246 219.842 105.04 219.842 106.076C219.842 107.113 219.276 107.913 218.146 108.479C217.015 109.031 215.44 109.307 213.421 109.307C211.416 109.307 209.848 109.031 208.717 108.479C207.586 107.913 207.021 107.113 207.021 106.076C207.021 105.04 207.586 104.246 208.717 103.694C209.848 103.142 211.422 102.866 213.441 102.866ZM213.421 104.865C212.21 104.865 211.301 104.959 210.696 105.147C210.103 105.336 209.807 105.645 209.807 106.076C209.807 106.493 210.103 106.803 210.696 107.005C211.301 107.207 212.21 107.308 213.421 107.308C214.646 107.308 215.555 107.207 216.147 107.005C216.752 106.803 217.055 106.493 217.055 106.076C217.055 105.645 216.752 105.336 216.147 105.147C215.555 104.959 214.646 104.865 213.421 104.865ZM212.089 98.081H214.754V101.433H212.089V98.081Z" fill="#222222"/>
<path opacity="0.3" d="M8.86605 141H1.11631V139.369L3.89628 136.558C4.45538 135.978 4.90576 135.497 5.24743 135.114C5.5891 134.72 5.83759 134.368 5.9929 134.058C6.1482 133.737 6.22586 133.395 6.22586 133.033C6.22586 132.588 6.10161 132.256 5.85312 132.039C5.61499 131.821 5.28885 131.713 4.8747 131.713C4.4502 131.713 4.03605 131.811 3.63226 132.008C3.22846 132.205 2.80396 132.484 2.35875 132.846L1.08525 131.34C1.40622 131.06 1.74271 130.802 2.09474 130.563C2.45711 130.325 2.87126 130.134 3.33718 129.989C3.81345 129.834 4.3829 129.756 5.04554 129.756C5.77029 129.756 6.39152 129.89 6.9092 130.16C7.43724 130.419 7.84103 130.776 8.12058 131.231C8.41049 131.677 8.55544 132.184 8.55544 132.753C8.55544 133.364 8.43119 133.923 8.1827 134.431C7.94457 134.938 7.59254 135.44 7.12663 135.937C6.67107 136.434 6.11714 136.983 5.46486 137.583L4.03605 138.919V139.028H8.86605V141ZM18.0021 138.701H16.6665V141H14.3835V138.701H9.6467V137.071L14.5078 129.911H16.6665V136.884H18.0021V138.701ZM14.3835 135.005C14.3835 134.767 14.3887 134.477 14.399 134.136C14.4094 133.794 14.4197 133.478 14.4301 133.188C14.4508 132.888 14.4663 132.691 14.4767 132.598H14.4146C14.3214 132.805 14.223 133.007 14.1195 133.204C14.016 133.4 13.8917 133.602 13.7468 133.809L11.7123 136.884H14.3835V135.005ZM24.6067 129.911L20.4756 141H18.379L22.5101 129.911H24.6067ZM32.9945 135.456C32.9945 136.646 32.8651 137.666 32.6063 138.515C32.3578 139.364 31.9488 140.016 31.3794 140.472C30.8203 140.928 30.0645 141.155 29.1119 141.155C27.7763 141.155 26.7979 140.653 26.1766 139.649C25.5554 138.634 25.2448 137.236 25.2448 135.456C25.2448 134.255 25.3691 133.23 25.6175 132.381C25.866 131.532 26.275 130.879 26.8445 130.424C27.4139 129.968 28.1697 129.74 29.1119 129.74C30.4372 129.74 31.4156 130.243 32.0472 131.247C32.6788 132.251 32.9945 133.654 32.9945 135.456ZM27.5744 135.456C27.5744 136.719 27.6831 137.671 27.9005 138.313C28.118 138.945 28.5218 139.261 29.1119 139.261C29.6917 139.261 30.0955 138.945 30.3233 138.313C30.5511 137.682 30.665 136.729 30.665 135.456C30.665 134.192 30.5511 133.24 30.3233 132.598C30.0955 131.956 29.6917 131.635 29.1119 131.635C28.5218 131.635 28.118 131.956 27.9005 132.598C27.6831 133.24 27.5744 134.192 27.5744 135.456ZM41.8977 134.648C41.8977 135.28 41.8511 135.911 41.7579 136.543C41.6647 137.164 41.4991 137.754 41.2609 138.313C41.0331 138.862 40.707 139.354 40.2825 139.789C39.8683 140.213 39.3351 140.55 38.6828 140.798C38.0409 141.036 37.2592 141.155 36.3377 141.155C36.1203 141.155 35.8666 141.145 35.5767 141.124C35.2868 141.114 35.0435 141.088 34.8468 141.047V139.167C35.0539 139.209 35.2713 139.245 35.4991 139.276C35.7269 139.307 35.9547 139.323 36.1824 139.323C37.1039 139.323 37.8131 139.178 38.3101 138.888C38.8174 138.588 39.1746 138.179 39.3817 137.661C39.5888 137.143 39.7079 136.543 39.7389 135.859H39.6457C39.4283 136.222 39.1384 136.527 38.776 136.776C38.424 137.024 37.896 137.148 37.1919 137.148C36.2497 137.148 35.4939 136.843 34.9245 136.232C34.355 135.621 34.0703 134.757 34.0703 133.639C34.0703 132.438 34.4068 131.495 35.0798 130.812C35.7631 130.129 36.6846 129.787 37.8442 129.787C38.6 129.787 39.2834 129.963 39.8942 130.315C40.5051 130.657 40.9917 131.19 41.3541 131.915C41.7165 132.629 41.8977 133.54 41.8977 134.648ZM37.8908 131.666C37.4352 131.666 37.0625 131.821 36.7726 132.132C36.4827 132.443 36.3377 132.934 36.3377 133.607C36.3377 134.146 36.462 134.57 36.7105 134.881C36.959 135.192 37.3369 135.347 37.8442 135.347C38.1962 135.347 38.4965 135.269 38.745 135.114C39.0038 134.959 39.2057 134.767 39.3507 134.539C39.4956 134.301 39.5681 134.058 39.5681 133.809C39.5681 133.468 39.506 133.131 39.3817 132.8C39.2575 132.469 39.0711 132.199 38.8226 131.992C38.5741 131.775 38.2635 131.666 37.8908 131.666ZM48.7973 129.911L44.6662 141H42.5696L46.7007 129.911H48.7973ZM57.1852 135.456C57.1852 136.646 57.0557 137.666 56.7969 138.515C56.5484 139.364 56.1394 140.016 55.57 140.472C55.0109 140.928 54.2551 141.155 53.3025 141.155C51.9669 141.155 50.9885 140.653 50.3673 139.649C49.746 138.634 49.4354 137.236 49.4354 135.456C49.4354 134.255 49.5597 133.23 49.8082 132.381C50.0567 131.532 50.4656 130.879 51.0351 130.424C51.6045 129.968 52.3604 129.74 53.3025 129.74C54.6278 129.74 55.6062 130.243 56.2378 131.247C56.8694 132.251 57.1852 133.654 57.1852 135.456ZM51.765 135.456C51.765 136.719 51.8737 137.671 52.0912 138.313C52.3086 138.945 52.7124 139.261 53.3025 139.261C53.8823 139.261 54.2861 138.945 54.5139 138.313C54.7417 137.682 54.8556 136.729 54.8556 135.456C54.8556 134.192 54.7417 133.24 54.5139 132.598C54.2861 131.956 53.8823 131.635 53.3025 131.635C52.7124 131.635 52.3086 131.956 52.0912 132.598C51.8737 133.24 51.765 134.192 51.765 135.456ZM58.3075 136.294C58.3075 135.652 58.3541 135.021 58.4473 134.4C58.5405 133.778 58.7009 133.193 58.9287 132.645C59.1669 132.085 59.493 131.594 59.9071 131.169C60.3316 130.734 60.8649 130.398 61.5068 130.16C62.1591 129.911 62.9459 129.787 63.8674 129.787C64.0849 129.787 64.3385 129.797 64.6284 129.818C64.9183 129.828 65.1616 129.854 65.3584 129.896V131.775C65.1616 131.723 64.9442 131.687 64.7061 131.666C64.4783 131.635 64.2505 131.62 64.0227 131.62C63.1013 131.62 62.3868 131.765 61.8795 132.054C61.3825 132.344 61.0305 132.753 60.8234 133.281C60.6164 133.799 60.4973 134.4 60.4662 135.083H60.5594C60.7665 134.72 61.0616 134.415 61.4447 134.167C61.8381 133.918 62.3454 133.794 62.9667 133.794C63.9399 133.794 64.7113 134.099 65.2807 134.71C65.8502 135.321 66.1349 136.186 66.1349 137.304C66.1349 138.505 65.7932 139.447 65.1099 140.13C64.4369 140.814 63.5206 141.155 62.361 141.155C61.6051 141.155 60.9218 140.984 60.3109 140.643C59.7001 140.291 59.2134 139.758 58.8511 139.043C58.4887 138.318 58.3075 137.402 58.3075 136.294ZM62.3144 139.276C62.7699 139.276 63.1427 139.121 63.4326 138.81C63.7225 138.489 63.8674 137.997 63.8674 137.335C63.8674 136.796 63.7432 136.372 63.4947 136.061C63.2462 135.751 62.8683 135.595 62.361 135.595C62.0193 135.595 61.719 135.673 61.4602 135.828C61.2014 135.973 60.9995 136.165 60.8545 136.403C60.7096 136.641 60.6371 136.884 60.6371 137.133C60.6371 137.475 60.6992 137.811 60.8234 138.142C60.9477 138.463 61.1341 138.733 61.3825 138.95C61.6414 139.167 61.952 139.276 62.3144 139.276ZM70.8137 136.325C70.4306 136.16 70.1045 136.051 69.8353 135.999C69.5764 135.937 69.3279 135.906 69.0898 135.906C68.7999 135.906 68.4945 135.994 68.1735 136.17C67.8629 136.346 67.5782 136.563 67.3193 136.822V135.067C67.837 134.519 68.4841 134.244 69.2606 134.244C69.5609 134.244 69.8612 134.275 70.1614 134.337C70.472 134.389 70.8706 134.519 71.3573 134.726C71.7404 134.891 72.0665 135.005 72.3357 135.067C72.6049 135.119 72.8534 135.145 73.0812 135.145C73.3814 135.145 73.6869 135.057 73.9975 134.881C74.3081 134.705 74.5928 134.488 74.8516 134.229V135.984C74.334 136.532 73.6869 136.807 72.9103 136.807C72.6101 136.807 72.3046 136.776 71.994 136.714C71.6938 136.651 71.3003 136.522 70.8137 136.325ZM81.9532 141H79.6081V134.586C79.6081 134.317 79.6133 133.965 79.6236 133.53C79.6443 133.095 79.6599 132.712 79.6702 132.381C79.6185 132.443 79.5046 132.557 79.3286 132.722C79.1629 132.878 79.0076 133.017 78.8626 133.142L77.5891 134.167L76.4554 132.753L80.0274 129.911H81.9532V141ZM92.7355 135.456C92.7355 136.646 92.6061 137.666 92.3473 138.515C92.0988 139.364 91.6898 140.016 91.1204 140.472C90.5613 140.928 89.8054 141.155 88.8529 141.155C87.5173 141.155 86.5388 140.653 85.9176 139.649C85.2964 138.634 84.9858 137.236 84.9858 135.456C84.9858 134.255 85.11 133.23 85.3585 132.381C85.607 131.532 86.016 130.879 86.5854 130.424C87.1549 129.968 87.9107 129.74 88.8529 129.74C90.1782 129.74 91.1566 130.243 91.7882 131.247C92.4197 132.251 92.7355 133.654 92.7355 135.456ZM87.3154 135.456C87.3154 136.719 87.4241 137.671 87.6415 138.313C87.8589 138.945 88.2627 139.261 88.8529 139.261C89.4327 139.261 89.8365 138.945 90.0643 138.313C90.2921 137.682 90.406 136.729 90.406 135.456C90.406 134.192 90.2921 133.24 90.0643 132.598C89.8365 131.956 89.4327 131.635 88.8529 131.635C88.2627 131.635 87.8589 131.956 87.6415 132.598C87.4241 133.24 87.3154 134.192 87.3154 135.456ZM99.6507 129.911L95.5196 141H93.423L97.5541 129.911H99.6507ZM108.101 141H100.351V139.369L103.131 136.558C103.69 135.978 104.14 135.497 104.482 135.114C104.824 134.72 105.072 134.368 105.228 134.058C105.383 133.737 105.46 133.395 105.46 133.033C105.46 132.588 105.336 132.256 105.088 132.039C104.85 131.821 104.523 131.713 104.109 131.713C103.685 131.713 103.271 131.811 102.867 132.008C102.463 132.205 102.039 132.484 101.593 132.846L100.32 131.34C100.641 131.06 100.977 130.802 101.329 130.563C101.692 130.325 102.106 130.134 102.572 129.989C103.048 129.834 103.618 129.756 104.28 129.756C105.005 129.756 105.626 129.89 106.144 130.16C106.672 130.419 107.076 130.776 107.355 131.231C107.645 131.677 107.79 132.184 107.79 132.753C107.79 133.364 107.666 133.923 107.417 134.431C107.179 134.938 106.827 135.44 106.361 135.937C105.906 136.434 105.352 136.983 104.699 137.583L103.271 138.919V139.028H108.101V141ZM116.553 132.396C116.553 133.162 116.32 133.773 115.855 134.229C115.399 134.684 114.835 134.995 114.162 135.161V135.207C115.052 135.311 115.725 135.58 116.181 136.015C116.647 136.45 116.88 137.035 116.88 137.77C116.88 138.412 116.719 138.991 116.398 139.509C116.087 140.016 115.601 140.42 114.938 140.72C114.286 141.01 113.442 141.155 112.407 141.155C111.206 141.155 110.139 140.953 109.207 140.55V138.562C109.684 138.8 110.181 138.981 110.698 139.105C111.226 139.23 111.713 139.292 112.158 139.292C112.997 139.292 113.582 139.147 113.913 138.857C114.255 138.567 114.426 138.158 114.426 137.63C114.426 137.319 114.348 137.06 114.193 136.853C114.037 136.636 113.763 136.475 113.37 136.372C112.987 136.258 112.448 136.201 111.754 136.201H110.916V134.4H111.77C112.453 134.4 112.971 134.337 113.323 134.213C113.685 134.079 113.929 133.903 114.053 133.685C114.188 133.457 114.255 133.198 114.255 132.909C114.255 132.515 114.131 132.21 113.882 131.992C113.644 131.765 113.24 131.651 112.671 131.651C112.143 131.651 111.682 131.744 111.289 131.93C110.905 132.106 110.579 132.282 110.31 132.458L109.223 130.843C109.658 130.532 110.165 130.274 110.745 130.067C111.335 129.859 112.034 129.756 112.842 129.756C113.981 129.756 114.881 129.989 115.544 130.455C116.217 130.91 116.553 131.557 116.553 132.396Z" fill="#222222"/>
<rect width="69" height="268.5" transform="matrix(9.77025e-08 -1 -1 -1.95561e-08 523.5 154)" fill="#37A3E2"/>
<path opacity="0.3" d="M546.835 119.148C546.835 119.78 546.788 120.411 546.695 121.043C546.602 121.664 546.436 122.254 546.198 122.813C545.97 123.362 545.644 123.854 545.22 124.289C544.806 124.713 544.272 125.05 543.62 125.298C542.978 125.536 542.196 125.655 541.275 125.655C541.058 125.655 540.804 125.645 540.514 125.624C540.224 125.614 539.981 125.588 539.784 125.547V123.667C539.991 123.709 540.209 123.745 540.436 123.776C540.664 123.807 540.892 123.823 541.12 123.823C542.041 123.823 542.75 123.678 543.247 123.388C543.755 123.088 544.112 122.679 544.319 122.161C544.526 121.643 544.645 121.043 544.676 120.359H544.583C544.366 120.722 544.076 121.027 543.713 121.276C543.361 121.524 542.833 121.648 542.129 121.648C541.187 121.648 540.431 121.343 539.862 120.732C539.292 120.121 539.007 119.257 539.007 118.139C539.007 116.938 539.344 115.995 540.017 115.312C540.7 114.629 541.622 114.287 542.781 114.287C543.537 114.287 544.221 114.463 544.831 114.815C545.442 115.157 545.929 115.69 546.291 116.415C546.654 117.129 546.835 118.04 546.835 119.148ZM542.828 116.166C542.372 116.166 542 116.321 541.71 116.632C541.42 116.943 541.275 117.434 541.275 118.107C541.275 118.646 541.399 119.07 541.648 119.381C541.896 119.692 542.274 119.847 542.781 119.847C543.133 119.847 543.434 119.769 543.682 119.614C543.941 119.459 544.143 119.267 544.288 119.039C544.433 118.801 544.505 118.558 544.505 118.309C544.505 117.968 544.443 117.631 544.319 117.3C544.195 116.969 544.008 116.699 543.76 116.492C543.511 116.275 543.201 116.166 542.828 116.166ZM550.877 123.869C550.742 124.418 550.551 125.019 550.302 125.671C550.054 126.323 549.8 126.934 549.541 127.503H547.88C548.024 126.893 548.169 126.24 548.314 125.547C548.459 124.853 548.568 124.237 548.641 123.698H550.768L550.877 123.869ZM558.241 125.5H555.896V119.086C555.896 118.817 555.901 118.465 555.911 118.03C555.932 117.595 555.947 117.212 555.958 116.881C555.906 116.943 555.792 117.057 555.616 117.222C555.451 117.378 555.295 117.517 555.15 117.642L553.877 118.667L552.743 117.253L556.315 114.411H558.241V125.5ZM565.156 114.271C565.798 114.271 566.383 114.37 566.911 114.567C567.449 114.763 567.879 115.058 568.2 115.452C568.531 115.845 568.697 116.342 568.697 116.943C568.697 117.605 568.505 118.154 568.122 118.589C567.75 119.013 567.279 119.365 566.709 119.645C567.103 119.852 567.475 120.095 567.827 120.375C568.19 120.644 568.48 120.965 568.697 121.338C568.925 121.7 569.039 122.13 569.039 122.627C569.039 123.238 568.873 123.771 568.542 124.226C568.221 124.682 567.765 125.034 567.175 125.283C566.595 125.531 565.922 125.655 565.156 125.655C563.914 125.655 562.951 125.391 562.267 124.863C561.594 124.335 561.258 123.61 561.258 122.689C561.258 121.923 561.465 121.307 561.879 120.841C562.293 120.375 562.795 119.997 563.386 119.707C562.889 119.397 562.464 119.024 562.112 118.589C561.77 118.144 561.6 117.59 561.6 116.927C561.6 116.337 561.765 115.845 562.097 115.452C562.428 115.058 562.863 114.763 563.401 114.567C563.95 114.37 564.535 114.271 565.156 114.271ZM565.141 115.98C564.757 115.98 564.436 116.078 564.178 116.275C563.929 116.472 563.805 116.751 563.805 117.114C563.805 117.497 563.939 117.807 564.209 118.045C564.478 118.283 564.794 118.491 565.156 118.667C565.508 118.501 565.819 118.304 566.088 118.076C566.357 117.838 566.492 117.517 566.492 117.114C566.492 116.751 566.362 116.472 566.103 116.275C565.855 116.078 565.534 115.98 565.141 115.98ZM563.432 122.549C563.432 122.953 563.572 123.284 563.851 123.543C564.141 123.802 564.566 123.931 565.125 123.931C565.705 123.931 566.14 123.807 566.43 123.559C566.719 123.31 566.864 122.979 566.864 122.565C566.864 122.285 566.782 122.042 566.616 121.835C566.45 121.617 566.243 121.426 565.995 121.26C565.757 121.084 565.508 120.924 565.249 120.779L565.047 120.67C564.571 120.898 564.183 121.162 563.883 121.462C563.582 121.762 563.432 122.125 563.432 122.549ZM571.326 125.5L575.488 116.384H570.021V114.411H577.973V115.887L573.78 125.5H571.326Z" fill="#222222"/>
<path d="M1.85156 188.838H10.7956V201.234H1.85156V188.838ZM8.15075 190.957H4.49641V199.134H8.15075V190.957ZM13.2184 187.101H15.9238V205.797H13.2184V187.101ZM15.3383 194.147H18.6292V196.348H15.3383V194.147ZM32.4777 187.061H35.163V205.817H32.4777V187.061ZM25.0883 188.373C26.044 188.373 26.8919 188.649 27.6322 189.201C28.3725 189.739 28.9513 190.513 29.3685 191.523C29.7992 192.519 30.0146 193.697 30.0146 195.056C30.0146 196.429 29.7992 197.62 29.3685 198.63C28.9513 199.626 28.3725 200.4 27.6322 200.951C26.8919 201.49 26.044 201.759 25.0883 201.759C24.1461 201.759 23.3049 201.49 22.5646 200.951C21.8243 200.4 21.2388 199.626 20.8081 198.63C20.3908 197.62 20.1822 196.429 20.1822 195.056C20.1822 193.697 20.3908 192.519 20.8081 191.523C21.2388 190.513 21.8243 189.739 22.5646 189.201C23.3049 188.649 24.1461 188.373 25.0883 188.373ZM25.0883 190.816C24.6307 190.816 24.2269 190.978 23.8769 191.301C23.527 191.624 23.2511 192.102 23.0492 192.734C22.8607 193.353 22.7665 194.127 22.7665 195.056C22.7665 195.971 22.8607 196.752 23.0492 197.398C23.2511 198.031 23.527 198.508 23.8769 198.831C24.2269 199.154 24.6307 199.316 25.0883 199.316C25.5594 199.316 25.9699 199.154 26.3199 198.831C26.6698 198.508 26.939 198.031 27.1275 197.398C27.3294 196.752 27.4303 195.971 27.4303 195.056C27.4303 194.127 27.3294 193.353 27.1275 192.734C26.939 192.102 26.6698 191.624 26.3199 191.301C25.9699 190.978 25.5594 190.816 25.0883 190.816ZM50.5816 188.878H53.1861C53.1861 190.318 53.0649 191.704 52.8226 193.037C52.5804 194.356 52.1497 195.615 51.5305 196.812C50.9114 198.01 50.0432 199.128 48.926 200.164C47.8089 201.2 46.3687 202.156 44.6054 203.031L43.1922 200.951C44.6324 200.238 45.8303 199.471 46.7859 198.65C47.7416 197.829 48.4953 196.94 49.0472 195.985C49.599 195.029 49.9894 193.993 50.2182 192.875C50.4604 191.758 50.5816 190.54 50.5816 189.221V188.878ZM44.3228 188.878H51.9141V191.018H44.3228V188.878ZM50.5614 193.461V195.52L43.6969 196.146L43.3537 193.885L50.5614 193.461ZM55.952 187.081H58.6373V205.777H55.952V187.081ZM65.9444 197.62H68.6498V205.232H65.9444V197.62ZM74.5856 187.081H77.291V205.777H74.5856V187.081ZM61.6843 198.751L61.3815 196.57C62.5256 196.57 63.7773 196.563 65.1368 196.55C66.4962 196.537 67.8826 196.489 69.2959 196.409C70.7091 196.328 72.082 196.2 73.4145 196.025L73.5559 197.963C72.1964 198.219 70.8168 198.401 69.417 198.508C68.0306 198.616 66.6779 198.683 65.3589 198.71C64.0533 198.737 62.8284 198.751 61.6843 198.751ZM70.8505 199.659H75.1105V201.678H70.8505V199.659ZM67.4182 187.868C68.3335 187.868 69.1478 188.03 69.8612 188.353C70.588 188.676 71.1533 189.127 71.5571 189.706C71.9609 190.271 72.1628 190.931 72.1628 191.684C72.1628 192.451 71.9609 193.124 71.5571 193.703C71.1533 194.282 70.588 194.733 69.8612 195.056C69.1478 195.366 68.3335 195.52 67.4182 195.52C66.5029 195.52 65.6819 195.366 64.9551 195.056C64.2417 194.733 63.6764 194.282 63.2591 193.703C62.8553 193.124 62.6534 192.451 62.6534 191.684C62.6534 190.931 62.8553 190.271 63.2591 189.706C63.6764 189.127 64.2417 188.676 64.9551 188.353C65.6819 188.03 66.5029 187.868 67.4182 187.868ZM67.4182 189.887C66.9875 189.887 66.5972 189.961 66.2472 190.109C65.9107 190.244 65.6482 190.446 65.4598 190.715C65.2714 190.984 65.1772 191.307 65.1772 191.684C65.1772 192.075 65.2714 192.404 65.4598 192.674C65.6482 192.943 65.9107 193.145 66.2472 193.279C66.5972 193.414 66.9875 193.481 67.4182 193.481C67.8624 193.481 68.246 193.414 68.569 193.279C68.9055 193.145 69.168 192.943 69.3564 192.674C69.5583 192.404 69.6593 192.075 69.6593 191.684C69.6593 191.307 69.5583 190.984 69.3564 190.715C69.168 190.446 68.9055 190.244 68.569 190.109C68.246 189.961 67.8624 189.887 67.4182 189.887ZM81.7917 195.722H94.9352V197.842H81.7917V195.722ZM79.8131 201.355H96.7522V203.536H79.8131V201.355ZM81.7917 188.615H94.7938V190.796H84.4567V196.611H81.7917V188.615ZM108.012 197.257H110.697V201.113H108.012V197.257ZM107.992 190.594H110.132V190.998C110.132 192.048 109.937 193.03 109.546 193.946C109.169 194.861 108.597 195.655 107.83 196.328C107.063 197.001 106.08 197.499 104.882 197.822L103.691 195.742C104.687 195.487 105.502 195.117 106.134 194.632C106.767 194.134 107.231 193.575 107.527 192.956C107.837 192.324 107.992 191.671 107.992 190.998V190.594ZM108.557 190.594H110.717V190.998C110.717 191.644 110.865 192.27 111.161 192.875C111.471 193.481 111.942 194.02 112.575 194.491C113.221 194.962 114.042 195.325 115.038 195.581L113.847 197.64C112.662 197.331 111.673 196.853 110.879 196.207C110.098 195.547 109.513 194.773 109.122 193.885C108.745 192.983 108.557 192.021 108.557 190.998V190.594ZM104.236 189.282H114.493V191.402H104.236V189.282ZM108.012 187.243H110.697V190.231H108.012V187.243ZM116.128 187.061H118.813V205.817H116.128V187.061ZM103.61 202.344L103.308 200.164C104.398 200.164 105.602 200.157 106.922 200.144C108.254 200.117 109.62 200.063 111.02 199.982C112.433 199.888 113.8 199.747 115.119 199.558L115.3 201.517C113.954 201.772 112.588 201.961 111.202 202.082C109.815 202.203 108.476 202.277 107.184 202.304C105.892 202.318 104.701 202.331 103.61 202.344ZM121.598 201.496H138.537V203.677H121.598V201.496ZM128.725 197.883H131.39V202.607H128.725V197.883ZM128.705 190.978H131.067V191.381C131.067 192.283 130.892 193.131 130.542 193.925C130.192 194.706 129.674 195.413 128.987 196.045C128.314 196.678 127.487 197.21 126.504 197.64C125.521 198.071 124.384 198.367 123.092 198.529L122.123 196.388C123.267 196.254 124.249 196.025 125.071 195.702C125.905 195.366 126.585 194.962 127.11 194.491C127.648 194.02 128.045 193.522 128.301 192.997C128.57 192.458 128.705 191.92 128.705 191.381V190.978ZM129.048 190.978H131.41V191.381C131.41 191.92 131.538 192.458 131.794 192.997C132.063 193.522 132.46 194.02 132.985 194.491C133.523 194.962 134.21 195.366 135.044 195.702C135.879 196.025 136.861 196.254 137.992 196.388L137.023 198.529C135.731 198.367 134.593 198.071 133.611 197.64C132.628 197.21 131.794 196.678 131.107 196.045C130.434 195.413 129.923 194.706 129.573 193.925C129.223 193.131 129.048 192.283 129.048 191.381V190.978ZM123.031 189.625H137.063V191.765H123.031V189.625ZM128.725 187.344H131.39V190.493H128.725V187.344ZM152.118 196.611H154.783V199.296H152.118V196.611ZM145.052 195.036H161.87V196.994H145.052V195.036ZM152.098 187.081H154.783V189.322H152.098V187.081ZM151.937 189.443H154.299V189.827C154.299 190.5 154.131 191.112 153.794 191.664C153.458 192.202 152.96 192.68 152.3 193.098C151.641 193.501 150.82 193.831 149.837 194.087C148.854 194.329 147.717 194.484 146.425 194.551L145.678 192.573C146.822 192.519 147.791 192.411 148.585 192.25C149.379 192.075 150.019 191.866 150.503 191.624C151.001 191.368 151.365 191.085 151.593 190.776C151.822 190.466 151.937 190.15 151.937 189.827V189.443ZM152.583 189.443H154.945V189.827C154.945 190.15 155.053 190.466 155.268 190.776C155.497 191.085 155.86 191.368 156.358 191.624C156.856 191.866 157.502 192.075 158.296 192.25C159.104 192.411 160.073 192.519 161.204 192.573L160.457 194.551C159.165 194.484 158.027 194.329 157.045 194.087C156.062 193.831 155.241 193.501 154.582 193.098C153.922 192.68 153.424 192.202 153.087 191.664C152.751 191.112 152.583 190.5 152.583 189.827V189.443ZM146.607 188.535H160.275V190.493H146.607V188.535ZM146.93 198.125H159.851V202.748H149.615V204.525H146.95V200.951H157.206V200.043H146.93V198.125ZM146.95 203.717H160.356V205.676H146.95V203.717ZM167.925 188.535H170.126V191.24C170.126 192.451 170.018 193.616 169.803 194.733C169.588 195.837 169.258 196.873 168.814 197.842C168.383 198.798 167.824 199.646 167.138 200.386C166.465 201.113 165.664 201.692 164.735 202.122L163.14 199.901C163.961 199.538 164.668 199.06 165.26 198.468C165.866 197.862 166.364 197.176 166.754 196.409C167.145 195.628 167.434 194.8 167.622 193.925C167.824 193.05 167.925 192.155 167.925 191.24V188.535ZM168.45 188.535H170.631V191.24C170.631 192.115 170.725 192.97 170.913 193.804C171.102 194.639 171.384 195.426 171.761 196.166C172.152 196.907 172.636 197.566 173.215 198.145C173.807 198.71 174.5 199.161 175.295 199.498L173.74 201.678C172.838 201.261 172.051 200.702 171.378 200.002C170.718 199.303 170.173 198.495 169.742 197.58C169.312 196.651 168.989 195.655 168.773 194.592C168.558 193.515 168.45 192.398 168.45 191.24V188.535ZM176.203 187.061H178.888V205.817H176.203V187.061ZM187.584 189.039H202.827V191.139H187.584V189.039ZM186.796 199.195H203.736V201.335H186.796V199.195ZM193.903 201.093H196.568V205.797H193.903V201.093ZM195.256 191.866C197.261 191.866 198.829 192.142 199.96 192.694C201.091 193.246 201.656 194.04 201.656 195.076C201.656 196.113 201.091 196.913 199.96 197.479C198.829 198.031 197.255 198.307 195.236 198.307C193.23 198.307 191.662 198.031 190.531 197.479C189.401 196.913 188.836 196.113 188.836 195.076C188.836 194.04 189.401 193.246 190.531 192.694C191.662 192.142 193.237 191.866 195.256 191.866ZM195.236 193.865C194.024 193.865 193.116 193.959 192.51 194.147C191.918 194.336 191.622 194.645 191.622 195.076C191.622 195.493 191.918 195.803 192.51 196.005C193.116 196.207 194.024 196.308 195.236 196.308C196.461 196.308 197.369 196.207 197.961 196.005C198.567 195.803 198.87 195.493 198.87 195.076C198.87 194.645 198.567 194.336 197.961 194.147C197.369 193.959 196.461 193.865 195.236 193.865ZM193.903 187.081H196.568V190.433H193.903V187.081Z" fill="#222222"/>
<path opacity="0.3" d="M8.86605 230H1.11631V228.369L3.89628 225.558C4.45538 224.978 4.90576 224.497 5.24743 224.114C5.5891 223.72 5.83759 223.368 5.9929 223.058C6.1482 222.737 6.22586 222.395 6.22586 222.033C6.22586 221.588 6.10161 221.256 5.85312 221.039C5.61499 220.821 5.28885 220.713 4.8747 220.713C4.4502 220.713 4.03605 220.811 3.63226 221.008C3.22846 221.205 2.80396 221.484 2.35875 221.846L1.08525 220.34C1.40622 220.06 1.74271 219.802 2.09474 219.563C2.45711 219.325 2.87126 219.134 3.33718 218.989C3.81345 218.834 4.3829 218.756 5.04554 218.756C5.77029 218.756 6.39152 218.89 6.9092 219.16C7.43724 219.419 7.84103 219.776 8.12058 220.231C8.41049 220.677 8.55544 221.184 8.55544 221.753C8.55544 222.364 8.43119 222.923 8.1827 223.431C7.94457 223.938 7.59254 224.44 7.12663 224.937C6.67107 225.434 6.11714 225.983 5.46486 226.583L4.03605 227.919V228.028H8.86605V230ZM18.0021 227.701H16.6665V230H14.3835V227.701H9.6467V226.071L14.5078 218.911H16.6665V225.884H18.0021V227.701ZM14.3835 224.005C14.3835 223.767 14.3887 223.477 14.399 223.136C14.4094 222.794 14.4197 222.478 14.4301 222.188C14.4508 221.888 14.4663 221.691 14.4767 221.598H14.4146C14.3214 221.805 14.223 222.007 14.1195 222.204C14.016 222.4 13.8917 222.602 13.7468 222.809L11.7123 225.884H14.3835V224.005ZM24.6067 218.911L20.4756 230H18.379L22.5101 218.911H24.6067ZM32.9945 224.456C32.9945 225.646 32.8651 226.666 32.6063 227.515C32.3578 228.364 31.9488 229.016 31.3794 229.472C30.8203 229.928 30.0645 230.155 29.1119 230.155C27.7763 230.155 26.7979 229.653 26.1766 228.649C25.5554 227.634 25.2448 226.236 25.2448 224.456C25.2448 223.255 25.3691 222.23 25.6175 221.381C25.866 220.532 26.275 219.879 26.8445 219.424C27.4139 218.968 28.1697 218.74 29.1119 218.74C30.4372 218.74 31.4156 219.243 32.0472 220.247C32.6788 221.251 32.9945 222.654 32.9945 224.456ZM27.5744 224.456C27.5744 225.719 27.6831 226.671 27.9005 227.313C28.118 227.945 28.5218 228.261 29.1119 228.261C29.6917 228.261 30.0955 227.945 30.3233 227.313C30.5511 226.682 30.665 225.729 30.665 224.456C30.665 223.192 30.5511 222.24 30.3233 221.598C30.0955 220.956 29.6917 220.635 29.1119 220.635C28.5218 220.635 28.118 220.956 27.9005 221.598C27.6831 222.24 27.5744 223.192 27.5744 224.456ZM35.2972 230L39.4594 220.884H33.9926V218.911H41.9443V220.387L37.751 230H35.2972ZM48.7973 218.911L44.6662 230H42.5696L46.7007 218.911H48.7973ZM57.2473 230H49.4976V228.369L52.2775 225.558C52.8366 224.978 53.287 224.497 53.6287 224.114C53.9703 223.72 54.2188 223.368 54.3741 223.058C54.5294 222.737 54.6071 222.395 54.6071 222.033C54.6071 221.588 54.4829 221.256 54.2344 221.039C53.9962 220.821 53.6701 220.713 53.2559 220.713C52.8314 220.713 52.4173 220.811 52.0135 221.008C51.6097 221.205 51.1852 221.484 50.74 221.846L49.4665 220.34C49.7875 220.06 50.124 219.802 50.476 219.563C50.8384 219.325 51.2525 219.134 51.7184 218.989C52.1947 218.834 52.7641 218.756 53.4268 218.756C54.1515 218.756 54.7728 218.89 55.2904 219.16C55.8185 219.419 56.2223 219.776 56.5018 220.231C56.7917 220.677 56.9367 221.184 56.9367 221.753C56.9367 222.364 56.8124 222.923 56.5639 223.431C56.3258 223.938 55.9738 224.44 55.5079 224.937C55.0523 225.434 54.4984 225.983 53.8461 226.583L52.4173 227.919V228.028H57.2473V230ZM66.0883 223.648C66.0883 224.28 66.0417 224.911 65.9485 225.543C65.8553 226.164 65.6897 226.754 65.4515 227.313C65.2238 227.862 64.8976 228.354 64.4731 228.789C64.059 229.213 63.5258 229.55 62.8735 229.798C62.2315 230.036 61.4498 230.155 60.5284 230.155C60.3109 230.155 60.0573 230.145 59.7674 230.124C59.4775 230.114 59.2342 230.088 59.0374 230.047V228.167C59.2445 228.209 59.4619 228.245 59.6897 228.276C59.9175 228.307 60.1453 228.323 60.3731 228.323C61.2945 228.323 62.0038 228.178 62.5007 227.888C63.0081 227.588 63.3653 227.179 63.5723 226.661C63.7794 226.143 63.8985 225.543 63.9295 224.859H63.8364C63.6189 225.222 63.329 225.527 62.9667 225.776C62.6146 226.024 62.0866 226.148 61.3825 226.148C60.4404 226.148 59.6845 225.843 59.1151 225.232C58.5456 224.621 58.2609 223.757 58.2609 222.639C58.2609 221.438 58.5974 220.495 59.2704 219.812C59.9537 219.129 60.8752 218.787 62.0348 218.787C62.7906 218.787 63.474 218.963 64.0849 219.315C64.6957 219.657 65.1823 220.19 65.5447 220.915C65.9071 221.629 66.0883 222.54 66.0883 223.648ZM62.0814 220.666C61.6259 220.666 61.2531 220.821 60.9632 221.132C60.6733 221.443 60.5284 221.934 60.5284 222.607C60.5284 223.146 60.6526 223.57 60.9011 223.881C61.1496 224.192 61.5275 224.347 62.0348 224.347C62.3868 224.347 62.6871 224.269 62.9356 224.114C63.1944 223.959 63.3963 223.767 63.5413 223.539C63.6862 223.301 63.7587 223.058 63.7587 222.809C63.7587 222.468 63.6966 222.131 63.5723 221.8C63.4481 221.469 63.2617 221.199 63.0132 220.992C62.7648 220.775 62.4541 220.666 62.0814 220.666ZM70.8137 225.325C70.4306 225.16 70.1045 225.051 69.8353 224.999C69.5764 224.937 69.3279 224.906 69.0898 224.906C68.7999 224.906 68.4945 224.994 68.1735 225.17C67.8629 225.346 67.5782 225.563 67.3193 225.822V224.067C67.837 223.519 68.4841 223.244 69.2606 223.244C69.5609 223.244 69.8612 223.275 70.1614 223.337C70.472 223.389 70.8706 223.519 71.3573 223.726C71.7404 223.891 72.0665 224.005 72.3357 224.067C72.6049 224.119 72.8534 224.145 73.0812 224.145C73.3814 224.145 73.6869 224.057 73.9975 223.881C74.3081 223.705 74.5928 223.488 74.8516 223.229V224.984C74.334 225.532 73.6869 225.807 72.9103 225.807C72.6101 225.807 72.3046 225.776 71.994 225.714C71.6938 225.651 71.3003 225.522 70.8137 225.325ZM83.8479 224.456C83.8479 225.646 83.7185 226.666 83.4597 227.515C83.2112 228.364 82.8022 229.016 82.2328 229.472C81.6737 229.928 80.9178 230.155 79.9653 230.155C78.6297 230.155 77.6513 229.653 77.03 228.649C76.4088 227.634 76.0982 226.236 76.0982 224.456C76.0982 223.255 76.2225 222.23 76.4709 221.381C76.7194 220.532 77.1284 219.879 77.6979 219.424C78.2673 218.968 79.0231 218.74 79.9653 218.74C81.2906 218.74 82.269 219.243 82.9006 220.247C83.5322 221.251 83.8479 222.654 83.8479 224.456ZM78.4278 224.456C78.4278 225.719 78.5365 226.671 78.7539 227.313C78.9714 227.945 79.3751 228.261 79.9653 228.261C80.5451 228.261 80.9489 227.945 81.1767 227.313C81.4045 226.682 81.5184 225.729 81.5184 224.456C81.5184 223.192 81.4045 222.24 81.1767 221.598C80.9489 220.956 80.5451 220.635 79.9653 220.635C79.3751 220.635 78.9714 220.956 78.7539 221.598C78.5365 222.24 78.4278 223.192 78.4278 224.456ZM92.7511 223.648C92.7511 224.28 92.7045 224.911 92.6113 225.543C92.5181 226.164 92.3524 226.754 92.1143 227.313C91.8865 227.862 91.5604 228.354 91.1359 228.789C90.7217 229.213 90.1885 229.55 89.5362 229.798C88.8943 230.036 88.1126 230.155 87.1911 230.155C86.9737 230.155 86.72 230.145 86.4301 230.124C86.1402 230.114 85.8969 230.088 85.7002 230.047V228.167C85.9073 228.209 86.1247 228.245 86.3525 228.276C86.5803 228.307 86.808 228.323 87.0358 228.323C87.9573 228.323 88.6665 228.178 89.1635 227.888C89.6708 227.588 90.028 227.179 90.2351 226.661C90.4422 226.143 90.5613 225.543 90.5923 224.859H90.4991C90.2817 225.222 89.9918 225.527 89.6294 225.776C89.2774 226.024 88.7494 226.148 88.0453 226.148C87.1031 226.148 86.3473 225.843 85.7779 225.232C85.2084 224.621 84.9237 223.757 84.9237 222.639C84.9237 221.438 85.2602 220.495 85.9332 219.812C86.6165 219.129 87.538 218.787 88.6976 218.787C89.4534 218.787 90.1368 218.963 90.7476 219.315C91.3585 219.657 91.8451 220.19 92.2075 220.915C92.5699 221.629 92.7511 222.54 92.7511 223.648ZM88.7442 220.666C88.2886 220.666 87.9159 220.821 87.626 221.132C87.3361 221.443 87.1911 221.934 87.1911 222.607C87.1911 223.146 87.3154 223.57 87.5639 223.881C87.8124 224.192 88.1903 224.347 88.6976 224.347C89.0496 224.347 89.3499 224.269 89.5984 224.114C89.8572 223.959 90.0591 223.767 90.2041 223.539C90.349 223.301 90.4215 223.058 90.4215 222.809C90.4215 222.468 90.3594 222.131 90.2351 221.8C90.1109 221.469 89.9245 221.199 89.676 220.992C89.4275 220.775 89.1169 220.666 88.7442 220.666ZM99.6507 218.911L95.5196 230H93.423L97.5541 218.911H99.6507ZM108.039 224.456C108.039 225.646 107.909 226.666 107.65 227.515C107.402 228.364 106.993 229.016 106.423 229.472C105.864 229.928 105.108 230.155 104.156 230.155C102.82 230.155 101.842 229.653 101.221 228.649C100.599 227.634 100.289 226.236 100.289 224.456C100.289 223.255 100.413 222.23 100.662 221.381C100.91 220.532 101.319 219.879 101.888 219.424C102.458 218.968 103.214 218.74 104.156 218.74C105.481 218.74 106.46 219.243 107.091 220.247C107.723 221.251 108.039 222.654 108.039 224.456ZM102.618 224.456C102.618 225.719 102.727 226.671 102.945 227.313C103.162 227.945 103.566 228.261 104.156 228.261C104.736 228.261 105.14 227.945 105.367 227.313C105.595 226.682 105.709 225.729 105.709 224.456C105.709 223.192 105.595 222.24 105.367 221.598C105.14 220.956 104.736 220.635 104.156 220.635C103.566 220.635 103.162 220.956 102.945 221.598C102.727 222.24 102.618 223.192 102.618 224.456ZM117.237 227.701H115.901V230H113.618V227.701H108.881V226.071L113.742 218.911H115.901V225.884H117.237V227.701ZM113.618 224.005C113.618 223.767 113.623 223.477 113.634 223.136C113.644 222.794 113.654 222.478 113.665 222.188C113.685 221.888 113.701 221.691 113.711 221.598H113.649C113.556 221.805 113.458 222.007 113.354 222.204C113.251 222.4 113.126 222.602 112.981 222.809L110.947 225.884H113.618V224.005Z" fill="#222222"/>
<rect width="69" height="130.5" transform="matrix(9.77025e-08 -1 -1 -1.95561e-08 385.5 243)" fill="#D8D7E9"/>
<path opacity="0.3" d="M409.13 212.201H407.794V214.5H405.511V212.201H400.775V210.571L405.636 203.411H407.794V210.384H409.13V212.201ZM405.511 208.505C405.511 208.267 405.517 207.977 405.527 207.636C405.537 207.294 405.548 206.978 405.558 206.688C405.579 206.388 405.594 206.191 405.605 206.098H405.542C405.449 206.305 405.351 206.507 405.247 206.704C405.144 206.9 405.02 207.102 404.875 207.309L402.84 210.384H405.511V208.505ZM412.877 212.869C412.742 213.418 412.551 214.019 412.302 214.671C412.054 215.323 411.8 215.934 411.541 216.503H409.88C410.024 215.893 410.169 215.24 410.314 214.547C410.459 213.853 410.568 213.237 410.641 212.698H412.768L412.877 212.869ZM422.446 212.201H421.111V214.5H418.828V212.201H414.091V210.571L418.952 203.411H421.111V210.384H422.446V212.201ZM418.828 208.505C418.828 208.267 418.833 207.977 418.843 207.636C418.853 207.294 418.864 206.978 418.874 206.688C418.895 206.388 418.91 206.191 418.921 206.098H418.859C418.765 206.305 418.667 206.507 418.564 206.704C418.46 206.9 418.336 207.102 418.191 207.309L416.156 210.384H418.828V208.505ZM430.65 205.896C430.65 206.662 430.417 207.273 429.952 207.729C429.496 208.184 428.932 208.495 428.259 208.661V208.707C429.149 208.811 429.822 209.08 430.278 209.515C430.744 209.95 430.977 210.535 430.977 211.27C430.977 211.912 430.816 212.491 430.495 213.009C430.185 213.516 429.698 213.92 429.035 214.22C428.383 214.51 427.539 214.655 426.504 214.655C425.303 214.655 424.236 214.453 423.304 214.05V212.062C423.781 212.3 424.278 212.481 424.795 212.605C425.323 212.73 425.81 212.792 426.255 212.792C427.094 212.792 427.679 212.647 428.01 212.357C428.352 212.067 428.523 211.658 428.523 211.13C428.523 210.819 428.445 210.56 428.29 210.353C428.134 210.136 427.86 209.975 427.467 209.872C427.084 209.758 426.545 209.701 425.851 209.701H425.013V207.9H425.867C426.55 207.9 427.068 207.837 427.42 207.713C427.782 207.579 428.026 207.403 428.15 207.185C428.285 206.957 428.352 206.698 428.352 206.409C428.352 206.015 428.228 205.71 427.979 205.492C427.741 205.265 427.337 205.151 426.768 205.151C426.24 205.151 425.779 205.244 425.386 205.43C425.002 205.606 424.676 205.782 424.407 205.958L423.32 204.343C423.755 204.032 424.262 203.774 424.842 203.567C425.432 203.359 426.131 203.256 426.939 203.256C428.078 203.256 428.978 203.489 429.641 203.955C430.314 204.41 430.65 205.057 430.65 205.896ZM436.261 207.418C436.934 207.418 437.535 207.547 438.063 207.806C438.591 208.065 439.005 208.443 439.305 208.94C439.616 209.437 439.771 210.053 439.771 210.788C439.771 211.989 439.398 212.937 438.653 213.63C437.907 214.314 436.805 214.655 435.345 214.655C434.765 214.655 434.216 214.604 433.699 214.5C433.191 214.396 432.746 214.246 432.363 214.05V212.031C432.746 212.227 433.207 212.398 433.745 212.543C434.284 212.678 434.791 212.745 435.267 212.745C435.961 212.745 436.489 212.605 436.851 212.326C437.224 212.036 437.41 211.591 437.41 210.99C437.41 209.872 436.67 209.313 435.189 209.313C434.9 209.313 434.599 209.344 434.289 209.406C433.978 209.458 433.719 209.51 433.512 209.561L432.58 209.064L433 203.411H439.01V205.399H435.05L434.848 207.573C435.024 207.542 435.21 207.511 435.407 207.48C435.614 207.439 435.899 207.418 436.261 207.418Z" fill="#222222"/>
</svg>
