<svg width="562" height="315" viewBox="0 0 562 315" fill="none" xmlns="http://www.w3.org/2000/svg">
<g clip-path="url(#clip0_1144_195)">
<path d="M39.3796 156.451C39.3796 159.439 39.1592 162.427 38.7184 165.414C38.2775 168.353 37.4939 171.145 36.3673 173.79C35.2898 176.386 33.7469 178.712 31.7388 180.769C29.7796 182.778 27.2571 184.369 24.1714 185.545C21.1347 186.671 17.4367 187.235 13.0776 187.235C12.049 187.235 10.849 187.186 9.47755 187.088C8.10612 187.039 6.9551 186.916 6.02449 186.72V177.831C7.00408 178.027 8.03265 178.198 9.1102 178.345C10.1878 178.492 11.2653 178.565 12.3429 178.565C16.702 178.565 20.0571 177.88 22.4082 176.508C24.8082 175.088 26.498 173.153 27.4776 170.704C28.4571 168.255 29.0204 165.414 29.1673 162.182H28.7265C27.698 163.896 26.3265 165.341 24.6122 166.516C22.9469 167.692 20.449 168.28 17.1184 168.28C12.6612 168.28 9.08571 166.835 6.39184 163.945C3.69796 161.055 2.35102 156.965 2.35102 151.676C2.35102 145.994 3.94286 141.537 7.12653 138.304C10.3592 135.071 14.7184 133.455 20.2041 133.455C23.7796 133.455 27.0122 134.288 29.902 135.953C32.7918 137.569 35.0939 140.092 36.8082 143.52C38.5224 146.9 39.3796 151.21 39.3796 156.451ZM20.4245 142.345C18.2694 142.345 16.5061 143.08 15.1347 144.549C13.7633 146.018 13.0776 148.345 13.0776 151.529C13.0776 154.076 13.6653 156.084 14.8408 157.553C16.0163 159.022 17.8041 159.757 20.2041 159.757C21.8694 159.757 23.2898 159.39 24.4653 158.655C25.6898 157.92 26.6449 157.014 27.3306 155.937C28.0163 154.81 28.3592 153.659 28.3592 152.484C28.3592 150.867 28.0653 149.276 27.4776 147.708C26.8898 146.141 26.0082 144.867 24.8327 143.888C23.6571 142.859 22.1878 142.345 20.4245 142.345ZM71.6522 186.5H60.5583V156.157C60.5583 154.884 60.5828 153.218 60.6318 151.161C60.7297 149.104 60.8032 147.292 60.8522 145.724C60.6073 146.018 60.0685 146.557 59.2358 147.341C58.4522 148.076 57.7175 148.737 57.0318 149.324L51.0073 154.173L45.644 147.488L62.542 134.043H71.6522V186.5ZM96.5778 166.002L83.6472 146.386H96.0635L103.851 159.169L111.712 146.386H124.129L111.051 166.002L124.717 186.5H112.3L103.851 172.761L95.4023 186.5H82.986L96.5778 166.002Z" fill="#37A3E2"/>
</g>
<defs>
<clipPath id="clip0_1144_195">
<rect width="562" height="315" fill="white"/>
</clipPath>
</defs>
</svg>
