<svg width="562" height="315" viewBox="0 0 562 315" fill="none" xmlns="http://www.w3.org/2000/svg">
<path d="M40.7755 175.627H34.4571V186.5H23.6571V175.627H1.24898V167.912L24.2449 134.043H34.4571V167.031H40.7755V175.627ZM23.6571 158.141C23.6571 157.014 23.6816 155.643 23.7306 154.027C23.7796 152.41 23.8286 150.916 23.8776 149.545C23.9755 148.124 24.049 147.194 24.098 146.753H23.8041C23.3633 147.733 22.898 148.688 22.4082 149.618C21.9184 150.549 21.3306 151.504 20.6449 152.484L11.0204 167.031H23.6571V158.141ZM63.3501 152.998C66.5338 152.998 69.3746 153.61 71.8726 154.835C74.3705 156.059 76.3297 157.847 77.7501 160.198C79.2195 162.549 79.9542 165.463 79.9542 168.941C79.9542 174.622 78.1909 179.104 74.6644 182.386C71.1379 185.618 65.9216 187.235 59.0154 187.235C56.2726 187.235 53.6767 186.99 51.2277 186.5C48.8277 186.01 46.7216 185.3 44.9093 184.369V174.818C46.7216 175.749 48.9011 176.557 51.4481 177.243C53.995 177.88 56.395 178.198 58.6481 178.198C61.9297 178.198 64.4277 177.537 66.142 176.214C67.9052 174.843 68.7869 172.737 68.7869 169.896C68.7869 164.606 65.2848 161.961 58.2807 161.961C56.9093 161.961 55.4889 162.108 54.0195 162.402C52.5501 162.647 51.3256 162.892 50.346 163.137L45.9379 160.786L47.9216 134.043H76.3542V143.447H57.6195L56.6644 153.733C57.4971 153.586 58.3787 153.439 59.3093 153.292C60.2889 153.096 61.6358 152.998 63.3501 152.998ZM97.239 133.308C101.353 133.308 104.464 134.753 106.57 137.643C108.725 140.484 109.802 144.5 109.802 149.692C109.802 154.884 108.798 158.949 106.79 161.888C104.782 164.778 101.598 166.222 97.239 166.222C93.2227 166.222 90.1615 164.778 88.0553 161.888C85.9492 158.949 84.8962 154.884 84.8962 149.692C84.8962 144.5 85.8758 140.484 87.8349 137.643C89.7941 134.753 92.9288 133.308 97.239 133.308ZM134.488 134.043L105.394 186.5H96.7982L125.892 134.043H134.488ZM97.3125 140.802C95.0594 140.802 93.9329 143.79 93.9329 149.765C93.9329 155.79 95.0594 158.802 97.3125 158.802C99.6145 158.802 100.766 155.79 100.766 149.765C100.766 143.79 99.6145 140.802 97.3125 140.802ZM133.974 154.247C138.088 154.247 141.198 155.692 143.304 158.582C145.459 161.422 146.537 165.439 146.537 170.631C146.537 175.822 145.533 179.888 143.525 182.827C141.517 185.716 138.333 187.161 133.974 187.161C129.957 187.161 126.896 185.716 124.79 182.827C122.684 179.888 121.631 175.822 121.631 170.631C121.631 165.439 122.61 161.422 124.57 158.582C126.529 155.692 129.664 154.247 133.974 154.247ZM134.047 161.741C131.794 161.741 130.668 164.729 130.668 170.704C130.668 176.729 131.794 179.741 134.047 179.741C136.349 179.741 137.5 176.729 137.5 170.704C137.5 164.729 136.349 161.741 134.047 161.741Z" fill="#37A3E2"/>
<path d="M158.877 164.846L157.163 163.132L166.224 154.009L171.122 158.907L177.49 152.601H174.306V150.152H181.653V157.499H179.204V154.316L171.122 162.397L166.224 157.499L158.877 164.846Z" fill="#37A3E2"/>
</svg>
