<svg width="990" height="432" viewBox="0 0 990 432" fill="none" xmlns="http://www.w3.org/2000/svg">
<rect width="990" height="432" fill="#C4C4C4" fill-opacity="0.1"/>
<g clip-path="url(#clip0_1170_32208)">
<rect x="40" y="40" width="279.667" height="290" rx="10" fill="#C4C4C4" fill-opacity="0.1"/>
<g opacity="0.1">
<path d="M65.5674 87.8655L74.1347 79.3847L65.5674 70.904L68.1635 68.3078L79.2405 79.3847L68.1635 90.4617L65.5674 87.8655ZM56.0482 87.8655L53.452 90.4617L42.3751 79.3847L53.452 68.3078L56.0482 70.904L47.4809 79.3847L56.0482 87.8655Z" fill="#222222"/>
<path d="M117.442 68.8268C118.096 68.8268 118.654 69.0768 119.115 69.5768C119.615 70.0383 119.865 70.6153 119.865 71.3076V86.0768C119.865 86.7691 119.615 87.3653 119.115 87.8653C118.654 88.3268 118.096 88.5576 117.442 88.5576H97.7116C97.0577 88.5576 96.4808 88.3268 95.9808 87.8653C95.5193 87.3653 95.2885 86.7691 95.2885 86.0768V71.3076C95.2885 70.6153 95.5193 70.0383 95.9808 69.5768C96.4808 69.0768 97.0577 68.8268 97.7116 68.8268H117.442ZM117.442 86.0768V73.7883H97.7116V86.0768H117.442ZM114.962 84.8653V82.3845H107.577V84.8653H114.962ZM102.039 84.8653L106.942 79.9037L102.039 74.9999L100.308 76.7307L103.481 79.9037L100.308 83.1345L102.039 84.8653Z" fill="#222222"/>
<path d="M142 66.7306C142 65.4229 142.346 64.2306 143.039 63.1537C143.731 61.9998 144.615 61.0768 145.692 60.3845C146.846 59.6922 148.077 59.346 149.385 59.346H156.769V64.3075H149.385C148.769 64.3075 148.192 64.5768 147.654 65.1152C147.192 65.5768 146.962 66.1152 146.962 66.7306V71.6922C146.962 73.3075 146.5 74.7691 145.577 76.0768C144.654 77.3075 143.462 78.1537 142 78.6152V79.5383C143.462 79.9998 144.654 80.8845 145.577 82.1922C146.5 83.4229 146.962 84.846 146.962 86.4614V91.4229C146.962 92.0383 147.192 92.6152 147.654 93.1537C148.192 93.6152 148.769 93.846 149.385 93.846H156.769V98.8075H149.385C148.077 98.8075 146.846 98.4614 145.692 97.7691C144.615 97.0768 143.731 96.1922 143.039 95.1152C142.346 93.9614 142 92.7306 142 91.4229V86.4614C142 85.7691 141.769 85.1922 141.308 84.7306C140.846 84.2691 140.269 84.0383 139.577 84.0383H137.154V74.1152H139.577C140.269 74.1152 140.846 73.8845 141.308 73.4229C141.769 72.9614 142 72.3845 142 71.6922V66.7306ZM183.885 74.1152H186.308V84.0383H183.885C183.192 84.0383 182.615 84.2691 182.154 84.7306C181.692 85.1922 181.462 85.7691 181.462 86.4614V91.4229C181.462 92.7306 181.115 93.9614 180.423 95.1152C179.731 96.1922 178.808 97.0768 177.654 97.7691C176.577 98.4614 175.385 98.8075 174.077 98.8075H166.692V93.846H174.077C174.692 93.846 175.231 93.6152 175.692 93.1537C176.231 92.6152 176.5 92.0383 176.5 91.4229V86.4614C176.5 84.846 176.962 83.4229 177.885 82.1922C178.808 80.8845 180 79.9998 181.462 79.5383V78.6152C180 78.1537 178.808 77.3075 177.885 76.0768C176.962 74.7691 176.5 73.3075 176.5 71.6922V66.7306C176.5 66.1152 176.231 65.5768 175.692 65.1152C175.231 64.5768 174.692 64.3075 174.077 64.3075H166.692V59.346H174.077C175.385 59.346 176.577 59.6922 177.654 60.3845C178.808 61.0768 179.731 61.9998 180.423 63.1537C181.115 64.2306 181.462 65.4229 181.462 66.7306V71.6922C181.462 72.3845 181.692 72.9614 182.154 73.4229C182.615 73.8845 183.192 74.1152 183.885 74.1152Z" fill="#222222"/>
<path d="M219.577 82.6394V81.0529H221.885V81.8462H224.986V80.3317H221.091C220.707 80.3317 220.346 80.1875 220.01 79.899C219.721 79.5625 219.577 79.1779 219.577 78.7452V76.4375C219.577 76.0529 219.721 75.7163 220.01 75.4279C220.346 75.0913 220.707 74.9231 221.091 74.9231H225.707C226.14 74.9231 226.5 75.0913 226.789 75.4279C227.125 75.7163 227.293 76.0529 227.293 76.4375V78.024H224.986V77.2308H221.885V78.7452H225.707C226.14 78.7452 226.5 78.9135 226.789 79.25C227.125 79.5385 227.293 79.899 227.293 80.3317V82.6394C227.293 83.024 227.125 83.3846 226.789 83.7212C226.5 84.0096 226.14 84.1538 225.707 84.1538H221.091C220.707 84.1538 220.346 84.0096 220.01 83.7212C219.721 83.3846 219.577 83.024 219.577 82.6394ZM214.962 74.9231V81.8462H212.654V80.3317H210.346V81.8462C210.346 82.4712 210.563 83.024 210.995 83.5048C211.476 83.9375 212.029 84.1538 212.654 84.1538H214.962C215.587 84.1538 216.115 83.9375 216.548 83.5048C217.029 83.024 217.269 82.4712 217.269 81.8462V74.9231C217.269 74.9231 217.029 74.9231 216.548 74.9231C216.115 74.9231 215.587 74.9231 214.962 74.9231Z" fill="#222222"/>
<path d="M292.741 93.4425L307.019 79.3079L292.741 65.1733L297.067 60.8463L315.529 79.3079L297.067 97.7694L292.741 93.4425ZM276.875 93.4425L272.548 97.7694L254.087 79.3079L272.548 60.8463L276.875 65.1733L262.596 79.3079L276.875 93.4425Z" fill="#222222"/>
<path d="M78.375 188.952C78.375 189.414 78.5481 189.846 78.8943 190.25C79.2404 190.596 79.6731 190.769 80.1924 190.769H85.7308C86.25 190.769 86.6827 190.596 87.0289 190.25C87.375 189.846 87.5481 189.414 87.5481 188.952V186.183C87.5481 185.664 87.375 185.231 87.0289 184.885C86.6827 184.481 86.25 184.279 85.7308 184.279H81.1443V182.462H84.7789V183.414H87.5481V181.51C87.5481 181.048 87.375 180.644 87.0289 180.298C86.6827 179.894 86.25 179.692 85.7308 179.692H80.1924C79.6731 179.692 79.2404 179.894 78.8943 180.298C78.5481 180.644 78.375 181.048 78.375 181.51V184.279C78.375 184.798 78.5481 185.26 78.8943 185.664C79.2404 186.01 79.6731 186.183 80.1924 186.183H84.7789V188H81.1443V187.048H78.375V188.952ZM92.2212 190.769C91.702 190.769 91.2404 190.596 90.8366 190.25C90.4904 189.846 90.3174 189.414 90.3174 188.952V187.048H93.0866V188H96.8077V186.183H92.2212C91.702 186.183 91.2404 186.01 90.8366 185.664C90.4904 185.26 90.3174 184.798 90.3174 184.279V181.51C90.3174 181.048 90.4904 180.644 90.8366 180.298C91.2404 179.894 91.702 179.692 92.2212 179.692H97.7597C98.2212 179.692 98.625 179.894 98.9712 180.298C99.375 180.644 99.577 181.048 99.577 181.51V183.414H96.8077V182.462H93.0866V184.279H97.7597C98.2212 184.279 98.625 184.481 98.9712 184.885C99.375 185.231 99.577 185.664 99.577 186.183V188.952C99.577 189.414 99.375 189.846 98.9712 190.25C98.625 190.596 98.2212 190.769 97.7597 190.769H92.2212ZM75.6058 181.51V183.414H72.8366V182.462H69.1154V188H72.8366V187.048H75.6058V188.952C75.6058 189.414 75.4039 189.846 75 190.25C74.6539 190.596 74.2212 190.769 73.702 190.769H68.1635C67.702 190.769 67.2693 190.596 66.8654 190.25C66.5193 189.846 66.3462 189.414 66.3462 188.952V181.51C66.3462 181.048 66.5193 180.644 66.8654 180.298C67.2693 179.894 67.702 179.692 68.1635 179.692H73.702C74.2212 179.692 74.6539 179.894 75 180.298C75.4039 180.644 75.6058 181.048 75.6058 181.51Z" fill="#222222"/>
<path d="M136.827 176.519L143.519 184.538L136.827 192.558L134.923 191L140.289 184.538L134.923 178.077L136.827 176.519ZM128.519 185.75V183.327H130.942V185.75H128.519ZM135.904 183.327V185.75H133.423V183.327H135.904ZM123.558 185.75V183.327H126.039V185.75H123.558ZM124.539 178.077L119.173 184.538L124.539 191L122.635 192.558L115.942 184.538L122.635 176.519L124.539 178.077Z" fill="#222222"/>
<path d="M203.615 165.192C204.923 165.192 206.039 165.692 206.962 166.692C207.962 167.615 208.462 168.769 208.462 170.154V199.692C208.462 201.077 207.962 202.269 206.962 203.269C206.039 204.192 204.923 204.654 203.615 204.654H164.154C162.846 204.654 161.692 204.192 160.692 203.269C159.769 202.269 159.308 201.077 159.308 199.692V170.154C159.308 168.769 159.769 167.615 160.692 166.692C161.692 165.692 162.846 165.192 164.154 165.192H203.615ZM203.615 199.692V175.115H164.154V199.692H203.615ZM198.654 197.269V192.308H183.885V197.269H198.654ZM172.808 197.269L182.615 187.346L172.808 177.538L169.346 181L175.692 187.346L169.346 193.808L172.808 197.269Z" fill="#222222"/>
<path d="M245.697 192.452L252.837 185.385L245.697 178.317L247.861 176.154L257.091 185.385L247.861 194.615L245.697 192.452ZM237.764 192.452L235.601 194.615L226.37 185.385L235.601 176.154L237.764 178.317L230.625 185.385L237.764 192.452Z" fill="#222222"/>
<path d="M284.808 187.019V185.75H286.654V186.385H289.135V185.173H286.019C285.712 185.173 285.423 185.058 285.154 184.827C284.923 184.558 284.808 184.25 284.808 183.904V182.058C284.808 181.75 284.923 181.481 285.154 181.25C285.423 180.981 285.712 180.846 286.019 180.846H289.712C290.058 180.846 290.346 180.981 290.577 181.25C290.846 181.481 290.981 181.75 290.981 182.058V183.327H289.135V182.692H286.654V183.904H289.712C290.058 183.904 290.346 184.038 290.577 184.308C290.846 184.538 290.981 184.827 290.981 185.173V187.019C290.981 187.327 290.846 187.615 290.577 187.885C290.346 188.115 290.058 188.231 289.712 188.231H286.019C285.712 188.231 285.423 188.115 285.154 187.885C284.923 187.615 284.808 187.327 284.808 187.019ZM281.115 180.846V186.385H279.269V185.173H277.423V186.385C277.423 186.885 277.596 187.327 277.942 187.711C278.327 188.058 278.769 188.231 279.269 188.231H281.115C281.615 188.231 282.039 188.058 282.385 187.711C282.769 187.327 282.962 186.885 282.962 186.385V180.846C282.962 180.846 282.769 180.846 282.385 180.846C282.039 180.846 281.615 180.846 281.115 180.846Z" fill="#222222"/>
<path d="M123.548 281.817C123.548 280.837 123.808 279.942 124.327 279.135C124.846 278.269 125.51 277.577 126.317 277.058C127.183 276.539 128.106 276.279 129.087 276.279H134.625V280H129.087C128.625 280 128.192 280.202 127.789 280.606C127.442 280.952 127.269 281.356 127.269 281.817V285.539C127.269 286.75 126.923 287.846 126.231 288.827C125.539 289.75 124.644 290.385 123.548 290.731V291.423C124.644 291.769 125.539 292.433 126.231 293.414C126.923 294.337 127.269 295.404 127.269 296.616V300.337C127.269 300.798 127.442 301.231 127.789 301.635C128.192 301.981 128.625 302.154 129.087 302.154H134.625V305.875H129.087C128.106 305.875 127.183 305.616 126.317 305.096C125.51 304.577 124.846 303.914 124.327 303.106C123.808 302.241 123.548 301.317 123.548 300.337V296.616C123.548 296.096 123.375 295.664 123.029 295.317C122.683 294.971 122.25 294.798 121.731 294.798H119.914V287.356H121.731C122.25 287.356 122.683 287.183 123.029 286.837C123.375 286.491 123.548 286.058 123.548 285.539V281.817ZM154.962 287.356H156.779V294.798H154.962C154.442 294.798 154.01 294.971 153.664 295.317C153.317 295.664 153.144 296.096 153.144 296.616V300.337C153.144 301.317 152.885 302.241 152.365 303.106C151.846 303.914 151.154 304.577 150.289 305.096C149.481 305.616 148.587 305.875 147.606 305.875H142.067V302.154H147.606C148.067 302.154 148.471 301.981 148.817 301.635C149.221 301.231 149.423 300.798 149.423 300.337V296.616C149.423 295.404 149.769 294.337 150.462 293.414C151.154 292.433 152.048 291.769 153.144 291.423V290.731C152.048 290.385 151.154 289.75 150.462 288.827C149.769 287.846 149.423 286.75 149.423 285.539V281.817C149.423 281.356 149.221 280.952 148.817 280.606C148.471 280.202 148.067 280 147.606 280H142.067V276.279H147.606C148.587 276.279 149.481 276.539 150.289 277.058C151.154 277.577 151.846 278.269 152.365 279.135C152.885 279.942 153.144 280.837 153.144 281.817V285.539C153.144 286.058 153.317 286.491 153.664 286.837C154.01 287.183 154.442 287.356 154.962 287.356Z" fill="#222222"/>
<path d="M215.202 305.134L229.481 291L215.202 276.865L219.529 272.538L237.99 291L219.529 309.461L215.202 305.134ZM199.337 305.134L195.01 309.461L176.548 291L195.01 272.538L199.337 276.865L185.058 291L199.337 305.134Z" fill="#222222"/>
</g>
<path d="M138.68 141.347V183.769H129.832V149.726H129.598L119.871 155.82V148.027L130.359 141.347H138.68ZM147.22 176.269V169.296L165.15 141.347H176.224V169.179H181.615V176.269H176.224V183.769H167.845V176.269H147.22ZM156.127 169.179H167.963V151.015H167.552L156.127 168.828V169.179ZM203.222 184.355C192.587 184.355 186.171 176.445 186.171 162.558C186.171 148.701 192.646 140.761 203.222 140.761C213.798 140.761 220.273 148.701 220.273 162.558C220.273 176.503 213.827 184.355 203.222 184.355ZM195.195 162.558C195.136 172.343 198.3 177.089 203.222 177.089C208.144 177.089 211.279 172.343 211.249 162.558C211.279 152.861 208.114 147.998 203.222 147.968C198.329 147.998 195.195 152.861 195.195 162.558Z" fill="#222222"/>
<path d="M223.762 185.461V167.079H227.571V175.229H227.825L234.502 167.079H239.098L232.243 175.305L239.174 185.461H234.604L229.5 177.87L227.571 180.206V185.461H223.762Z" fill="#222222"/>
<rect width="208.582" height="34.4615" transform="translate(75.5426 208.769)" fill="#222222"/>
<path d="M151.388 220.02C151.38 221.7 153.099 223.551 156.357 223.958L155.576 225.567C153.091 225.208 151.271 224.059 150.341 222.52C149.404 224.051 147.591 225.208 145.138 225.567L144.341 223.958C147.576 223.551 149.286 221.7 149.294 220.02V219.333H151.388V220.02ZM143.841 228.27V226.645H156.81V228.27H151.279V233.129H149.31V228.27H143.841ZM168.951 218.911V221.895H170.872V223.536H168.951V226.004H166.951V218.911H168.951ZM158.091 225.723V219.801H164.919V225.723H158.091ZM158.951 232.754V227.192H160.888V231.129C161.677 231.075 162.419 230.958 163.154 230.723L163.435 232.27C162.24 232.7 161.091 232.754 159.732 232.754H158.951ZM160.06 224.161H162.951V221.348H160.06V224.161ZM162.951 228.77V227.333H165.576V226.301H167.513V227.333H170.107V228.77H162.951ZM163.779 231.129C163.763 229.887 164.88 229.129 166.513 229.129C168.146 229.129 169.271 229.887 169.279 231.129C169.271 232.348 168.146 233.114 166.513 233.114C164.872 233.114 163.763 232.348 163.779 231.129ZM165.544 231.129C165.536 231.567 165.951 231.786 166.513 231.786C167.083 231.786 167.49 231.567 167.497 231.129C167.49 230.692 167.083 230.481 166.513 230.473C165.951 230.481 165.536 230.692 165.544 231.129ZM184.466 226.176V227.77H171.497V226.176H184.466ZM172.794 222.254C172.794 220.442 174.849 219.333 177.982 219.348C181.091 219.333 183.146 220.442 183.154 222.254C183.146 224.075 181.091 225.192 177.982 225.192C174.849 225.192 172.794 224.075 172.794 222.254ZM173.06 232.879V228.723H175.06V231.286H182.997V232.879H173.06ZM174.872 222.254C174.857 223.137 176.005 223.583 177.982 223.583C179.943 223.583 181.091 223.137 181.091 222.254C181.091 221.395 179.943 220.926 177.982 220.911C176.005 220.926 174.857 221.395 174.872 222.254ZM200.685 220.098V221.364C200.677 223.075 200.708 225.09 200.044 228.161L198.091 227.958C198.326 226.879 198.474 225.918 198.568 225.051L190.31 225.52L190.029 223.817L198.685 223.536C198.724 222.864 198.724 222.254 198.732 221.692H190.497V220.098H200.685ZM189.013 231.489V229.864H193.654V226.426H195.638V229.864H201.982V231.489H189.013ZM214.435 225.489V227.083H204.372V220.098H214.326V221.708H206.341V225.489H214.435ZM202.841 231.395V229.754H215.857V231.395H202.841Z" fill="white"/>
</g>
<path d="M55.3464 349.922C55.2526 349.023 54.5417 348.5 53.3932 348.5C52.2057 348.5 51.5417 349.047 51.5339 349.797C51.526 350.617 52.3698 350.984 53.3464 351.203L54.362 351.453C56.2995 351.898 57.7448 352.883 57.7526 354.766C57.7448 356.836 56.1354 358.164 53.3776 358.156C50.6432 358.164 48.901 356.898 48.8307 354.469H51.112C51.1901 355.609 52.0964 356.188 53.3464 356.188C54.5807 356.188 55.3776 355.609 55.3776 354.766C55.3776 353.992 54.6745 353.633 53.4401 353.328L52.2057 353.031C50.2995 352.562 49.1276 351.609 49.1276 349.953C49.1198 347.898 50.9323 346.531 53.4089 346.531C55.9167 346.531 57.5651 347.922 57.5964 349.922H55.3464ZM66.8464 350.625C66.6589 349.375 65.6979 348.617 64.3776 348.609C62.6198 348.617 61.4557 349.961 61.4557 352.344C61.4557 354.781 62.6354 356.07 64.362 356.078C65.651 356.07 66.6198 355.367 66.8464 354.141L69.2214 354.156C68.9635 356.25 67.2057 358.156 64.3307 358.156C61.3073 358.156 59.0651 356.023 59.0651 352.344C59.0651 348.648 61.3464 346.531 64.3307 346.531C66.9401 346.531 68.9089 348.023 69.2214 350.625H66.8464ZM77.0026 349.922C76.9089 349.023 76.1979 348.5 75.0495 348.5C73.862 348.5 73.1979 349.047 73.1901 349.797C73.1823 350.617 74.026 350.984 75.0026 351.203L76.0182 351.453C77.9557 351.898 79.401 352.883 79.4089 354.766C79.401 356.836 77.7917 358.164 75.0339 358.156C72.2995 358.164 70.5573 356.898 70.487 354.469H72.7682C72.8464 355.609 73.7526 356.188 75.0026 356.188C76.237 356.188 77.0339 355.609 77.0339 354.766C77.0339 353.992 76.3307 353.633 75.0964 353.328L73.862 353.031C71.9557 352.562 70.7839 351.609 70.7839 349.953C70.776 347.898 72.5885 346.531 75.0651 346.531C77.5729 346.531 79.2214 347.922 79.2526 349.922H77.0026ZM87.0807 349.922C86.987 349.023 86.276 348.5 85.1276 348.5C83.9401 348.5 83.276 349.047 83.2682 349.797C83.2604 350.617 84.1042 350.984 85.0807 351.203L86.0964 351.453C88.0339 351.898 89.4792 352.883 89.487 354.766C89.4792 356.836 87.8698 358.164 85.112 358.156C82.3776 358.164 80.6354 356.898 80.5651 354.469H82.8464C82.9245 355.609 83.8307 356.188 85.0807 356.188C86.3151 356.188 87.112 355.609 87.112 354.766C87.112 353.992 86.4089 353.633 85.1745 353.328L83.9401 353.031C82.0339 352.562 80.862 351.609 80.862 349.953C80.8542 347.898 82.6667 346.531 85.1432 346.531C87.651 346.531 89.2995 347.922 89.3307 349.922H87.0807ZM101.659 347.094C101.651 349.18 103.503 351.406 106.721 351.953L105.846 353.609C103.362 353.117 101.526 351.719 100.604 349.898C99.6667 351.703 97.8229 353.109 95.362 353.609L94.5026 351.953C97.6667 351.391 99.5182 349.156 99.5339 347.094V346.062H101.659V347.094ZM94.1745 357.688V356.047H107.19V357.688H94.1745ZM115.299 346.391V348.016H110.581V350.359H115.096V351.922H110.581V354.609C112.612 354.586 114.276 354.5 116.174 354.203L116.362 355.812C114.19 356.141 112.253 356.203 109.768 356.203H108.565V346.391H115.299ZM117.221 359.438V345.219H119.221V350.609H121.315V352.281H119.221V359.438H117.221ZM125.878 345.641C128.042 345.633 129.667 346.992 129.674 348.891C129.667 350.773 128.042 352.117 125.878 352.125C123.682 352.117 122.049 350.773 122.049 348.891C122.049 346.992 123.682 345.633 125.878 345.641ZM123.987 348.891C123.971 349.906 124.776 350.508 125.878 350.516C126.956 350.508 127.745 349.906 127.753 348.891C127.745 347.867 126.956 347.266 125.878 347.266C124.784 347.266 123.971 347.867 123.987 348.891ZM124.19 354.469V352.938H133.737V356.797H126.174V357.719H134.128V359.281H124.221V355.344H131.753V354.469H124.19ZM131.737 352.344V345.219H133.737V352.344H131.737ZM151.018 346.406V347.672C151.01 349.383 151.042 351.398 150.378 354.469L148.424 354.266C148.659 353.188 148.807 352.227 148.901 351.359L140.643 351.828L140.362 350.125L149.018 349.844C149.057 349.172 149.057 348.562 149.065 348H140.831V346.406H151.018ZM139.346 357.797V356.172H143.987V352.734H145.971V356.172H152.315V357.797H139.346ZM164.768 351.797V353.391H154.706V346.406H164.659V348.016H156.674V351.797H164.768ZM153.174 357.703V356.062H166.19V357.703H153.174Z" fill="#7D7D85"/>
<path d="M64.8854 372.688V384H62.526V374.922H62.4635L59.8698 376.547V374.469L62.6667 372.688H64.8854ZM71.6979 384.156C69.2135 384.156 67.4323 382.789 67.3854 380.812H69.7604C69.7995 381.656 70.6198 382.211 71.7135 382.219C72.8385 382.211 73.6432 381.586 73.6354 380.672C73.6432 379.75 72.8229 379.102 71.4948 379.094H70.4479V377.359H71.4948C72.612 377.359 73.3932 376.75 73.3854 375.859C73.3932 374.992 72.7292 374.398 71.7292 374.406C70.7292 374.398 69.9089 374.961 69.8698 375.828H67.6198C67.6589 373.883 69.4089 372.531 71.7292 372.531C74.0885 372.531 75.6589 373.93 75.651 375.719C75.6589 376.984 74.776 377.883 73.5104 378.109V378.203C75.1745 378.406 76.0885 379.414 76.0729 380.828C76.0885 382.766 74.2526 384.156 71.6979 384.156ZM79.9323 382.844L78.5885 387.297H76.9323L77.7135 382.844H79.9323ZM85.8229 384.156C83.3385 384.156 81.5573 382.789 81.5104 380.812H83.8854C83.9245 381.656 84.7448 382.211 85.8385 382.219C86.9635 382.211 87.7682 381.586 87.7604 380.672C87.7682 379.75 86.9479 379.102 85.6198 379.094H84.5729V377.359H85.6198C86.737 377.359 87.5182 376.75 87.5104 375.859C87.5182 374.992 86.8542 374.398 85.8542 374.406C84.8542 374.398 84.0339 374.961 83.9948 375.828H81.7448C81.7839 373.883 83.5339 372.531 85.8542 372.531C88.2135 372.531 89.7839 373.93 89.776 375.719C89.7839 376.984 88.901 377.883 87.6354 378.109V378.203C89.2995 378.406 90.2135 379.414 90.1979 380.828C90.2135 382.766 88.3776 384.156 85.8229 384.156ZM96.2292 384.156C93.8932 384.148 91.6589 382.75 91.6667 378.609C91.6745 374.789 93.4948 372.531 96.3229 372.531C98.5964 372.531 100.159 373.969 100.385 375.828H98.0729C97.8854 375.039 97.237 374.547 96.3229 374.547C94.7839 374.547 93.9792 375.93 93.9635 378.156H94.0729C94.5964 377.148 95.7135 376.562 96.9635 376.562C99.0026 376.562 100.518 378.086 100.51 380.219C100.518 382.516 98.7839 384.164 96.2292 384.156ZM94.1979 380.281C94.2135 381.391 95.0573 382.305 96.2135 382.297C97.3776 382.305 98.2292 381.422 98.2292 380.281C98.2292 379.148 97.3932 378.273 96.2448 378.266C95.0885 378.273 94.2135 379.18 94.1979 380.281ZM106.526 384.156C103.69 384.156 101.979 382.047 101.979 378.344C101.979 374.648 103.706 372.531 106.526 372.531C109.346 372.531 111.073 374.648 111.073 378.344C111.073 382.062 109.354 384.156 106.526 384.156ZM104.385 378.344C104.37 380.953 105.214 382.219 106.526 382.219C107.839 382.219 108.674 380.953 108.667 378.344C108.674 375.758 107.831 374.461 106.526 374.453C105.221 374.461 104.385 375.758 104.385 378.344ZM116.448 384V372.688H118.792V382.062H123.667V384H116.448ZM125.135 384V375.516H127.448V384H125.135ZM125.026 373.234C125.026 372.578 125.596 372.055 126.292 372.047C126.979 372.055 127.549 372.578 127.542 373.234C127.549 373.875 126.979 374.406 126.292 374.406C125.596 374.406 125.026 373.875 125.026 373.234ZM131.557 379.094V384H129.245V375.516H131.448V377H131.542C131.924 376.023 132.831 375.406 134.089 375.406C135.862 375.406 137.018 376.617 137.01 378.594V384H134.714V379C134.706 377.953 134.143 377.328 133.182 377.328C132.221 377.328 131.557 377.977 131.557 379.094ZM142.651 384.172C140.049 384.164 138.456 382.484 138.464 379.797C138.456 377.18 140.073 375.406 142.557 375.406C144.784 375.406 146.542 376.812 146.542 379.703V380.359H140.745C140.745 381.641 141.503 382.43 142.698 382.438C143.487 382.43 144.049 382.086 144.276 381.578H146.479C146.151 383.148 144.745 384.164 142.651 384.172ZM140.745 378.906H144.354C144.346 377.875 143.635 377.133 142.604 377.141C141.542 377.133 140.792 377.93 140.745 378.906ZM152.839 378.031C152.737 377.438 152.221 377.055 151.448 377.047C150.698 377.055 150.128 377.406 150.135 377.922C150.128 378.305 150.424 378.602 151.229 378.766L152.745 379.078C154.393 379.422 155.19 380.156 155.198 381.375C155.19 383.047 153.69 384.164 151.432 384.172C149.143 384.164 147.799 383.141 147.604 381.484H149.932C150.042 382.148 150.581 382.492 151.432 382.5C152.276 382.492 152.839 382.156 152.839 381.609C152.839 381.172 152.479 380.898 151.682 380.734L150.276 380.453C148.659 380.133 147.831 379.305 147.839 378.047C147.831 376.422 149.229 375.406 151.417 375.406C153.557 375.406 154.885 376.422 155.01 378.031H152.839Z" fill="#222222"/>
<path d="M228.164 345.219V359.469H226.148V345.219H228.164ZM216.961 356.141V346.344H218.961V349.812H222.023V346.344H223.992V356.141H216.961ZM218.961 354.531H222.023V351.359H218.961V354.531ZM235.32 348.438C235.313 350.984 236.398 353.555 238.68 354.656L237.477 356.25C235.953 355.492 234.922 354.086 234.336 352.375C233.711 354.211 232.617 355.719 231.008 356.516L229.773 354.906C232.188 353.797 233.32 351.078 233.32 348.438V346.312H235.32V348.438ZM239.305 359.438V345.219H241.305V350.703H243.398V352.391H241.305V359.438H239.305ZM256.883 351.953V353.547H243.914V351.953H246.836V350.25C245.797 349.789 245.211 349.086 245.211 348.172C245.211 346.453 247.234 345.43 250.398 345.422C253.539 345.43 255.563 346.453 255.57 348.172C255.563 349.102 254.961 349.812 253.898 350.266V351.953H256.883ZM245.398 356.844C245.398 355.203 247.266 354.289 250.383 354.297C253.453 354.289 255.32 355.203 255.336 356.844C255.32 358.523 253.453 359.422 250.383 359.422C247.266 359.422 245.398 358.523 245.398 356.844ZM247.289 348.172C247.273 348.953 248.391 349.352 250.398 349.344C252.383 349.352 253.508 348.953 253.508 348.172C253.508 347.375 252.383 346.953 250.398 346.953C248.391 346.953 247.273 347.375 247.289 348.172ZM247.43 356.844C247.422 357.57 248.414 357.938 250.383 357.938C252.313 357.938 253.328 357.57 253.336 356.844C253.328 356.141 252.313 355.805 250.383 355.797C248.414 355.805 247.422 356.141 247.43 356.844ZM248.852 351.953H251.914V350.758C251.445 350.82 250.938 350.844 250.398 350.844C249.844 350.844 249.328 350.812 248.852 350.758V351.953ZM274.445 356.141V357.781H261.43V356.141H266.914V353.234H262.805V346.266H272.992V353.234H268.898V356.141H274.445ZM264.773 351.672H271.023V347.859H264.773V351.672ZM286.711 348.453V350.031H276.883V345.641H286.602V347.25H278.867V348.453H286.711ZM275.258 352.359V350.797H288.227V352.359H285.07V353.344H286.648V356.969H278.727V357.812H287.023V359.328H276.773V355.578H284.68V354.812H276.758V353.344H278.555V352.359H275.258ZM280.539 353.344H283.07V352.359H280.539V353.344Z" fill="#7D7D85"/>
<path d="M199.547 382V380.141L204.328 372.688H207.281V380.109H208.719V382H207.281V384H205.047V382H199.547ZM201.922 380.109H205.078V375.266H204.969L201.922 380.016V380.109ZM210.25 384L210.234 382.297L214.297 378.562C215.352 377.555 215.922 376.93 215.922 376.031C215.922 375.023 215.164 374.398 214.125 374.406C213.063 374.398 212.367 375.07 212.375 376.156H210.141C210.133 373.945 211.773 372.531 214.156 372.531C216.578 372.531 218.188 373.914 218.188 375.875C218.188 377.164 217.563 378.219 215.234 380.328L213.516 382V382.062H218.344V384H210.25ZM220.016 384L220 382.297L224.063 378.562C225.117 377.555 225.688 376.93 225.688 376.031C225.688 375.023 224.93 374.398 223.891 374.406C222.828 374.398 222.133 375.07 222.141 376.156H219.906C219.898 373.945 221.539 372.531 223.922 372.531C226.344 372.531 227.953 373.914 227.953 375.875C227.953 377.164 227.328 378.219 225 380.328L223.281 382V382.062H228.109V384H220.016ZM233.531 384V372.688H237.969C240.539 372.688 242.016 374.273 242.016 376.5C242.016 378.758 240.516 380.312 237.906 380.312H235.875V384H233.531ZM235.875 378.422H237.531C238.922 378.422 239.602 377.641 239.594 376.5C239.602 375.375 238.922 374.617 237.531 374.609H235.875V378.422ZM242.828 381.625C242.836 379.734 244.352 379.117 245.984 379.016C246.594 378.977 247.734 378.922 248.094 378.906V378.219C248.086 377.508 247.602 377.102 246.734 377.094C245.945 377.102 245.453 377.453 245.328 378.031H243.125C243.266 376.562 244.547 375.406 246.797 375.406C248.648 375.406 250.398 376.234 250.391 378.281V384H248.203V382.828H248.141C247.727 383.609 246.914 384.164 245.656 384.156C244.031 384.164 242.836 383.305 242.828 381.625ZM245.047 381.562C245.047 382.211 245.57 382.555 246.313 382.562C247.367 382.555 248.102 381.867 248.094 380.969V380.352C247.742 380.367 246.75 380.422 246.359 380.453C245.555 380.523 245.047 380.906 245.047 381.562ZM255.969 384.172C253.367 384.164 251.805 382.367 251.813 379.781C251.805 377.188 253.398 375.406 255.969 375.406C258.156 375.406 259.641 376.68 259.734 378.625H257.563C257.422 377.789 256.875 377.211 256 377.203C254.891 377.211 254.156 378.141 254.156 379.75C254.156 381.391 254.875 382.328 256 382.328C256.813 382.328 257.414 381.82 257.563 380.922H259.734C259.633 382.844 258.219 384.164 255.969 384.172ZM261.172 384V372.688H263.484V378.766H263.609L266.359 375.516H269.016L265.852 379.188L269.188 384H266.469L264.133 380.547L263.484 381.281V384H261.172ZM269.688 381.625C269.695 379.734 271.211 379.117 272.844 379.016C273.453 378.977 274.594 378.922 274.953 378.906V378.219C274.945 377.508 274.461 377.102 273.594 377.094C272.805 377.102 272.313 377.453 272.188 378.031H269.984C270.125 376.562 271.406 375.406 273.656 375.406C275.508 375.406 277.258 376.234 277.25 378.281V384H275.063V382.828H275C274.586 383.609 273.773 384.164 272.516 384.156C270.891 384.164 269.695 383.305 269.688 381.625ZM271.906 381.562C271.906 382.211 272.43 382.555 273.172 382.562C274.227 382.555 274.961 381.867 274.953 380.969V380.352C274.602 380.367 273.609 380.422 273.219 380.453C272.414 380.523 271.906 380.906 271.906 381.562ZM282.828 387.359C280.484 387.359 279.039 386.305 278.906 384.703H281.188C281.313 385.383 281.953 385.688 282.875 385.688C283.945 385.688 284.664 385.227 284.672 384.047V382.5H284.563C284.258 383.188 283.508 383.883 282.141 383.875C280.227 383.883 278.688 382.531 278.688 379.703C278.688 376.836 280.266 375.406 282.141 375.406C283.563 375.406 284.25 376.25 284.563 376.938H284.656V375.516H286.953V384.094C286.945 386.258 285.242 387.359 282.828 387.359ZM281.063 379.734C281.055 381.203 281.688 382.133 282.859 382.141C284.016 382.133 284.672 381.242 284.672 379.734C284.672 378.227 284.023 377.25 282.859 377.25C281.68 377.25 281.055 378.273 281.063 379.734ZM292.594 384.172C289.992 384.164 288.398 382.484 288.406 379.797C288.398 377.18 290.016 375.406 292.5 375.406C294.727 375.406 296.484 376.812 296.484 379.703V380.359H290.688C290.688 381.641 291.445 382.43 292.641 382.438C293.43 382.43 293.992 382.086 294.219 381.578H296.422C296.094 383.148 294.688 384.164 292.594 384.172ZM290.688 378.906H294.297C294.289 377.875 293.578 377.133 292.547 377.141C291.484 377.133 290.734 377.93 290.688 378.906ZM302.781 378.031C302.68 377.438 302.164 377.055 301.391 377.047C300.641 377.055 300.07 377.406 300.078 377.922C300.07 378.305 300.367 378.602 301.172 378.766L302.688 379.078C304.336 379.422 305.133 380.156 305.141 381.375C305.133 383.047 303.633 384.164 301.375 384.172C299.086 384.164 297.742 383.141 297.547 381.484H299.875C299.984 382.148 300.523 382.492 301.375 382.5C302.219 382.492 302.781 382.156 302.781 381.609C302.781 381.172 302.422 380.898 301.625 380.734L300.219 380.453C298.602 380.133 297.773 379.305 297.781 378.047C297.773 376.422 299.172 375.406 301.359 375.406C303.5 375.406 304.828 376.422 304.953 378.031H302.781Z" fill="#222222"/>
<rect x="339.667" y="40" width="310.667" height="290" rx="10" fill="#C4C4C4" fill-opacity="0.1"/>
<path d="M406.933 136.664C409.863 136.674 412.636 138.422 412.636 143.559C412.646 148.363 410.37 151.195 406.816 151.195C403.974 151.195 402.021 149.408 401.738 147.016H404.628C404.872 148.061 405.683 148.676 406.816 148.676C408.74 148.676 409.755 146.947 409.765 144.125H409.648C408.984 145.375 407.587 146.117 406.015 146.117C403.476 146.117 401.601 144.203 401.581 141.566C401.581 138.725 403.74 136.654 406.933 136.664ZM404.452 141.488C404.452 142.885 405.478 143.969 406.933 143.969C408.368 143.969 409.472 142.826 409.472 141.469C409.452 140.121 408.398 138.979 406.952 138.969C405.507 138.979 404.433 140.082 404.452 141.488ZM420.117 151.195C416.572 151.195 414.433 148.559 414.433 143.93C414.433 139.311 416.591 136.664 420.117 136.664C423.642 136.664 425.8 139.311 425.8 143.93C425.8 148.578 423.652 151.195 420.117 151.195ZM417.441 143.93C417.421 147.191 418.476 148.773 420.117 148.773C421.757 148.773 422.802 147.191 422.792 143.93C422.802 140.697 421.747 139.076 420.117 139.066C418.486 139.076 417.441 140.697 417.441 143.93ZM443.515 148.734V150.766H427.245V148.734H434.12V145.258H436.601V148.734H443.515ZM427.792 143.93C431.845 143.441 433.857 141.43 434.081 139.457H428.652V137.465H434.12V135.238H436.601V137.465H442.089V139.457H436.659C436.865 141.43 438.886 143.441 442.929 143.93L442.031 145.863C438.847 145.453 436.552 144.135 435.351 142.299C434.169 144.135 431.884 145.453 428.71 145.863L427.792 143.93Z" fill="#EF677F"/>
<path d="M359.667 174C359.667 169.582 363.248 166 367.667 166H477C481.418 166 485 169.582 485 174V310H359.667V174Z" fill="#EF677F"/>
<path d="M359.667 174C359.667 169.582 363.248 166 367.667 166H476.167C480.585 166 484.167 169.582 484.167 174V310H359.667V174Z" fill="#EF677F"/>
<path d="M559.18 78.1953C556.26 78.1855 553.467 76.4375 553.477 71.2617C553.487 66.4863 555.762 63.6641 559.298 63.6641C562.139 63.6641 564.092 65.4609 564.376 67.7852H561.485C561.251 66.7988 560.44 66.1836 559.298 66.1836C557.374 66.1836 556.368 67.9121 556.348 70.6953H556.485C557.139 69.4355 558.536 68.7031 560.098 68.7031C562.647 68.7031 564.542 70.6074 564.532 73.2734C564.542 76.1445 562.374 78.2051 559.18 78.1953ZM556.641 73.3516C556.661 74.7383 557.715 75.8809 559.161 75.8711C560.616 75.8809 561.68 74.7773 561.68 73.3516C561.68 71.9355 560.635 70.8418 559.2 70.832C557.755 70.8418 556.661 71.9746 556.641 73.3516ZM582.227 71.1445V73.0977H575.528V75.9688H573.067V73.0977H565.958V71.1445H582.227ZM567.872 79.4844V74.5625H570.333V77.4922H580.43V79.4844H567.872ZM568.048 69.8945V62.5898H570.508V64.4453H577.637V62.5898H580.118V69.8945H568.048ZM570.508 67.9219H577.637V66.3008H570.508V67.9219Z" fill="#EF677F"/>
<path d="M505 102C505 97.5817 508.582 94 513 94H622.333C626.752 94 630.333 97.5817 630.333 102V310H505V102Z" fill="#EF677F"/>
<path d="M505 102C505 97.5817 508.582 94 513 94H621.5C625.918 94 629.5 97.5817 629.5 102V310H505V102Z" fill="#EF677F"/>
<path d="M381.021 351.5V353.125H370.88V346.453H372.88V351.5H381.021ZM369.427 357.75V356.094H382.443V357.75H369.427ZM395.146 345.234V355.703H393.161V345.234H395.146ZM383.99 347.75V346.156H390.583V350.688H385.958V352.266C388.505 352.258 390.115 352.18 391.958 351.828L392.177 353.422C390.107 353.812 388.263 353.891 385.255 353.891H384.005V349.219H388.599V347.75H383.99ZM385.583 359.188V354.828H387.568V357.594H395.521V359.188H385.583ZM413.036 345.219V359.438H411.115V352.203H409.818V358.812H407.958V345.594H409.818V350.609H411.115V345.219H413.036ZM400.599 355.141C403.497 353.438 404.747 351.352 405.013 348.562H401.318V346.969H406.958C406.95 350.938 405.763 354.188 401.755 356.516L400.599 355.141ZM417.005 345.859V347.547H419.911V345.859H421.911V352.062H415.021V345.859H417.005ZM416.443 354.531V352.984H425.88V356.844H418.427V357.766H426.286V359.344H416.474V355.422H423.896V354.531H416.443ZM417.005 350.5H419.911V349.047H417.005V350.5ZM423.88 352.453V345.219H425.88V347.984H427.802V349.594H425.88V352.453H423.88ZM437.49 348.438C437.497 351.109 438.575 353.711 440.943 354.734L439.724 356.328C438.146 355.562 437.083 354.141 436.49 352.383C435.88 354.25 434.786 355.781 433.161 356.578L431.911 354.953C434.349 353.852 435.458 351.109 435.474 348.438V346.312H437.49V348.438ZM439.349 351.297V349.688H442.146V345.219H444.115V359.469H442.146V351.297H439.349ZM457.943 345.219V359.469H455.974V351.844H453.333V356.094H446.474V346.312H448.458V349.766H451.38V346.312H453.333V350.234H455.974V345.219H457.943ZM448.458 354.5H451.38V351.328H448.458V354.5Z" fill="#7D7D85"/>
<path d="M352.943 372.047V373.328C352.935 374.656 352.935 376.102 352.575 378.094H354.458V379.703H348.911V385.453H346.911V379.703H341.49V378.094H350.552C350.919 376.266 350.95 374.867 350.958 373.641H342.974V372.047H352.943ZM368.318 377.938V379.5H355.318V377.938H360.849V376.719H356.896V371.844H366.755V373.391H358.88V375.156H366.833V376.719H362.802V377.938H368.318ZM356.802 382.844C356.802 381.156 358.677 380.219 361.786 380.219C364.872 380.219 366.724 381.156 366.74 382.844C366.724 384.508 364.872 385.453 361.786 385.453C358.677 385.453 356.802 384.508 356.802 382.844ZM358.833 382.844C358.825 383.586 359.818 383.938 361.786 383.938C363.716 383.938 364.732 383.586 364.74 382.844C364.732 382.109 363.716 381.734 361.786 381.734C359.818 381.734 358.825 382.109 358.833 382.844ZM381.474 371.219V385.438H379.568V371.219H381.474ZM369.271 377.375C369.271 374.195 370.482 372.227 372.365 372.234C374.075 372.227 375.247 373.828 375.466 376.484H376.63V371.422H378.505V384.781H376.63V378.062H375.482C375.31 380.852 374.115 382.547 372.365 382.547C370.482 382.547 369.271 380.57 369.271 377.375ZM371.115 377.375C371.099 379.562 371.568 380.641 372.365 380.625C373.185 380.641 373.669 379.562 373.661 377.375C373.669 375.195 373.185 374.109 372.365 374.109C371.568 374.109 371.099 375.195 371.115 377.375ZM394.599 372.156V373.75H393.427V377.539C393.904 377.508 394.372 377.461 394.818 377.406L394.896 378.875C392.224 379.32 389.122 379.375 386.865 379.375L386.661 377.766C387.13 377.766 387.646 377.758 388.177 377.75V373.75H387.021V372.156H394.599ZM388.896 382.797C388.896 381.094 390.74 380.133 393.786 380.125C396.841 380.133 398.685 381.094 398.693 382.797C398.685 384.453 396.841 385.445 393.786 385.438C390.74 385.445 388.896 384.453 388.896 382.797ZM390.099 377.711C390.568 377.703 391.044 377.68 391.521 377.664V373.75H390.099V377.711ZM390.88 382.797C390.88 383.547 391.888 383.922 393.786 383.922C395.685 383.922 396.7 383.547 396.708 382.797C396.7 382.023 395.685 381.648 393.786 381.656C391.888 381.648 390.88 382.023 390.88 382.797ZM394.911 377.781V376.188H396.661V375.094H394.911V373.531H396.661V371.219H398.646V379.906H396.661V377.781H394.911ZM411.958 371.891V373.109C411.966 374.242 411.966 375.523 411.669 377.141H413.505V378.734H410.24V381.844H408.302V378.734H406.755V381.844H404.802V378.734H400.49V377.141H409.677C409.935 375.656 409.966 374.508 409.974 373.453H402.052V371.891H411.958ZM401.88 385.188V380.562H403.865V383.594H412.333V385.188H401.88ZM422.599 372.531C424.943 372.539 427.161 373.938 427.161 378.047C427.169 381.891 425.349 384.156 422.505 384.156C420.232 384.156 418.669 382.727 418.443 380.812H420.755C420.95 381.648 421.599 382.141 422.505 382.141C424.044 382.141 424.857 380.758 424.865 378.5H424.771C424.24 379.5 423.122 380.094 421.865 380.094C419.833 380.094 418.333 378.562 418.318 376.453C418.318 374.18 420.044 372.523 422.599 372.531ZM420.615 376.391C420.615 377.508 421.435 378.375 422.599 378.375C423.747 378.375 424.63 377.461 424.63 376.375C424.615 375.297 423.771 374.383 422.615 374.375C421.458 374.383 420.599 375.266 420.615 376.391ZM433.146 384.156C430.31 384.156 428.599 382.047 428.599 378.344C428.599 374.648 430.325 372.531 433.146 372.531C435.966 372.531 437.693 374.648 437.693 378.344C437.693 382.062 435.974 384.156 433.146 384.156ZM431.005 378.344C430.99 380.953 431.833 382.219 433.146 382.219C434.458 382.219 435.294 380.953 435.286 378.344C435.294 375.758 434.45 374.461 433.146 374.453C431.841 374.461 431.005 375.758 431.005 378.344ZM451.865 382.188V383.812H438.849V382.188H444.349V379.406H446.333V382.188H451.865ZM439.286 378.344C442.529 377.953 444.138 376.344 444.318 374.766H439.974V373.172H444.349V371.391H446.333V373.172H450.724V374.766H446.38C446.544 376.344 448.161 377.953 451.396 378.344L450.677 379.891C448.13 379.562 446.294 378.508 445.333 377.039C444.388 378.508 442.56 379.562 440.021 379.891L439.286 378.344ZM469.38 382.141V383.734H456.365V382.141H461.802V378.922H463.786V382.141H469.38ZM456.677 377.719C459.896 377.219 461.708 375.055 461.724 373.047V372.031H463.849V373.047C463.841 375.078 465.677 377.219 468.927 377.719L468.083 379.375C465.583 378.922 463.724 377.586 462.786 375.812C461.857 377.578 460.005 378.93 457.521 379.375L456.677 377.719ZM483.208 382.141V383.781H470.193V382.141H473.099V378.656C471.997 377.992 471.333 376.984 471.333 375.734C471.333 373.43 473.583 371.914 476.677 371.906C479.755 371.914 482.029 373.43 482.036 375.734C482.029 376.961 481.388 377.953 480.318 378.617V382.141H483.208ZM473.302 375.734C473.302 377.125 474.638 377.984 476.677 377.984C478.685 377.984 480.06 377.125 480.068 375.734C480.06 374.305 478.685 373.477 476.677 373.484C474.638 373.477 473.302 374.305 473.302 375.734ZM475.068 382.141H478.302V379.375C477.794 379.477 477.247 379.531 476.677 379.531C476.107 379.531 475.568 379.477 475.068 379.383V382.141Z" fill="#222222"/>
<path d="M547.268 346.281V350.797H544.19V352.344C545.714 352.328 546.854 352.258 548.19 352.016L548.378 353.578C546.753 353.898 545.346 353.922 543.237 353.922H542.253V349.359H545.346V347.828H542.237V346.281H547.268ZM544.253 359.188V354.844H546.253V357.594H554.253V359.188H544.253ZM547.799 350.406V348.781H549.112V345.469H550.987V355.578H549.112V350.406H547.799ZM552.003 355.922V345.234H553.893V355.922H552.003ZM562.659 346.469V348.094H558.19V354.406C560.26 354.383 561.753 354.289 563.424 353.984L563.628 355.594C561.674 355.969 559.956 356.047 557.331 356.031H556.174V346.469H562.659ZM561.956 351.766V350.141H565.534V345.219H567.518V359.469H565.534V351.766H561.956ZM581.237 345.234V353.875H579.237V345.234H581.237ZM570.065 347.672V346.062H576.659V350.375H572.034V351.656C574.409 351.641 576.089 351.555 578.003 351.266L578.253 352.859C576.073 353.219 574.151 353.281 571.331 353.281H570.081V348.891H574.674V347.672H570.065ZM571.518 356.766C571.518 355.062 573.37 354.102 576.409 354.109C579.456 354.102 581.323 355.062 581.331 356.766C581.323 358.453 579.456 359.445 576.409 359.438C573.37 359.445 571.518 358.453 571.518 356.766ZM573.503 356.766C573.503 357.523 574.503 357.891 576.409 357.891C578.323 357.891 579.323 357.523 579.331 356.766C579.323 356.023 578.323 355.648 576.409 355.656C574.503 355.648 573.503 356.023 573.503 356.766ZM592.378 348.438C592.37 351.047 593.557 353.664 595.971 354.688L594.799 356.281C593.174 355.547 592.049 354.125 591.401 352.367C590.76 354.289 589.596 355.836 587.862 356.625L586.659 354.969C589.143 353.922 590.354 351.195 590.362 348.438V346.312H592.378V348.438ZM596.737 359.469V345.219H598.753V359.469H596.737ZM611.956 345.219V349.203H613.878V350.844H611.956V355.406H609.94V345.219H611.956ZM600.581 352.438C603.768 351.555 605.573 349.906 605.885 347.906H601.206V346.281H608.081C608.073 350.125 605.674 352.812 601.409 354.016L600.581 352.438ZM602.706 359.188V354.359H604.721V357.594H612.44V359.188H602.706Z" fill="#7D7D85"/>
<path d="M522.151 371.219V378.531H520.167V371.219H522.151ZM510.979 378.094V371.812H512.948V373.453H515.932V371.812H517.917V378.094H510.979ZM512.62 380.656V379.141H522.167V382.906H514.604V383.812H522.557V385.344H512.651V381.484H520.182V380.656H512.62ZM512.948 376.516H515.932V374.984H512.948V376.516ZM535.682 377.797V379.391H525.62V372.406H535.573V374.016H527.589V377.797H535.682ZM524.089 383.703V382.062H537.104V383.703H524.089ZM550.245 371.219V385.438H548.339V371.219H550.245ZM538.042 377.375C538.042 374.195 539.253 372.227 541.135 372.234C542.846 372.227 544.018 373.828 544.237 376.484H545.401V371.422H547.276V384.781H545.401V378.062H544.253C544.081 380.852 542.885 382.547 541.135 382.547C539.253 382.547 538.042 380.57 538.042 377.375ZM539.885 377.375C539.87 379.562 540.339 380.641 541.135 380.625C541.956 380.641 542.44 379.562 542.432 377.375C542.44 375.195 541.956 374.109 541.135 374.109C540.339 374.109 539.87 375.195 539.885 377.375ZM563.37 372.156V373.75H562.198V377.539C562.674 377.508 563.143 377.461 563.589 377.406L563.667 378.875C560.995 379.32 557.893 379.375 555.635 379.375L555.432 377.766C555.901 377.766 556.417 377.758 556.948 377.75V373.75H555.792V372.156H563.37ZM557.667 382.797C557.667 381.094 559.51 380.133 562.557 380.125C565.612 380.133 567.456 381.094 567.464 382.797C567.456 384.453 565.612 385.445 562.557 385.438C559.51 385.445 557.667 384.453 557.667 382.797ZM558.87 377.711C559.339 377.703 559.815 377.68 560.292 377.664V373.75H558.87V377.711ZM559.651 382.797C559.651 383.547 560.659 383.922 562.557 383.922C564.456 383.922 565.471 383.547 565.479 382.797C565.471 382.023 564.456 381.648 562.557 381.656C560.659 381.648 559.651 382.023 559.651 382.797ZM563.682 377.781V376.188H565.432V375.094H563.682V373.531H565.432V371.219H567.417V379.906H565.432V377.781H563.682ZM580.729 371.891V373.109C580.737 374.242 580.737 375.523 580.44 377.141H582.276V378.734H579.01V381.844H577.073V378.734H575.526V381.844H573.573V378.734H569.26V377.141H578.448C578.706 375.656 578.737 374.508 578.745 373.453H570.823V371.891H580.729ZM570.651 385.188V380.562H572.635V383.594H581.104V385.188H570.651ZM591.62 384.156C589.284 384.148 587.049 382.75 587.057 378.609C587.065 374.789 588.885 372.531 591.714 372.531C593.987 372.531 595.549 373.969 595.776 375.828H593.464C593.276 375.039 592.628 374.547 591.714 374.547C590.174 374.547 589.37 375.93 589.354 378.156H589.464C589.987 377.148 591.104 376.562 592.354 376.562C594.393 376.562 595.909 378.086 595.901 380.219C595.909 382.516 594.174 384.164 591.62 384.156ZM589.589 380.281C589.604 381.391 590.448 382.305 591.604 382.297C592.768 382.305 593.62 381.422 593.62 380.281C593.62 379.148 592.784 378.273 591.635 378.266C590.479 378.273 589.604 379.18 589.589 380.281ZM610.057 378.516V380.078H604.698V382.375H602.729V380.078H597.042V378.516H610.057ZM598.573 385.188V381.25H600.542V383.594H608.62V385.188H598.573ZM598.714 377.516V371.672H600.682V373.156H606.385V371.672H608.37V377.516H598.714ZM600.682 375.938H606.385V374.641H600.682V375.938ZM627.589 382.141V383.734H614.573V382.141H620.01V378.922H621.995V382.141H627.589ZM614.885 377.719C618.104 377.219 619.917 375.055 619.932 373.047V372.031H622.057V373.047C622.049 375.078 623.885 377.219 627.135 377.719L626.292 379.375C623.792 378.922 621.932 377.586 620.995 375.812C620.065 377.578 618.214 378.93 615.729 379.375L614.885 377.719ZM641.417 382.141V383.781H628.401V382.141H631.307V378.656C630.206 377.992 629.542 376.984 629.542 375.734C629.542 373.43 631.792 371.914 634.885 371.906C637.964 371.914 640.237 373.43 640.245 375.734C640.237 376.961 639.596 377.953 638.526 378.617V382.141H641.417ZM631.51 375.734C631.51 377.125 632.846 377.984 634.885 377.984C636.893 377.984 638.268 377.125 638.276 375.734C638.268 374.305 636.893 373.477 634.885 373.484C632.846 373.477 631.51 374.305 631.51 375.734ZM633.276 382.141H636.51V379.375C636.003 379.477 635.456 379.531 634.885 379.531C634.315 379.531 633.776 379.477 633.276 379.383V382.141Z" fill="#222222"/>
<g clip-path="url(#clip1_1170_32208)">
<rect x="670.333" y="40" width="279.667" height="290" rx="10" fill="#C4C4C4" fill-opacity="0.1"/>
<path d="M748.042 232.25C727.417 232.25 712.729 220.875 712.542 204.625H734.042C734.229 210.688 740.104 214.812 748.167 214.875C756.167 214.812 761.917 210.312 761.792 203.75C761.917 197.188 755.792 192.562 746.292 192.5H737.542V177.25H746.292C754.542 177.312 760.292 172.875 760.292 166.375C760.292 160.25 755.417 155.938 748.167 155.875C740.729 155.938 734.917 160.188 734.792 166.5H714.292C714.542 150.438 728.792 139.25 748.292 139.25C767.604 139.25 780.854 150.375 780.792 165.125C780.854 175.25 773.479 182.312 763.042 183.875V184.5C776.917 186.188 784.229 194.125 784.167 205.375C784.229 221.062 769.167 232.25 748.042 232.25ZM799.392 232.25C793.204 232.25 788.017 227.188 788.142 220.875C788.017 214.75 793.204 209.75 799.392 209.75C805.392 209.75 810.704 214.75 810.767 220.875C810.704 227.188 805.392 232.25 799.392 232.25ZM849.867 232.25C828.554 232.25 813.179 221.25 813.242 206.5C813.179 195.25 822.179 186.125 833.617 184.375V183.75C823.617 181.875 816.617 173.688 816.617 163.75C816.617 149.562 830.679 139.25 849.867 139.25C868.929 139.25 882.992 149.625 882.992 163.75C882.992 173.75 875.804 181.875 865.992 183.75V184.375C877.242 186.125 886.367 195.25 886.367 206.5C886.367 221.25 870.992 232.25 849.867 232.25ZM835.617 204.25C835.554 211.375 841.367 216.438 849.867 216.5C858.242 216.438 863.992 211.375 863.992 204.25C863.992 197.125 857.992 191.875 849.867 191.875C841.554 191.875 835.554 197.062 835.617 204.25ZM837.492 166C837.429 172.562 842.617 177.25 849.867 177.25C856.992 177.25 862.179 172.562 862.117 166C862.179 159.562 857.054 155 849.867 155C842.554 155 837.429 159.562 837.492 166Z" fill="#EF677F"/>
<path d="M920.878 226.555V229.195H899.727V226.555H908.665V222.035H911.889V226.555H920.878ZM900.438 220.309C905.707 219.674 908.322 217.059 908.614 214.494H901.555V211.904H908.665V209.01H911.889V211.904H919.024V214.494H911.966C912.232 217.059 914.86 219.674 920.116 220.309L918.948 222.822C914.809 222.289 911.826 220.575 910.264 218.188C908.728 220.575 905.758 222.289 901.632 222.822L900.438 220.309Z" fill="#EF677F"/>
<path d="M748.065 348.438C748.057 350.984 749.143 353.555 751.425 354.656L750.221 356.25C748.698 355.492 747.667 354.086 747.081 352.375C746.456 354.211 745.362 355.719 743.753 356.516L742.518 354.906C744.932 353.797 746.065 351.078 746.065 348.438V346.312H748.065V348.438ZM752.05 359.438V345.219H754.05V350.703H756.143V352.391H754.05V359.438H752.05ZM769.628 351.953V353.547H756.659V351.953H759.581V350.25C758.542 349.789 757.956 349.086 757.956 348.172C757.956 346.453 759.979 345.43 763.143 345.422C766.284 345.43 768.307 346.453 768.315 348.172C768.307 349.102 767.706 349.812 766.643 350.266V351.953H769.628ZM758.143 356.844C758.143 355.203 760.01 354.289 763.128 354.297C766.198 354.289 768.065 355.203 768.081 356.844C768.065 358.523 766.198 359.422 763.128 359.422C760.01 359.422 758.143 358.523 758.143 356.844ZM760.034 348.172C760.018 348.953 761.135 349.352 763.143 349.344C765.128 349.352 766.253 348.953 766.253 348.172C766.253 347.375 765.128 346.953 763.143 346.953C761.135 346.953 760.018 347.375 760.034 348.172ZM760.175 356.844C760.167 357.57 761.159 357.938 763.128 357.938C765.057 357.938 766.073 357.57 766.081 356.844C766.073 356.141 765.057 355.805 763.128 355.797C761.159 355.805 760.167 356.141 760.175 356.844ZM761.596 351.953H764.659V350.758C764.19 350.82 763.682 350.844 763.143 350.844C762.589 350.844 762.073 350.812 761.596 350.758V351.953ZM775.737 349.094C775.729 351.258 776.885 353.758 779.221 354.844L778.112 356.406C776.526 355.68 775.401 354.227 774.76 352.523C774.128 354.398 772.956 355.992 771.315 356.766L770.159 355.188C772.526 354.086 773.721 351.445 773.737 349.094V348.219H770.721V346.594H778.596V348.219H775.737V349.094ZM779.706 359.438V345.219H781.706V350.641H783.8V352.312H781.706V359.438H779.706ZM799.987 345.234V353.422H798.003V352.031H794.8V350.438H798.003V349.078H794.948C794.057 351.328 792.034 352.883 788.909 353.734L788.128 352.156C791.393 351.305 793.003 349.734 793.284 347.781H788.893V346.188H795.456C795.456 346.648 795.425 347.094 795.354 347.516H798.003V345.234H799.987ZM790.393 356.469C790.385 354.711 792.331 353.602 795.253 353.594C798.135 353.602 800.089 354.711 800.096 356.469C800.089 358.25 798.135 359.375 795.253 359.375C792.331 359.375 790.385 358.25 790.393 356.469ZM792.378 356.469C792.378 357.352 793.448 357.797 795.253 357.797C797.018 357.797 798.089 357.352 798.096 356.469C798.089 355.594 797.018 355.141 795.253 355.156C793.448 355.141 792.378 355.594 792.378 356.469ZM813.815 345.219V353.812H811.831V351.016H809.987V349.391H811.831V345.219H813.815ZM801.862 348.047V346.453H805.081V345.094H807.05V346.453H810.237V348.047H801.862ZM802.643 351.062C802.643 349.578 804.073 348.516 806.065 348.516C808.065 348.516 809.471 349.578 809.471 351.062C809.471 352.617 808.057 353.633 806.065 353.641C804.073 353.633 802.643 352.617 802.643 351.062ZM804.253 359.281V354.422H813.815V359.281H804.253ZM804.565 351.062C804.55 351.781 805.135 352.164 806.065 352.172C806.971 352.164 807.565 351.781 807.565 351.062C807.565 350.391 806.971 350.008 806.065 350.016C805.135 350.008 804.55 350.391 804.565 351.062ZM806.253 357.688H811.862V355.984H806.253V357.688ZM832.362 356.219V357.859H819.346V356.219H824.831V354.078H820.846V349.297H828.893V347.734H820.831V346.141H830.862V350.859H822.846V352.453H831.19V354.078H826.815V356.219H832.362ZM845.081 345.219V353.719H843.081V345.219H845.081ZM833.987 352.844V346.281H840.784V347.875H835.956V351.25C838.651 351.242 840.221 351.133 841.956 350.797L842.128 352.391C840.206 352.781 838.464 352.852 835.221 352.844H833.987ZM835.346 356.656C835.339 354.891 837.198 353.852 840.237 353.859C843.229 353.852 845.112 354.891 845.128 356.656C845.112 358.414 843.229 359.453 840.237 359.453C837.198 359.453 835.339 358.414 835.346 356.656ZM837.346 356.656C837.346 357.484 838.339 357.906 840.237 357.906C842.12 357.906 843.151 357.484 843.159 356.656C843.151 355.805 842.12 355.422 840.237 355.422C838.339 355.422 837.346 355.805 837.346 356.656ZM863.659 352.141V353.734H850.69V352.141H856.175V350.25H858.143V352.141H863.659ZM851.362 349.547C854.503 349.148 856.135 347.523 856.143 345.922V345.453H858.175V345.922C858.167 347.586 859.76 349.148 862.971 349.547L862.206 351.094C859.8 350.734 858.034 349.727 857.135 348.305C856.229 349.719 854.464 350.742 852.065 351.094L851.362 349.547ZM852.128 356.281V354.734H862.081V359.438H860.096V356.281H852.128ZM876.112 351.578V353.156H871.987V356.188H877.534V357.812H864.518V356.188H870.003V353.156H866.05V346.219H876.003V347.812H868.05V351.578H876.112Z" fill="#7D7D85"/>
<path d="M796.214 384.156C793.729 384.156 791.948 382.789 791.901 380.812H794.276C794.315 381.656 795.135 382.211 796.229 382.219C797.354 382.211 798.159 381.586 798.151 380.672C798.159 379.75 797.339 379.102 796.01 379.094H794.964V377.359H796.01C797.128 377.359 797.909 376.75 797.901 375.859C797.909 374.992 797.245 374.398 796.245 374.406C795.245 374.398 794.424 374.961 794.385 375.828H792.135C792.174 373.883 793.924 372.531 796.245 372.531C798.604 372.531 800.174 373.93 800.167 375.719C800.174 376.984 799.292 377.883 798.026 378.109V378.203C799.69 378.406 800.604 379.414 800.589 380.828C800.604 382.766 798.768 384.156 796.214 384.156ZM803.292 384.141C802.557 384.141 801.964 383.555 801.979 382.828C801.964 382.109 802.557 381.523 803.292 381.531C803.987 381.523 804.589 382.109 804.589 382.828C804.589 383.555 803.987 384.141 803.292 384.141ZM810.214 384.156C807.628 384.156 805.776 382.797 805.776 380.953C805.776 379.531 806.87 378.375 808.276 378.156V378.078C807.049 377.844 806.206 376.82 806.214 375.578C806.206 373.82 807.901 372.531 810.214 372.531C812.526 372.531 814.221 373.82 814.229 375.578C814.221 376.82 813.354 377.844 812.167 378.078V378.156C813.542 378.375 814.651 379.531 814.651 380.953C814.651 382.797 812.792 384.156 810.214 384.156ZM808.229 380.719C808.221 381.688 809.018 382.367 810.214 382.359C811.409 382.367 812.206 381.688 812.198 380.719C812.206 379.742 811.362 379.023 810.214 379.016C809.065 379.023 808.221 379.734 808.229 380.719ZM808.51 375.812C808.503 376.719 809.214 377.352 810.214 377.359C811.206 377.352 811.924 376.719 811.932 375.812C811.924 374.93 811.221 374.312 810.214 374.312C809.198 374.312 808.503 374.93 808.51 375.812ZM828.807 382.188V383.812H815.792V382.188H821.292V379.406H823.276V382.188H828.807ZM816.229 378.344C819.471 377.953 821.081 376.344 821.26 374.766H816.917V373.172H821.292V371.391H823.276V373.172H827.667V374.766H823.323C823.487 376.344 825.104 377.953 828.339 378.344L827.62 379.891C825.073 379.562 823.237 378.508 822.276 377.039C821.331 378.508 819.503 379.562 816.964 379.891L816.229 378.344Z" fill="#222222"/>
</g>
<defs>
<clipPath id="clip0_1170_32208">
<rect x="40" y="40" width="279.667" height="290" rx="10" fill="white"/>
</clipPath>
<clipPath id="clip1_1170_32208">
<rect width="279.667" height="352" fill="white" transform="translate(670.333 40)"/>
</clipPath>
</defs>
</svg>
