<svg width="562" height="315" viewBox="0 0 562 315" fill="none" xmlns="http://www.w3.org/2000/svg">
<path d="M11.2892 68.5119H9.55287V71.5H6.58498V68.5119H0.427129V66.392L6.7465 57.0846H9.55287V66.1497H11.2892V68.5119ZM6.58498 63.7068C6.58498 63.3972 6.59171 63.0203 6.60517 62.5762C6.61863 62.132 6.63209 61.7215 6.64555 61.3446C6.67247 60.9543 6.69266 60.6985 6.70612 60.5774H6.62536C6.50423 60.8466 6.37636 61.109 6.24176 61.3648C6.10716 61.6205 5.94564 61.883 5.75721 62.1522L3.11236 66.1497H6.58498V63.7068ZM12.5867 70.0867C12.5867 69.4676 12.7549 69.0369 13.0914 68.7946C13.4279 68.5388 13.8384 68.411 14.323 68.411C14.7941 68.411 15.1979 68.5388 15.5344 68.7946C15.8709 69.0369 16.0391 69.4676 16.0391 70.0867C16.0391 70.679 15.8709 71.1097 15.5344 71.3789C15.1979 71.6346 14.7941 71.7625 14.323 71.7625C13.8384 71.7625 13.4279 71.6346 13.0914 71.3789C12.7549 71.1097 12.5867 70.679 12.5867 70.0867ZM27.8734 71.5H17.7988V69.3801L21.4127 65.7257C22.1396 64.972 22.7251 64.3461 23.1692 63.8481C23.6134 63.3366 23.9364 62.879 24.1383 62.4752C24.3402 62.058 24.4412 61.6138 24.4412 61.1427C24.4412 60.5639 24.2797 60.1332 23.9566 59.8505C23.6471 59.5679 23.2231 59.4266 22.6847 59.4266C22.1328 59.4266 21.5944 59.5544 21.0695 59.8102C20.5446 60.0659 19.9927 60.4293 19.414 60.9004L17.7584 58.942C18.1757 58.5786 18.6131 58.2421 19.0707 57.9325C19.5418 57.623 20.0802 57.3739 20.6859 57.1855C21.3051 56.9836 22.0453 56.8827 22.9068 56.8827C23.849 56.8827 24.6565 57.0576 25.3295 57.4076C26.016 57.7441 26.5409 58.2085 26.9043 58.8007C27.2812 59.3795 27.4696 60.039 27.4696 60.7793C27.4696 61.5734 27.3081 62.3002 26.9851 62.9598C26.6755 63.6193 26.2179 64.2721 25.6122 64.9182C25.02 65.5642 24.2999 66.2776 23.4519 67.0583L21.5944 68.7946V68.9359H27.8734V71.5ZM38.1957 57.2865H42.9605V59.4266H38.1957V57.2865ZM38.1957 61.0216H43.0413V63.1617H38.1957V61.0216ZM42.1125 54.6012H44.8179V65.544H42.1125V54.6012ZM29.918 55.9337H38.761V64.5346H29.918V55.9337ZM36.1364 58.0537H32.5628V62.4348H36.1364V58.0537ZM38.4784 66.0286C40.457 66.0286 42.0183 66.3516 43.1624 66.9977C44.3065 67.6303 44.8785 68.5119 44.8785 69.6425C44.8785 70.8001 44.3065 71.6952 43.1624 72.3278C42.0183 72.9738 40.457 73.2969 38.4784 73.2969C36.4998 73.2969 34.9385 72.9738 33.7944 72.3278C32.6503 71.6952 32.0783 70.8001 32.0783 69.6425C32.0783 68.5119 32.6503 67.6303 33.7944 66.9977C34.9385 66.3516 36.4998 66.0286 38.4784 66.0286ZM38.4784 68.0879C37.6708 68.0879 36.9911 68.1418 36.4392 68.2495C35.8874 68.3571 35.4634 68.5321 35.1673 68.7744C34.8846 69.0032 34.7433 69.2993 34.7433 69.6627C34.7433 70.0127 34.8846 70.3088 35.1673 70.5511C35.4634 70.7799 35.8874 70.9549 36.4392 71.076C36.9911 71.1837 37.6708 71.2375 38.4784 71.2375C39.286 71.2375 39.9657 71.1837 40.5175 71.076C41.0694 70.9549 41.4866 70.7799 41.7693 70.5511C42.052 70.3088 42.1933 70.0127 42.1933 69.6627C42.1933 69.2993 42.052 69.0032 41.7693 68.7744C41.4866 68.5321 41.0694 68.3571 40.5175 68.2495C39.9657 68.1418 39.286 68.0879 38.4784 68.0879Z" fill="#222222"/>
<rect width="80" height="268.5" transform="matrix(9.77025e-08 -1 -1 -1.95561e-08 335.5 104)" fill="#37A3E2"/>
<rect x="371.942" y="47.5586" width="23.2522" height="23.2522" transform="rotate(45 371.942 47.5586)" fill="#37A3E2"/>
<rect x="368.384" y="24" width="173" height="80" rx="10" fill="#37A3E2"/>
<path d="M421.996 60.096C421.996 61.3787 421.606 62.4013 420.826 63.164C420.064 63.9267 419.119 64.4467 417.992 64.724V64.802C419.483 64.9753 420.61 65.426 421.372 66.154C422.152 66.882 422.542 67.8613 422.542 69.092C422.542 70.1667 422.274 71.1373 421.736 72.004C421.216 72.8533 420.402 73.5293 419.292 74.032C418.2 74.5173 416.788 74.76 415.054 74.76C413.044 74.76 411.258 74.422 409.698 73.746V70.418C410.496 70.8167 411.328 71.12 412.194 71.328C413.078 71.536 413.893 71.64 414.638 71.64C416.042 71.64 417.022 71.3973 417.576 70.912C418.148 70.4267 418.434 69.742 418.434 68.858C418.434 68.338 418.304 67.9047 418.044 67.558C417.784 67.194 417.325 66.9253 416.666 66.752C416.025 66.5613 415.124 66.466 413.962 66.466H412.558V63.45H413.988C415.132 63.45 415.999 63.346 416.588 63.138C417.195 62.9127 417.602 62.618 417.81 62.254C418.036 61.8727 418.148 61.4393 418.148 60.954C418.148 60.2953 417.94 59.784 417.524 59.42C417.126 59.0387 416.45 58.848 415.496 58.848C414.612 58.848 413.841 59.004 413.182 59.316C412.541 59.6107 411.995 59.9053 411.544 60.2L409.724 57.496C410.452 56.976 411.302 56.5427 412.272 56.196C413.26 55.8493 414.43 55.676 415.782 55.676C417.689 55.676 419.197 56.066 420.306 56.846C421.433 57.6087 421.996 58.692 421.996 60.096ZM425.071 54.87H428.321V60.278H431.363V54.87H434.561V71.094H425.071V54.87ZM428.321 62.956V68.338H431.363V62.956H428.321ZM441.763 52.712H445.065V76.788H441.763V52.712ZM438.825 61.916H442.803V64.672H438.825V61.916ZM436.511 53.102H439.735V75.722H436.511V53.102ZM454.521 63.84H476.309V66.57H454.521V63.84ZM465.363 67.896C467.963 67.896 470.008 68.286 471.499 69.066C472.99 69.846 473.735 70.938 473.735 72.342C473.735 73.7633 472.99 74.864 471.499 75.644C470.008 76.424 467.963 76.814 465.363 76.814C462.763 76.814 460.718 76.424 459.227 75.644C457.754 74.864 457.017 73.7633 457.017 72.342C457.017 70.938 457.754 69.846 459.227 69.066C460.718 68.286 462.763 67.896 465.363 67.896ZM465.363 70.548C464.288 70.548 463.387 70.6173 462.659 70.756C461.948 70.8773 461.411 71.068 461.047 71.328C460.683 71.588 460.501 71.926 460.501 72.342C460.501 72.758 460.683 73.1047 461.047 73.382C461.411 73.642 461.948 73.8327 462.659 73.954C463.387 74.0753 464.288 74.136 465.363 74.136C466.438 74.136 467.33 74.0753 468.041 73.954C468.769 73.8327 469.315 73.642 469.679 73.382C470.043 73.1047 470.225 72.758 470.225 72.342C470.225 71.926 470.043 71.588 469.679 71.328C469.315 71.068 468.769 70.8773 468.041 70.756C467.33 70.6173 466.438 70.548 465.363 70.548ZM463.049 55.208H466.117V55.78C466.117 56.4907 465.987 57.184 465.727 57.86C465.467 58.5187 465.077 59.134 464.557 59.706C464.054 60.2607 463.422 60.7633 462.659 61.214C461.896 61.6473 461.012 62.0113 460.007 62.306C459.002 62.6007 457.884 62.8087 456.653 62.93L455.457 60.226C456.514 60.1393 457.45 59.992 458.265 59.784C459.097 59.5587 459.808 59.2987 460.397 59.004C461.004 58.692 461.498 58.3627 461.879 58.016C462.278 57.6693 462.572 57.3053 462.763 56.924C462.954 56.5253 463.049 56.144 463.049 55.78V55.208ZM464.739 55.208H467.781V55.78C467.781 56.1613 467.876 56.5427 468.067 56.924C468.258 57.3053 468.544 57.678 468.925 58.042C469.324 58.3887 469.818 58.718 470.407 59.03C471.014 59.3247 471.724 59.576 472.539 59.784C473.371 59.992 474.316 60.1393 475.373 60.226L474.177 62.93C472.946 62.8087 471.828 62.6093 470.823 62.332C469.818 62.0373 468.934 61.6647 468.171 61.214C467.426 60.7633 466.793 60.2607 466.273 59.706C465.77 59.134 465.389 58.5187 465.129 57.86C464.869 57.2013 464.739 56.508 464.739 55.78V55.208ZM456.523 53.856H474.359V56.586H456.523V53.856ZM493.571 52.686H497.055V76.762H493.571V52.686ZM496.171 61.916H500.409V64.75H496.171V61.916ZM487.253 55.182H490.659C490.659 57.5913 490.312 59.8707 489.619 62.02C488.943 64.1693 487.816 66.1453 486.239 67.948C484.679 69.7333 482.564 71.2933 479.895 72.628L477.945 70.002C480.06 68.91 481.802 67.6793 483.171 66.31C484.558 64.9407 485.58 63.3893 486.239 61.656C486.915 59.9053 487.253 57.9553 487.253 55.806V55.182ZM479.271 55.182H489.047V57.964H479.271V55.182Z" fill="white"/>
<path d="M8.42225 171.5H5.3736V163.162C5.3736 162.812 5.38033 162.354 5.39379 161.789C5.42071 161.223 5.4409 160.725 5.45436 160.295C5.38706 160.375 5.23901 160.524 5.01019 160.739C4.79483 160.941 4.59294 161.122 4.4045 161.284L2.74894 162.617L1.2751 160.779L5.91872 157.085H8.42225V171.5ZM12.5867 170.087C12.5867 169.468 12.7549 169.037 13.0914 168.795C13.4279 168.539 13.8384 168.411 14.323 168.411C14.7941 168.411 15.1979 168.539 15.5344 168.795C15.8709 169.037 16.0391 169.468 16.0391 170.087C16.0391 170.679 15.8709 171.11 15.5344 171.379C15.1979 171.635 14.7941 171.762 14.323 171.762C13.8384 171.762 13.4279 171.635 13.0914 171.379C12.7549 171.11 12.5867 170.679 12.5867 170.087ZM28.1965 168.512H26.4602V171.5H23.4923V168.512H17.3344V166.392L23.6538 157.085H26.4602V166.15H28.1965V168.512ZM23.4923 163.707C23.4923 163.397 23.499 163.02 23.5125 162.576C23.5259 162.132 23.5394 161.721 23.5528 161.345C23.5798 160.954 23.6 160.699 23.6134 160.577H23.5327C23.4115 160.847 23.2836 161.109 23.149 161.365C23.0144 161.621 22.8529 161.883 22.6645 162.152L20.0196 166.15H23.4923V163.707ZM38.1957 157.286H42.9605V159.427H38.1957V157.286ZM38.1957 161.022H43.0413V163.162H38.1957V161.022ZM42.1125 154.601H44.8179V165.544H42.1125V154.601ZM29.918 155.934H38.761V164.535H29.918V155.934ZM36.1364 158.054H32.5628V162.435H36.1364V158.054ZM38.4784 166.029C40.457 166.029 42.0183 166.352 43.1624 166.998C44.3065 167.63 44.8785 168.512 44.8785 169.643C44.8785 170.8 44.3065 171.695 43.1624 172.328C42.0183 172.974 40.457 173.297 38.4784 173.297C36.4998 173.297 34.9385 172.974 33.7944 172.328C32.6503 171.695 32.0783 170.8 32.0783 169.643C32.0783 168.512 32.6503 167.63 33.7944 166.998C34.9385 166.352 36.4998 166.029 38.4784 166.029ZM38.4784 168.088C37.6708 168.088 36.9911 168.142 36.4392 168.249C35.8874 168.357 35.4634 168.532 35.1673 168.774C34.8846 169.003 34.7433 169.299 34.7433 169.663C34.7433 170.013 34.8846 170.309 35.1673 170.551C35.4634 170.78 35.8874 170.955 36.4392 171.076C36.9911 171.184 37.6708 171.238 38.4784 171.238C39.286 171.238 39.9657 171.184 40.5175 171.076C41.0694 170.955 41.4866 170.78 41.7693 170.551C42.052 170.309 42.1933 170.013 42.1933 169.663C42.1933 169.299 42.052 169.003 41.7693 168.774C41.4866 168.532 41.0694 168.357 40.5175 168.249C39.9657 168.142 39.286 168.088 38.4784 168.088Z" fill="#222222"/>
<rect width="80" height="130.5" transform="matrix(9.77025e-08 -1 -1 -1.95561e-08 197.5 204)" fill="#D8D7E9"/>
</svg>
