<svg width="990" height="432" viewBox="0 0 990 432" fill="none" xmlns="http://www.w3.org/2000/svg">
<g clip-path="url(#clip0_1173_32475)">
<rect width="990" height="432" fill="#C4C4C4" fill-opacity="0.1"/>
<g clip-path="url(#clip1_1173_32475)">
<path d="M321.252 391.819L547.503 -0.0589968L95.0012 -0.0590759L321.252 391.819Z" fill="#D8D7E9"/>
<path d="M301.471 66.0005V83.7739H298.99V66.0005H301.471ZM286.607 78.7544C287.965 78.7446 289.517 78.7446 291.139 78.7056V77.2017C289.195 76.8501 287.926 75.6392 287.935 73.9692C287.926 71.9868 289.732 70.6294 292.349 70.6294C294.986 70.6294 296.822 71.9868 296.822 73.9692C296.822 75.6294 295.553 76.8403 293.599 77.2017V78.6177C295.094 78.5493 296.588 78.4321 298.014 78.2466L298.189 80.0825C294.293 80.7563 290.103 80.7954 286.939 80.7856L286.607 78.7544ZM286.959 69.9263V67.9731H291.139V66.0786H293.619V67.9731H297.76V69.9263H286.959ZM290.299 73.9692C290.289 74.9067 291.139 75.4146 292.349 75.4146C293.599 75.4146 294.439 74.9067 294.439 73.9692C294.439 73.0513 293.599 72.5337 292.349 72.5239C291.139 72.5337 290.289 73.0513 290.299 73.9692ZM318.673 66.02V79.438H316.173V78.0317H312.774V76.3325H316.173V66.02H318.673ZM303.556 73.8911C306.808 73.8716 311.202 73.8228 314.962 73.3638L315.099 75.1411C313.692 75.3755 312.237 75.5415 310.802 75.6489V79.0278H308.302V81.4692H319.064V83.4614H305.821V78.1489H308.302V75.7954C306.71 75.854 305.196 75.8638 303.849 75.8638L303.556 73.8911ZM304.864 69.8091C304.864 67.9146 306.69 66.6157 309.337 66.6255C311.915 66.6157 313.761 67.9146 313.771 69.8091C313.761 71.7134 311.915 72.9438 309.337 72.9341C306.69 72.9438 304.864 71.7134 304.864 69.8091ZM307.228 69.8091C307.218 70.6685 308.067 71.147 309.337 71.1372C310.528 71.147 311.388 70.6685 311.407 69.8091C311.388 68.9302 310.528 68.4419 309.337 68.4419C308.067 68.4419 307.218 68.9302 307.228 69.8091ZM339.132 66.0005V72.8169H341.652V74.8677H339.132V83.7349H336.632V66.0005H339.132ZM324.914 78.7544C329.123 76.645 331.388 73.813 331.857 69.8481H325.929V67.8169H334.386C334.367 73.1294 332.296 77.729 326.32 80.6685L324.914 78.7544ZM357.077 66.0005V75.5513H354.577V66.0005H357.077ZM342.467 70.9614C342.467 68.4614 344.557 66.7231 347.331 66.7427C350.094 66.7231 352.184 68.4614 352.194 70.9614C352.184 73.3833 350.094 75.1216 347.331 75.1216C344.557 75.1216 342.467 73.3833 342.467 70.9614ZM344.909 70.9614C344.889 72.2798 345.905 73.0708 347.331 73.0708C348.717 73.0708 349.723 72.2798 349.733 70.9614C349.723 69.6235 348.717 68.8032 347.331 68.813C345.905 68.8032 344.889 69.6235 344.909 70.9614ZM345.182 83.5786V76.3325H347.643V77.9927H354.596V76.3325H357.077V83.5786H345.182ZM347.643 81.5669H354.596V79.9263H347.643V81.5669Z" fill="#222222"/>
</g>
<g clip-path="url(#clip2_1173_32475)">
<path d="M321.252 392.2L547.503 0.321863L95.0012 0.321783L321.252 392.2Z" fill="#D8D7E9"/>
<path d="M321.252 392.2L547.503 0.321863L95.0012 0.321783L321.252 392.2Z" fill="black" fill-opacity="0.04"/>
<path d="M289.149 138.859V153H286.2V141.652H286.122L282.88 143.684V141.086L286.376 138.859H289.149ZM306.586 137.023V154.797H304.105V137.023H306.586ZM291.722 149.777C293.08 149.768 294.633 149.768 296.254 149.729V148.225C294.31 147.873 293.041 146.662 293.051 144.992C293.041 143.01 294.847 141.652 297.465 141.652C300.101 141.652 301.937 143.01 301.937 144.992C301.937 146.652 300.668 147.863 298.715 148.225V149.641C300.209 149.572 301.703 149.455 303.129 149.27L303.305 151.105C299.408 151.779 295.219 151.818 292.055 151.809L291.722 149.777ZM292.074 140.949V138.996H296.254V137.102H298.734V138.996H302.875V140.949H292.074ZM295.414 144.992C295.404 145.93 296.254 146.438 297.465 146.438C298.715 146.438 299.555 145.93 299.555 144.992C299.555 144.074 298.715 143.557 297.465 143.547C296.254 143.557 295.404 144.074 295.414 144.992ZM315.155 142.59C315.155 145.119 316.464 147.971 319.296 149.309L317.909 151.184C316.005 150.324 314.687 148.654 313.944 146.672C313.173 148.811 311.776 150.607 309.765 151.496L308.397 149.562C311.298 148.283 312.675 145.256 312.694 142.59V141.906H309.022V139.914H312.675V137.414H315.175V139.914H318.788V141.906H315.155V142.59ZM320.253 154.797V137.023H322.753V143.918H325.37V146.008H322.753V154.797H320.253ZM340.361 138.801V140.754H336.767C336.826 142.541 338.095 144.328 340.927 145.09L339.794 147.004C337.763 146.477 336.357 145.354 335.556 143.918C334.775 145.5 333.359 146.74 331.259 147.316L330.087 145.402C332.919 144.621 334.247 142.717 334.287 140.754H330.712V138.801H334.287V136.945H336.806V138.801H340.361ZM332.705 154.602V148.176H344.326V154.602H332.705ZM335.165 152.609H341.865V150.148H335.165V152.609ZM341.826 147.434V137.023H344.326V141.203H346.728V143.234H344.326V147.434H341.826ZM352.212 138.273C353.813 138.273 355.141 139.143 355.952 140.676H359.848V137.023H362.309V154.836H359.848V148.176H356.137C355.346 149.934 353.93 150.949 352.212 150.949C349.516 150.949 347.583 148.508 347.602 144.602C347.583 140.725 349.516 138.273 352.212 138.273ZM349.985 144.602C349.975 147.248 350.883 148.693 352.212 148.684C353.549 148.693 354.438 147.248 354.438 144.602C354.438 141.965 353.549 140.52 352.212 140.52C350.883 140.52 349.975 141.965 349.985 144.602ZM356.645 142.688C356.762 143.273 356.821 143.918 356.821 144.602C356.821 145.158 356.782 145.686 356.704 146.184H359.848V142.688H356.645Z" fill="#222222"/>
</g>
<g clip-path="url(#clip3_1173_32475)">
<path d="M321.252 392.22L547.503 0.341394L95.0012 0.341315L321.252 392.22Z" fill="#EF677F"/>
<path d="M272.834 207.023V224.836H270.315V207.023H272.834ZM258.479 214.602C258.469 210.725 260.451 208.273 263.186 208.273C265.862 208.273 267.854 210.725 267.854 214.602C267.854 218.508 265.862 220.949 263.186 220.949C260.451 220.949 258.469 218.508 258.479 214.602ZM260.881 214.602C260.871 217.248 261.799 218.693 263.186 218.684C264.533 218.693 265.442 217.248 265.451 214.602C265.442 211.965 264.533 210.52 263.186 210.52C261.799 210.52 260.871 211.965 260.881 214.602ZM284.099 207.727V209.699H278.22V210.812H283.728V212.688H278.22V213.918C281.199 213.898 283.015 213.83 285.173 213.527L285.388 215.441C282.976 215.822 280.857 215.871 277.185 215.871H275.701V207.727H284.099ZM277.341 218.82V216.887H289.138V221.633H279.822V222.766H289.646V224.68H277.38V219.836H286.658V218.82H277.341ZM286.638 216.164V207.023H289.138V210.52H291.54V212.531H289.138V216.164H286.638ZM308.372 214.895V216.711H304.368V217.746H306.419V221.945H296.458V222.98H306.946V224.68H293.977V220.363H303.958V219.465H293.958V217.746H296.126V216.711H292.102V214.895H308.372ZM294.094 209.016V207.336H306.399V211.496H296.614V212.375H306.712V214.074H294.133V209.914H303.899V209.016H294.094ZM298.606 217.746H301.868V216.711H298.606V217.746ZM318.011 217.141V219.035H325.413V217.141H327.874V224.602H315.569V217.141H318.011ZM313.616 215.969V213.977H325.062C325.403 212.258 325.452 210.93 325.472 209.738H315.608V207.746H327.952V209.172C327.962 210.52 327.962 211.955 327.532 213.977H329.886V215.969H313.616ZM318.011 222.59H325.413V220.93H318.011V222.59ZM346.912 215.207V217.219H330.701V215.207H346.912ZM331.424 212.609C334.764 212.307 336.59 211.086 337 209.836H332.186V207.844H345.447V209.836H340.594C340.994 211.076 342.811 212.307 346.229 212.609L345.35 214.562C341.99 214.24 339.735 212.971 338.787 211.252C337.85 212.971 335.613 214.24 332.244 214.562L331.424 212.609ZM332.557 221.516C332.557 219.426 334.901 218.215 338.787 218.215C342.645 218.215 344.959 219.426 344.979 221.516C344.959 223.615 342.645 224.807 338.787 224.797C334.901 224.807 332.557 223.615 332.557 221.516ZM335.096 221.516C335.086 222.434 336.326 222.863 338.787 222.863C341.199 222.863 342.469 222.434 342.479 221.516C342.469 220.588 341.199 220.148 338.787 220.148C336.326 220.148 335.086 220.588 335.096 221.516ZM366.512 208.059V209.66C366.503 211.32 366.503 213.127 366.053 215.617H368.407V217.629H361.473V224.816H358.973V217.629H352.196V215.617H363.524C363.983 213.332 364.022 211.584 364.032 210.051H354.051V208.059H366.512ZM383.383 207.023V212.004H385.785V214.055H383.383V219.758H380.863V207.023H383.383ZM369.164 216.047C373.148 214.943 375.404 212.883 375.795 210.383H369.945V208.352H378.539C378.529 213.156 375.531 216.516 370.199 218.02L369.164 216.047ZM371.82 224.484V218.449H374.34V222.492H383.988V224.484H371.82Z" fill="white"/>
</g>
<g clip-path="url(#clip4_1173_32475)">
<path d="M321.252 392L547.503 0.121667L95.0012 0.121588L321.252 392Z" fill="#E3363D"/>
<path d="M280.815 275.554L280.796 273.425L285.874 268.757C287.192 267.497 287.905 266.716 287.905 265.593C287.905 264.333 286.958 263.552 285.659 263.562C284.331 263.552 283.462 264.392 283.471 265.749H280.678C280.669 262.985 282.719 261.218 285.698 261.218C288.725 261.218 290.737 262.946 290.737 265.397C290.737 267.009 289.956 268.327 287.046 270.964L284.897 273.054V273.132H290.932V275.554H280.815ZM307.178 259.577V277.351H304.697V259.577H307.178ZM292.314 272.331C293.672 272.321 295.225 272.321 296.846 272.282V270.778C294.902 270.427 293.633 269.216 293.643 267.546C293.633 265.563 295.439 264.206 298.057 264.206C300.693 264.206 302.529 265.563 302.529 267.546C302.529 269.206 301.26 270.417 299.307 270.778V272.194C300.801 272.126 302.295 272.009 303.721 271.823L303.896 273.659C300 274.333 295.81 274.372 292.646 274.362L292.314 272.331ZM292.666 263.503V261.55H296.846V259.655H299.326V261.55H303.467V263.503H292.666ZM296.006 267.546C295.996 268.483 296.846 268.991 298.057 268.991C299.307 268.991 300.146 268.483 300.146 267.546C300.146 266.628 299.307 266.11 298.057 266.101C296.846 266.11 295.996 266.628 296.006 267.546ZM315.747 265.144C315.747 267.673 317.056 270.524 319.888 271.862L318.501 273.737C316.597 272.878 315.278 271.208 314.536 269.226C313.765 271.364 312.368 273.161 310.357 274.05L308.989 272.116C311.89 270.837 313.267 267.81 313.286 265.144V264.46H309.614V262.468H313.267V259.968H315.767V262.468H319.38V264.46H315.747V265.144ZM320.845 277.351V259.577H323.345V266.472H325.962V268.562H323.345V277.351H320.845ZM340.953 261.354V263.308H337.359C337.418 265.095 338.687 266.882 341.519 267.644L340.386 269.558C338.355 269.03 336.949 267.907 336.148 266.472C335.367 268.054 333.951 269.294 331.851 269.87L330.679 267.956C333.511 267.175 334.839 265.271 334.878 263.308H331.304V261.354H334.878V259.499H337.398V261.354H340.953ZM333.296 277.155V270.729H344.918V277.155H333.296ZM335.757 275.163H342.457V272.702H335.757V275.163ZM342.418 269.987V259.577H344.918V263.757H347.32V265.788H344.918V269.987H342.418ZM352.803 260.827C354.405 260.827 355.733 261.696 356.544 263.229H360.44V259.577H362.901V277.39H360.44V270.729H356.729C355.938 272.487 354.522 273.503 352.803 273.503C350.108 273.503 348.175 271.062 348.194 267.155C348.175 263.278 350.108 260.827 352.803 260.827ZM350.577 267.155C350.567 269.802 351.475 271.247 352.803 271.237C354.141 271.247 355.03 269.802 355.03 267.155C355.03 264.519 354.141 263.073 352.803 263.073C351.475 263.073 350.567 264.519 350.577 267.155ZM357.237 265.241C357.354 265.827 357.413 266.472 357.413 267.155C357.413 267.712 357.374 268.239 357.296 268.737H360.44V265.241H357.237ZM320.386 294.577V303.581H317.905V294.577H320.386ZM305.444 301.667C308.413 300.778 309.741 298.542 309.741 296.335V294.968H312.339V296.335C312.319 298.493 313.609 300.554 316.519 301.394L315.308 303.308C313.267 302.722 311.86 301.481 311.05 299.899C310.249 301.628 308.794 302.985 306.675 303.62L305.444 301.667ZM308.472 306.276V304.343H320.405V309.167H310.952V310.261H320.894V312.233H308.511V307.312H317.925V306.276H308.472ZM338.018 294.577V312.351H335.635V303.444H334.17V311.491H331.827V294.87H334.17V301.433H335.635V294.577H338.018ZM322.412 306.237H323.916V298.601H322.744V296.589H330.948V298.601H329.795V305.983C330.254 305.935 330.694 305.886 331.104 305.827L331.241 307.644C328.516 308.22 324.883 308.288 322.686 308.288L322.412 306.237ZM326.162 306.198C326.621 306.179 327.1 306.169 327.569 306.14V298.601H326.162V306.198Z" fill="white"/>
</g>
<g clip-path="url(#clip5_1173_32475)">
<path d="M321.252 393L547.503 1.12167L95.0012 1.12159L321.252 393Z" fill="#E3363D"/>
<path d="M321.252 393L547.503 1.12167L95.0012 1.12159L321.252 393Z" fill="black" fill-opacity="0.2"/>
<path d="M319.725 342.023V359.836H317.205V342.023H319.725ZM305.37 349.602C305.36 345.725 307.342 343.273 310.077 343.273C312.752 343.273 314.745 345.725 314.745 349.602C314.745 353.508 312.752 355.949 310.077 355.949C307.342 355.949 305.36 353.508 305.37 349.602ZM307.772 349.602C307.762 352.248 308.69 353.693 310.077 353.684C311.424 353.693 312.332 352.248 312.342 349.602C312.332 346.965 311.424 345.52 310.077 345.52C308.69 345.52 307.762 346.965 307.772 349.602ZM330.99 342.727V344.699H325.111V345.812H330.619V347.688H325.111V348.918C328.089 348.898 329.906 348.83 332.064 348.527L332.279 350.441C329.867 350.822 327.748 350.871 324.076 350.871H322.591V342.727H330.99ZM324.232 353.82V351.887H336.029V356.633H326.712V357.766H336.537V359.68H324.271V354.836H333.548V353.82H324.232ZM333.529 351.164V342.023H336.029V345.52H338.431V347.531H336.029V351.164H333.529Z" fill="white"/>
</g>
<path d="M725.444 155.656V240.5H707.749V172.414H707.28L687.827 184.602V169.016L708.804 155.656H725.444ZM749.674 241.555C744.166 241.555 739.713 237.16 739.83 231.711C739.713 226.32 744.166 221.926 749.674 221.984C754.889 221.926 759.401 226.32 759.401 231.711C759.401 237.16 754.889 241.555 749.674 241.555ZM770.623 225.5V211.555L806.482 155.656H828.63V211.32H839.412V225.5H828.63V240.5H811.873V225.5H770.623ZM788.435 211.32H812.107V174.992H811.287L788.435 210.617V211.32Z" fill="#EF677F"/>
<path d="M868.425 213.423V226.956H865.2V224.011H860.884V225.687H849.915V215.124H860.884V216.8H865.2V213.423H868.425ZM852.581 232.06C852.581 229.216 855.603 227.553 860.528 227.565C865.467 227.553 868.488 229.216 868.501 232.06C868.488 234.916 865.467 236.541 860.528 236.528C855.603 236.541 852.581 234.916 852.581 232.06ZM853.14 223.122H857.71V217.688H853.14V223.122ZM855.806 232.06C855.806 233.38 857.469 234.065 860.528 234.065C863.601 234.065 865.264 233.38 865.276 232.06C865.264 230.688 863.601 230.028 860.528 230.028C857.469 230.028 855.806 230.688 855.806 232.06ZM860.884 221.396H865.2V219.364H860.884V221.396Z" fill="#EF677F"/>
<path d="M692.898 275.5L692.883 273.797L696.945 270.062C698 269.055 698.57 268.43 698.57 267.531C698.57 266.523 697.812 265.898 696.773 265.906C695.711 265.898 695.016 266.57 695.023 267.656H692.789C692.781 265.445 694.422 264.031 696.805 264.031C699.227 264.031 700.836 265.414 700.836 267.375C700.836 268.664 700.211 269.719 697.883 271.828L696.164 273.5V273.562H700.992V275.5H692.898ZM707.055 275.656C704.219 275.656 702.508 273.547 702.508 269.844C702.508 266.148 704.234 264.031 707.055 264.031C709.875 264.031 711.602 266.148 711.602 269.844C711.602 273.562 709.883 275.656 707.055 275.656ZM704.914 269.844C704.898 272.453 705.742 273.719 707.055 273.719C708.367 273.719 709.203 272.453 709.195 269.844C709.203 267.258 708.359 265.961 707.055 265.953C705.75 265.961 704.914 267.258 704.914 269.844ZM713.227 275.5L713.211 273.797L717.273 270.062C718.328 269.055 718.898 268.43 718.898 267.531C718.898 266.523 718.141 265.898 717.102 265.906C716.039 265.898 715.344 266.57 715.352 267.656H713.117C713.109 265.445 714.75 264.031 717.133 264.031C719.555 264.031 721.164 265.414 721.164 267.375C721.164 268.664 720.539 269.719 718.211 271.828L716.492 273.5V273.562H721.32V275.5H713.227ZM722.555 273.5V271.641L727.336 264.188H730.289V271.609H731.727V273.5H730.289V275.5H728.055V273.5H722.555ZM724.93 271.609H728.086V266.766H727.977L724.93 271.516V271.609ZM734.398 275.641C733.664 275.641 733.07 275.055 733.086 274.328C733.07 273.609 733.664 273.023 734.398 273.031C735.094 273.023 735.695 273.609 735.695 274.328C735.695 275.055 735.094 275.641 734.398 275.641ZM741.461 275.656C738.625 275.656 736.914 273.547 736.914 269.844C736.914 266.148 738.641 264.031 741.461 264.031C744.281 264.031 746.008 266.148 746.008 269.844C746.008 273.562 744.289 275.656 741.461 275.656ZM739.32 269.844C739.305 272.453 740.148 273.719 741.461 273.719C742.773 273.719 743.609 272.453 743.602 269.844C743.609 267.258 742.766 265.961 741.461 265.953C740.156 265.961 739.32 267.258 739.32 269.844ZM747.633 275.5L747.617 273.797L751.68 270.062C752.734 269.055 753.305 268.43 753.305 267.531C753.305 266.523 752.547 265.898 751.508 265.906C750.445 265.898 749.75 266.57 749.758 267.656H747.523C747.516 265.445 749.156 264.031 751.539 264.031C753.961 264.031 755.57 265.414 755.57 267.375C755.57 268.664 754.945 269.719 752.617 271.828L750.898 273.5V273.562H755.727V275.5H747.633ZM762.68 269.922V271.766H757.523V269.922H762.68ZM768.977 275.656C766.141 275.656 764.43 273.547 764.43 269.844C764.43 266.148 766.156 264.031 768.977 264.031C771.797 264.031 773.523 266.148 773.523 269.844C773.523 273.562 771.805 275.656 768.977 275.656ZM766.836 269.844C766.82 272.453 767.664 273.719 768.977 273.719C770.289 273.719 771.125 272.453 771.117 269.844C771.125 267.258 770.281 265.961 768.977 265.953C767.672 265.961 766.836 267.258 766.836 269.844ZM779.336 275.656C776.852 275.656 775.07 274.289 775.023 272.312H777.398C777.438 273.156 778.258 273.711 779.352 273.719C780.477 273.711 781.281 273.086 781.273 272.172C781.281 271.25 780.461 270.602 779.133 270.594H778.086V268.859H779.133C780.25 268.859 781.031 268.25 781.023 267.359C781.031 266.492 780.367 265.898 779.367 265.906C778.367 265.898 777.547 266.461 777.508 267.328H775.258C775.297 265.383 777.047 264.031 779.367 264.031C781.727 264.031 783.297 265.43 783.289 267.219C783.297 268.484 782.414 269.383 781.148 269.609V269.703C782.812 269.906 783.727 270.914 783.711 272.328C783.727 274.266 781.891 275.656 779.336 275.656ZM796.945 262.734V270.969H794.945V270.516H792.367V269.312H794.945V262.734H796.945ZM784.898 267.734C787.648 267.742 791.055 267.727 794.102 267.438L794.195 268.672C792.938 268.836 791.648 268.945 790.383 269.016V271H788.414V269.086C787.25 269.117 786.133 269.117 785.102 269.109L784.898 267.734ZM785.867 265.062C785.867 263.781 787.305 262.93 789.477 262.922C791.594 262.93 793.047 263.781 793.055 265.062C793.047 266.383 791.594 267.195 789.477 267.188C787.305 267.195 785.867 266.383 785.867 265.062ZM786.93 272.734V271.391H796.945V274.719H788.945V275.453H797.273V276.844H786.992V273.438H794.961V272.734H786.93ZM787.758 265.062C787.742 265.586 788.398 265.883 789.477 265.891C790.523 265.883 791.188 265.586 791.195 265.062C791.188 264.539 790.523 264.227 789.477 264.234C788.398 264.227 787.742 264.539 787.758 265.062ZM813.695 262.719V266.703H815.617V268.344H813.695V272.906H811.68V262.719H813.695ZM802.32 269.938C805.508 269.055 807.312 267.406 807.625 265.406H802.945V263.781H809.82C809.812 267.625 807.414 270.312 803.148 271.516L802.32 269.938ZM804.445 276.688V271.859H806.461V275.094H814.18V276.688H804.445ZM828.039 264.141V265.703H825.164C825.211 267.133 826.227 268.562 828.492 269.172L827.586 270.703C825.961 270.281 824.836 269.383 824.195 268.234C823.57 269.5 822.438 270.492 820.758 270.953L819.82 269.422C822.086 268.797 823.148 267.273 823.18 265.703H820.32V264.141H823.18V262.656H825.195V264.141H828.039ZM821.914 276.781V271.641H831.211V276.781H821.914ZM823.883 275.188H829.242V273.219H823.883V275.188ZM829.211 271.047V262.719H831.211V266.062H833.133V267.688H831.211V271.047H829.211ZM837.68 263.719C838.961 263.719 840.023 264.414 840.672 265.641H843.789V262.719H845.758V276.969H843.789V271.641H840.82C840.188 273.047 839.055 273.859 837.68 273.859C835.523 273.859 833.977 271.906 833.992 268.781C833.977 265.68 835.523 263.719 837.68 263.719ZM835.898 268.781C835.891 270.898 836.617 272.055 837.68 272.047C838.75 272.055 839.461 270.898 839.461 268.781C839.461 266.672 838.75 265.516 837.68 265.516C836.617 265.516 835.891 266.672 835.898 268.781ZM841.227 267.25C841.32 267.719 841.367 268.234 841.367 268.781C841.367 269.227 841.336 269.648 841.273 270.047H843.789V267.25H841.227ZM852.836 266.594C852.828 268.758 853.984 271.258 856.32 272.344L855.211 273.906C853.625 273.18 852.5 271.727 851.859 270.023C851.227 271.898 850.055 273.492 848.414 274.266L847.258 272.688C849.625 271.586 850.82 268.945 850.836 266.594V265.719H847.82V264.094H855.695V265.719H852.836V266.594ZM856.805 276.938V262.719H858.805V268.141H860.898V269.812H858.805V276.938H856.805Z" fill="#EF677F"/>
<path d="M655 216C655 220.418 658.582 224 663 224C667.418 224 671 220.418 671 216C671 211.582 667.418 208 663 208C658.582 208 655 211.582 655 216ZM399 216L399 217.5L404.077 217.5L404.077 216L404.077 214.5L399 214.5L399 216ZM414.231 216L414.231 217.5L424.385 217.5L424.385 216L424.385 214.5L414.231 214.5L414.231 216ZM434.538 216L434.538 217.5L444.692 217.5L444.692 216L444.692 214.5L434.538 214.5L434.538 216ZM454.846 216L454.846 217.5L465 217.5L465 216L465 214.5L454.846 214.5L454.846 216ZM475.154 216L475.154 217.5L485.308 217.5L485.308 216L485.308 214.5L475.154 214.5L475.154 216ZM495.462 216L495.462 217.5L505.615 217.5L505.615 216L505.615 214.5L495.462 214.5L495.462 216ZM515.769 216L515.769 217.5L525.923 217.5L525.923 216L525.923 214.5L515.769 214.5L515.769 216ZM536.077 216L536.077 217.5L546.231 217.5L546.231 216L546.231 214.5L536.077 214.5L536.077 216ZM556.385 216L556.385 217.5L566.538 217.5L566.538 216L566.538 214.5L556.385 214.5L556.385 216ZM576.692 216L576.692 217.5L586.846 217.5L586.846 216L586.846 214.5L576.692 214.5L576.692 216ZM597 216L597 217.5L607.154 217.5L607.154 216L607.154 214.5L597 214.5L597 216ZM617.308 216L617.308 217.5L627.461 217.5L627.461 216L627.461 214.5L617.308 214.5L617.308 216ZM637.615 216L637.615 217.5L647.769 217.5L647.769 216L647.769 214.5L637.615 214.5L637.615 216ZM657.923 216L657.923 217.5L663 217.5L663 216L663 214.5L657.923 214.5L657.923 216Z" fill="#EF677F"/>
</g>
<defs>
<clipPath id="clip0_1173_32475">
<rect width="990" height="432" fill="white"/>
</clipPath>
<clipPath id="clip1_1173_32475">
<rect width="523" height="71" fill="white" transform="translate(60 39)"/>
</clipPath>
<clipPath id="clip2_1173_32475">
<rect width="523" height="71" fill="white" transform="translate(60 110)"/>
</clipPath>
<clipPath id="clip3_1173_32475">
<rect width="523" height="70" fill="white" transform="translate(60 181)"/>
</clipPath>
<clipPath id="clip4_1173_32475">
<rect width="523" height="71" fill="white" transform="translate(60 251)"/>
</clipPath>
<clipPath id="clip5_1173_32475">
<rect width="523" height="71" fill="white" transform="translate(60 322)"/>
</clipPath>
</defs>
</svg>
