<svg width="990" height="432" viewBox="0 0 990 432" fill="none" xmlns="http://www.w3.org/2000/svg">
<rect width="990" height="432" fill="#C4C4C4" fill-opacity="0.1"/>
<g filter="url(#filter0_d_1224_7810)">
<rect x="40" y="38" width="209" height="47" rx="10" fill="white" shape-rendering="crispEdges"/>
<rect x="40.5" y="38.5" width="208" height="46" rx="9.5" stroke="#D8D7E9" shape-rendering="crispEdges"/>
<path d="M83.2051 63.1699C83.8613 63.1699 84.6816 63.1631 85.5566 63.1426V61.2832C84.3057 60.9824 83.4854 59.9775 83.4922 58.6309C83.4854 57.0039 84.6748 55.9033 86.377 55.8965C88.0723 55.9033 89.2686 57.0039 89.2617 58.6309C89.2686 59.9707 88.4482 60.9756 87.2109 61.2832V63.0742C87.9834 63.0264 88.7354 62.9648 89.3984 62.8691L89.5215 64.127C87.5391 64.5098 84.9893 64.585 83.4102 64.5781L83.2051 63.1699ZM85.0645 58.6309C85.0645 59.4922 85.6113 59.9434 86.377 59.9434C87.1289 59.9434 87.6758 59.4922 87.6758 58.6309C87.6758 57.7969 87.1289 57.2979 86.377 57.3047C85.6113 57.2979 85.0645 57.7969 85.0645 58.6309ZM89.9316 66.6836V55.0215H91.5586V59.7656H92.543V54.8164H94.1836V67.2578H92.543V61.2148H91.5586V66.6836H89.9316ZM103.275 57.6328C103.269 59.8613 104.219 62.1104 106.215 63.0742L105.162 64.4688C103.829 63.8057 102.927 62.5752 102.414 61.0781C101.867 62.6846 100.91 64.0039 99.502 64.7012L98.4219 63.293C100.534 62.3223 101.525 59.9434 101.525 57.6328V55.7734H103.275V57.6328ZM106.762 67.2578V54.8164H108.512V59.6152H110.344V61.0918H108.512V67.2578H106.762ZM122.143 60.709V62.1035H110.795V60.709H113.352V59.2188C112.442 58.8154 111.93 58.2002 111.93 57.4004C111.93 55.8965 113.7 55.001 116.469 54.9941C119.217 55.001 120.987 55.8965 120.994 57.4004C120.987 58.2139 120.461 58.8359 119.531 59.2324V60.709H122.143ZM112.094 64.9883C112.094 63.5527 113.728 62.7529 116.455 62.7598C119.142 62.7529 120.775 63.5527 120.789 64.9883C120.775 66.458 119.142 67.2441 116.455 67.2441C113.728 67.2441 112.094 66.458 112.094 64.9883ZM113.748 57.4004C113.734 58.084 114.712 58.4326 116.469 58.4258C118.205 58.4326 119.189 58.084 119.189 57.4004C119.189 56.7031 118.205 56.334 116.469 56.334C114.712 56.334 113.734 56.7031 113.748 57.4004ZM113.871 64.9883C113.864 65.624 114.732 65.9453 116.455 65.9453C118.144 65.9453 119.032 65.624 119.039 64.9883C119.032 64.373 118.144 64.0791 116.455 64.0723C114.732 64.0791 113.864 64.373 113.871 64.9883ZM115.115 60.709H117.795V59.6631C117.385 59.7178 116.94 59.7383 116.469 59.7383C115.983 59.7383 115.532 59.7109 115.115 59.6631V60.709ZM127.488 58.207C127.481 60.1006 128.493 62.2881 130.537 63.2383L129.566 64.6055C128.179 63.9697 127.194 62.6982 126.634 61.208C126.08 62.8486 125.055 64.2432 123.619 64.9199L122.607 63.5391C124.679 62.5752 125.725 60.2646 125.738 58.207V57.4414H123.1V56.0195H129.99V57.4414H127.488V58.207ZM130.961 67.2578V54.8164H132.711V59.5605H134.543V61.0234H132.711V67.2578H130.961ZM144.811 54.8164V59.5879H146.574V61.0234H144.811V67.2305H143.061V54.8164H144.811ZM134.857 63.7441C137.804 62.2676 139.39 60.2852 139.718 57.5098H135.568V56.0879H141.488C141.475 59.8066 140.025 63.0264 135.842 65.084L134.857 63.7441ZM160.738 54.8164V67.2852H158.975V54.8164H160.738ZM150.689 60.1211C150.683 57.4072 152.07 55.6914 153.984 55.6914C155.857 55.6914 157.252 57.4072 157.252 60.1211C157.252 62.8555 155.857 64.5645 153.984 64.5645C152.07 64.5645 150.683 62.8555 150.689 60.1211ZM152.371 60.1211C152.364 61.9736 153.014 62.9854 153.984 62.9785C154.928 62.9854 155.563 61.9736 155.57 60.1211C155.563 58.2754 154.928 57.2637 153.984 57.2637C153.014 57.2637 152.364 58.2754 152.371 60.1211ZM168.764 55.3086V56.6895H164.648V57.4688H168.504V58.7812H164.648V59.6426C166.733 59.6289 168.005 59.5811 169.516 59.3691L169.666 60.709C167.978 60.9756 166.494 61.0098 163.924 61.0098H162.885V55.3086H168.764ZM164.033 63.0742V61.7207H172.291V65.043H165.77V65.8359H172.646V67.1758H164.061V63.7852H170.555V63.0742H164.033ZM170.541 61.2148V54.8164H172.291V57.2637H173.973V58.6719H172.291V61.2148H170.541ZM184.391 54.7891V57.4961H186.072V58.8906H184.391V61.5293H182.641V54.7891H184.391ZM174.52 57.0723V55.7461H177.35V54.7344H179.086V55.7461H181.902V57.0723H174.52ZM175.121 59.4102C175.121 58.166 176.358 57.3799 178.211 57.373C180.077 57.3799 181.273 58.166 181.273 59.4102C181.273 60.6816 180.077 61.4404 178.211 61.4473C176.358 61.4404 175.121 60.6816 175.121 59.4102ZM176.133 63.293V62.0352H184.391V65.1797H177.869V65.8906H184.746V67.1758H176.16V63.9902H182.654V63.293H176.133ZM176.83 59.4102C176.823 59.9434 177.35 60.1963 178.211 60.2031C179.079 60.1963 179.619 59.9434 179.619 59.4102C179.619 58.8838 179.079 58.5967 178.211 58.6035C177.35 58.5967 176.823 58.8838 176.83 59.4102ZM196.586 54.8164V59.6973H198.24V61.1328H196.586V67.2578H194.836V54.8164H196.586ZM186.373 63.6484C188.068 61.8096 188.561 59.9912 188.67 57.5098H186.92V56.0879H190.338C190.324 59.5059 189.969 62.1719 187.74 64.6191L186.373 63.6484ZM189.887 64.4551C191.575 62.377 192.04 60.2441 192.136 57.5098H190.748V56.0879H193.783C193.776 59.6357 193.469 62.7188 191.268 65.4258L189.887 64.4551ZM200.893 62.8828C200.899 61.1807 201.357 60.6611 202.178 60.1484C202.766 59.7656 203.224 59.3418 203.217 58.7129C203.224 58.0293 202.69 57.585 202.027 57.5781C201.392 57.585 200.797 58.0088 200.77 58.8086H198.828C198.862 56.8877 200.291 55.9648 202.041 55.9648C203.948 55.9648 205.295 56.9561 205.295 58.6445C205.295 59.7725 204.714 60.4834 203.818 61.0234C203.046 61.4814 202.704 61.9258 202.697 62.8828V63.0332H200.893V62.8828ZM200.688 64.9746C200.674 64.3457 201.193 63.833 201.836 63.8398C202.444 63.833 202.971 64.3457 202.971 64.9746C202.971 65.6104 202.444 66.123 201.836 66.123C201.193 66.123 200.674 65.6104 200.688 64.9746Z" fill="#7D7D85"/>
</g>
<path d="M144.5 103.75L147.387 98.75L141.613 98.75L144.5 103.75ZM144.5 99.25L145 99.25L145 85L144.5 85L144 85L144 99.25L144.5 99.25Z" fill="#D8D7E9"/>
<g filter="url(#filter1_d_1224_7810)">
<rect x="40" y="103.75" width="209" height="47" rx="10" fill="white" shape-rendering="crispEdges"/>
<rect x="40.5" y="104.25" width="208" height="46" rx="9.5" stroke="#D8D7E9" shape-rendering="crispEdges"/>
<path d="M91.709 123.383C91.7021 125.666 92.7412 127.956 94.8535 128.852L93.8281 130.246C92.4062 129.604 91.4219 128.359 90.8545 126.821C90.2939 128.503 89.2754 129.856 87.7578 130.547L86.7051 129.098C88.8789 128.182 89.9385 125.796 89.9453 123.383V121.523H91.709V123.383ZM95.5234 133.035V120.566H97.2871V133.035H95.5234ZM108.84 120.566V124.053H110.521V125.488H108.84V129.48H107.076V120.566H108.84ZM98.8867 126.883C101.676 126.11 103.255 124.668 103.528 122.918H99.4336V121.496H105.449C105.442 124.859 103.344 127.211 99.6113 128.264L98.8867 126.883ZM100.746 132.789V128.564H102.51V131.395H109.264V132.789H100.746ZM115.102 121.4C117.077 121.394 118.54 122.665 118.547 124.449C118.54 126.24 117.077 127.505 115.102 127.512C113.14 127.505 111.636 126.24 111.643 124.449C111.636 122.665 113.14 121.394 115.102 121.4ZM111.123 129.07C113.345 129.077 116.421 129.05 119.08 128.674L119.217 129.932C116.455 130.472 113.502 130.492 111.328 130.492L111.123 129.07ZM113.379 124.449C113.372 125.434 114.117 126.001 115.102 125.994C116.093 126.001 116.845 125.434 116.852 124.449C116.845 123.479 116.093 122.904 115.102 122.904C114.117 122.904 113.372 123.479 113.379 124.449ZM119.791 133.035V120.566H121.527V133.035H119.791ZM137.77 127.936V129.357H132.916V133.008H131.193V129.357H126.381V127.936H137.77ZM127.816 127.033V121.072H136.416V122.439H129.525V123.369H136.156V124.709H129.525V125.652H136.553V127.033H127.816ZM143.088 123.957C143.081 125.851 144.093 128.038 146.137 128.988L145.166 130.355C143.778 129.72 142.794 128.448 142.233 126.958C141.68 128.599 140.654 129.993 139.219 130.67L138.207 129.289C140.278 128.325 141.324 126.015 141.338 123.957V123.191H138.699V121.77H145.59V123.191H143.088V123.957ZM146.561 133.008V120.566H148.311V125.311H150.143V126.773H148.311V133.008H146.561ZM160.41 120.566V125.338H162.174V126.773H160.41V132.98H158.66V120.566H160.41ZM150.457 129.494C153.403 128.018 154.989 126.035 155.317 123.26H151.168V121.838H157.088C157.074 125.557 155.625 128.776 151.441 130.834L150.457 129.494ZM176.365 120.566V126.951H174.615V120.566H176.365ZM166.125 125.338C166.549 125.338 167 125.331 167.465 125.324V122.658H166.453V121.332H173.221V122.658H172.195V125.14C172.708 125.099 173.214 125.051 173.699 124.996L173.781 126.24C171.307 126.637 168.477 126.705 166.316 126.705L166.125 125.338ZM167.902 128.797V127.443H176.365V130.766H169.652V131.545H176.707V132.926H167.93V129.521H174.643V128.797H167.902ZM169.133 125.29C169.591 125.276 170.049 125.263 170.514 125.242V122.658H169.133V125.29ZM189.408 130.123V131.559H178.02V130.123H180.562V127.074C179.599 126.493 179.018 125.611 179.018 124.518C179.018 122.501 180.986 121.175 183.693 121.168C186.387 121.175 188.376 122.501 188.383 124.518C188.376 125.591 187.815 126.459 186.879 127.04V130.123H189.408ZM180.74 124.518C180.74 125.734 181.909 126.486 183.693 126.486C185.45 126.486 186.653 125.734 186.66 124.518C186.653 123.267 185.45 122.542 183.693 122.549C181.909 122.542 180.74 123.267 180.74 124.518ZM182.285 130.123H185.115V127.703C184.671 127.792 184.192 127.84 183.693 127.84C183.194 127.84 182.723 127.792 182.285 127.71V130.123ZM199.99 120.566V123.629H201.672V125.092H199.99V128.072H198.24V120.566H199.99ZM190.119 123.068V121.688H192.949V120.498H194.686V121.688H197.502V123.068H190.119ZM190.721 125.68C190.721 124.367 191.979 123.451 193.811 123.451C195.622 123.451 196.873 124.367 196.873 125.68C196.873 127.026 195.622 127.929 193.811 127.936C191.979 127.929 190.721 127.026 190.721 125.68ZM191.855 132.871V128.619H199.99V132.871H191.855ZM192.43 125.68C192.423 126.315 192.977 126.644 193.811 126.65C194.651 126.644 195.219 126.315 195.219 125.68C195.219 125.085 194.651 124.757 193.811 124.764C192.977 124.757 192.423 125.085 192.43 125.68ZM193.578 131.477H198.268V129.986H193.578V131.477Z" fill="#7D7D85"/>
</g>
<path d="M144.5 169.5L147.387 164.5L141.613 164.5L144.5 169.5ZM144.5 165L145 165L145 150.75L144.5 150.75L144 150.75L144 165L144.5 165Z" fill="#D8D7E9"/>
<g filter="url(#filter2_d_1224_7810)">
<rect x="40" y="169.5" width="209" height="47" rx="10" fill="white" shape-rendering="crispEdges"/>
<rect x="40.5" y="170" width="208" height="46" rx="9.5" stroke="#D8D7E9" shape-rendering="crispEdges"/>
<path d="M75.2051 194.67C75.8613 194.67 76.6816 194.663 77.5566 194.643V192.783C76.3057 192.482 75.4854 191.478 75.4922 190.131C75.4854 188.504 76.6748 187.403 78.377 187.396C80.0723 187.403 81.2686 188.504 81.2617 190.131C81.2686 191.471 80.4482 192.476 79.2109 192.783V194.574C79.9834 194.526 80.7354 194.465 81.3984 194.369L81.5215 195.627C79.5391 196.01 76.9893 196.085 75.4102 196.078L75.2051 194.67ZM77.0645 190.131C77.0645 190.992 77.6113 191.443 78.377 191.443C79.1289 191.443 79.6758 190.992 79.6758 190.131C79.6758 189.297 79.1289 188.798 78.377 188.805C77.6113 188.798 77.0645 189.297 77.0645 190.131ZM81.9316 198.184V186.521H83.5586V191.266H84.543V186.316H86.1836V198.758H84.543V192.715H83.5586V198.184H81.9316ZM95.5352 189.133C95.5283 191.416 96.5674 193.706 98.6797 194.602L97.6543 195.996C96.2324 195.354 95.248 194.109 94.6807 192.571C94.1201 194.253 93.1016 195.606 91.584 196.297L90.5312 194.848C92.7051 193.932 93.7646 191.546 93.7715 189.133V187.273H95.5352V189.133ZM99.3496 198.785V186.316H101.113V198.785H99.3496ZM112.666 186.316V189.803H114.348V191.238H112.666V195.23H110.902V186.316H112.666ZM102.713 192.633C105.502 191.86 107.081 190.418 107.354 188.668H103.26V187.246H109.275C109.269 190.609 107.17 192.961 103.438 194.014L102.713 192.633ZM104.572 198.539V194.314H106.336V197.145H113.09V198.539H104.572ZM118.928 187.15C120.903 187.144 122.366 188.415 122.373 190.199C122.366 191.99 120.903 193.255 118.928 193.262C116.966 193.255 115.462 191.99 115.469 190.199C115.462 188.415 116.966 187.144 118.928 187.15ZM114.949 194.82C117.171 194.827 120.247 194.8 122.906 194.424L123.043 195.682C120.281 196.222 117.328 196.242 115.154 196.242L114.949 194.82ZM117.205 190.199C117.198 191.184 117.943 191.751 118.928 191.744C119.919 191.751 120.671 191.184 120.678 190.199C120.671 189.229 119.919 188.654 118.928 188.654C117.943 188.654 117.198 189.229 117.205 190.199ZM123.617 198.785V186.316H125.354V198.785H123.617ZM141.596 193.686V195.107H136.742V198.758H135.02V195.107H130.207V193.686H141.596ZM131.643 192.783V186.822H140.242V188.189H133.352V189.119H139.982V190.459H133.352V191.402H140.379V192.783H131.643ZM146.914 189.707C146.907 191.601 147.919 193.788 149.963 194.738L148.992 196.105C147.604 195.47 146.62 194.198 146.06 192.708C145.506 194.349 144.48 195.743 143.045 196.42L142.033 195.039C144.104 194.075 145.15 191.765 145.164 189.707V188.941H142.525V187.52H149.416V188.941H146.914V189.707ZM150.387 198.758V186.316H152.137V191.061H153.969V192.523H152.137V198.758H150.387ZM164.236 186.316V191.088H166V192.523H164.236V198.73H162.486V186.316H164.236ZM154.283 195.244C157.229 193.768 158.815 191.785 159.144 189.01H154.994V187.588H160.914C160.9 191.307 159.451 194.526 155.268 196.584L154.283 195.244ZM180.164 186.316V193.836H178.414V186.316H180.164ZM169.883 188.818V187.424H172.795V186.221H174.559V187.424H177.443V188.818H169.883ZM170.553 191.43C170.546 190.083 171.804 189.201 173.684 189.201C175.563 189.201 176.808 190.083 176.814 191.43C176.808 192.804 175.557 193.679 173.684 193.686C171.811 193.679 170.546 192.804 170.553 191.43ZM171.824 198.621V194.369H180.164V198.621H171.824ZM172.221 191.43C172.214 192.065 172.781 192.394 173.684 192.4C174.572 192.394 175.133 192.065 175.146 191.43C175.133 190.808 174.572 190.486 173.684 190.486C172.781 190.486 172.214 190.808 172.221 191.43ZM173.547 197.227H178.455V195.736H173.547V197.227ZM193.221 191.17V192.537H181.846V191.17H193.221ZM183.158 194.588V193.275H191.812V196.529H184.881V197.295H192.141V198.648H183.172V195.285H190.09V194.588H183.158ZM183.268 190.486V186.562H191.771V187.957H185.004V189.119H191.867V190.486H183.268ZM203.912 186.316V191.197H205.566V192.633H203.912V198.758H202.162V186.316H203.912ZM193.699 195.148C195.395 193.31 195.887 191.491 195.996 189.01H194.246V187.588H197.664C197.65 191.006 197.295 193.672 195.066 196.119L193.699 195.148ZM197.213 195.955C198.901 193.877 199.366 191.744 199.462 189.01H198.074V187.588H201.109C201.103 191.136 200.795 194.219 198.594 196.926L197.213 195.955ZM208.219 194.383C208.226 192.681 208.684 192.161 209.504 191.648C210.092 191.266 210.55 190.842 210.543 190.213C210.55 189.529 210.017 189.085 209.354 189.078C208.718 189.085 208.123 189.509 208.096 190.309H206.154C206.188 188.388 207.617 187.465 209.367 187.465C211.274 187.465 212.621 188.456 212.621 190.145C212.621 191.272 212.04 191.983 211.145 192.523C210.372 192.981 210.03 193.426 210.023 194.383V194.533H208.219V194.383ZM208.014 196.475C208 195.846 208.52 195.333 209.162 195.34C209.771 195.333 210.297 195.846 210.297 196.475C210.297 197.11 209.771 197.623 209.162 197.623C208.52 197.623 208 197.11 208.014 196.475Z" fill="#7D7D85"/>
</g>
<path d="M144.5 235.25L147.387 230.25L141.613 230.25L144.5 235.25ZM144.5 230.75L145 230.75L145 216.5L144.5 216.5L144 216.5L144 230.75L144.5 230.75Z" fill="#D8D7E9"/>
<g filter="url(#filter3_d_1224_7810)">
<rect x="40" y="235.25" width="209" height="47" rx="10" fill="white" shape-rendering="crispEdges"/>
<rect x="40.5" y="235.75" width="208" height="46" rx="9.5" stroke="#D8D7E9" shape-rendering="crispEdges"/>
<path d="M75.4727 255.43V256.811H66.832V252.395H68.582V255.43H75.4727ZM65.3691 259.299V257.932H76.7441V259.299H72.0547V261.5H70.3184V259.299H65.3691ZM66.709 264.289V260.543H68.4453V262.895H75.5684V264.289H66.709ZM88.2559 252.066V264.508H86.5879V252.066H88.2559ZM77.5781 257.453C77.5781 254.671 78.6377 252.948 80.2852 252.955C81.7822 252.948 82.8076 254.35 82.999 256.674H84.0176V252.244H85.6582V263.934H84.0176V258.055H83.0127C82.8623 260.495 81.8164 261.979 80.2852 261.979C78.6377 261.979 77.5781 260.249 77.5781 257.453ZM79.1914 257.453C79.1777 259.367 79.5879 260.311 80.2852 260.297C81.0029 260.311 81.4268 259.367 81.4199 257.453C81.4268 255.546 81.0029 254.596 80.2852 254.596C79.5879 254.596 79.1777 255.546 79.1914 257.453ZM104.184 261.637V263.059H92.7949V261.637H97.5938V259.34H93.998V252.859H95.748V254.787H101.176V252.859H102.912V259.34H99.3301V261.637H104.184ZM95.748 257.945H101.176V256.182H95.748V257.945ZM115.312 252.066V264.535H113.549V252.066H115.312ZM105.264 257.371C105.257 254.657 106.645 252.941 108.559 252.941C110.432 252.941 111.826 254.657 111.826 257.371C111.826 260.105 110.432 261.814 108.559 261.814C106.645 261.814 105.257 260.105 105.264 257.371ZM106.945 257.371C106.938 259.224 107.588 260.235 108.559 260.229C109.502 260.235 110.138 259.224 110.145 257.371C110.138 255.525 109.502 254.514 108.559 254.514C107.588 254.514 106.938 255.525 106.945 257.371ZM121.82 255.457C121.813 257.467 122.853 259.62 124.938 260.488L123.994 261.855C122.531 261.233 121.52 259.996 120.959 258.492C120.398 260.126 119.366 261.493 117.896 262.17L116.898 260.789C118.963 259.866 120.029 257.562 120.029 255.457V254.691H117.391V253.27H124.418V254.691H121.82V255.457ZM125.648 264.508V252.066H127.412V264.508H125.648ZM135.752 252.668C137.666 252.661 139.088 253.878 139.088 255.566C139.088 257.269 137.666 258.479 135.752 258.479C133.852 258.479 132.396 257.269 132.402 255.566C132.396 253.878 133.852 252.661 135.752 252.668ZM133.441 264.18V259.408H135.137V262.758C135.827 262.71 136.477 262.607 137.119 262.402L137.365 263.756C136.319 264.132 135.314 264.18 134.125 264.18H133.441ZM134.111 255.566C134.098 256.482 134.809 257.05 135.752 257.057C136.695 257.05 137.393 256.482 137.393 255.566C137.393 254.657 136.695 254.097 135.752 254.104C134.809 254.097 134.098 254.657 134.111 255.566ZM136.941 260.707V259.422H139.238V258.547H140.934V259.422H143.203V260.707H136.941ZM137.666 262.758C137.652 261.685 138.63 260.994 140.059 260.994C141.48 260.994 142.472 261.685 142.479 262.758C142.472 263.838 141.48 264.515 140.059 264.508C138.623 264.515 137.652 263.838 137.666 262.758ZM139.211 262.758C139.204 263.134 139.566 263.318 140.059 263.318C140.558 263.318 140.913 263.134 140.92 262.758C140.913 262.402 140.558 262.204 140.059 262.197C139.566 262.204 139.204 262.402 139.211 262.758ZM140.441 258.205V252.066H142.191V254.65H143.873V256.086H142.191V258.205H140.441ZM154.523 255.457V256.824H145.828V252.504H147.564V255.457H154.523ZM144.406 259.531V258.164H155.795V259.531H144.406ZM145.719 264.234V260.543H147.469V262.84H154.605V264.234H145.719ZM164.449 253.762C164.442 255.423 165.297 256.961 167.293 257.576L166.377 258.943C165.037 258.479 164.128 257.624 163.602 256.503C163.055 257.802 162.05 258.82 160.553 259.326L159.637 257.932C161.763 257.248 162.679 255.58 162.686 253.844V252.709H164.449V253.762ZM161.701 262.102C161.701 260.57 163.328 259.675 165.98 259.682C168.64 259.675 170.267 260.57 170.273 262.102C170.267 263.64 168.64 264.515 165.98 264.508C163.328 264.515 161.701 263.64 161.701 262.102ZM163.438 262.102C163.438 262.792 164.333 263.154 165.98 263.154C167.635 263.154 168.53 262.792 168.537 262.102C168.53 261.391 167.635 261.035 165.98 261.035C164.333 261.035 163.438 261.391 163.438 262.102ZM166.158 255.771V254.35H168.496V252.066H170.232V259.354H168.496V255.771H166.158ZM178.846 253.311V254.309C178.832 255.478 178.832 257.009 178.504 259.08L176.781 258.943C177.068 257.139 177.096 255.806 177.109 254.705H172.393V253.311H178.846ZM171.736 260.57C172.434 260.57 173.213 260.563 174.02 260.543V256.879H175.742V260.488C176.966 260.44 178.203 260.352 179.352 260.201L179.461 261.5C176.897 261.931 174.081 261.979 171.9 261.965L171.736 260.57ZM179.939 264.508V252.066H181.703V257.07H183.398V258.52H181.703V264.508H179.939ZM187.65 252.805C189.571 252.812 191.055 254.069 191.068 255.854C191.055 257.357 190.009 258.485 188.539 258.807V260.509C189.517 260.461 190.501 260.379 191.424 260.256L191.547 261.541C188.942 262.04 186.14 262.033 184.027 262.006L183.795 260.598C184.697 260.598 185.723 260.598 186.803 260.57V258.82C185.285 258.513 184.232 257.378 184.232 255.854C184.232 254.069 185.688 252.812 187.65 252.805ZM185.941 255.854C185.935 256.831 186.666 257.426 187.65 257.426C188.614 257.426 189.346 256.831 189.346 255.854C189.346 254.862 188.614 254.288 187.65 254.281C186.666 254.288 185.935 254.862 185.941 255.854ZM192.08 264.508V252.066H193.83V256.947H195.525V258.41H193.83V264.508H192.08ZM210.66 261.637V263.059H199.271V261.637H204.07V259.34H200.475V252.859H202.225V254.787H207.652V252.859H209.389V259.34H205.807V261.637H210.66ZM202.225 257.945H207.652V256.182H202.225V257.945ZM215.91 254.021C215.903 255.532 216.785 256.981 218.754 257.59L217.824 258.943C216.505 258.506 215.582 257.658 215.049 256.571C214.509 257.822 213.545 258.807 212.123 259.285L211.18 257.918C213.258 257.228 214.146 255.573 214.16 253.857V252.723H215.91V254.021ZM212.902 262.102C212.896 260.591 214.543 259.695 217.168 259.695C219.745 259.695 221.358 260.591 221.365 262.102C221.358 263.626 219.745 264.515 217.168 264.508C214.543 264.515 212.896 263.626 212.902 262.102ZM214.652 262.102C214.639 262.806 215.534 263.141 217.168 263.141C218.781 263.141 219.643 262.806 219.643 262.102C219.643 261.425 218.781 261.062 217.168 261.062C215.534 261.062 214.639 261.425 214.652 262.102ZM219.492 259.449V252.066H221.242V254.979H222.924V256.428H221.242V259.449H219.492Z" fill="#7D7D85"/>
</g>
<path d="M144.5 301L147.387 296L141.613 296L144.5 301ZM144.5 296.5L145 296.5L145 282.25L144.5 282.25L144 282.25L144 296.5L144.5 296.5Z" fill="#D8D7E9"/>
<g filter="url(#filter4_d_1224_7810)">
<rect x="40" y="301" width="209" height="93" rx="10" fill="white" shape-rendering="crispEdges"/>
<rect x="40.5" y="301.5" width="208" height="92" rx="9.5" stroke="#EF677F" shape-rendering="crispEdges"/>
<path d="M124.385 319.102V329H122.334V319.102H124.385ZM128.035 324.707V329H126.012V321.576H127.939V322.875H128.021C128.356 322.021 129.149 321.48 130.25 321.48C131.802 321.48 132.813 322.54 132.807 324.27V329H130.797V324.625C130.79 323.709 130.298 323.162 129.457 323.162C128.616 323.162 128.035 323.729 128.035 324.707ZM138.617 323.777C138.528 323.258 138.077 322.923 137.4 322.916C136.744 322.923 136.245 323.23 136.252 323.682C136.245 324.017 136.505 324.276 137.209 324.42L138.535 324.693C139.978 324.994 140.675 325.637 140.682 326.703C140.675 328.166 139.362 329.144 137.387 329.15C135.384 329.144 134.208 328.248 134.037 326.799H136.074C136.17 327.38 136.642 327.681 137.387 327.688C138.125 327.681 138.617 327.387 138.617 326.908C138.617 326.525 138.303 326.286 137.605 326.143L136.375 325.896C134.96 325.616 134.235 324.892 134.242 323.791C134.235 322.369 135.459 321.48 137.373 321.48C139.246 321.48 140.408 322.369 140.518 323.777H138.617ZM141.926 329V321.576H143.949V329H141.926ZM141.83 319.58C141.83 319.006 142.329 318.548 142.938 318.541C143.539 318.548 144.038 319.006 144.031 319.58C144.038 320.141 143.539 320.605 142.938 320.605C142.329 320.605 141.83 320.141 141.83 319.58ZM148.857 331.939C146.807 331.939 145.542 331.017 145.426 329.615H147.422C147.531 330.21 148.092 330.477 148.898 330.477C149.835 330.477 150.464 330.073 150.471 329.041V327.688H150.375C150.108 328.289 149.452 328.897 148.256 328.891C146.581 328.897 145.234 327.715 145.234 325.24C145.234 322.731 146.615 321.48 148.256 321.48C149.5 321.48 150.102 322.219 150.375 322.82H150.457V321.576H152.467V329.082C152.46 330.976 150.97 331.939 148.857 331.939ZM147.312 325.268C147.306 326.553 147.859 327.366 148.885 327.373C149.896 327.366 150.471 326.587 150.471 325.268C150.471 323.948 149.903 323.094 148.885 323.094C147.853 323.094 147.306 323.989 147.312 325.268ZM156.062 324.707V329H154.039V319.102H156.008V322.875H156.09C156.432 322.007 157.177 321.48 158.305 321.48C159.856 321.48 160.875 322.526 160.875 324.27V329H158.852V324.625C158.852 323.702 158.359 323.162 157.512 323.162C156.657 323.162 156.062 323.729 156.062 324.707ZM166.344 321.576V323.094H164.949V326.717C164.942 327.312 165.236 327.455 165.646 327.469C165.852 327.469 166.207 327.448 166.453 327.428V329.027C166.234 329.062 165.872 329.103 165.373 329.096C163.91 329.103 162.912 328.446 162.926 327.004V323.094H161.9V321.576H162.926V319.799H164.949V321.576H166.344Z" fill="#EF677F"/>
<path d="M76.6943 346.207C76.6875 348.217 77.7266 350.37 79.8115 351.238L78.8682 352.605C77.4053 351.983 76.3936 350.746 75.833 349.242C75.2725 350.876 74.2402 352.243 72.7705 352.92L71.7725 351.539C73.8369 350.616 74.9033 348.312 74.9033 346.207V345.441H72.2646V344.02H79.292V345.441H76.6943V346.207ZM80.5225 355.258V342.816H82.2861V355.258H80.5225ZM94.4541 342.83V351.922H92.7178V348.969H89.874C89.2725 349.604 88.4111 349.994 87.4404 349.994C85.5537 349.994 84.1182 348.627 84.1318 346.781C84.1182 344.908 85.5537 343.548 87.4404 343.541C88.4043 343.548 89.2656 343.931 89.8672 344.566H92.7178V342.83H94.4541ZM85.7861 346.781C85.7793 347.82 86.4697 348.449 87.4404 348.449C88.3564 348.449 89.0605 347.82 89.0674 346.781C89.0605 345.729 88.3564 345.1 87.4404 345.1C86.4697 345.1 85.7793 345.729 85.7861 346.781ZM86.1963 355.039V351.006H87.9463V353.645H94.7549V355.039H86.1963ZM90.6191 345.961C90.6875 346.221 90.7217 346.494 90.7217 346.781C90.7217 347.055 90.6875 347.321 90.626 347.574H92.7178V345.961H90.6191ZM103.478 347.875V349.27H101.058V351.313C102.083 351.272 103.108 351.204 104.079 351.102L104.216 352.373C101.495 352.79 98.665 352.811 96.3271 352.811L96.1221 351.389C97.1133 351.396 98.1934 351.396 99.3076 351.368V349.27H96.9424V343.924H103.409V345.305H98.6787V347.875H103.478ZM104.79 355.285V342.816H106.526V355.285H104.79ZM118.271 346.207V347.574H109.575V343.254H111.312V346.207H118.271ZM108.153 350.281V348.914H119.542V350.281H108.153ZM109.466 354.984V351.293H111.216V353.59H118.353V354.984H109.466ZM134.882 352.387V353.809H123.493V352.387H128.292V350.09H124.696V343.609H126.446V345.537H131.874V343.609H133.61V350.09H130.028V352.387H134.882ZM126.446 348.695H131.874V346.932H126.446V348.695ZM140.132 344.771C140.125 346.282 141.007 347.731 142.976 348.34L142.046 349.693C140.727 349.256 139.804 348.408 139.271 347.321C138.73 348.572 137.767 349.557 136.345 350.035L135.401 348.668C137.479 347.978 138.368 346.323 138.382 344.607V343.473H140.132V344.771ZM137.124 352.852C137.117 351.341 138.765 350.445 141.39 350.445C143.967 350.445 145.58 351.341 145.587 352.852C145.58 354.376 143.967 355.265 141.39 355.258C138.765 355.265 137.117 354.376 137.124 352.852ZM138.874 352.852C138.86 353.556 139.756 353.891 141.39 353.891C143.003 353.891 143.864 353.556 143.864 352.852C143.864 352.175 143.003 351.812 141.39 351.812C139.756 351.812 138.86 352.175 138.874 352.852ZM143.714 350.199V342.816H145.464V345.729H147.146V347.178H145.464V350.199H143.714ZM153.366 342.994C156.23 342.994 157.885 343.746 157.892 345.113C157.885 346.501 156.23 347.246 153.366 347.246C150.495 347.246 148.827 346.501 148.827 345.113C148.827 343.746 150.495 342.994 153.366 342.994ZM147.692 349.215V347.834H159.04V349.215H147.692ZM149.005 351.211V349.939H157.659V353.111H150.728V353.863H157.987V355.176H149.019V351.895H155.937V351.211H149.005ZM150.659 345.113C150.652 345.722 151.541 345.961 153.366 345.961C155.205 345.961 156.087 345.722 156.087 345.113C156.087 344.56 155.205 344.266 153.366 344.266C151.541 344.266 150.652 344.56 150.659 345.113ZM173.491 342.83V352.004H171.769V349.406H168.925V348.012H171.769V346.617H169.103C168.221 348.511 166.416 349.919 163.907 350.664L163.183 349.311C165.835 348.47 167.496 346.986 167.804 345.154H163.853V343.76H169.718C169.718 344.266 169.663 344.758 169.567 345.223H171.769V342.83H173.491ZM165.302 355.039V351.088H167.079V353.645H173.819V355.039H165.302ZM185.536 342.816V355.285H183.772V342.816H185.536ZM175.87 352.318V343.91H181.927V345.332H177.62V350.842C179.849 350.842 181.223 350.78 182.788 350.5L182.952 351.936C181.229 352.264 179.644 352.318 176.95 352.318H175.87ZM198.005 342.816V355.258H196.364V342.816H198.005ZM187.067 351.443C189.583 349.953 190.69 348.142 190.93 345.701H187.751V344.293H192.659C192.659 345.482 192.529 346.59 192.229 347.615H193.726V343.09H195.353V354.711H193.726V348.996H191.688C190.978 350.418 189.822 351.648 188.052 352.674L187.067 351.443ZM212.415 342.789V345.496H214.097V346.891H212.415V349.529H210.665V342.789H212.415ZM202.544 345.072V343.746H205.374V342.734H207.11V343.746H209.927V345.072H202.544ZM203.146 347.41C203.146 346.166 204.383 345.38 206.235 345.373C208.102 345.38 209.298 346.166 209.298 347.41C209.298 348.682 208.102 349.44 206.235 349.447C204.383 349.44 203.146 348.682 203.146 347.41ZM204.157 351.293V350.035H212.415V353.18H205.894V353.891H212.771V355.176H204.185V351.99H210.679V351.293H204.157ZM204.854 347.41C204.848 347.943 205.374 348.196 206.235 348.203C207.104 348.196 207.644 347.943 207.644 347.41C207.644 346.884 207.104 346.597 206.235 346.604C205.374 346.597 204.848 346.884 204.854 347.41ZM120.075 364.65V366.045H117.601C117.607 367.494 118.489 368.896 120.472 369.477L119.638 370.844C118.264 370.427 117.307 369.586 116.76 368.526C116.206 369.777 115.194 370.775 113.704 371.268L112.815 369.887C114.88 369.237 115.816 367.624 115.837 366.045H113.294V364.65H120.075ZM114.538 373.838C114.531 372.32 116.172 371.438 118.804 371.445C121.395 371.438 122.994 372.32 123.001 373.838C122.994 375.362 121.395 376.265 118.804 376.258C116.172 376.265 114.531 375.362 114.538 373.838ZM116.288 373.838C116.274 374.549 117.17 374.904 118.804 374.904C120.417 374.904 121.278 374.549 121.278 373.838C121.278 373.141 120.417 372.792 118.804 372.799C117.17 372.792 116.274 373.141 116.288 373.838ZM121.128 371.199V363.816H122.878V366.701H124.56V368.123H122.878V371.199H121.128ZM135.511 363.816V376.258H133.761V363.816H135.511ZM125.175 372.594C127.219 371.698 128.23 369.606 128.237 367.713V367.234H125.585V365.84H128.224V364.09H129.96V365.84H132.558V367.234H129.974V367.713C129.974 369.518 130.992 371.548 133.063 372.402L132.12 373.742C130.705 373.161 129.693 371.972 129.126 370.543C128.572 372.054 127.554 373.325 126.104 373.934L125.175 372.594ZM141.239 364.65C143.215 364.644 144.678 365.915 144.685 367.699C144.678 369.49 143.215 370.755 141.239 370.762C139.277 370.755 137.773 369.49 137.78 367.699C137.773 365.915 139.277 364.644 141.239 364.65ZM137.261 372.32C139.482 372.327 142.559 372.3 145.218 371.924L145.354 373.182C142.593 373.722 139.64 373.742 137.466 373.742L137.261 372.32ZM139.517 367.699C139.51 368.684 140.255 369.251 141.239 369.244C142.23 369.251 142.982 368.684 142.989 367.699C142.982 366.729 142.23 366.154 141.239 366.154C140.255 366.154 139.51 366.729 139.517 367.699ZM145.929 376.285V363.816H147.665V376.285H145.929ZM163.907 370.994V372.361H159.04V376.258H157.317V372.361H152.519V370.994H163.907ZM153.858 369.791V364.295H155.581V365.73H160.804V364.295H162.554V369.791H153.858ZM155.581 368.396H160.804V367.098H155.581V368.396ZM175.487 363.816V376.258H173.819V370.023H172.767V375.684H171.112V372.122L170.128 373.428C168.973 372.819 168.228 371.787 167.783 370.522C167.373 371.979 166.642 373.168 165.452 373.879L164.372 372.539C166.266 371.473 166.895 369.271 166.901 366.893V366.496H164.796V365.102H170.497V366.496H168.597V366.893C168.597 369.06 169.239 371.124 171.112 372.095V363.994H172.767V368.602H173.819V363.816H175.487Z" fill="#EF677F"/>
</g>
<g filter="url(#filter5_d_1224_7810)">
<rect x="289" y="40" width="315.329" height="160" rx="10" fill="white" shape-rendering="crispEdges"/>
<rect x="289.5" y="40.5" width="314.329" height="159" rx="9.5" stroke="#D8D7E9" shape-rendering="crispEdges"/>
<path d="M321.938 71.0234V88.7969H319.594V71.0234H321.938ZM306.254 83.3477C309.857 81.2188 311.439 78.6309 311.781 75.1445H307.289V73.1328H314.262C314.262 74.0215 314.203 74.8809 314.096 75.7109H315.863V71.4141H318.227V88.0156H315.863V82.1562H313.344V80.1445H315.863V77.7227H313.686C312.855 80.6621 311.039 83.1328 307.719 85.1055L306.254 83.3477ZM338.754 71.0234V88.7969H336.234V71.0234H338.754ZM323.871 83.7578C328.461 81.5898 330.482 78.7773 330.883 74.832H324.828V72.8789H333.422C333.412 78.2695 331.527 82.752 325.18 85.75L323.871 83.7578Z" fill="#222222"/>
<path d="M311.988 118.637C314.593 118.637 316.247 119.457 316.254 120.865C316.247 122.26 314.593 123.08 311.988 123.08C309.384 123.08 307.729 122.26 307.736 120.865C307.729 119.457 309.384 118.637 311.988 118.637ZM306.506 117.502V116.627H311.086V114.275H312.139V116.627H317.566V117.502H306.506ZM307.818 112.457V111.582H316.158V112.607C316.151 113.592 316.151 114.576 315.816 115.834L314.764 115.711C315.092 114.46 315.092 113.558 315.092 112.607V112.457H307.818ZM308.803 120.865C308.796 121.713 310.054 122.232 311.988 122.232C313.93 122.232 315.174 121.713 315.188 120.865C315.174 119.997 313.93 119.464 311.988 119.457C310.054 119.464 308.796 119.997 308.803 120.865ZM329.707 118.172V119.047H324.635V123.107H323.582V119.047H318.578V118.172H329.707ZM320 116.695V111.459H321.066V113.141H327.191V111.459H328.271V116.695H320ZM321.066 115.82H327.191V114.016H321.066V115.82ZM336.762 113.059V113.934H330.664V113.059H333.193V111.322H334.26V113.059H336.762ZM331.102 117.516C331.102 115.902 332.202 114.761 333.713 114.754C335.244 114.761 336.338 115.902 336.352 117.516C336.338 119.149 335.244 120.298 333.713 120.305C332.202 120.298 331.102 119.149 331.102 117.516ZM332.059 117.516C332.059 118.596 332.749 119.368 333.713 119.361C334.684 119.368 335.395 118.596 335.395 117.516C335.395 116.449 334.684 115.67 333.713 115.656C332.749 115.67 332.059 116.449 332.059 117.516ZM337.391 122.506V111.254H338.402V116.08H340.016V110.953H341.041V123.107H340.016V116.969H338.402V122.506H337.391ZM346.045 111.896C347.836 111.903 349.107 113.551 349.121 116.135C349.107 118.726 347.836 120.366 346.045 120.359C344.24 120.366 342.976 118.726 342.982 116.135C342.976 113.551 344.24 111.903 346.045 111.896ZM343.994 116.135C344.001 118.11 344.842 119.409 346.045 119.402C347.262 119.409 348.082 118.11 348.082 116.135C348.082 114.159 347.262 112.86 346.045 112.854C344.842 112.86 344.001 114.159 343.994 116.135ZM351.131 123.107V110.953H352.197V114.016H354.166V114.932H352.197V117.639H354.166V118.541H352.197V123.107H351.131ZM367.811 110.953V115.971H369.848V116.859H367.811V123.107H366.744V110.953H367.811ZM358.336 113.797V112.908H361.467V111.104H362.533V112.908H365.568V113.797H358.336ZM359.033 117.598C359.026 115.957 360.284 114.809 362.014 114.809C363.729 114.809 364.98 115.957 364.994 117.598C364.98 119.245 363.729 120.387 362.014 120.387C360.284 120.387 359.026 119.245 359.033 117.598ZM360.059 117.598C360.052 118.705 360.879 119.484 362.014 119.471C363.135 119.484 363.955 118.705 363.969 117.598C363.955 116.497 363.135 115.704 362.014 115.711C360.879 115.704 360.052 116.497 360.059 117.598ZM380.334 114.645V115.506H372.008V111.404H373.074V114.645H380.334ZM370.49 118.035V117.16H381.619V118.035H370.49ZM371.939 122.807V119.279H373.006V121.918H380.402V122.807H371.939ZM393.008 110.953V123.107H391.969V110.953H393.008ZM383.082 120.182V112.457H387.662V113.346H384.121V119.279C385.878 119.266 386.985 119.204 388.291 118.91L388.4 119.826C386.992 120.113 385.803 120.175 383.848 120.182H383.082ZM386.842 116.504V115.602H389.494V111.254H390.52V122.479H389.494V116.504H386.842ZM395.988 122.082C395.51 122.075 395.1 121.679 395.113 121.193C395.1 120.715 395.51 120.318 395.988 120.318C396.474 120.318 396.87 120.715 396.863 121.193C396.87 121.679 396.474 122.075 395.988 122.082ZM399.543 122.082C399.064 122.075 398.654 121.679 398.668 121.193C398.654 120.715 399.064 120.318 399.543 120.318C400.028 120.318 400.425 120.715 400.418 121.193C400.425 121.679 400.028 122.075 399.543 122.082ZM403.098 122.082C402.619 122.075 402.209 121.679 402.223 121.193C402.209 120.715 402.619 120.318 403.098 120.318C403.583 120.318 403.979 120.715 403.973 121.193C403.979 121.679 403.583 122.075 403.098 122.082ZM406.119 118.227C406.133 115.649 406.83 113.503 408.088 111.678H409.127C408.204 113.024 407.343 115.793 407.336 118.227C407.343 120.667 408.204 123.429 409.127 124.789H408.088C406.83 122.957 406.133 120.811 406.119 118.227ZM412.682 111.158V112.32H418.697V111.158H419.764V115.15H411.615V111.158H412.682ZM410.139 117.051V116.162H421.213V117.051H416.195V118.24H419.791V120.934H412.572V122.123H420.16V122.971H411.506V120.141H418.738V119.061H411.479V118.24H415.129V117.051H410.139ZM412.682 114.316H418.697V113.141H412.682V114.316ZM431.74 110.953V114.658H433.572V115.561H431.74V119.922H430.674V110.953H431.74ZM422.471 114.809C422.464 113.045 423.845 111.821 425.656 111.814C427.481 111.821 428.842 113.045 428.855 114.809C428.842 116.565 427.481 117.803 425.656 117.803C423.845 117.803 422.464 116.565 422.471 114.809ZM423.523 114.809C423.517 116.005 424.453 116.859 425.656 116.859C426.88 116.859 427.796 116.005 427.803 114.809C427.796 113.605 426.88 112.758 425.656 112.758C424.453 112.758 423.517 113.605 423.523 114.809ZM424.139 122.848V118.992H425.191V121.945H432.301V122.848H424.139ZM443.84 110.953V113.934H445.672V114.822H443.84V117.857H442.773V110.953H443.84ZM434.324 117.119C437.312 116.312 439.137 114.692 439.362 112.635H434.871V111.746H440.518C440.504 114.809 438.364 117.003 434.762 117.98L434.324 117.119ZM436.143 122.943V118.418H443.84V122.943H436.143ZM437.209 122.068H442.773V119.307H437.209V122.068ZM456.842 112.32V113.195H449.965V112.32H452.918V110.857H453.984V112.32H456.842ZM450.689 116.066C450.676 114.713 451.797 113.817 453.438 113.824C455.064 113.817 456.206 114.713 456.213 116.066C456.206 117.427 455.064 118.315 453.438 118.322C451.797 118.315 450.676 117.427 450.689 116.066ZM451.688 116.066C451.681 116.921 452.378 117.495 453.438 117.488C454.483 117.495 455.201 116.921 455.215 116.066C455.201 115.212 454.483 114.645 453.438 114.631C452.378 114.645 451.681 115.212 451.688 116.066ZM451.934 121.016C451.934 119.689 453.472 118.938 456.021 118.938C458.558 118.938 460.096 119.689 460.096 121.016C460.096 122.321 458.558 123.08 456.021 123.08C453.472 123.08 451.934 122.321 451.934 121.016ZM453.041 121.016C453.048 121.788 454.176 122.253 456.021 122.246C457.84 122.253 458.961 121.788 458.961 121.016C458.961 120.223 457.84 119.778 456.021 119.771C454.176 119.778 453.048 120.223 453.041 121.016ZM456.828 117.133V116.244H458.947V114.768H456.842V113.879H458.947V110.953H460.027V118.814H458.947V117.133H456.828ZM466.234 112.867C466.221 114.604 467.458 116.128 469.242 116.736L468.641 117.57C467.301 117.071 466.248 116.08 465.722 114.802C465.202 116.258 464.095 117.386 462.625 117.939L462.037 117.064C463.91 116.408 465.154 114.795 465.168 112.908V111.65H466.234V112.867ZM464.02 120.811C464.013 119.348 465.564 118.507 468.094 118.514C470.616 118.507 472.168 119.348 472.168 120.811C472.168 122.26 470.616 123.08 468.094 123.08C465.564 123.08 464.013 122.26 464.02 120.811ZM465.086 120.811C465.079 121.692 466.228 122.226 468.094 122.219C469.953 122.226 471.102 121.692 471.102 120.811C471.102 119.901 469.953 119.361 468.094 119.361C466.228 119.361 465.079 119.901 465.086 120.811ZM468.34 114.453V113.564H471.047V110.953H472.127V118.158H471.047V114.453H468.34ZM477.186 118.227C477.172 120.811 476.475 122.957 475.217 124.789H474.178C475.101 123.429 475.962 120.667 475.969 118.227C475.962 115.793 475.101 113.024 474.178 111.678H475.217C476.475 113.503 477.172 115.649 477.186 118.227ZM313.191 143.014L312.426 142.275L315.488 139.213H307.6V138.133H315.488L312.426 135.07L313.191 134.318L317.539 138.666L313.191 143.014ZM325.701 132.637C327.321 132.623 328.483 133.758 328.49 135.385C328.483 137.005 327.321 138.14 325.701 138.133C324.067 138.14 322.919 137.005 322.926 135.385C322.919 133.758 324.067 132.623 325.701 132.637ZM323.896 135.385C323.883 136.465 324.655 137.237 325.701 137.244C326.733 137.237 327.499 136.465 327.506 135.385C327.499 134.291 326.733 133.519 325.701 133.512C324.655 133.519 323.883 134.291 323.896 135.385ZM325.1 143.943V139.131H326.166V140.58H332.059V139.131H333.111V143.943H325.1ZM326.166 143.068H332.059V141.469H326.166V143.068ZM329.461 138.488V132.199H330.473V134.756H332.086V131.967H333.111V138.584H332.086V135.658H330.473V138.488H329.461ZM348.779 131.953V144.107H347.727V137.818H345.977V143.479H344.965V132.227H345.977V136.902H347.727V131.953H348.779ZM339.018 140.963V133.443H340.084V140.006C341.287 139.999 342.586 139.91 344.062 139.609L344.199 140.566C342.504 140.874 341.109 140.963 339.77 140.963H339.018ZM363.859 137.49V138.393H360.086V141.633H365.145V142.521H354.016V141.633H359.02V138.393H355.383V132.992H356.477V137.49H363.859ZM377.189 137.367V138.201H372.172V139.336H375.768V141.961H368.549V143.15H376.137V143.971H367.482V141.195H374.715V140.143H367.455V139.336H371.119V138.201H366.129V137.367H377.189ZM366.717 135.986C368.945 135.843 370.846 135.084 371.044 133.867H367.264V133.02H371.119V131.885H372.172V133.02H376.068V133.867H372.254C372.445 135.084 374.346 135.843 376.588 135.986L376.26 136.807C374.229 136.636 372.397 136.007 371.652 134.852C370.9 136.007 369.068 136.636 367.031 136.807L366.717 135.986ZM385.283 135.945V136.82H382.822V138.516C383.957 138.468 385.092 138.386 386.145 138.27L386.227 139.062C383.608 139.425 380.717 139.5 378.434 139.5L378.27 138.625C379.336 138.618 380.532 138.604 381.756 138.563V136.82H379.377V132.746H385.188V133.635H380.457V135.945H385.283ZM380.348 143.848V140.43H381.414V142.945H388.633V143.848H380.348ZM387.156 141.059V131.967H388.236V141.059H387.156ZM404.957 141.646V142.549H393.828V141.646H398.832V138.68H395.141V132.979H403.576V138.68H399.885V141.646H404.957ZM396.193 137.818H402.537V133.84H396.193V137.818ZM415.963 131.967V138.912H414.896V131.967H415.963ZM406.215 135.453C406.208 133.758 407.555 132.609 409.4 132.609C411.246 132.609 412.579 133.758 412.586 135.453C412.579 137.121 411.246 138.283 409.4 138.283C407.555 138.283 406.208 137.121 406.215 135.453ZM407.268 135.453C407.254 136.581 408.149 137.374 409.4 137.367C410.638 137.374 411.533 136.581 411.533 135.453C411.533 134.318 410.638 133.519 409.4 133.525C408.149 133.519 407.254 134.318 407.268 135.453ZM408.061 143.943V139.568H415.963V143.943H408.061ZM409.113 143.068H414.91V140.443H409.113V143.068ZM431.043 131.953V135.658H432.875V136.561H431.043V140.922H429.977V131.953H431.043ZM421.773 135.809C421.767 134.045 423.147 132.821 424.959 132.814C426.784 132.821 428.145 134.045 428.158 135.809C428.145 137.565 426.784 138.803 424.959 138.803C423.147 138.803 421.767 137.565 421.773 135.809ZM422.826 135.809C422.819 137.005 423.756 137.859 424.959 137.859C426.183 137.859 427.099 137.005 427.105 135.809C427.099 134.605 426.183 133.758 424.959 133.758C423.756 133.758 422.819 134.605 422.826 135.809ZM423.441 143.848V139.992H424.494V142.945H431.604V143.848H423.441ZM444.018 131.953V144.107H442.965V137.818H441.215V143.479H440.203V132.227H441.215V136.902H442.965V131.953H444.018ZM434.256 140.963V133.443H435.322V140.006C436.525 139.999 437.824 139.91 439.301 139.609L439.438 140.566C437.742 140.874 436.348 140.963 435.008 140.963H434.256ZM455.598 132.746V137.695H449.896V132.746H455.598ZM450.771 143.232C452.863 143 454.873 141.817 454.873 140.607H451.277V139.773H454.887V138.584H455.953V139.773H459.59V140.607H455.98C455.974 141.79 457.929 142.973 460.014 143.232L459.645 144.066C457.819 143.813 456.151 142.952 455.427 141.831C454.695 142.979 452.986 143.813 451.154 144.066L450.771 143.232ZM450.949 136.848H454.545V133.621H450.949V136.848ZM458.223 138.939V131.953H459.275V138.939H458.223ZM468.312 132.404C470.131 132.411 471.45 133.519 471.457 135.098C471.45 136.684 470.131 137.777 468.312 137.777C466.474 137.777 465.147 136.684 465.154 135.098C465.147 133.519 466.474 132.411 468.312 132.404ZM466.207 135.098C466.193 136.164 467.089 136.902 468.312 136.902C469.516 136.902 470.418 136.164 470.418 135.098C470.418 134.045 469.516 133.3 468.312 133.307C467.089 133.3 466.193 134.045 466.207 135.098ZM467 139.65V138.789H474.902V141.715H468.08V143.082H475.34V143.943H467.027V140.908H473.836V139.65H467ZM473.836 138.201V131.953H474.902V138.201H473.836ZM487.043 131.953V139.199H485.963V136.014H483.516V135.125H485.963V131.953H487.043ZM477.021 138.229C478.826 137.579 480.111 135.932 480.111 134.195V133.744H477.363V132.842H483.912V133.744H481.191V134.182C481.191 135.768 482.408 137.278 484.186 137.887L483.625 138.748C482.265 138.256 481.205 137.23 480.679 135.979C480.159 137.401 479.031 138.536 477.582 139.09L477.021 138.229ZM478.936 141.838C478.929 140.409 480.48 139.575 483.01 139.582C485.532 139.575 487.084 140.409 487.084 141.838C487.084 143.273 485.532 144.094 483.01 144.107C480.48 144.094 478.929 143.273 478.936 141.838ZM480.002 141.838C479.995 142.72 481.144 143.253 483.01 143.246C484.869 143.253 486.018 142.72 486.018 141.838C486.018 140.949 484.869 140.416 483.01 140.416C481.144 140.416 479.995 140.949 480.002 141.838ZM502.068 131.967V135.645H503.887V136.547H502.068V140.115H500.988V131.967H502.068ZM492.525 138.871C493.496 138.871 494.631 138.871 495.82 138.837V137.941C494.405 137.812 493.489 137.162 493.496 136.15C493.489 135.043 494.631 134.359 496.34 134.359C498.062 134.359 499.184 135.043 499.197 136.15C499.184 137.155 498.295 137.805 496.887 137.941V138.796C498.021 138.741 499.17 138.646 500.236 138.488L500.332 139.268C497.693 139.732 494.788 139.753 492.648 139.746L492.525 138.871ZM492.826 133.895V133.074H495.82V131.857H496.887V133.074H499.867V133.895H492.826ZM494.016 141.578V140.717H502.068V144.107H500.988V141.578H494.016ZM494.521 136.15C494.515 136.786 495.219 137.217 496.34 137.203C497.461 137.217 498.172 136.786 498.172 136.15C498.172 135.508 497.461 135.111 496.34 135.125C495.219 135.111 494.515 135.508 494.521 136.15ZM514.715 131.967V140.854H513.648V131.967H514.715ZM504.967 135.795C504.96 134.045 506.334 132.821 508.152 132.814C509.971 132.821 511.331 134.045 511.338 135.795C511.331 137.565 509.971 138.796 508.152 138.789C506.334 138.796 504.96 137.565 504.967 135.795ZM506.02 135.795C506.006 137.005 506.922 137.846 508.152 137.846C509.362 137.846 510.285 137.005 510.285 135.795C510.285 134.605 509.362 133.758 508.152 133.758C506.922 133.758 506.006 134.605 506.02 135.795ZM506.867 143.848V139.951H507.934V142.945H515.098V143.848H506.867Z" fill="#7D7D85"/>
</g>
<path d="M634.671 120L629.671 117.113V122.887L634.671 120ZM604.329 120V120.5H630.171V120V119.5H604.329V120Z" fill="#D8D7E9"/>
<rect x="635.171" y="40.5" width="314.329" height="159" rx="9.5" fill="white"/>
<rect x="635.171" y="40.5" width="314.329" height="159" rx="9.5" stroke="#D8D7E9"/>
<path d="M667.472 71.0234V82.1758H665.109V77.4492H663.683V81.5898H661.359V71.3555H663.683V75.418H665.109V71.0234H667.472ZM652.101 74.793V72.8594H655.246V71.1797H657.726V72.8594H660.832V74.793H652.101ZM652.648 78.4844C652.638 76.6191 654.269 75.3789 656.496 75.3789C658.752 75.3789 660.373 76.6191 660.382 78.4844C660.373 80.3301 658.752 81.5605 656.496 81.5703C654.269 81.5605 652.638 80.3301 652.648 78.4844ZM654.875 78.4844C654.865 79.3047 655.519 79.8027 656.496 79.793C657.462 79.8027 658.127 79.3047 658.136 78.4844C658.127 77.6543 657.462 77.166 656.496 77.1758C655.529 77.166 654.865 77.6543 654.875 78.4844ZM655.246 85.5742C655.236 83.5137 657.57 82.3418 661.398 82.332C665.236 82.3418 667.55 83.5137 667.57 85.5742C667.55 87.625 665.236 88.8066 661.398 88.7969C657.57 88.8066 655.236 87.625 655.246 85.5742ZM657.746 85.5742C657.726 86.4727 658.986 86.9219 661.398 86.9219C663.82 86.9219 665.05 86.4727 665.05 85.5742C665.05 84.6367 663.82 84.1973 661.398 84.207C658.986 84.1973 657.726 84.6367 657.746 85.5742ZM685.734 79.4219V81.375H669.484V79.4219H676.398V77.8984H671.457V71.8047H683.781V73.7383H673.937V75.9453H683.878V77.8984H678.839V79.4219H685.734ZM671.339 85.5547C671.339 83.4453 673.683 82.2734 677.57 82.2734C681.427 82.2734 683.742 83.4453 683.761 85.5547C683.742 87.6348 681.427 88.8164 677.57 88.8164C673.683 88.8164 671.339 87.6348 671.339 85.5547ZM673.878 85.5547C673.869 86.4824 675.109 86.9219 677.57 86.9219C679.982 86.9219 681.252 86.4824 681.261 85.5547C681.252 84.6367 679.982 84.168 677.57 84.168C675.109 84.168 673.869 84.6367 673.878 85.5547Z" fill="#222222"/>
<path d="M656.101 112.102V122H654.857V113.387H654.802L652.396 114.986V113.742L654.857 112.102H656.101ZM668.269 110.953V123.107H667.203V110.953H668.269ZM658.371 119.867C659.41 119.86 660.599 119.854 661.83 119.812V118.486C660.367 118.336 659.423 117.502 659.437 116.285C659.423 114.911 660.592 114.022 662.349 114.029C664.106 114.022 665.295 114.911 665.289 116.285C665.295 117.488 664.352 118.322 662.91 118.486V119.771C664.086 119.717 665.275 119.635 666.396 119.484L666.478 120.305C663.764 120.742 660.791 120.783 658.535 120.783L658.371 119.867ZM658.63 113.332V112.457H661.83V110.967H662.91V112.457H666.082V113.332H658.63ZM660.435 116.285C660.428 117.126 661.221 117.68 662.349 117.666C663.484 117.68 664.27 117.126 664.263 116.285C664.27 115.438 663.484 114.863 662.349 114.863C661.221 114.863 660.428 115.438 660.435 116.285ZM678.058 113.482C678.065 114.973 679.282 116.299 681.08 116.832L680.574 117.68C679.172 117.242 678.086 116.333 677.545 115.164C677.019 116.449 675.898 117.447 674.449 117.912L673.916 117.064C675.727 116.518 676.999 115.109 677.005 113.482V113.264H674.257V112.402H677.005V110.898H678.086V112.402H680.806V113.264H678.058V113.482ZM675.748 122.943V118.719H683.418V122.943H675.748ZM676.8 122.068H682.351V119.566H676.8V122.068ZM682.351 118.158V110.953H683.418V114.043H685.25V114.945H683.418V118.158H682.351ZM689.283 111.896C690.397 111.903 691.306 112.553 691.833 113.674H695.025V110.953H696.091V123.135H695.025V118.418H691.908C691.402 119.648 690.459 120.366 689.283 120.359C687.485 120.366 686.227 118.726 686.234 116.135C686.227 113.551 687.485 111.903 689.283 111.896ZM687.259 116.135C687.266 118.11 688.086 119.409 689.283 119.402C690.472 119.409 691.306 118.11 691.306 116.135C691.306 114.159 690.472 112.86 689.283 112.854C688.086 112.86 687.266 114.159 687.259 116.135ZM692.14 114.576C692.256 115.048 692.318 115.567 692.318 116.135C692.318 116.634 692.27 117.105 692.181 117.529H695.025V114.576H692.14ZM702.093 111.842C704.001 111.849 705.354 113.011 705.361 114.699C705.354 116.395 704.001 117.55 702.093 117.557C700.172 117.55 698.805 116.395 698.812 114.699C698.805 113.011 700.172 111.849 702.093 111.842ZM698.183 119.539C700.425 119.546 703.522 119.525 706.209 119.129L706.291 119.922C703.508 120.441 700.521 120.455 698.334 120.455L698.183 119.539ZM699.865 114.699C699.858 115.834 700.794 116.613 702.093 116.613C703.378 116.613 704.315 115.834 704.308 114.699C704.315 113.571 703.378 112.785 702.093 112.785C700.794 112.785 699.858 113.571 699.865 114.699ZM707.015 123.135V110.953H708.082V123.135H707.015ZM718.103 113.564C718.11 115.205 719.402 116.682 721.22 117.256L720.673 118.117C719.258 117.632 718.137 116.634 717.584 115.355C717.057 116.736 715.916 117.83 714.466 118.363L713.906 117.502C715.731 116.866 717.016 115.287 717.023 113.564V112.854H714.179V111.979H720.906V112.854H718.103V113.564ZM715.916 122.848V119.033H716.982V121.945H724.146V122.848H715.916ZM722.697 119.881V110.967H723.763V119.881H722.697ZM735.863 110.953V117.475H734.796V110.953H735.863ZM726.115 114.344C726.108 112.683 727.455 111.541 729.3 111.555C731.146 111.541 732.479 112.683 732.486 114.344C732.479 115.998 731.146 117.14 729.3 117.133C727.455 117.14 726.108 115.998 726.115 114.344ZM727.168 114.344C727.154 115.451 728.049 116.237 729.3 116.244C730.538 116.237 731.433 115.451 731.433 114.344C731.433 113.229 730.538 112.45 729.3 112.457C728.049 112.45 727.154 113.229 727.168 114.344ZM727.988 122.943V118.09H729.054V119.566H734.796V118.09H735.863V122.943H727.988ZM729.054 122.068H734.796V120.428H729.054V122.068ZM745.556 113.264C745.563 114.856 746.753 116.278 748.537 116.859L748.031 117.707C746.629 117.242 745.57 116.278 745.044 115.055C744.524 116.449 743.403 117.536 741.947 118.062L741.4 117.201C743.218 116.586 744.49 115.021 744.503 113.264V112.744H741.728V111.855H748.291V112.744H745.556V113.264ZM743.013 120.838C743.02 119.437 744.544 118.623 747.046 118.623C749.542 118.623 751.052 119.437 751.052 120.838C751.052 122.26 749.542 123.08 747.046 123.08C744.544 123.08 743.02 122.26 743.013 120.838ZM744.093 120.838C744.08 121.713 745.214 122.226 747.046 122.219C748.885 122.226 750.006 121.713 750.013 120.838C750.006 119.99 748.885 119.484 747.046 119.484C745.214 119.484 744.08 119.99 744.093 120.838ZM749.877 118.295V110.953H750.943V114.057H752.775V114.959H750.943V118.295H749.877ZM755.222 111.678V113.701H758.613V111.678H759.666V112.908H762.537V110.953H763.617V118.186H762.537V116.271H759.666V117.488H754.156V111.678H755.222ZM755.222 116.6H758.613V114.549H755.222V116.6ZM755.441 119.703V118.828H763.617V123.107H762.537V119.703H755.441ZM759.666 115.383H762.537V113.797H759.666V115.383ZM771.177 111.172C773.878 111.172 775.463 111.917 775.47 113.264C775.463 114.645 773.878 115.39 771.177 115.396C768.463 115.39 766.871 114.645 766.871 113.264C766.871 111.917 768.463 111.172 771.177 111.172ZM765.64 117.092V116.217H776.714V117.092H765.64ZM766.98 118.965V118.145H775.293V120.865H768.074V122.123H775.662V122.971H767.007V120.072H774.24V118.965H766.98ZM767.992 113.264C767.978 114.111 769.161 114.576 771.177 114.576C773.194 114.576 774.37 114.111 774.377 113.264C774.37 112.464 773.194 111.985 771.177 111.979C769.161 111.985 767.978 112.464 767.992 113.264ZM790.755 110.939V113.934H792.587V114.85H790.755V117.844H789.689V110.939H790.755ZM781.841 116.887V111.623H782.921V115.971C784.658 115.971 786.442 115.841 788.404 115.438L788.541 116.34C786.476 116.75 784.637 116.887 782.812 116.887H781.841ZM782.498 122.219C784.535 121.897 786.353 120.708 786.408 119.348H782.962V118.459H790.974V119.348H787.529C787.577 120.681 789.416 121.897 791.439 122.232L791.015 123.066C789.252 122.752 787.652 121.843 786.968 120.605C786.292 121.843 784.685 122.731 782.921 123.039L782.498 122.219ZM799.41 110.939V112.279H803.306V113.127H799.478C799.56 114.576 801.474 115.567 803.744 115.807L803.388 116.641C801.406 116.408 799.622 115.636 798.89 114.357C798.152 115.636 796.375 116.408 794.392 116.641L794.037 115.807C796.299 115.567 798.207 114.576 798.295 113.127H794.502V112.279H798.357V110.939H799.41ZM793.339 118.254V117.393H804.468V118.254H799.519V120.688H798.453V118.254H793.339ZM794.761 122.848V119.484H795.841V121.945H803.224V122.848H794.761ZM814.859 110.953V115.766H816.896V116.668H814.859V123.135H813.793V110.953H814.859ZM805.986 120.086V112.143H811.66V113.031H807.052V119.184C809.253 119.177 810.805 119.081 812.617 118.746L812.753 119.676C810.846 120.018 809.253 120.086 806.943 120.086H805.986ZM818.837 122.082C818.359 122.075 817.949 121.679 817.962 121.193C817.949 120.715 818.359 120.318 818.837 120.318C819.323 120.318 819.719 120.715 819.712 121.193C819.719 121.679 819.323 122.075 818.837 122.082ZM652.916 139.227C652.929 136.649 653.627 134.503 654.884 132.678H655.923C655.001 134.024 654.139 136.793 654.132 139.227C654.139 141.667 655.001 144.429 655.923 145.789H654.884C653.627 143.957 652.929 141.811 652.916 139.227ZM666.957 131.953V144.135H665.877V131.953H666.957ZM657.646 141.195V132.992H658.712V136.205H662.336V132.992H663.388V141.195H657.646ZM658.712 140.293H662.336V137.066H658.712V140.293ZM680.109 137.969V138.857H669.035V137.969H671.783V136.253C670.812 135.877 670.265 135.262 670.265 134.441C670.265 133.013 671.906 132.192 674.572 132.186C677.217 132.192 678.858 133.013 678.865 134.441C678.858 135.255 678.318 135.87 677.361 136.253V137.969H680.109ZM670.375 141.934C670.368 140.546 671.933 139.78 674.572 139.787C677.176 139.78 678.742 140.546 678.755 141.934C678.742 143.321 677.176 144.08 674.572 144.08C671.933 144.08 670.368 143.321 670.375 141.934ZM671.373 134.441C671.366 135.33 672.583 135.843 674.572 135.85C676.541 135.843 677.764 135.33 677.771 134.441C677.764 133.566 676.541 133.033 674.572 133.033C672.583 133.033 671.366 133.566 671.373 134.441ZM671.468 141.934C671.455 142.761 672.624 143.253 674.572 143.246C676.5 143.253 677.669 142.761 677.675 141.934C677.669 141.106 676.5 140.621 674.572 140.607C672.624 140.621 671.455 141.106 671.468 141.934ZM672.849 137.969H676.294V136.54C675.782 136.636 675.208 136.684 674.572 136.684C673.936 136.684 673.362 136.636 672.849 136.547V137.969ZM690.992 132.746V137.695H685.291V132.746H690.992ZM686.166 143.232C688.257 143 690.267 141.817 690.267 140.607H686.671V139.773H690.281V138.584H691.347V139.773H694.984V140.607H691.375C691.368 141.79 693.323 142.973 695.408 143.232L695.039 144.066C693.213 143.813 691.545 142.952 690.821 141.831C690.089 142.979 688.38 143.813 686.548 144.066L686.166 143.232ZM686.343 136.848H689.939V133.621H686.343V136.848ZM693.617 138.939V131.953H694.669V138.939H693.617ZM709.763 131.953V135.125H711.595V136.014H709.763V139.254H708.697V131.953H709.763ZM700.275 138.393C703.208 137.545 705.081 135.856 705.299 133.744H700.808V132.855H706.455C706.448 135.952 704.267 138.222 700.726 139.268L700.275 138.393ZM701.943 141.729C701.936 140.272 703.502 139.384 705.921 139.391C708.362 139.384 709.9 140.272 709.9 141.729C709.9 143.205 708.362 144.08 705.921 144.08C703.502 144.08 701.936 143.205 701.943 141.729ZM703.009 141.729C702.996 142.645 704.137 143.226 705.921 143.219C707.706 143.226 708.861 142.645 708.861 141.729C708.861 140.812 707.706 140.245 705.921 140.252C704.137 140.245 702.996 140.812 703.009 141.729ZM723.49 141.646V142.549H712.361V141.646H715.123V138.372C714.084 137.832 713.455 136.957 713.455 135.85C713.455 133.97 715.3 132.732 717.898 132.719C720.496 132.732 722.341 133.97 722.341 135.85C722.341 136.937 721.733 137.798 720.728 138.338V141.646H723.49ZM714.494 135.85C714.487 137.21 715.902 138.119 717.898 138.119C719.874 138.119 721.302 137.21 721.302 135.85C721.302 134.489 719.874 133.594 717.898 133.607C715.902 133.594 714.487 134.489 714.494 135.85ZM716.175 141.646H719.648V138.755C719.122 138.892 718.534 138.967 717.898 138.967C717.276 138.967 716.695 138.898 716.175 138.762V141.646ZM725.691 133.102L728.207 137.189H728.289L730.818 133.102H732.267L729.164 138.051L732.267 143H730.818L728.289 138.994H728.207L725.677 143H724.228L727.414 138.051L724.228 133.102H725.691ZM736.068 139.227C736.054 141.811 735.357 143.957 734.099 145.789H733.06C733.983 144.429 734.844 141.667 734.851 139.227C734.844 136.793 733.983 134.024 733.06 132.678H734.099C735.357 134.503 736.054 136.649 736.068 139.227ZM744.763 132.404C746.582 132.411 747.901 133.519 747.908 135.098C747.901 136.684 746.582 137.777 744.763 137.777C742.924 137.777 741.598 136.684 741.605 135.098C741.598 133.519 742.924 132.411 744.763 132.404ZM742.658 135.098C742.644 136.164 743.54 136.902 744.763 136.902C745.966 136.902 746.869 136.164 746.869 135.098C746.869 134.045 745.966 133.3 744.763 133.307C743.54 133.3 742.644 134.045 742.658 135.098ZM743.451 139.65V138.789H751.353V141.715H744.531V143.082H751.791V143.943H743.478V140.908H750.287V139.65H743.451ZM750.287 138.201V131.953H751.353V138.201H750.287ZM762.919 131.953V135.576H764.765V136.479H762.919V140.758H761.853V131.953H762.919ZM753.992 138.598V133.006H759.406V133.908H755.058V137.695C757.499 137.702 758.886 137.627 760.513 137.299L760.65 138.188C758.941 138.516 757.492 138.598 754.935 138.598H753.992ZM755.318 143.848V139.869H756.371V142.945H763.48V143.848H755.318ZM773.173 134.482C773.18 135.973 774.397 137.299 776.195 137.832L775.689 138.68C774.288 138.242 773.201 137.333 772.661 136.164C772.134 137.449 771.013 138.447 769.564 138.912L769.031 138.064C770.842 137.518 772.114 136.109 772.121 134.482V134.264H769.373V133.402H772.121V131.898H773.201V133.402H775.921V134.264H773.173V134.482ZM770.863 143.943V139.719H778.533V143.943H770.863ZM771.916 143.068H777.466V140.566H771.916V143.068ZM777.466 139.158V131.953H778.533V135.043H780.365V135.945H778.533V139.158H777.466ZM784.398 132.896C785.512 132.903 786.421 133.553 786.948 134.674H790.14V131.953H791.207V144.135H790.14V139.418H787.023C786.517 140.648 785.574 141.366 784.398 141.359C782.6 141.366 781.342 139.726 781.349 137.135C781.342 134.551 782.6 132.903 784.398 132.896ZM782.375 137.135C782.381 139.11 783.202 140.409 784.398 140.402C785.587 140.409 786.421 139.11 786.421 137.135C786.421 135.159 785.587 133.86 784.398 133.854C783.202 133.86 782.381 135.159 782.375 137.135ZM787.255 135.576C787.372 136.048 787.433 136.567 787.433 137.135C787.433 137.634 787.385 138.105 787.296 138.529H790.14V135.576H787.255ZM801.064 135.221C801.057 137.442 802.568 139.671 804.359 140.484L803.703 141.332C802.315 140.662 801.119 139.22 800.538 137.49C799.977 139.322 798.781 140.86 797.359 141.578L796.675 140.676C798.487 139.849 799.984 137.524 799.998 135.221V133.006H801.064V135.221ZM805.685 144.135V131.953H806.765V144.135H805.685ZM815.365 133.225C815.351 136.731 814.086 139.972 809.691 142.125L809.089 141.264C811.373 140.17 812.781 138.769 813.546 137.121L809.322 137.531L809.144 136.574L813.888 136.26C814.107 135.583 814.237 134.865 814.292 134.113H809.759V133.225H815.365ZM817.812 144.107V131.953H818.892V144.107H817.812ZM830.992 131.953V144.107H829.912V131.953H830.992ZM821.093 140.949C824.381 139.391 826.063 137.06 826.302 134.154H821.654V133.279H827.396C827.382 136.772 825.755 139.869 821.681 141.824L821.093 140.949Z" fill="#7D7D85"/>
<path d="M793 231.121L795.887 226.121L790.113 226.121L793 231.121ZM793 200L792.5 200L792.5 226.621L793 226.621L793.5 226.621L793.5 200L793 200Z" fill="#D8D7E9"/>
<path d="M446 199.879L443.113 204.879L448.887 204.879L446 199.879ZM446 231L446.5 231L446.5 204.379L446 204.379L445.5 204.379L445.5 231L446 231Z" fill="#D8D7E9"/>
<g filter="url(#filter6_d_1224_7810)">
<rect x="289" y="232" width="314.94" height="160" rx="10" fill="white" shape-rendering="crispEdges"/>
<rect x="289.5" y="232.5" width="313.94" height="159" rx="9.5" stroke="#D8D7E9" shape-rendering="crispEdges"/>
<path d="M321.801 263.023V274.176H319.438V269.449H318.012V273.59H315.688V263.355H318.012V267.418H319.438V263.023H321.801ZM306.43 266.793V264.859H309.574V263.18H312.055V264.859H315.16V266.793H306.43ZM306.977 270.484C306.967 268.619 308.598 267.379 310.824 267.379C313.08 267.379 314.701 268.619 314.711 270.484C314.701 272.33 313.08 273.561 310.824 273.57C308.598 273.561 306.967 272.33 306.977 270.484ZM309.203 270.484C309.193 271.305 309.848 271.803 310.824 271.793C311.791 271.803 312.455 271.305 312.465 270.484C312.455 269.654 311.791 269.166 310.824 269.176C309.857 269.166 309.193 269.654 309.203 270.484ZM309.574 277.574C309.564 275.514 311.898 274.342 315.727 274.332C319.564 274.342 321.879 275.514 321.898 277.574C321.879 279.625 319.564 280.807 315.727 280.797C311.898 280.807 309.564 279.625 309.574 277.574ZM312.074 277.574C312.055 278.473 313.314 278.922 315.727 278.922C318.148 278.922 319.379 278.473 319.379 277.574C319.379 276.637 318.148 276.197 315.727 276.207C313.314 276.197 312.055 276.637 312.074 277.574ZM340.062 271.422V273.375H323.812V271.422H330.727V269.898H325.785V263.805H338.109V265.738H328.266V267.945H338.207V269.898H333.168V271.422H340.062ZM325.668 277.555C325.668 275.445 328.012 274.273 331.898 274.273C335.756 274.273 338.07 275.445 338.09 277.555C338.07 279.635 335.756 280.816 331.898 280.816C328.012 280.816 325.668 279.635 325.668 277.555ZM328.207 277.555C328.197 278.482 329.438 278.922 331.898 278.922C334.311 278.922 335.58 278.482 335.59 277.555C335.58 276.637 334.311 276.168 331.898 276.168C329.438 276.168 328.197 276.637 328.207 277.555ZM361.957 273.551V275.582H355.023V280.797H352.562V275.582H345.688V273.551H361.957ZM347.738 272.262V263.746H360.023V265.699H350.18V267.027H359.652V268.941H350.18V270.289H360.219V272.262H347.738ZM369.555 267.867C369.545 270.572 370.99 273.697 373.91 275.055L372.523 277.008C370.541 276.1 369.135 274.283 368.334 272.154C367.543 274.498 366.078 276.49 364.027 277.457L362.582 275.484C365.541 274.107 367.035 270.807 367.055 267.867V266.773H363.285V264.742H373.129V266.773H369.555V267.867ZM374.516 280.797V263.023H377.016V269.801H379.633V271.891H377.016V280.797H374.516Z" fill="#222222"/>
<path d="M310.348 314.137C308.379 314.137 306.964 313.084 306.902 311.512H308.146C308.215 312.455 309.151 313.043 310.334 313.043C311.64 313.043 312.583 312.339 312.59 311.307C312.583 310.227 311.722 309.468 310.184 309.461H309.377V308.381H310.184C311.387 308.381 312.228 307.704 312.221 306.686C312.228 305.694 311.503 305.038 310.375 305.031C309.315 305.038 308.352 305.619 308.297 306.59H307.107C307.169 305.018 308.632 303.965 310.389 303.965C312.275 303.965 313.424 305.202 313.41 306.617C313.424 307.745 312.768 308.565 311.729 308.859V308.928C313.021 309.126 313.8 310.049 313.793 311.307C313.8 312.934 312.323 314.137 310.348 314.137ZM325.1 302.953V315.107H324.033V302.953H325.1ZM315.201 311.867C316.24 311.86 317.43 311.854 318.66 311.812V310.486C317.197 310.336 316.254 309.502 316.268 308.285C316.254 306.911 317.423 306.022 319.18 306.029C320.937 306.022 322.126 306.911 322.119 308.285C322.126 309.488 321.183 310.322 319.74 310.486V311.771C320.916 311.717 322.105 311.635 323.227 311.484L323.309 312.305C320.595 312.742 317.621 312.783 315.365 312.783L315.201 311.867ZM315.461 305.332V304.457H318.66V302.967H319.74V304.457H322.912V305.332H315.461ZM317.266 308.285C317.259 309.126 318.052 309.68 319.18 309.666C320.314 309.68 321.101 309.126 321.094 308.285C321.101 307.438 320.314 306.863 319.18 306.863C318.052 306.863 317.259 307.438 317.266 308.285ZM341.82 308.367V309.201H336.803V310.336H340.398V312.961H333.18V314.15H340.768V314.971H332.113V312.195H339.346V311.143H332.086V310.336H335.75V309.201H330.76V308.367H341.82ZM331.348 306.986C333.576 306.843 335.477 306.084 335.675 304.867H331.895V304.02H335.75V302.885H336.803V304.02H340.699V304.867H336.885C337.076 306.084 338.977 306.843 341.219 306.986L340.891 307.807C338.86 307.636 337.028 307.007 336.283 305.852C335.531 307.007 333.699 307.636 331.662 307.807L331.348 306.986ZM346.988 304.908C346.981 306.583 348.232 308.128 349.996 308.736L349.408 309.598C348.062 309.099 347.002 308.066 346.482 306.768C345.97 308.203 344.876 309.324 343.447 309.885L342.859 308.996C344.705 308.347 345.922 306.74 345.936 304.867V303.582H346.988V304.908ZM344.746 311.676V310.814H352.922V315.107H351.842V311.676H344.746ZM349.135 306.412V305.51H351.842V302.953H352.922V310.145H351.842V306.412H349.135ZM362.055 305.305C362.055 306.535 363.073 307.786 364.598 308.312L364.119 309.105C362.902 308.688 362.014 307.834 361.569 306.822C361.132 307.923 360.243 308.866 359.033 309.338L358.514 308.518C360.045 307.93 361.029 306.583 361.043 305.305V305.195H358.801V304.348H361.043V303.021H362.055V304.348H364.256V305.195H362.055V305.305ZM360.715 310.842V310.008H368.781V312.811H361.809V314.109H369.273V314.943H360.742V312.004H367.729V310.842H360.715ZM365.131 309.365V303.199H366.17V305.729H367.756V302.967H368.781V309.461H367.756V306.617H366.17V309.365H365.131ZM380.58 302.967V311.908H379.527V302.967H380.58ZM371.174 304.703V303.828H376.725V307.342H372.24V309.283C374.503 309.283 376.096 309.215 378.023 308.873L378.133 309.762C376.15 310.104 374.517 310.172 372.186 310.186H371.201V306.494H375.658V304.703H371.174ZM372.609 314.848V311.211H373.689V313.945H380.936V314.848H372.609ZM387.006 306.686C387.013 308.75 388.51 310.849 390.301 311.621L389.699 312.469C388.277 311.826 387.054 310.425 386.486 308.743C385.919 310.527 384.688 312.072 383.301 312.77L382.658 311.922C384.401 311.088 385.919 308.791 385.926 306.686V305.1H383.055V304.211H389.904V305.1H387.006V306.686ZM391.6 315.107V302.953H392.68V315.107H391.6ZM317.621 333.66V334.549H306.492V333.66H311.496V331.035H307.805V324.814H308.885V327.016H315.201V324.814H316.254V331.035H312.549V333.66H317.621ZM308.885 330.16H315.201V327.891H308.885V330.16ZM322.652 325.922C322.652 327.576 323.91 329.094 325.674 329.695L325.086 330.543C323.746 330.051 322.687 329.046 322.153 327.774C321.634 329.217 320.547 330.331 319.125 330.885L318.551 330.023C320.369 329.347 321.593 327.72 321.6 325.84V324.582H322.652V325.922ZM320.164 333.865C320.171 332.478 321.695 331.664 324.197 331.664C326.692 331.664 328.203 332.478 328.203 333.865C328.203 335.28 326.692 336.08 324.197 336.08C321.695 336.08 320.171 335.28 320.164 333.865ZM321.244 333.865C321.23 334.727 322.365 335.226 324.197 335.232C326.036 335.226 327.157 334.727 327.164 333.865C327.157 333.038 326.036 332.525 324.197 332.525C322.365 332.525 321.23 333.038 321.244 333.865ZM327.027 331.35V323.953H328.094V327.125H329.926V328.027H328.094V331.35H327.027ZM336.229 324.172C338.929 324.172 340.515 324.917 340.521 326.264C340.515 327.645 338.929 328.39 336.229 328.396C333.515 328.39 331.922 327.645 331.922 326.264C331.922 324.917 333.515 324.172 336.229 324.172ZM330.691 330.092V329.217H341.766V330.092H330.691ZM332.031 331.965V331.145H340.344V333.865H333.125V335.123H340.713V335.971H332.059V333.072H339.291V331.965H332.031ZM333.043 326.264C333.029 327.111 334.212 327.576 336.229 327.576C338.245 327.576 339.421 327.111 339.428 326.264C339.421 325.464 338.245 324.985 336.229 324.979C334.212 324.985 333.029 325.464 333.043 326.264ZM357.379 330.406V331.281H346.291V330.406H351.295V329.203H347.768V324.309H355.998V325.184H348.848V326.318H355.67V327.139H348.848V328.342H356.066V329.203H352.361V330.406H357.379ZM347.645 334.139C347.638 332.874 349.148 332.184 351.842 332.197C354.508 332.184 356.012 332.874 356.025 334.139C356.012 335.417 354.508 336.08 351.842 336.08C349.148 336.08 347.638 335.417 347.645 334.139ZM348.725 334.139C348.711 334.877 349.832 335.26 351.842 335.246C353.831 335.26 354.938 334.877 354.945 334.139C354.938 333.414 353.831 333.011 351.842 333.004C349.832 333.011 348.711 333.414 348.725 334.139ZM367.906 323.967V327.973H369.738V328.875H367.906V333.072H366.84V323.967H367.906ZM358.432 326.332V325.457H361.521V323.967H362.588V325.457H365.678V326.332H358.432ZM359.129 329.271C359.122 327.891 360.298 327.002 362.055 327.002C363.791 327.002 364.967 327.891 364.98 329.271C364.967 330.639 363.791 331.521 362.055 331.514C360.298 331.521 359.122 330.639 359.129 329.271ZM360.154 329.271C360.147 330.126 360.906 330.68 362.055 330.666C363.189 330.68 363.955 330.126 363.969 329.271C363.955 328.403 363.189 327.843 362.055 327.85C360.906 327.843 360.147 328.403 360.154 329.271ZM360.305 335.848V332.348H361.357V334.945H368.467V335.848H360.305ZM383.424 323.953V328.766H385.461V329.668H383.424V336.135H382.357V323.953H383.424ZM374.551 333.086V325.143H380.225V326.031H375.617V332.184C377.818 332.177 379.37 332.081 381.182 331.746L381.318 332.676C379.411 333.018 377.818 333.086 375.508 333.086H374.551ZM391.654 324.227C394.3 324.227 395.94 325.081 395.947 326.537C395.94 327.973 394.3 328.813 391.654 328.807C389.009 328.813 387.348 327.973 387.348 326.537C387.348 325.081 389.009 324.227 391.654 324.227ZM386.117 330.748V329.859H397.191V330.748H386.117ZM387.471 335.943V331.951H395.838V335.943H387.471ZM388.455 326.537C388.448 327.419 389.686 327.952 391.654 327.959C393.603 327.952 394.847 327.419 394.854 326.537C394.847 325.628 393.603 325.088 391.654 325.088C389.686 325.088 388.448 325.628 388.455 326.537ZM388.537 335.068H394.785V332.812H388.537V335.068ZM407.336 331.596C409.831 331.596 411.342 332.416 411.342 333.838C411.342 335.273 409.831 336.094 407.336 336.107C404.834 336.094 403.31 335.273 403.303 333.838C403.31 332.416 404.834 331.596 407.336 331.596ZM402.25 330.324V324.719H403.303V326.578H406.844V324.719H407.91V330.324H402.25ZM403.303 329.449H406.844V327.426H403.303V329.449ZM404.383 333.838C404.369 334.713 405.504 335.232 407.336 335.232C409.175 335.232 410.296 334.713 410.303 333.838C410.296 332.97 409.175 332.457 407.336 332.443C405.504 332.457 404.369 332.97 404.383 333.838ZM410.166 331.268V323.953H411.232V327.016H413.064V327.932H411.232V331.268H410.166ZM424.945 330.174V331.062H419.996V333.551H418.93V331.062H413.816V330.174H424.945ZM415.238 335.848V332.348H416.318V334.945H423.701V335.848H415.238ZM415.266 328.779V324.555H423.496V328.779H415.266ZM416.318 327.918H422.43V325.402H416.318V327.918ZM440.559 330.885V331.773H437.619V336.107H436.539V331.773H433.422V336.107H432.314V331.773H429.43V330.885H440.559ZM430.688 327.098C430.694 325.478 432.41 324.452 434.967 324.445C437.517 324.452 439.246 325.478 439.246 327.098C439.246 328.718 437.517 329.729 434.967 329.723C432.41 329.729 430.694 328.718 430.688 327.098ZM431.795 327.098C431.781 328.171 433.073 328.861 434.967 328.861C436.86 328.861 438.146 328.171 438.152 327.098C438.146 326.018 436.86 325.32 434.967 325.32C433.073 325.32 431.781 326.018 431.795 327.098ZM451.359 329.654V330.529H447.6V333.674H452.672V334.576H441.543V333.674H446.547V330.529H442.965V324.951H451.236V325.826H444.045V329.654H451.359ZM463.5 324.746V329.695H457.799V324.746H463.5ZM458.674 335.232C460.766 335 462.775 333.817 462.775 332.607H459.18V331.773H462.789V330.584H463.855V331.773H467.492V332.607H463.883C463.876 333.79 465.831 334.973 467.916 335.232L467.547 336.066C465.722 335.813 464.054 334.952 463.329 333.831C462.598 334.979 460.889 335.813 459.057 336.066L458.674 335.232ZM458.852 328.848H462.447V325.621H458.852V328.848ZM466.125 330.939V323.953H467.178V330.939H466.125ZM483.898 333.633V334.521H472.77V333.633H477.746V330.652H478.799V333.633H483.898ZM473.207 329.9C475.333 329.538 477.698 327.761 477.705 325.717V324.787H478.826V325.717C478.833 327.747 481.232 329.538 483.352 329.9L482.873 330.789C481.021 330.406 479.065 329.155 478.279 327.405C477.479 329.148 475.545 330.406 473.686 330.789L473.207 329.9ZM495.984 330.064V330.953H484.869V330.064H489.873V328.191H490.926V330.064H495.984ZM485.539 327.986C487.686 327.692 489.859 326.339 489.859 324.719V324.145H490.939V324.719C490.939 326.339 493.127 327.692 495.273 327.986L494.836 328.848C492.997 328.526 491.165 327.549 490.406 326.147C489.641 327.562 487.815 328.526 485.949 328.848L485.539 327.986ZM486.1 333.004V332.143H494.576V336.107H493.496V333.004H486.1ZM506.471 323.953V326.934H508.303V327.822H506.471V330.857H505.404V323.953H506.471ZM496.955 330.119C499.942 329.312 501.768 327.692 501.993 325.635H497.502V324.746H503.148C503.135 327.809 500.995 330.003 497.393 330.98L496.955 330.119ZM498.773 335.943V331.418H506.471V335.943H498.773ZM499.84 335.068H505.404V332.307H499.84V335.068ZM523.889 326.086V326.975H522.084V328.656H523.889V329.559H522.084V331.801H521.018V323.953H522.084V326.086H523.889ZM512.609 326.195V325.348H515.699V323.857H516.766V325.348H519.855V326.195H512.609ZM513.307 328.971C513.3 327.672 514.469 326.831 516.232 326.824C517.976 326.831 519.145 327.672 519.158 328.971C519.145 330.283 517.976 331.124 516.232 331.117C514.469 331.124 513.3 330.283 513.307 328.971ZM514.264 333.988C514.257 332.662 515.761 331.89 518.242 331.883C520.717 331.89 522.221 332.662 522.221 333.988C522.221 335.308 520.717 336.08 518.242 336.08C515.761 336.08 514.257 335.308 514.264 333.988ZM514.332 328.971C514.325 329.771 515.084 330.283 516.232 330.283C517.367 330.283 518.133 329.771 518.146 328.971C518.133 328.171 517.367 327.645 516.232 327.631C515.084 327.645 514.325 328.171 514.332 328.971ZM515.33 333.988C515.316 334.774 516.424 335.253 518.242 335.246C520.054 335.253 521.161 334.774 521.154 333.988C521.161 333.182 520.054 332.73 518.242 332.73C516.424 332.73 515.316 333.182 515.33 333.988ZM528.742 325.922C528.742 327.576 530 329.094 531.764 329.695L531.176 330.543C529.836 330.051 528.776 329.046 528.243 327.774C527.724 329.217 526.637 330.331 525.215 330.885L524.641 330.023C526.459 329.347 527.683 327.72 527.689 325.84V324.582H528.742V325.922ZM526.254 333.865C526.261 332.478 527.785 331.664 530.287 331.664C532.782 331.664 534.293 332.478 534.293 333.865C534.293 335.28 532.782 336.08 530.287 336.08C527.785 336.08 526.261 335.28 526.254 333.865ZM527.334 333.865C527.32 334.727 528.455 335.226 530.287 335.232C532.126 335.226 533.247 334.727 533.254 333.865C533.247 333.038 532.126 332.525 530.287 332.525C528.455 332.525 527.32 333.038 527.334 333.865ZM533.117 331.35V323.953H534.184V327.125H536.016V328.027H534.184V331.35H533.117ZM312.754 356.52L311.646 355.426L314.6 352.473H307.654V350.859H314.6L311.646 347.92L312.754 346.826L317.607 351.666L312.754 356.52ZM327.328 348.207C327.321 350.217 328.36 352.37 330.445 353.238L329.502 354.605C328.039 353.983 327.027 352.746 326.467 351.242C325.906 352.876 324.874 354.243 323.404 354.92L322.406 353.539C324.471 352.616 325.537 350.312 325.537 348.207V347.441H322.898V346.02H329.926V347.441H327.328V348.207ZM331.156 357.258V344.816H332.92V357.258H331.156ZM345.949 350.873V352.268H334.602V350.873H339.4V349.219H341.123V350.873H345.949ZM335.189 348.604C337.938 348.255 339.366 346.833 339.373 345.432V345.021H341.15V345.432C341.144 346.888 342.538 348.255 345.348 348.604L344.678 349.957C342.572 349.643 341.027 348.761 340.241 347.517C339.448 348.754 337.903 349.649 335.805 349.957L335.189 348.604ZM335.859 354.496V353.143H344.568V357.258H342.832V354.496H335.859ZM359.744 344.816V349.588H361.508V351.023H359.744V357.23H357.994V344.816H359.744ZM349.791 353.744C352.737 352.268 354.323 350.285 354.651 347.51H350.502V346.088H356.422C356.408 349.807 354.959 353.026 350.775 355.084L349.791 353.744ZM372.117 347.934V349.328H363.463V345.008H365.199V347.934H372.117ZM362.027 351.816V350.395H373.402V351.816H362.027ZM363.326 354.906C363.326 353.437 364.967 352.603 367.688 352.596C370.388 352.603 372.008 353.437 372.021 354.906C372.008 356.39 370.388 357.217 367.688 357.217C364.967 357.217 363.326 356.39 363.326 354.906ZM365.104 354.906C365.097 355.556 365.965 355.884 367.688 355.891C369.376 355.884 370.265 355.556 370.271 354.906C370.265 354.243 369.376 353.963 367.688 353.949C365.965 353.963 365.097 354.243 365.104 354.906ZM378.83 346.512C378.823 348.173 379.678 349.711 381.674 350.326L380.758 351.693C379.418 351.229 378.509 350.374 377.982 349.253C377.436 350.552 376.431 351.57 374.934 352.076L374.018 350.682C376.144 349.998 377.06 348.33 377.066 346.594V345.459H378.83V346.512ZM376.082 354.852C376.082 353.32 377.709 352.425 380.361 352.432C383.021 352.425 384.647 353.32 384.654 354.852C384.647 356.39 383.021 357.265 380.361 357.258C377.709 357.265 376.082 356.39 376.082 354.852ZM377.818 354.852C377.818 355.542 378.714 355.904 380.361 355.904C382.016 355.904 382.911 355.542 382.918 354.852C382.911 354.141 382.016 353.785 380.361 353.785C378.714 353.785 377.818 354.141 377.818 354.852ZM380.539 348.521V347.1H382.877V344.816H384.613V352.104H382.877V348.521H380.539ZM400.938 346.635V348.043H399.324V349.314H400.938V350.736H399.324V352.719H397.574V344.816H399.324V346.635H400.938ZM389.453 347.359V346.006H392.283V344.748H394.02V346.006H396.836V347.359H389.453ZM390.055 350.025C390.055 348.699 391.312 347.79 393.145 347.783C394.956 347.79 396.207 348.699 396.207 350.025C396.207 351.365 394.956 352.254 393.145 352.254C391.319 352.254 390.055 351.365 390.055 350.025ZM391.053 355.057C391.039 353.655 392.646 352.835 395.264 352.828C397.82 352.835 399.454 353.655 399.461 355.057C399.454 356.424 397.82 357.265 395.264 357.258C392.646 357.265 391.039 356.424 391.053 355.057ZM391.764 350.025C391.757 350.641 392.311 350.962 393.145 350.955C393.985 350.962 394.553 350.641 394.553 350.025C394.553 349.403 393.985 349.062 393.145 349.055C392.311 349.062 391.757 349.403 391.764 350.025ZM392.775 355.057C392.769 355.638 393.63 355.959 395.264 355.959C396.85 355.959 397.711 355.638 397.711 355.057C397.711 354.435 396.85 354.161 395.264 354.154C393.63 354.161 392.769 354.435 392.775 355.057ZM406.092 346.771C406.085 348.282 406.967 349.731 408.936 350.34L408.006 351.693C406.687 351.256 405.764 350.408 405.23 349.321C404.69 350.572 403.727 351.557 402.305 352.035L401.361 350.668C403.439 349.978 404.328 348.323 404.342 346.607V345.473H406.092V346.771ZM403.084 354.852C403.077 353.341 404.725 352.445 407.35 352.445C409.927 352.445 411.54 353.341 411.547 354.852C411.54 356.376 409.927 357.265 407.35 357.258C404.725 357.265 403.077 356.376 403.084 354.852ZM404.834 354.852C404.82 355.556 405.716 355.891 407.35 355.891C408.963 355.891 409.824 355.556 409.824 354.852C409.824 354.175 408.963 353.812 407.35 353.812C405.716 353.812 404.82 354.175 404.834 354.852ZM409.674 352.199V344.816H411.424V347.729H413.105V349.178H411.424V352.199H409.674Z" fill="#7D7D85"/>
</g>
<path d="M603.94 312L608.94 314.887L608.94 309.113L603.94 312ZM635.06 312L635.06 311.5L608.44 311.5L608.44 312L608.44 312.5L635.06 312.5L635.06 312Z" fill="#D8D7E9"/>
<g filter="url(#filter7_d_1224_7810)">
<rect x="635.06" y="232" width="314.94" height="160" rx="10" fill="white" shape-rendering="crispEdges"/>
<rect x="635.56" y="232.5" width="313.94" height="159" rx="9.5" stroke="#D8D7E9" shape-rendering="crispEdges"/>
<path d="M666.611 263.023V269.84H669.131V271.891H666.611V280.758H664.111V263.023H666.611ZM652.392 275.777C656.601 273.668 658.867 270.836 659.336 266.871H653.408V264.84H661.865C661.846 270.152 659.775 274.752 653.799 277.691L652.392 275.777ZM684.853 263.043V276.148H682.373V271.812H679.092V273.336H670.635V264.195H673.135V266.93H676.631V264.195H679.092V266.012H682.373V263.043H684.853ZM673.017 280.484V274.84H675.537V278.492H685.225V280.484H673.017ZM673.135 271.383H676.631V268.824H673.135V271.383ZM679.092 269.82H682.373V268.023H679.092V269.82ZM697.412 264.02V265.992H693.877C693.887 268.082 695.156 270.24 697.959 271.168L696.728 273.082C694.766 272.467 693.408 271.178 692.637 269.586C691.846 271.354 690.43 272.779 688.33 273.453L687.06 271.48C689.99 270.553 691.318 268.199 691.338 265.992H687.764V264.02H697.412ZM689.932 276.383V274.391H702.139V280.797H699.658V276.383H689.932ZM696.904 269.332V267.301H699.658V263.023H702.139V273.609H699.658V269.332H696.904ZM725.322 276.695V278.727H709.053V276.695H715.908V273.414H710.771V264.156H713.271V266.91H721.025V264.156H723.506V273.414H718.389V276.695H725.322ZM713.271 271.422H721.025V268.902H713.271V271.422ZM732.822 265.816C732.812 267.975 734.072 270.045 736.885 270.914L735.557 272.848C733.672 272.223 732.353 271.012 731.592 269.459C730.82 271.246 729.443 272.652 727.412 273.336L726.064 271.383C729.033 270.396 730.303 268.033 730.322 265.582V263.961H732.822V265.816ZM728.525 277.359C728.516 275.201 730.869 273.922 734.619 273.922C738.301 273.922 740.605 275.201 740.615 277.359C740.605 279.537 738.301 280.807 734.619 280.797C730.869 280.807 728.516 279.537 728.525 277.359ZM731.025 277.359C731.006 278.365 732.285 278.844 734.619 278.844C736.924 278.844 738.154 278.365 738.154 277.359C738.154 276.393 736.924 275.875 734.619 275.875C732.285 275.875 731.006 276.393 731.025 277.359ZM737.939 273.57V263.023H740.439V267.184H742.842V269.254H740.439V273.57H737.939Z" fill="#222222"/>
<path d="M652.99 314L652.976 313.098L656.353 309.543C657.522 308.299 658.083 307.629 658.09 306.713C658.083 305.694 657.235 305.038 656.121 305.031C654.938 305.038 654.2 305.783 654.193 306.891H653.031C653.017 305.141 654.371 303.965 656.162 303.965C657.96 303.965 659.231 305.175 659.238 306.713C659.231 307.82 658.719 308.682 656.969 310.486L654.699 312.824V312.906H659.416V314H652.99ZM664.434 314.137C662.649 314.137 661.296 313.036 661.221 311.512H662.41C662.499 312.394 663.36 313.05 664.434 313.057C665.719 313.05 666.648 312.113 666.648 310.869C666.648 309.584 665.684 308.634 664.351 308.627C663.517 308.613 662.868 308.873 662.506 309.516H661.316L662.014 304.102H667.373V305.195H663.039L662.67 308.094H662.766C663.21 307.752 663.873 307.52 664.57 307.52C666.457 307.52 667.845 308.914 667.851 310.842C667.845 312.756 666.409 314.137 664.434 314.137ZM680.238 309.393V310.268H675.289V312.646H674.223V310.268H669.109V309.393H680.238ZM670.531 314.848V311.525H671.598V313.945H678.994V314.848H670.531ZM670.6 308.203V303.35H671.666V304.908H677.682V303.35H678.748V308.203H670.6ZM671.666 307.328H677.682V305.729H671.666V307.328ZM690.232 310.637C692.837 310.637 694.491 311.457 694.498 312.865C694.491 314.26 692.837 315.08 690.232 315.08C687.628 315.08 685.974 314.26 685.98 312.865C685.974 311.457 687.628 310.637 690.232 310.637ZM684.75 309.502V308.627H689.33V306.275H690.383V308.627H695.81V309.502H684.75ZM686.062 304.457V303.582H694.402V304.607C694.395 305.592 694.395 306.576 694.06 307.834L693.008 307.711C693.336 306.46 693.336 305.558 693.336 304.607V304.457H686.062ZM687.047 312.865C687.04 313.713 688.298 314.232 690.232 314.232C692.174 314.232 693.418 313.713 693.432 312.865C693.418 311.997 692.174 311.464 690.232 311.457C688.298 311.464 687.04 311.997 687.047 312.865ZM707.951 310.172V311.047H702.879V315.107H701.826V311.047H696.822V310.172H707.951ZM698.244 308.695V303.459H699.31V305.141H705.435V303.459H706.516V308.695H698.244ZM699.31 307.82H705.435V306.016H699.31V307.82ZM715.785 313.33V310.678H713.146V309.57H715.785V306.932H716.892V309.57H719.545V310.678H716.892V313.33H715.785ZM728.404 314.137C726.62 314.137 725.267 313.036 725.191 311.512H726.381C726.47 312.394 727.331 313.05 728.404 313.057C729.689 313.05 730.619 312.113 730.619 310.869C730.619 309.584 729.655 308.634 728.322 308.627C727.488 308.613 726.839 308.873 726.476 309.516H725.287L725.984 304.102H731.344V305.195H727.01L726.641 308.094H726.736C727.181 307.752 727.844 307.52 728.541 307.52C730.428 307.52 731.815 308.914 731.822 310.842C731.815 312.756 730.38 314.137 728.404 314.137ZM744.209 309.393V310.268H739.26V312.646H738.193V310.268H733.08V309.393H744.209ZM734.502 314.848V311.525H735.568V313.945H742.965V314.848H734.502ZM734.57 308.203V303.35H735.637V304.908H741.652V303.35H742.719V308.203H734.57ZM735.637 307.328H741.652V305.729H735.637V307.328ZM759.139 304.307V305.182H749.281V304.307H753.711V302.885H754.764V304.307H759.139ZM748.707 311.607V310.719H759.836V311.607H756.896V315.135H755.83V311.607H752.685V315.135H751.605V311.607H748.707ZM750.279 307.889C750.266 306.597 751.756 305.879 754.244 305.879C756.712 305.879 758.202 306.597 758.209 307.889C758.202 309.174 756.712 309.898 754.244 309.898C751.756 309.898 750.266 309.174 750.279 307.889ZM751.387 307.889C751.373 308.634 752.433 309.071 754.244 309.064C756.035 309.071 757.088 308.634 757.101 307.889C757.088 307.137 756.035 306.713 754.244 306.699C752.433 306.713 751.373 307.137 751.387 307.889ZM765.113 304.717C765.1 306.487 766.385 308.066 768.189 308.695L767.642 309.543C766.234 309.023 765.12 307.978 764.573 306.631C764.04 308.073 762.919 309.208 761.49 309.762L760.93 308.914C762.748 308.237 764.019 306.556 764.019 304.717V303.555H765.113V304.717ZM762.666 311.771V310.883H770.842V315.107H769.775V311.771H762.666ZM769.775 310.281V302.953H770.842V310.281H769.775ZM783.119 314.014L782.353 313.275L785.416 310.213H777.527V309.133H785.416L782.353 306.07L783.119 305.318L787.467 309.666L783.119 314.014ZM802.383 303.473V307.574H798.787V309.133H803.791V310.008H792.717V309.133H797.721V307.574H794.152V303.473H802.383ZM793.947 312.141V311.279H802.424V315.107H801.344V312.141H793.947ZM795.205 306.713H801.316V304.334H795.205V306.713ZM815.945 312.729V313.617H804.816V312.729H807.92V309.83H805.828V308.941H807.728V304.977H805.801V304.088H814.879V304.977H812.951V308.941H814.851V309.83H812.76V312.729H815.945ZM808.795 308.941H811.898V304.977H808.795V308.941ZM809 312.729H811.693V309.83H809V312.729ZM826.391 303.664V304.539H822.043V307.738C824.429 307.752 825.864 307.663 827.525 307.328L827.662 308.189C825.919 308.559 824.435 308.627 821.934 308.613H820.99V303.664H826.391ZM822.18 310.568V309.693H829.932V312.688H823.26V314.068H830.383V314.943H822.207V311.84H828.865V310.568H822.18ZM828.865 309.092V302.953H829.932V305.537H831.764V306.426H829.932V309.092H828.865ZM836.713 304.867C836.699 306.604 837.936 308.128 839.721 308.736L839.119 309.57C837.779 309.071 836.726 308.08 836.2 306.802C835.681 308.258 834.573 309.386 833.103 309.939L832.516 309.064C834.389 308.408 835.633 306.795 835.646 304.908V303.65H836.713V304.867ZM834.498 312.811C834.491 311.348 836.043 310.507 838.572 310.514C841.095 310.507 842.646 311.348 842.646 312.811C842.646 314.26 841.095 315.08 838.572 315.08C836.043 315.08 834.491 314.26 834.498 312.811ZM835.564 312.811C835.558 313.692 836.706 314.226 838.572 314.219C840.432 314.226 841.58 313.692 841.58 312.811C841.58 311.901 840.432 311.361 838.572 311.361C836.706 311.361 835.558 311.901 835.564 312.811ZM838.818 306.453V305.564H841.525V302.953H842.605V310.158H841.525V306.453H838.818ZM662.396 329.463V330.352H653.92V325.02H655V329.463H662.396ZM652.553 334.426V333.523H663.682V334.426H652.553ZM675.726 330.283V331.172H664.652V330.283H675.726ZM665.336 328.369C667.469 328.021 669.642 326.571 669.642 324.91V324.281H670.75V324.91C670.743 326.537 672.937 328.021 675.043 328.369L674.605 329.217C672.78 328.882 670.962 327.829 670.196 326.387C669.431 327.836 667.605 328.875 665.773 329.217L665.336 328.369ZM666.088 335.848V332.348H667.168V334.945H674.496V335.848H666.088ZM686.254 323.967V327.973H688.086V328.875H686.254V333.072H685.187V323.967H686.254ZM676.779 326.332V325.457H679.869V323.967H680.935V325.457H684.025V326.332H676.779ZM677.476 329.271C677.47 327.891 678.645 327.002 680.402 327.002C682.139 327.002 683.314 327.891 683.328 329.271C683.314 330.639 682.139 331.521 680.402 331.514C678.645 331.521 677.47 330.639 677.476 329.271ZM678.502 329.271C678.495 330.126 679.254 330.68 680.402 330.666C681.537 330.68 682.303 330.126 682.316 329.271C682.303 328.403 681.537 327.843 680.402 327.85C679.254 327.843 678.495 328.403 678.502 329.271ZM678.652 335.848V332.348H679.705V334.945H686.814V335.848H678.652ZM702.441 323.967V332.949H701.361V329.668H698.217C697.656 330.386 696.754 330.816 695.715 330.816C693.896 330.816 692.55 329.559 692.557 327.781C692.55 325.997 693.896 324.739 695.715 324.732C696.747 324.739 697.636 325.163 698.203 325.867H701.361V323.967H702.441ZM693.582 327.781C693.582 328.998 694.471 329.866 695.715 329.859C696.911 329.866 697.82 328.998 697.82 327.781C697.82 326.571 696.911 325.696 695.715 325.689C694.471 325.696 693.582 326.571 693.582 327.781ZM694.635 335.848V332.006H695.715V334.945H702.783V335.848H694.635ZM698.688 326.756C698.798 327.07 698.859 327.412 698.859 327.781C698.859 328.137 698.798 328.472 698.695 328.779H701.361V326.756H698.688ZM714.855 323.953V336.107H713.83V329.736H712.039V335.479H711.055V324.227H712.039V328.848H713.83V323.953H714.855ZM704.916 333.1V325.443H709.469V326.332H705.982V332.184C707.657 332.177 708.812 332.115 710.166 331.842L710.262 332.744C708.799 333.045 707.561 333.093 705.695 333.1H704.916ZM720.543 324.842C722.45 324.849 723.804 326.011 723.81 327.699C723.804 329.395 722.45 330.55 720.543 330.557C718.622 330.55 717.255 329.395 717.262 327.699C717.255 326.011 718.622 324.849 720.543 324.842ZM716.633 332.539C718.875 332.546 721.972 332.525 724.658 332.129L724.74 332.922C721.958 333.441 718.971 333.455 716.783 333.455L716.633 332.539ZM718.314 327.699C718.308 328.834 719.244 329.613 720.543 329.613C721.828 329.613 722.765 328.834 722.758 327.699C722.765 326.571 721.828 325.785 720.543 325.785C719.244 325.785 718.308 326.571 718.314 327.699ZM725.465 336.135V323.953H726.531V336.135H725.465ZM741.68 323.953V327.658H743.512V328.561H741.68V332.922H740.613V323.953H741.68ZM732.41 327.809C732.403 326.045 733.784 324.821 735.596 324.814C737.421 324.821 738.781 326.045 738.795 327.809C738.781 329.565 737.421 330.803 735.596 330.803C733.784 330.803 732.403 329.565 732.41 327.809ZM733.463 327.809C733.456 329.005 734.392 329.859 735.596 329.859C736.819 329.859 737.735 329.005 737.742 327.809C737.735 326.605 736.819 325.758 735.596 325.758C734.392 325.758 733.456 326.605 733.463 327.809ZM734.078 335.848V331.992H735.131V334.945H742.24V335.848H734.078ZM754.353 323.953V331.199H753.273V328.014H750.826V327.125H753.273V323.953H754.353ZM744.332 330.229C746.137 329.579 747.422 327.932 747.422 326.195V325.744H744.674V324.842H751.223V325.744H748.502V326.182C748.502 327.768 749.719 329.278 751.496 329.887L750.935 330.748C749.575 330.256 748.516 329.23 747.989 327.979C747.47 329.401 746.342 330.536 744.892 331.09L744.332 330.229ZM746.246 333.838C746.239 332.409 747.791 331.575 750.32 331.582C752.843 331.575 754.394 332.409 754.394 333.838C754.394 335.273 752.843 336.094 750.32 336.107C747.791 336.094 746.239 335.273 746.246 333.838ZM747.312 333.838C747.306 334.72 748.454 335.253 750.32 335.246C752.18 335.253 753.328 334.72 753.328 333.838C753.328 332.949 752.18 332.416 750.32 332.416C748.454 332.416 747.306 332.949 747.312 333.838ZM765.879 323.953V326.934H767.711V327.822H765.879V330.857H764.812V323.953H765.879ZM756.363 330.119C759.35 329.312 761.176 327.692 761.401 325.635H756.91V324.746H762.557C762.543 327.809 760.403 330.003 756.801 330.98L756.363 330.119ZM758.182 335.943V331.418H765.879V335.943H758.182ZM759.248 335.068H764.812V332.307H759.248V335.068ZM782.381 323.953V336.107H781.355V323.953H782.381ZM771.84 332.867C773.535 331.855 774.526 329.634 774.519 327.426V326.277H772.182V325.389H777.787V326.277H775.559V327.426C775.559 329.524 776.509 331.623 778.184 332.594L777.527 333.387C776.331 332.669 775.483 331.356 775.059 329.812C774.622 331.486 773.74 332.915 772.523 333.674L771.84 332.867ZM776.857 329.217V328.342H778.908V324.254H779.92V335.479H778.908V329.217H776.857ZM789.586 331.637C792.19 331.637 793.845 332.457 793.851 333.865C793.845 335.26 792.19 336.08 789.586 336.08C786.981 336.08 785.327 335.26 785.334 333.865C785.327 332.457 786.981 331.637 789.586 331.637ZM784.103 330.502V329.627H788.684V327.275H789.736V329.627H795.164V330.502H784.103ZM785.416 325.457V324.582H793.756V325.607C793.749 326.592 793.749 327.576 793.414 328.834L792.361 328.711C792.689 327.46 792.689 326.558 792.689 325.607V325.457H785.416ZM786.4 333.865C786.393 334.713 787.651 335.232 789.586 335.232C791.527 335.232 792.771 334.713 792.785 333.865C792.771 332.997 791.527 332.464 789.586 332.457C787.651 332.464 786.393 332.997 786.4 333.865Z" fill="#7D7D85"/>
</g>
<defs>
<filter id="filter0_d_1224_7810" x="38" y="37" width="213" height="51" filterUnits="userSpaceOnUse" color-interpolation-filters="sRGB">
<feFlood flood-opacity="0" result="BackgroundImageFix"/>
<feColorMatrix in="SourceAlpha" type="matrix" values="0 0 0 0 0 0 0 0 0 0 0 0 0 0 0 0 0 0 127 0" result="hardAlpha"/>
<feOffset dy="1"/>
<feGaussianBlur stdDeviation="1"/>
<feComposite in2="hardAlpha" operator="out"/>
<feColorMatrix type="matrix" values="0 0 0 0 0 0 0 0 0 0 0 0 0 0 0 0 0 0 0.05 0"/>
<feBlend mode="normal" in2="BackgroundImageFix" result="effect1_dropShadow_1224_7810"/>
<feBlend mode="normal" in="SourceGraphic" in2="effect1_dropShadow_1224_7810" result="shape"/>
</filter>
<filter id="filter1_d_1224_7810" x="38" y="102.75" width="213" height="51" filterUnits="userSpaceOnUse" color-interpolation-filters="sRGB">
<feFlood flood-opacity="0" result="BackgroundImageFix"/>
<feColorMatrix in="SourceAlpha" type="matrix" values="0 0 0 0 0 0 0 0 0 0 0 0 0 0 0 0 0 0 127 0" result="hardAlpha"/>
<feOffset dy="1"/>
<feGaussianBlur stdDeviation="1"/>
<feComposite in2="hardAlpha" operator="out"/>
<feColorMatrix type="matrix" values="0 0 0 0 0 0 0 0 0 0 0 0 0 0 0 0 0 0 0.05 0"/>
<feBlend mode="normal" in2="BackgroundImageFix" result="effect1_dropShadow_1224_7810"/>
<feBlend mode="normal" in="SourceGraphic" in2="effect1_dropShadow_1224_7810" result="shape"/>
</filter>
<filter id="filter2_d_1224_7810" x="38" y="168.5" width="213" height="51" filterUnits="userSpaceOnUse" color-interpolation-filters="sRGB">
<feFlood flood-opacity="0" result="BackgroundImageFix"/>
<feColorMatrix in="SourceAlpha" type="matrix" values="0 0 0 0 0 0 0 0 0 0 0 0 0 0 0 0 0 0 127 0" result="hardAlpha"/>
<feOffset dy="1"/>
<feGaussianBlur stdDeviation="1"/>
<feComposite in2="hardAlpha" operator="out"/>
<feColorMatrix type="matrix" values="0 0 0 0 0 0 0 0 0 0 0 0 0 0 0 0 0 0 0.05 0"/>
<feBlend mode="normal" in2="BackgroundImageFix" result="effect1_dropShadow_1224_7810"/>
<feBlend mode="normal" in="SourceGraphic" in2="effect1_dropShadow_1224_7810" result="shape"/>
</filter>
<filter id="filter3_d_1224_7810" x="38" y="234.25" width="213" height="51" filterUnits="userSpaceOnUse" color-interpolation-filters="sRGB">
<feFlood flood-opacity="0" result="BackgroundImageFix"/>
<feColorMatrix in="SourceAlpha" type="matrix" values="0 0 0 0 0 0 0 0 0 0 0 0 0 0 0 0 0 0 127 0" result="hardAlpha"/>
<feOffset dy="1"/>
<feGaussianBlur stdDeviation="1"/>
<feComposite in2="hardAlpha" operator="out"/>
<feColorMatrix type="matrix" values="0 0 0 0 0 0 0 0 0 0 0 0 0 0 0 0 0 0 0.05 0"/>
<feBlend mode="normal" in2="BackgroundImageFix" result="effect1_dropShadow_1224_7810"/>
<feBlend mode="normal" in="SourceGraphic" in2="effect1_dropShadow_1224_7810" result="shape"/>
</filter>
<filter id="filter4_d_1224_7810" x="38" y="300" width="213" height="97" filterUnits="userSpaceOnUse" color-interpolation-filters="sRGB">
<feFlood flood-opacity="0" result="BackgroundImageFix"/>
<feColorMatrix in="SourceAlpha" type="matrix" values="0 0 0 0 0 0 0 0 0 0 0 0 0 0 0 0 0 0 127 0" result="hardAlpha"/>
<feOffset dy="1"/>
<feGaussianBlur stdDeviation="1"/>
<feComposite in2="hardAlpha" operator="out"/>
<feColorMatrix type="matrix" values="0 0 0 0 0 0 0 0 0 0 0 0 0 0 0 0 0 0 0.05 0"/>
<feBlend mode="normal" in2="BackgroundImageFix" result="effect1_dropShadow_1224_7810"/>
<feBlend mode="normal" in="SourceGraphic" in2="effect1_dropShadow_1224_7810" result="shape"/>
</filter>
<filter id="filter5_d_1224_7810" x="287.444" y="39.222" width="318.441" height="163.112" filterUnits="userSpaceOnUse" color-interpolation-filters="sRGB">
<feFlood flood-opacity="0" result="BackgroundImageFix"/>
<feColorMatrix in="SourceAlpha" type="matrix" values="0 0 0 0 0 0 0 0 0 0 0 0 0 0 0 0 0 0 127 0" result="hardAlpha"/>
<feOffset dy="0.778022"/>
<feGaussianBlur stdDeviation="0.778022"/>
<feComposite in2="hardAlpha" operator="out"/>
<feColorMatrix type="matrix" values="0 0 0 0 0 0 0 0 0 0 0 0 0 0 0 0 0 0 0.05 0"/>
<feBlend mode="normal" in2="BackgroundImageFix" result="effect1_dropShadow_1224_7810"/>
<feBlend mode="normal" in="SourceGraphic" in2="effect1_dropShadow_1224_7810" result="shape"/>
</filter>
<filter id="filter6_d_1224_7810" x="287.444" y="231.222" width="318.052" height="163.112" filterUnits="userSpaceOnUse" color-interpolation-filters="sRGB">
<feFlood flood-opacity="0" result="BackgroundImageFix"/>
<feColorMatrix in="SourceAlpha" type="matrix" values="0 0 0 0 0 0 0 0 0 0 0 0 0 0 0 0 0 0 127 0" result="hardAlpha"/>
<feOffset dy="0.778022"/>
<feGaussianBlur stdDeviation="0.778022"/>
<feComposite in2="hardAlpha" operator="out"/>
<feColorMatrix type="matrix" values="0 0 0 0 0 0 0 0 0 0 0 0 0 0 0 0 0 0 0.05 0"/>
<feBlend mode="normal" in2="BackgroundImageFix" result="effect1_dropShadow_1224_7810"/>
<feBlend mode="normal" in="SourceGraphic" in2="effect1_dropShadow_1224_7810" result="shape"/>
</filter>
<filter id="filter7_d_1224_7810" x="633.504" y="231.222" width="318.052" height="163.112" filterUnits="userSpaceOnUse" color-interpolation-filters="sRGB">
<feFlood flood-opacity="0" result="BackgroundImageFix"/>
<feColorMatrix in="SourceAlpha" type="matrix" values="0 0 0 0 0 0 0 0 0 0 0 0 0 0 0 0 0 0 127 0" result="hardAlpha"/>
<feOffset dy="0.778022"/>
<feGaussianBlur stdDeviation="0.778022"/>
<feComposite in2="hardAlpha" operator="out"/>
<feColorMatrix type="matrix" values="0 0 0 0 0 0 0 0 0 0 0 0 0 0 0 0 0 0 0.05 0"/>
<feBlend mode="normal" in2="BackgroundImageFix" result="effect1_dropShadow_1224_7810"/>
<feBlend mode="normal" in="SourceGraphic" in2="effect1_dropShadow_1224_7810" result="shape"/>
</filter>
</defs>
</svg>
