<svg width="860" height="328" viewBox="0 0 860 328" fill="none" xmlns="http://www.w3.org/2000/svg">
<path d="M395.88 106.053C395.997 97.0348 399.63 88.4191 406.004 82.0417C412.377 75.6642 420.987 72.0293 430 71.9114C439.013 72.0293 447.623 75.6642 453.996 82.0417C460.37 88.4191 464.003 97.0348 464.12 106.053C464.003 115.071 460.37 123.687 453.996 130.064C447.623 136.442 439.013 140.077 430 140.195C420.987 140.077 412.377 136.442 406.004 130.064C399.63 123.687 395.997 115.071 395.88 106.053ZM430 208.478L475.494 219.858V184.806C461.774 193.074 446.014 197.332 430 197.097C413.986 197.332 398.226 193.074 384.506 184.806V219.858M430 37.7698C421.037 37.6062 412.136 39.2785 403.843 42.6838C395.55 46.0892 388.041 51.1557 381.777 57.572C375.295 63.8468 370.173 71.3891 366.729 79.7295C363.286 88.07 361.594 97.0303 361.759 106.053C361.641 115.019 363.355 123.914 366.798 132.192C370.24 140.471 375.337 147.957 381.777 154.193C388.011 160.671 395.508 165.8 403.802 169.265C412.096 172.73 421.013 174.456 430 174.336C438.987 174.456 447.904 172.73 456.198 169.265C464.492 165.8 471.989 160.671 478.223 154.193C484.663 147.957 489.76 140.471 493.202 132.192C496.645 123.914 498.359 115.019 498.241 106.053C498.406 97.0303 496.714 88.07 493.271 79.7295C489.827 71.3891 484.705 63.8468 478.223 57.572C471.959 51.1557 464.45 46.0892 456.157 42.6838C447.864 39.2785 438.963 37.6062 430 37.7698ZM520.988 106.053C520.746 116.977 518.55 127.769 514.505 137.919C510.861 148.246 505.347 157.813 498.241 166.142V254L430 231.239L361.759 254V166.142C347.038 149.6 338.938 128.203 339.012 106.053C338.812 94.1101 341.06 82.2528 345.618 71.2132C350.176 60.1736 356.947 50.1859 365.512 41.8668C373.857 33.2187 383.885 26.3737 394.976 21.7543C406.068 17.1349 417.987 14.8392 430 15.0088C442.013 14.8392 453.932 17.1349 465.024 21.7543C476.115 26.3737 486.143 33.2187 494.488 41.8668C503.053 50.1859 509.824 60.1736 514.382 71.2132C518.94 82.2528 521.188 94.1101 520.988 106.053Z" fill="#37A3E2"/>
</svg>
