<svg width="860" height="328" viewBox="0 0 860 328" fill="none" xmlns="http://www.w3.org/2000/svg">
<path d="M31.5558 295.898H33.9563V298.316H31.5558V295.898ZM25.1907 294.479H40.3395V296.243H25.1907V294.479ZM31.5376 287.314H33.9563V289.333H31.5376V287.314ZM31.3921 289.442H33.5198V289.787C33.5198 290.393 33.3683 290.945 33.0652 291.442C32.7621 291.927 32.3135 292.357 31.7194 292.733C31.1254 293.097 30.3858 293.394 29.5007 293.624C28.6157 293.843 27.5912 293.982 26.4273 294.043L25.7544 292.26C26.785 292.212 27.6579 292.115 28.3732 291.97C29.0885 291.812 29.6644 291.624 30.1009 291.406C30.5495 291.175 30.8768 290.921 31.0829 290.642C31.289 290.363 31.3921 290.078 31.3921 289.787V289.442ZM31.974 289.442H34.1018V289.787C34.1018 290.078 34.1988 290.363 34.3928 290.642C34.5989 290.921 34.9262 291.175 35.3748 291.406C35.8234 291.624 36.4053 291.812 37.1206 291.97C37.8481 292.115 38.721 292.212 39.7394 292.26L39.0665 294.043C37.9026 293.982 36.8782 293.843 35.9931 293.624C35.1081 293.394 34.3685 293.097 33.7744 292.733C33.1804 292.357 32.7318 291.927 32.4287 291.442C32.1256 290.945 31.974 290.393 31.974 289.787V289.442ZM26.591 288.623H38.9029V290.387H26.591V288.623ZM26.882 297.262H38.521V301.426H29.3007V303.027H26.9002V299.808H36.1386V298.989H26.882V297.262ZM26.9002 302.299H38.9756V304.063H26.9002V302.299ZM45.9757 288.623H47.958V291.06C47.958 292.151 47.861 293.2 47.667 294.206C47.4731 295.201 47.176 296.134 46.7759 297.007C46.388 297.868 45.8848 298.632 45.2665 299.298C44.6603 299.953 43.9389 300.474 43.1024 300.862L41.6657 298.862C42.4052 298.535 43.0418 298.104 43.5752 297.571C44.1208 297.025 44.5694 296.407 44.921 295.716C45.2726 295.013 45.5332 294.267 45.703 293.479C45.8848 292.691 45.9757 291.885 45.9757 291.06V288.623ZM46.4486 288.623H48.4127V291.06C48.4127 291.848 48.4975 292.618 48.6673 293.37C48.837 294.122 49.0916 294.831 49.4311 295.498C49.7827 296.164 50.2191 296.758 50.7405 297.28C51.2739 297.789 51.8983 298.195 52.6136 298.498L51.2133 300.462C50.401 300.086 49.6917 299.583 49.0855 298.953C48.4915 298.322 48.0004 297.595 47.6125 296.771C47.2245 295.934 46.9335 295.037 46.7396 294.079C46.5456 293.109 46.4486 292.103 46.4486 291.06V288.623ZM53.432 287.296H55.8507V304.19H53.432V287.296Z" fill="#9CA3AF"/>
<path d="M380.707 302.554L377.579 292.37H377.506C377.518 292.612 377.536 292.976 377.56 293.461C377.585 293.946 377.609 294.467 377.633 295.025C377.657 295.57 377.669 296.067 377.669 296.516V302.554H375.214V289.569H378.961L382.034 299.498H382.089L385.344 289.569H389.09V302.554H386.526V296.407C386.526 295.995 386.532 295.522 386.544 294.988C386.568 294.455 386.587 293.952 386.599 293.479C386.623 292.994 386.641 292.63 386.653 292.388H386.581L383.234 302.554H380.707ZM401.172 297.571C401.172 299.22 400.736 300.493 399.863 301.39C399.002 302.287 397.826 302.736 396.335 302.736C395.413 302.736 394.589 302.536 393.861 302.135C393.146 301.735 392.582 301.153 392.17 300.39C391.758 299.614 391.552 298.674 391.552 297.571C391.552 295.922 391.982 294.655 392.843 293.77C393.704 292.885 394.886 292.442 396.389 292.442C397.323 292.442 398.147 292.642 398.863 293.042C399.578 293.443 400.142 294.025 400.554 294.788C400.966 295.54 401.172 296.467 401.172 297.571ZM394.316 297.571C394.316 298.553 394.474 299.298 394.789 299.808C395.116 300.305 395.644 300.553 396.371 300.553C397.086 300.553 397.602 300.305 397.917 299.808C398.244 299.298 398.408 298.553 398.408 297.571C398.408 296.589 398.244 295.855 397.917 295.37C397.602 294.873 397.08 294.625 396.353 294.625C395.638 294.625 395.116 294.873 394.789 295.37C394.474 295.855 394.316 296.589 394.316 297.571ZM409.049 292.442C410.116 292.442 410.971 292.733 411.613 293.315C412.256 293.885 412.577 294.807 412.577 296.08V302.554H409.868V296.752C409.868 296.037 409.74 295.504 409.486 295.152C409.231 294.788 408.825 294.606 408.267 294.606C407.443 294.606 406.879 294.891 406.576 295.461C406.273 296.019 406.121 296.825 406.121 297.88V302.554H403.412V292.624H405.485L405.849 293.897H405.994C406.309 293.388 406.74 293.018 407.285 292.788C407.843 292.558 408.431 292.442 409.049 292.442ZM419.547 300.571C419.85 300.571 420.141 300.541 420.42 300.481C420.698 300.42 420.977 300.347 421.256 300.262V302.281C420.965 302.402 420.601 302.505 420.165 302.59C419.741 302.687 419.274 302.736 418.765 302.736C418.171 302.736 417.637 302.639 417.164 302.445C416.704 302.251 416.334 301.917 416.055 301.444C415.788 300.959 415.655 300.293 415.655 299.444V294.661H414.364V293.515L415.855 292.606L416.637 290.515H418.365V292.624H421.147V294.661H418.365V299.444C418.365 299.82 418.474 300.105 418.692 300.299C418.91 300.481 419.195 300.571 419.547 300.571ZM425.959 291.551C425.959 292.036 425.941 292.503 425.904 292.952C425.88 293.4 425.856 293.715 425.832 293.897H425.977C426.292 293.388 426.698 293.018 427.195 292.788C427.693 292.558 428.244 292.442 428.85 292.442C429.929 292.442 430.79 292.733 431.433 293.315C432.088 293.885 432.415 294.807 432.415 296.08V302.554H429.705V296.752C429.705 295.322 429.172 294.606 428.105 294.606C427.292 294.606 426.729 294.891 426.414 295.461C426.11 296.019 425.959 296.825 425.959 297.88V302.554H423.249V288.732H425.959V291.551ZM446.018 302.554H443.272V295.043C443.272 294.728 443.278 294.315 443.29 293.806C443.314 293.297 443.332 292.849 443.344 292.461C443.284 292.533 443.15 292.667 442.944 292.861C442.75 293.042 442.568 293.206 442.399 293.352L440.908 294.552L439.58 292.897L443.763 289.569H446.018V302.554Z" fill="#9CA3AF"/>
<path d="M757.155 302.554L754.027 292.37H753.954C753.966 292.612 753.984 292.976 754.009 293.461C754.033 293.946 754.057 294.467 754.081 295.025C754.106 295.57 754.118 296.067 754.118 296.516V302.554H751.663V289.569H755.409L758.482 299.498H758.537L761.792 289.569H765.538V302.554H762.974V296.407C762.974 295.995 762.98 295.522 762.992 294.988C763.017 294.455 763.035 293.952 763.047 293.479C763.071 292.994 763.089 292.63 763.102 292.388H763.029L759.683 302.554H757.155ZM777.62 297.571C777.62 299.22 777.184 300.493 776.311 301.39C775.45 302.287 774.274 302.736 772.783 302.736C771.862 302.736 771.037 302.536 770.31 302.135C769.594 301.735 769.031 301.153 768.618 300.39C768.206 299.614 768 298.674 768 297.571C768 295.922 768.43 294.655 769.291 293.77C770.152 292.885 771.334 292.442 772.838 292.442C773.771 292.442 774.596 292.642 775.311 293.042C776.026 293.443 776.59 294.025 777.002 294.788C777.414 295.54 777.62 296.467 777.62 297.571ZM770.764 297.571C770.764 298.553 770.922 299.298 771.237 299.808C771.565 300.305 772.092 300.553 772.819 300.553C773.535 300.553 774.05 300.305 774.365 299.808C774.692 299.298 774.856 298.553 774.856 297.571C774.856 296.589 774.692 295.855 774.365 295.37C774.05 294.873 773.529 294.625 772.801 294.625C772.086 294.625 771.565 294.873 771.237 295.37C770.922 295.855 770.764 296.589 770.764 297.571ZM785.497 292.442C786.564 292.442 787.419 292.733 788.062 293.315C788.704 293.885 789.026 294.807 789.026 296.08V302.554H786.316V296.752C786.316 296.037 786.189 295.504 785.934 295.152C785.679 294.788 785.273 294.606 784.715 294.606C783.891 294.606 783.327 294.891 783.024 295.461C782.721 296.019 782.57 296.825 782.57 297.88V302.554H779.86V292.624H781.933L782.297 293.897H782.442C782.757 293.388 783.188 293.018 783.733 292.788C784.291 292.558 784.879 292.442 785.497 292.442ZM795.995 300.571C796.298 300.571 796.589 300.541 796.868 300.481C797.147 300.42 797.425 300.347 797.704 300.262V302.281C797.413 302.402 797.05 302.505 796.613 302.59C796.189 302.687 795.722 302.736 795.213 302.736C794.619 302.736 794.085 302.639 793.613 302.445C793.152 302.251 792.782 301.917 792.503 301.444C792.236 300.959 792.103 300.293 792.103 299.444V294.661H790.812V293.515L792.303 292.606L793.085 290.515H794.813V292.624H797.595V294.661H794.813V299.444C794.813 299.82 794.922 300.105 795.14 300.299C795.358 300.481 795.643 300.571 795.995 300.571ZM802.407 291.551C802.407 292.036 802.389 292.503 802.353 292.952C802.328 293.4 802.304 293.715 802.28 293.897H802.425C802.741 293.388 803.147 293.018 803.644 292.788C804.141 292.558 804.692 292.442 805.299 292.442C806.378 292.442 807.238 292.733 807.881 293.315C808.536 293.885 808.863 294.807 808.863 296.08V302.554H806.153V296.752C806.153 295.322 805.62 294.606 804.553 294.606C803.741 294.606 803.177 294.891 802.862 295.461C802.559 296.019 802.407 296.825 802.407 297.88V302.554H799.697V288.732H802.407V291.551ZM824.248 292.479C824.248 293.376 823.975 294.091 823.43 294.625C822.896 295.158 822.236 295.522 821.448 295.716V295.77C822.49 295.892 823.278 296.207 823.812 296.716C824.357 297.225 824.63 297.91 824.63 298.771C824.63 299.523 824.442 300.202 824.066 300.808C823.703 301.402 823.133 301.875 822.357 302.226C821.593 302.566 820.605 302.736 819.393 302.736C817.986 302.736 816.737 302.499 815.646 302.026V299.699C816.204 299.977 816.786 300.19 817.392 300.335C818.01 300.481 818.58 300.553 819.102 300.553C820.084 300.553 820.769 300.384 821.157 300.044C821.557 299.705 821.757 299.226 821.757 298.607C821.757 298.244 821.666 297.941 821.484 297.698C821.302 297.443 820.981 297.256 820.52 297.134C820.072 297.001 819.441 296.934 818.629 296.934H817.647V294.825H818.647C819.447 294.825 820.053 294.752 820.466 294.606C820.89 294.449 821.175 294.243 821.32 293.988C821.478 293.721 821.557 293.418 821.557 293.079C821.557 292.618 821.411 292.26 821.12 292.006C820.841 291.739 820.369 291.606 819.702 291.606C819.083 291.606 818.544 291.715 818.083 291.933C817.635 292.139 817.253 292.345 816.937 292.551L815.664 290.66C816.174 290.296 816.768 289.993 817.447 289.751C818.138 289.508 818.956 289.387 819.902 289.387C821.235 289.387 822.29 289.66 823.066 290.205C823.854 290.739 824.248 291.497 824.248 292.479Z" fill="#9CA3AF"/>
<path d="M431.413 151.099L24.3589 252.115H825.915V26.771L431.413 151.099Z" fill="#37A3E2" fill-opacity="0.1"/>
<path d="M603.938 155.184H614.25V161.022H603.938V171.279H598.101V161.022H587.789V155.184H598.101V144.818H603.938V155.184ZM645.526 177.334H618.302V171.606L628.067 161.731C630.031 159.694 631.614 158.003 632.814 156.657C634.014 155.275 634.887 154.038 635.433 152.947C635.978 151.82 636.251 150.619 636.251 149.346C636.251 147.782 635.815 146.618 634.942 145.855C634.105 145.091 632.959 144.709 631.505 144.709C630.013 144.709 628.558 145.054 627.14 145.746C625.721 146.437 624.23 147.419 622.666 148.692L618.192 143.4C619.32 142.418 620.502 141.508 621.739 140.672C623.012 139.835 624.467 139.162 626.103 138.653C627.776 138.107 629.777 137.835 632.105 137.835C634.651 137.835 636.833 138.308 638.652 139.253C640.507 140.162 641.925 141.417 642.907 143.018C643.926 144.582 644.435 146.364 644.435 148.364C644.435 150.51 643.998 152.474 643.125 154.257C642.289 156.039 641.052 157.803 639.415 159.549C637.815 161.295 635.869 163.222 633.578 165.332L628.558 170.024V170.406H645.526V177.334ZM648.705 160.803C648.705 158.548 648.868 156.33 649.196 154.147C649.523 151.965 650.087 149.91 650.887 147.982C651.724 146.018 652.869 144.291 654.324 142.799C655.815 141.272 657.689 140.09 659.944 139.253C662.235 138.38 664.999 137.944 668.236 137.944C669 137.944 669.891 137.98 670.91 138.053C671.928 138.089 672.783 138.18 673.474 138.326V144.927C672.783 144.745 672.019 144.618 671.182 144.545C670.382 144.436 669.582 144.382 668.782 144.382C665.545 144.382 663.035 144.891 661.253 145.909C659.507 146.928 658.271 148.364 657.543 150.219C656.816 152.038 656.397 154.147 656.288 156.548H656.616C657.343 155.275 658.38 154.202 659.725 153.329C661.108 152.456 662.89 152.02 665.072 152.02C668.491 152.02 671.201 153.093 673.201 155.239C675.202 157.385 676.202 160.422 676.202 164.35C676.202 168.569 675.002 171.879 672.601 174.279C670.237 176.68 667.018 177.88 662.944 177.88C660.289 177.88 657.889 177.28 655.743 176.08C653.597 174.843 651.887 172.97 650.614 170.46C649.341 167.914 648.705 164.695 648.705 160.803ZM662.781 171.279C664.381 171.279 665.69 170.733 666.709 169.642C667.727 168.514 668.236 166.787 668.236 164.459C668.236 162.568 667.8 161.076 666.927 159.985C666.054 158.894 664.726 158.348 662.944 158.348C661.744 158.348 660.689 158.621 659.78 159.167C658.871 159.676 658.161 160.349 657.652 161.185C657.143 162.022 656.888 162.877 656.888 163.75C656.888 164.95 657.107 166.132 657.543 167.296C657.98 168.423 658.634 169.369 659.507 170.133C660.416 170.897 661.508 171.279 662.781 171.279ZM680.581 173.515C680.581 171.842 681.036 170.678 681.945 170.024C682.854 169.333 683.963 168.987 685.273 168.987C686.546 168.987 687.637 169.333 688.546 170.024C689.456 170.678 689.91 171.842 689.91 173.515C689.91 175.116 689.456 176.28 688.546 177.007C687.637 177.698 686.546 178.044 685.273 178.044C683.963 178.044 682.854 177.698 681.945 177.007C681.036 176.28 680.581 175.116 680.581 173.515ZM722.763 169.26H718.071V177.334H710.051V169.26H693.41V163.531L710.487 138.38H718.071V162.877H722.763V169.26ZM710.051 156.275C710.051 155.439 710.069 154.42 710.105 153.22C710.142 152.02 710.178 150.91 710.214 149.892C710.287 148.837 710.342 148.146 710.378 147.819H710.16C709.832 148.546 709.487 149.255 709.123 149.947C708.759 150.638 708.323 151.347 707.814 152.074L700.667 162.877H710.051V156.275ZM751.038 147.11C751.038 149.801 750.22 151.947 748.583 153.547C746.982 155.148 745 156.239 742.636 156.821V156.984C745.764 157.348 748.128 158.294 749.729 159.821C751.365 161.349 752.184 163.404 752.184 165.986C752.184 168.242 751.62 170.278 750.492 172.097C749.401 173.879 747.692 175.298 745.364 176.352C743.072 177.371 740.108 177.88 736.471 177.88C732.252 177.88 728.506 177.171 725.232 175.752V168.769C726.905 169.605 728.651 170.242 730.47 170.678C732.325 171.115 734.034 171.333 735.598 171.333C738.544 171.333 740.599 170.824 741.763 169.806C742.963 168.787 743.564 167.35 743.564 165.495C743.564 164.404 743.291 163.495 742.745 162.768C742.2 162.004 741.236 161.44 739.854 161.076C738.508 160.676 736.617 160.476 734.18 160.476H731.233V154.147H734.234C736.635 154.147 738.453 153.929 739.69 153.493C740.963 153.02 741.818 152.402 742.254 151.638C742.727 150.838 742.963 149.928 742.963 148.91C742.963 147.528 742.527 146.455 741.654 145.691C740.817 144.891 739.399 144.491 737.398 144.491C735.544 144.491 733.925 144.818 732.543 145.473C731.197 146.091 730.051 146.709 729.106 147.328L725.287 141.654C726.814 140.563 728.597 139.653 730.633 138.926C732.707 138.198 735.162 137.835 737.999 137.835C742 137.835 745.164 138.653 747.492 140.29C749.856 141.89 751.038 144.163 751.038 147.11ZM764.692 137.835C767.747 137.835 770.057 138.908 771.621 141.054C773.221 143.163 774.021 146.146 774.021 150.001C774.021 153.856 773.276 156.875 771.784 159.058C770.293 161.204 767.929 162.277 764.692 162.277C761.709 162.277 759.436 161.204 757.872 159.058C756.308 156.875 755.526 153.856 755.526 150.001C755.526 146.146 756.254 143.163 757.708 141.054C759.163 138.908 761.491 137.835 764.692 137.835ZM792.353 138.38L770.748 177.334H764.364L785.969 138.38H792.353ZM764.746 143.4C763.073 143.4 762.237 145.618 762.237 150.056C762.237 154.529 763.073 156.766 764.746 156.766C766.456 156.766 767.311 154.529 767.311 150.056C767.311 145.618 766.456 143.4 764.746 143.4ZM791.971 153.384C795.026 153.384 797.336 154.457 798.9 156.603C800.5 158.712 801.3 161.695 801.3 165.55C801.3 169.405 800.554 172.424 799.063 174.607C797.572 176.753 795.208 177.825 791.971 177.825C788.988 177.825 786.715 176.753 785.151 174.607C783.587 172.424 782.805 169.405 782.805 165.55C782.805 161.695 783.532 158.712 784.987 156.603C786.442 154.457 788.77 153.384 791.971 153.384ZM792.025 158.949C790.352 158.949 789.516 161.167 789.516 165.605C789.516 170.078 790.352 172.315 792.025 172.315C793.735 172.315 794.589 170.078 794.589 165.605C794.589 161.167 793.735 158.949 792.025 158.949Z" fill="#37A3E2"/>
<path d="M12.6243 254.941C14.1979 261.449 20.7496 265.449 27.258 263.876C33.7663 262.302 37.7667 255.75 36.1931 249.242C34.6195 242.734 28.0677 238.733 21.5594 240.307C15.0511 241.881 11.0507 248.432 12.6243 254.941ZM399.984 161.283C401.558 167.792 408.109 171.792 414.618 170.218C421.126 168.645 425.126 162.093 423.553 155.585C421.979 149.076 415.427 145.076 408.919 146.65C402.411 148.223 398.41 154.775 399.984 161.283ZM24.4087 252.091L24.9429 254.301L412.303 160.643L411.768 158.434L411.234 156.224L23.8745 249.882L24.4087 252.091Z" fill="#37A3E2"/>
<path d="M837.049 22.9052C835.016 16.5254 828.196 13.0018 821.816 15.0349C815.437 17.068 811.913 23.8879 813.946 30.2677C815.979 36.6474 822.799 40.1711 829.179 38.138C835.559 36.1049 839.082 29.2849 837.049 22.9052ZM423.32 154.753C421.287 148.373 414.467 144.85 408.087 146.883C401.707 148.916 398.184 155.736 400.217 162.115C402.25 168.495 409.07 172.019 415.45 169.986C421.829 167.953 425.353 161.133 423.32 154.753ZM825.498 26.5864L824.807 24.4205L411.078 156.268L411.768 158.434L412.459 160.6L826.188 28.7523L825.498 26.5864Z" fill="#37A3E2"/>
</svg>
